<svg id="Слой_1" data-name="Слой 1" xmlns="http://www.w3.org/2000/svg" viewBox="0 0 414.17 414.17"><defs><style>.cls-1{fill:#aa5cff;}</style></defs><path class="cls-1" d="M504.92,268.83c-114.19,0-207.09,92.9-207.09,207.09S390.73,683,504.92,683,712,590.1,712,475.92,619.1,268.83,504.92,268.83Zm0,394.68c-103.44,0-187.6-84.15-187.6-187.59s84.16-187.6,187.6-187.6,187.59,84.16,187.59,187.6S608.35,663.51,504.92,663.51Z" transform="translate(-297.83 -268.83)"/><path class="cls-1" d="M540.43,611.2a22.08,22.08,0,0,1-21.65-26.61,2.44,2.44,0,0,0-1.12-2.57L457,544.84a2.4,2.4,0,0,0-1.27-.36,2.36,2.36,0,0,0-1.39.44,22.1,22.1,0,1,1-9.57-40,1.87,1.87,0,0,0,.34,0,2.45,2.45,0,0,0,2.08-1.17l17.5-28.57a2.44,2.44,0,0,0-.09-2.68,22,22,0,0,1-2.51-20.8,2.44,2.44,0,0,0-.73-2.78l-29-23.6a2.42,2.42,0,0,0-1.54-.55,2.19,2.19,0,0,0-.36,0,22.39,22.39,0,0,1-3.3.24A22.11,22.11,0,1,1,440,385a2.44,2.44,0,0,0,1.42.45,2.6,2.6,0,0,0,1-.2l29.94-13.13a2.45,2.45,0,0,0,1.35-2.94,21.83,21.83,0,0,1-1-6.39,22.14,22.14,0,1,1,9.92,18.43,2.47,2.47,0,0,0-1.36-.41,2.6,2.6,0,0,0-1,.2l-30.44,13.35a2.44,2.44,0,0,0-1.37,2.86,22.56,22.56,0,0,1,.76,5.76,22.13,22.13,0,0,1-5.13,14.15,2.43,2.43,0,0,0,.33,3.45l24.4,19.87a2.43,2.43,0,0,0,2.76.22,22.09,22.09,0,0,1,33.13,19.15,22.53,22.53,0,0,1-.26,3.41,2.43,2.43,0,0,0,1.13,2.46l60.45,37a2.42,2.42,0,0,0,1.27.36,2.5,2.5,0,0,0,1.53-.54,21.86,21.86,0,0,1,13.85-4.9,22.11,22.11,0,0,1,0,44.22,21.81,21.81,0,0,1-4.75-.52,2.39,2.39,0,0,0-.53-.06,2.43,2.43,0,0,0-2.08,1.17l-18.17,29.68a2.41,2.41,0,0,0,.21,2.83,22.11,22.11,0,0,1-17,36.29ZM475.82,480.91a2.43,2.43,0,0,0-2.08,1.17l-16.3,26.61a2.44,2.44,0,0,0,.3,2.94A22,22,0,0,1,462.87,533a2.45,2.45,0,0,0,1.07,2.77l59.57,36.48a2.42,2.42,0,0,0,2.82-.2,22.14,22.14,0,0,1,14.1-5.09,22.49,22.49,0,0,1,4.4.44,2.61,2.61,0,0,0,.48.05,2.44,2.44,0,0,0,2.08-1.16L565.7,536.4a2.46,2.46,0,0,0-.18-2.81,22,22,0,0,1-4.4-18.69,2.43,2.43,0,0,0-1.1-2.61L500.45,475.8a2.44,2.44,0,0,0-2.92.28,22.06,22.06,0,0,1-21,4.93A2.22,2.22,0,0,0,475.82,480.91Z" transform="translate(-297.83 -268.83)"/></svg>