<svg id="Слой_1" data-name="Слой 1" xmlns="http://www.w3.org/2000/svg" xmlns:xlink="http://www.w3.org/1999/xlink" viewBox="0 0 954.77 216.42"><defs><style>.cls-1{fill:none;}.cls-2{fill:url(#Безымянный_градиент_7);}.cls-3{fill:url(#Безымянный_градиент_7-2);}.cls-4{fill:url(#Безымянный_градиент_5);}.cls-5{fill:url(#Безымянный_градиент_10);}.cls-6{fill:#fff;}</style><linearGradient id="Безымянный_градиент_7" x1="486.72" y1="736.77" x2="624.13" y2="599.36" gradientUnits="userSpaceOnUse"><stop offset="0.01" stop-color="#35e0d1"/><stop offset="0.49" stop-color="#97ade2"/><stop offset="1" stop-color="#ee80f1"/></linearGradient><linearGradient id="Безымянный_градиент_7-2" x1="410.92" y1="668" x2="563.95" y2="514.97" xlink:href="#Безымянный_градиент_7"/><linearGradient id="Безымянный_градиент_5" x1="419.47" y1="584.81" x2="559.45" y2="584.81" gradientUnits="userSpaceOnUse"><stop offset="0.1" stop-color="#4057ff" stop-opacity="0.3"/><stop offset="0.5" stop-color="#aa5cff" stop-opacity="0.5"/><stop offset="1" stop-color="#ff3f68" stop-opacity="0.9"/></linearGradient><linearGradient id="Безымянный_градиент_10" x1="402.24" y1="725.04" x2="619.45" y2="507.83" gradientUnits="userSpaceOnUse"><stop offset="0.1" stop-color="#4057ff"/><stop offset="0.5" stop-color="#aa5cff"/><stop offset="1" stop-color="#ff3f68"/></linearGradient></defs><path class="cls-1" d="M559.45,537.84c-23.68,10.07-49.47,25.47-74.66,44.59-24.45,18.56-45.74,38.67-61.65,58.21a90.44,90.44,0,0,0,40,51.24c22.89-10.08,47.71-25,71.83-43.37,24.89-18.89,46.46-39.35,62.47-59.21a90.57,90.57,0,0,0-25-41.33A91.82,91.82,0,0,0,559.45,537.84Z" transform="translate(-381.23 -505.83)"/><path class="cls-1" d="M475.48,570.16C496.84,554,520.22,539.43,541.79,529a90.86,90.86,0,0,0-122.57,87.82c0,1.49.13,3,.25,4.51A399.15,399.15,0,0,1,475.48,570.16Z" transform="translate(-381.23 -505.83)"/><path class="cls-1" d="M609.79,572.28c12.19-18.92,16.36-34.15,11.1-41.08-2.62-3.45-8-5.27-15.65-5.27-7.13,0-16.19,1.64-26.33,4.74,1.84,1.52,3.66,3.08,5.36,4.69A106.61,106.61,0,0,1,609.79,572.28Z" transform="translate(-381.23 -505.83)"/><path class="cls-1" d="M410.84,657.31c-12.69,19.3-17.3,35.43-12,42.43s22.4,6.9,44.68-.32c-2.73-2.11-5.31-4.32-7.71-6.58A107.25,107.25,0,0,1,410.84,657.31Z" transform="translate(-381.23 -505.83)"/><path class="cls-1" d="M544.27,660.78a402.43,402.43,0,0,1-62.9,39.51,90.73,90.73,0,0,0,119.34-91.16A402.23,402.23,0,0,1,544.27,660.78Z" transform="translate(-381.23 -505.83)"/><path class="cls-2" d="M615.68,590.91c-.18.23-.33.46-.51.7-3.48,4.64-7.32,9.39-11.43,14.13-1,1.13-2,2.26-3,3.39a90.73,90.73,0,0,1-119.34,91.16c-1.36.68-2.73,1.39-4.08,2-5.67,2.71-11.26,5.17-16.62,7.29l-.8.31a108.12,108.12,0,0,0,155.81-119Z" transform="translate(-381.23 -505.83)"/><path class="cls-3" d="M463.12,691.88a90.44,90.44,0,0,1-40-51.24c-.09-.32-.21-.62-.31-.94a92.24,92.24,0,0,1-2.93-14.1c-.18-1.43-.32-2.87-.43-4.3s-.21-3-.25-4.51A90.92,90.92,0,0,1,541.79,529c1.35.51,2.71,1,4.05,1.61a92.21,92.21,0,0,1,12.78,6.7l.83.56A91.82,91.82,0,0,1,572.39,548a90.57,90.57,0,0,1,25,41.33l.64-.79c3.53-4.42,6.81-8.87,9.74-13.2.69-1,1.35-2,2-3a106.61,106.61,0,0,0-25.52-36.92c-1.7-1.61-3.52-3.17-5.36-4.69-.94-.77-1.86-1.55-2.82-2.29a106.56,106.56,0,0,0-12.29-8.17c-.26-.16-.53-.29-.8-.44A108.16,108.16,0,0,0,404.8,639.14c.07.3.12.6.19.9a107.82,107.82,0,0,0,4.43,14c.45,1.11.94,2.2,1.42,3.3a107.25,107.25,0,0,0,25,35.53c2.4,2.26,5,4.47,7.71,6.58l2-.66,1.4-.49c4.92-1.72,10-3.73,15.21-6Z" transform="translate(-381.23 -505.83)"/><path class="cls-4" d="M422.83,639.7c.1.32.22.62.31.94,15.91-19.54,37.2-39.65,61.65-58.21,25.19-19.12,51-34.52,74.66-44.59l-.83-.56a92.21,92.21,0,0,0-12.78-6.7c-1.34-.57-2.7-1.1-4.05-1.61-21.57,10.46-44.95,25-66.31,41.19a399.15,399.15,0,0,0-56,51.14c.11,1.43.25,2.87.43,4.3A92.24,92.24,0,0,0,422.83,639.7Z" transform="translate(-381.23 -505.83)"/><path class="cls-5" d="M633.16,521.89c-11.09-14.61-35.35-15.32-70.16-2.12.27.15.54.28.8.44a106.56,106.56,0,0,1,12.29,8.17c1,.74,1.88,1.52,2.82,2.29,10.14-3.1,19.2-4.74,26.33-4.74,7.62,0,13,1.82,15.65,5.27,5.26,6.93,1.09,22.16-11.1,41.08-.64,1-1.3,2-2,3-2.93,4.33-6.21,8.78-9.74,13.2l-.64.79c-16,19.86-37.58,40.32-62.47,59.21-24.12,18.32-48.94,33.29-71.83,43.37l-.92.41c-5.17,2.25-10.29,4.26-15.21,6l-1.4.49-2,.66c-22.28,7.22-39.31,7.39-44.68.32s-.71-23.13,12-42.43c-.48-1.1-1-2.19-1.42-3.3A107.82,107.82,0,0,1,405,640c-.07-.3-.12-.6-.19-.9-1.95,2.6-3.64,5-5.15,7.17-18.8,27.55-23.31,49.24-13.06,62.75,5.73,7.54,15.12,11.37,27.92,11.37,10,0,22.16-2.38,36-7.08,2.95-1,6-2.13,9.33-3.43l.8-.31c5.36-2.12,10.95-4.58,16.62-7.29,1.35-.64,2.72-1.35,4.08-2a418.82,418.82,0,0,0,119.34-91.16c1-1.13,2-2.26,3-3.39,4.11-4.74,8-9.49,11.43-14.13.18-.24.33-.47.51-.7C638.3,560.5,644.36,536.64,633.16,521.89Z" transform="translate(-381.23 -505.83)"/><path class="cls-6" d="M700.33,657.57a37.34,37.34,0,0,1-14.52-2.85,37.76,37.76,0,0,1-11.9-7.85,36.77,36.77,0,0,1-8-11.71,35.86,35.86,0,0,1-2.94-14.45.85.85,0,0,1,0-.23.91.91,0,0,1,0-.23,36.46,36.46,0,0,1,2.94-14.53,37,37,0,0,1,8-11.82A38,38,0,0,1,685.8,586a36.91,36.91,0,0,1,14.53-2.89,40,40,0,0,1,13.94,2.45,30.27,30.27,0,0,1,11.39,7.35,8.58,8.58,0,0,1,2.72,5.92,6.83,6.83,0,0,1-2.48,5.58,8.4,8.4,0,0,1-3.47,1.93,7.44,7.44,0,0,1-1.73.21,6.83,6.83,0,0,1-1.5-.17,8.35,8.35,0,0,1-2.81-1.21,23.75,23.75,0,0,1-2.22-1.66,21.55,21.55,0,0,0-7.1-4.14,22.13,22.13,0,0,0-7-1.1h-.87a19.66,19.66,0,0,0-8.25,1.91,22.49,22.49,0,0,0-6.72,4.91,23.68,23.68,0,0,0-4.55,7,20.28,20.28,0,0,0-1.67,8,1.21,1.21,0,0,1,0,.19,1.15,1.15,0,0,1,0,.19,20.46,20.46,0,0,0,1.63,8,23.89,23.89,0,0,0,4.52,7,23,23,0,0,0,6.72,5,19.5,19.5,0,0,0,8.3,1.94h.46a21.25,21.25,0,0,0,14.51-5.46c.71-.55,1.45-1.07,2.22-1.59a8.56,8.56,0,0,1,2.81-1.21,6.83,6.83,0,0,1,1.5-.17,7.44,7.44,0,0,1,1.73.21,8.4,8.4,0,0,1,3.47,1.93,7,7,0,0,1,2.44,5.53,8.37,8.37,0,0,1-2.69,5.91,31.38,31.38,0,0,1-11.4,7.44A38.49,38.49,0,0,1,700.33,657.57Z" transform="translate(-381.23 -505.83)"/><path class="cls-6" d="M772.31,657.57a36.34,36.34,0,0,1-14.45-2.93A37.6,37.6,0,0,1,738,634.82a37.39,37.39,0,0,1,0-29A37.68,37.68,0,0,1,746,594a38.43,38.43,0,0,1,11.86-8,37.2,37.2,0,0,1,28.94,0,37.31,37.31,0,0,1,19.74,19.78,37.28,37.28,0,0,1,0,29,38.26,38.26,0,0,1-7.95,11.81,37.65,37.65,0,0,1-11.79,8A36.25,36.25,0,0,1,772.31,657.57Zm0-59.31a21.59,21.59,0,0,0-8.59,1.74,23.06,23.06,0,0,0-7.06,4.72,22.45,22.45,0,0,0-4.75,7,21.93,21.93,0,0,0,0,17.12,23,23,0,0,0,4.72,7,22.56,22.56,0,0,0,7,4.79,21.37,21.37,0,0,0,8.63,1.78,21.13,21.13,0,0,0,8.62-1.77,22.8,22.8,0,0,0,7-4.8,22.41,22.41,0,0,0,4.69-7,22.4,22.4,0,0,0,0-17.12,22,22,0,0,0-4.68-7,22.81,22.81,0,0,0-7-4.72A21.46,21.46,0,0,0,772.31,598.26Z" transform="translate(-381.23 -505.83)"/><path class="cls-6" d="M842.85,657.57a45.24,45.24,0,0,1-7.77-.7,32.51,32.51,0,0,1-7.6-2.32,28.68,28.68,0,0,1-6.65-4.13,19.36,19.36,0,0,1-4.93-6.17,8.18,8.18,0,0,1-1-5.92,6.61,6.61,0,0,1,2.83-4.06,6.93,6.93,0,0,1,3.76-1,9.54,9.54,0,0,1,1.29.09,10.52,10.52,0,0,1,5.64,2.87,1.46,1.46,0,0,1,.16.19,14.43,14.43,0,0,0,5.64,4.67,19.08,19.08,0,0,0,8.55,1.86,16,16,0,0,0,4.28-.57,12.31,12.31,0,0,0,3.62-1.61,8.28,8.28,0,0,0,2.4-2.39,5.4,5.4,0,0,0,.83-3,4.22,4.22,0,0,0-1.41-3,16.53,16.53,0,0,0-4-2.85,42.59,42.59,0,0,0-5.52-2.33c-2-.7-4-1.34-5.71-1.89q-3.47-1.34-7-2.93a30.69,30.69,0,0,1-6.56-4.05,19.89,19.89,0,0,1-4.88-5.84,16.73,16.73,0,0,1-1.91-8.2,19.29,19.29,0,0,1,2.05-9,20.18,20.18,0,0,1,5.51-6.63,24.86,24.86,0,0,1,8.08-4.12,33.27,33.27,0,0,1,9.83-1.41,42.79,42.79,0,0,1,6.73.54,31.1,31.1,0,0,1,6.48,1.77,23,23,0,0,1,5.56,3.14,14.65,14.65,0,0,1,4,4.73,8,8,0,0,1,.75,4.49,6.58,6.58,0,0,1-1.67,3.67,7.64,7.64,0,0,1-3.41,2.1,5.51,5.51,0,0,1-1.65.25,5.88,5.88,0,0,1-2.58-.61,1.14,1.14,0,0,1-.23-.15,24.2,24.2,0,0,0-6-4,17.15,17.15,0,0,0-7-1.28,25.53,25.53,0,0,0-4.71.4,11.18,11.18,0,0,0-3.54,1.25,6.62,6.62,0,0,0-2.25,2.07,5.22,5.22,0,0,0-.78,2.93,4.14,4.14,0,0,0,.84,2.67,8.26,8.26,0,0,0,2.58,2.05,23.74,23.74,0,0,0,4.15,1.71c1.67.54,3.46,1.1,5.39,1.71,3.09,1,6.11,2.06,9,3.26a33.16,33.16,0,0,1,7.68,4.43,20.49,20.49,0,0,1,5.35,6.31,18.2,18.2,0,0,1,2,8.77,19.68,19.68,0,0,1-2,8.84,21.85,21.85,0,0,1-5.57,7.08,26.67,26.67,0,0,1-8.33,4.67A30.89,30.89,0,0,1,842.85,657.57Z" transform="translate(-381.23 -505.83)"/><path class="cls-6" d="M969.13,656.66a8,8,0,0,1-3-.57,7.83,7.83,0,0,1-2.44-1.58,7.54,7.54,0,0,1-1.67-2.37,7.17,7.17,0,0,1-.62-3V610.3a13.1,13.1,0,0,0-1.19-4.8,11.61,11.61,0,0,0-2.83-3.81,14.11,14.11,0,0,0-4.14-2.51,13.25,13.25,0,0,0-4.87-.92,12.66,12.66,0,0,0-5,1,13.53,13.53,0,0,0-4.14,2.65,12.68,12.68,0,0,0-2.81,3.9,12,12,0,0,0-1.12,4.76v38.62a7.24,7.24,0,0,1-2.16,5.32,7.16,7.16,0,0,1-5.24,2.16,7.92,7.92,0,0,1-3-.57,7.76,7.76,0,0,1-2.45-1.58,8.1,8.1,0,0,1-1.69-2.34,6.75,6.75,0,0,1-.67-3V610.23a12.86,12.86,0,0,0-1.2-4.77,12,12,0,0,0-2.79-3.78,13.6,13.6,0,0,0-4.07-2.5,13.21,13.21,0,0,0-9.86.07,14.44,14.44,0,0,0-4.18,2.65,12.52,12.52,0,0,0-2.84,3.9,11.11,11.11,0,0,0-1,4.73v38.65a7.27,7.27,0,0,1-2.15,5.32,7.2,7.2,0,0,1-5.24,2.16,7.8,7.8,0,0,1-5.42-2.15,7.46,7.46,0,0,1-1.66-2.37,7.17,7.17,0,0,1-.62-3V610.53a25.86,25.86,0,0,1,2.25-10.7,27.64,27.64,0,0,1,6.11-8.71,29.51,29.51,0,0,1,8.88-5.86,27.81,27.81,0,0,1,22.68.51,29.79,29.79,0,0,1,8.71,6.32,30.57,30.57,0,0,1,8.82-6.32,28.15,28.15,0,0,1,22.63-.59A28.29,28.29,0,0,1,974,599.35a26.73,26.73,0,0,1,2.52,10.29,4,4,0,0,1,.08.89v38.65a7.18,7.18,0,0,1-2.2,5.32A7.3,7.3,0,0,1,969.13,656.66Z" transform="translate(-381.23 -505.83)"/><path class="cls-6" d="M1022.51,657.57a36.38,36.38,0,0,1-14.45-2.93,37.6,37.6,0,0,1-19.86-19.82,37.39,37.39,0,0,1,0-29,37.6,37.6,0,0,1,8-11.83,38.26,38.26,0,0,1,11.85-8,37.2,37.2,0,0,1,28.94,0,37.28,37.28,0,0,1,19.75,19.78,36.55,36.55,0,0,1,2.93,14.53,36.13,36.13,0,0,1-2.94,14.49,38.26,38.26,0,0,1-8,11.81,37.65,37.65,0,0,1-11.79,8A36.25,36.25,0,0,1,1022.51,657.57Zm0-59.31a21.59,21.59,0,0,0-8.59,1.74,23,23,0,0,0-7,4.72,22.31,22.31,0,0,0-4.76,7,21.93,21.93,0,0,0,0,17.12,23,23,0,0,0,4.72,7,22.49,22.49,0,0,0,7.06,4.79,21.29,21.29,0,0,0,8.62,1.78,21.07,21.07,0,0,0,8.62-1.77,22.8,22.8,0,0,0,7-4.8,22.41,22.41,0,0,0,4.69-7,22.4,22.4,0,0,0,0-17.12,22,22,0,0,0-4.68-7,22.81,22.81,0,0,0-7-4.72A21.46,21.46,0,0,0,1022.51,598.26Z" transform="translate(-381.23 -505.83)"/><path class="cls-6" d="M1158.28,656.66a7.92,7.92,0,0,1-3-.57,7.76,7.76,0,0,1-2.45-1.58,7.54,7.54,0,0,1-1.67-2.37,7.17,7.17,0,0,1-.62-3V610.3a12.9,12.9,0,0,0-1.19-4.8,11.61,11.61,0,0,0-2.83-3.81,14.11,14.11,0,0,0-4.14-2.51,13.21,13.21,0,0,0-4.87-.92,12.66,12.66,0,0,0-5,1,13.65,13.65,0,0,0-4.14,2.65,12.68,12.68,0,0,0-2.81,3.9,12.12,12.12,0,0,0-1.12,4.76v38.62a7.24,7.24,0,0,1-2.16,5.32,7.16,7.16,0,0,1-5.24,2.16,8,8,0,0,1-3-.57,7.87,7.87,0,0,1-2.45-1.58,8.1,8.1,0,0,1-1.69-2.34,6.75,6.75,0,0,1-.67-3V610.23a13,13,0,0,0-1.19-4.77,12.13,12.13,0,0,0-2.8-3.78,13.6,13.6,0,0,0-4.07-2.5,13.21,13.21,0,0,0-9.86.07,14.44,14.44,0,0,0-4.18,2.65,12.52,12.52,0,0,0-2.84,3.9,11.11,11.11,0,0,0-1,4.73v38.65a7.28,7.28,0,0,1-2.16,5.32,7.18,7.18,0,0,1-5.24,2.16,8,8,0,0,1-3-.57,7.83,7.83,0,0,1-2.44-1.58,7.33,7.33,0,0,1-1.67-2.37,7.17,7.17,0,0,1-.62-3V610.53a26,26,0,0,1,2.25-10.7,27.8,27.8,0,0,1,6.11-8.71,29.63,29.63,0,0,1,8.88-5.86,27.81,27.81,0,0,1,22.68.51,29.66,29.66,0,0,1,8.71,6.32,30.57,30.57,0,0,1,8.82-6.32,28.15,28.15,0,0,1,22.63-.59,28.29,28.29,0,0,1,14.8,14.17,26.73,26.73,0,0,1,2.52,10.29,3.94,3.94,0,0,1,.09.89v38.65a7.19,7.19,0,0,1-2.21,5.32A7.28,7.28,0,0,1,1158.28,656.66Z" transform="translate(-381.23 -505.83)"/><path class="cls-6" d="M1211.66,657.57a36.38,36.38,0,0,1-14.45-2.93,37.54,37.54,0,0,1-19.85-19.82,37.28,37.28,0,0,1,0-29,37.4,37.4,0,0,1,8-11.83,38.26,38.26,0,0,1,11.85-8,37.16,37.16,0,0,1,28.83,0,37.49,37.49,0,0,1,19.74,19.58,36.26,36.26,0,0,1,3,14.38v28.94a7.6,7.6,0,0,1-2.23,5.5,7.5,7.5,0,0,1-5.55,2.28,6.89,6.89,0,0,1-5.35-2.32,7.73,7.73,0,0,1-2-4.94,41.55,41.55,0,0,1-9.18,5.54A31.87,31.87,0,0,1,1211.66,657.57Zm0-59.31a21.59,21.59,0,0,0-8.59,1.74,22.87,22.87,0,0,0-7,4.73,22.15,22.15,0,0,0-4.76,7,21.93,21.93,0,0,0,0,17.12,22.87,22.87,0,0,0,4.73,7,22.33,22.33,0,0,0,7,4.79,21.32,21.32,0,0,0,8.62,1.78,21.07,21.07,0,0,0,8.62-1.77,23,23,0,0,0,7-4.8,22.56,22.56,0,0,0,4.68-7,22.4,22.4,0,0,0,0-17.12,22,22,0,0,0-4.68-7,22.81,22.81,0,0,0-7-4.72A21.46,21.46,0,0,0,1211.66,598.26Z" transform="translate(-381.23 -505.83)"/><path class="cls-6" d="M1269.3,682.4a7.38,7.38,0,0,1-3-.62,7.82,7.82,0,0,1-2.44-1.66,7.61,7.61,0,0,1-1.66-2.48,7.83,7.83,0,0,1-.61-3.1V620.33a36.38,36.38,0,0,1,2.93-14.53,37.51,37.51,0,0,1,8-11.83,38.19,38.19,0,0,1,11.86-8,37.2,37.2,0,0,1,28.94,0,37.31,37.31,0,0,1,19.74,19.78,37.39,37.39,0,0,1,0,29,38.29,38.29,0,0,1-8,11.81,37.72,37.72,0,0,1-11.78,8,37.24,37.24,0,0,1-27.39.62,39.45,39.45,0,0,1-9.24-5v24.33a8.1,8.1,0,0,1-2,5.54A6.87,6.87,0,0,1,1269.3,682.4Zm29.54-84.14a21.6,21.6,0,0,0-8.6,1.74,22.87,22.87,0,0,0-7,4.73,22.15,22.15,0,0,0-4.76,7,22,22,0,0,0,0,17.12,22.87,22.87,0,0,0,4.73,7,22.45,22.45,0,0,0,7,4.79,21.84,21.84,0,0,0,17.25,0,23,23,0,0,0,7-4.8,22.38,22.38,0,0,0,4.68-7,22.28,22.28,0,0,0,0-17.12,22,22,0,0,0-4.68-7,22.59,22.59,0,0,0-7-4.72A21.53,21.53,0,0,0,1298.84,598.26Z" transform="translate(-381.23 -505.83)"/></svg>