<svg id="Слой_1" data-name="Слой 1" xmlns="http://www.w3.org/2000/svg" viewBox="0 0 190.17 190.17"><defs><style>.cls-1{fill:#35e0d1;}</style></defs><path class="cls-1" d="M592.92,497.83A95.09,95.09,0,1,0,688,592.92,95.2,95.2,0,0,0,592.92,497.83Zm0,181.22a86.14,86.14,0,1,1,86.13-86.13A86.23,86.23,0,0,1,592.92,679.05Z" transform="translate(-497.83 -497.83)"/><path class="cls-1" d="M634.27,589.89a9.07,9.07,0,0,0-6.79,1.88l-22.06,17.11a12.26,12.26,0,0,1-7.55,2.61h-5.31A21.58,21.58,0,0,0,599.11,596a3.1,3.1,0,0,0-3.1-3.1H562v-3.1a3.1,3.1,0,0,0-3.1-3.1H546.48a3.1,3.1,0,0,0-3.1,3.1v43.34a3.1,3.1,0,0,0,3.1,3.1h12.38a3.1,3.1,0,0,0,3.1-3.1v-3.09h41.23a15.58,15.58,0,0,0,9.45-3.25l26.19-20.37a9.26,9.26,0,0,0,3.55-6.22,9.1,9.1,0,0,0-1.88-6.8A9.27,9.27,0,0,0,634.27,589.89Zm-78.51,40.18h-6.19V592.92h6.19ZM635,601.56l-26.18,20.36a9.39,9.39,0,0,1-5.67,2H562V599.11h30.65a15.51,15.51,0,0,1-15.17,12.38,3.1,3.1,0,1,0,0,6.19h20.43a18.45,18.45,0,0,0,11.37-3.93l22.07-17.1a3.09,3.09,0,0,1,2.2-.62,3.16,3.16,0,0,1,2.11,1.21,3,3,0,0,1,.62,2.22A3.15,3.15,0,0,1,635,601.56Z" transform="translate(-497.83 -497.83)"/><path class="cls-1" d="M627,586.72a3.09,3.09,0,0,0,3.1-3.09v-31a3.1,3.1,0,0,0-3.1-3.1H558.86a3.1,3.1,0,0,0-3.1,3.1v24.77a3.1,3.1,0,0,0,6.2,0V555.76h18.57v15.48a3.1,3.1,0,0,0,4.82,2.58l7.57-5.05,7.57,5.05a3.07,3.07,0,0,0,3.17.15,3.08,3.08,0,0,0,1.64-2.73V555.76h18.57v27.87A3.09,3.09,0,0,0,627,586.72Zm-27.86-21.26-4.48-3a3.12,3.12,0,0,0-3.44,0l-4.47,3v-9.7h12.39Z" transform="translate(-497.83 -497.83)"/></svg>