<svg id="Слой_1" data-name="Слой 1" xmlns="http://www.w3.org/2000/svg" xmlns:xlink="http://www.w3.org/1999/xlink" viewBox="0 0 1920 2034.51"><defs><style>.cls-1,.cls-8{fill:#fff;}.cls-2{fill:#212121;}.cls-3,.cls-8{opacity:0.1;}.cls-4{fill:url(#Безымянный_градиент);}.cls-5{fill:url(#Безымянный_градиент_2);}.cls-6{fill:url(#Безымянный_градиент_3);}.cls-7{fill:url(#Безымянный_градиент_4);}.cls-8{isolation:isolate;}</style><linearGradient id="Безымянный_градиент" x1="1163.24" y1="-1345.14" x2="1168.27" y2="-1345.14" gradientTransform="translate(420 1657.74)" gradientUnits="userSpaceOnUse"><stop offset="0" stop-color="#fff"/><stop offset="1" stop-color="#fbe9f5"/></linearGradient><linearGradient id="Безымянный_градиент_2" x1="3023.52" y1="-9567.64" x2="3028.56" y2="-9567.64" gradientTransform="translate(10186.24 3309.06) rotate(-90)" xlink:href="#Безымянный_градиент"/><linearGradient id="Безымянный_градиент_3" x1="-312.3" y1="-1404.14" x2="-308.77" y2="-1404.14" xlink:href="#Безымянный_градиент"/><linearGradient id="Безымянный_градиент_4" x1="3240.63" y1="-8048.1" x2="3245.66" y2="-8048.1" gradientTransform="matrix(-0.37, -0.93, -0.93, 0.37, -5961.49, 6430.61)" xlink:href="#Безымянный_градиент"/></defs><g id="Слой_1-2" data-name="Слой 1"><rect class="cls-1" y="854.7" width="1920" height="1179.81"/><path class="cls-2" d="M0,0V905.2H0v675.86s281.6-23.23,396.8-305.75S803.2,1018,974.4,1027.48s760,176.26,945.6-122.28h0V0Z"/><g class="cls-3"><path class="cls-4" d="M1588.3,312.6a2.48,2.48,0,0,1-2.5,2.5h0a2.48,2.48,0,0,1-2.5-2.5h0a2.48,2.48,0,0,1,2.5-2.5h0a2.54,2.54,0,0,1,2.5,2.5Z"/><path class="cls-1" d="M1450.2,501.2a5,5,0,1,1-5-5A5,5,0,0,1,1450.2,501.2Z"/><path class="cls-1" d="M1200.3,714.9a5,5,0,1,1-5-5A5,5,0,0,1,1200.3,714.9Z"/><path class="cls-1" d="M1882.4,648.3a8.3,8.3,0,1,1-8.3-8.3A8.28,8.28,0,0,1,1882.4,648.3Z"/><path class="cls-1" d="M1332.3,77.4a3,3,0,1,1-3-3A2.95,2.95,0,0,1,1332.3,77.4Z"/><path class="cls-5" d="M618.6,280.5a2.48,2.48,0,0,1,2.5,2.5h0a2.48,2.48,0,0,1-2.5,2.5h0a2.48,2.48,0,0,1-2.5-2.5h0a2.48,2.48,0,0,1,2.5-2.5Z"/><path class="cls-1" d="M746.5,342.7a2.05,2.05,0,0,1,2.1,2.1h0a2.05,2.05,0,0,1-2.1,2.1h0a2.05,2.05,0,0,1-2.1-2.1A2.11,2.11,0,0,1,746.5,342.7Z"/><path class="cls-1" d="M453.7,136.5a8.3,8.3,0,1,1-8.3,8.3A8.28,8.28,0,0,1,453.7,136.5Z"/><path class="cls-1" d="M541.2,102.4a3,3,0,1,1-3,3A2.95,2.95,0,0,1,541.2,102.4Z"/><path class="cls-1" d="M1445,783.7a5,5,0,1,1-5-5A5,5,0,0,1,1445,783.7Z"/><path class="cls-1" d="M110.9,1107.4a5,5,0,1,1,5,5A5,5,0,0,1,110.9,1107.4Z"/><path class="cls-1" d="M114.3,719.5a5,5,0,1,1,5,5A5,5,0,0,1,114.3,719.5Z"/><path class="cls-6" d="M111.2,253.6a1.77,1.77,0,0,1-1.7,1.8h0a1.8,1.8,0,0,1,0-3.6h0a1.77,1.77,0,0,1,1.7,1.8Z"/><path class="cls-1" d="M157,159.7a2.1,2.1,0,1,1-2.1-2.1,2.11,2.11,0,0,1,2.1,2.1Z"/><path class="cls-1" d="M306,961.6a5,5,0,1,1-5,5A5,5,0,0,1,306,961.6Z"/><path class="cls-1" d="M513.6,481.3a5,5,0,1,1-.2-7A5.11,5.11,0,0,1,513.6,481.3Z"/><path class="cls-1" d="M1036,326.6a8.34,8.34,0,0,1-11.7.4h0a8.34,8.34,0,0,1-.4-11.7h0a8.24,8.24,0,0,1,11.7-.3h0a8.12,8.12,0,0,1,.4,11.6Z"/><path class="cls-1" d="M933.3,781.8a5,5,0,1,1-.2-7.1h0A5,5,0,0,1,933.3,781.8Z"/><path class="cls-1" d="M1030.5,117.1a5,5,0,1,1,2,6.8A5.09,5.09,0,0,1,1030.5,117.1Z"/><path class="cls-1" d="M1745.5,503.9a5,5,0,1,1,2.1,6.8h-.1A5.09,5.09,0,0,1,1745.5,503.9Z"/><path class="cls-1" d="M1750.3,117.4a5,5,0,0,1,6.8-2,5,5,0,0,1,2,6.7,5,5,0,0,1-6.8,2A5,5,0,0,1,1750.3,117.4Z"/><path class="cls-7" d="M313.2,411.5a2.47,2.47,0,0,0-1.4,3.2h0a2.54,2.54,0,0,0,3.3,1.4h0a2.54,2.54,0,0,0,1.4-3.3h0a2.5,2.5,0,0,0-3.3-1.3Z"/><path class="cls-1" d="M311.8,540.8a2.07,2.07,0,0,0-1.2,2.7h0a2.07,2.07,0,0,0,2.7,1.2h0a2.07,2.07,0,0,0,1.2-2.7h0a2.1,2.1,0,0,0-2.7-1.2Z"/><path class="cls-1" d="M96.4,495.6a4.9,4.9,0,0,0,6.6-2.4,5,5,0,1,0-9-4.2A4.9,4.9,0,0,0,96.4,495.6Z"/><path class="cls-1" d="M788.3,624.3a5,5,0,1,0-2.4-6.6h0A4.9,4.9,0,0,0,788.3,624.3Z"/></g><path class="cls-8" d="M1306.3,280.6a.37.37,0,0,1-.3-.1l-8.5-3.4h-.1c-8.4-4.6-10.7-17.8-7.5-26.8,1.5-4.8,4.9-8.6,8.2-12.2,1.2-1.3,2.4-2.7,3.5-4.1h0a75.6,75.6,0,0,0,7.9-11.5c1.1-1.8,2.1-3.6,3.3-5.4a.71.71,0,0,1,.6-.3.62.62,0,0,1,.6.4c6.5,11.3,10.3,24.1,10.3,34.1a38.79,38.79,0,0,1-4.5,17.4c-2.4,4.4-6.6,10-13.4,11.9Zm-8.2-4.8,8.3,3.3c6.1-1.8,10-7,12.2-11.1a36.57,36.57,0,0,0,4.4-16.8c0-9.5-3.6-21.5-9.6-32.4-.9,1.5-1.8,3-2.6,4.4a78,78,0,0,1-8,11.7c-1.1,1.4-2.4,2.8-3.6,4.1-3.2,3.5-6.4,7.1-7.9,11.6h0a26,26,0,0,0-.6,14.1C1291.9,270,1294.5,273.9,1298.1,275.8Z"/><path class="cls-8" d="M1332.9,285.3h-.2l-7.8-2.7c-.1,0-.2-.1-.3-.2-3.6-4.4-5.2-9.1-4.7-13.9,1.2-11.7,13.9-21.9,24.2-30.2,2.7-2.2,5.2-4.2,7.2-6a.75.75,0,0,1,.8-.1.62.62,0,0,1,.4.6c0,7.6-.3,19-2.9,29.4-3,12.3-8.5,20-16.3,23.1C1333,285.4,1332.9,285.4,1332.9,285.3Zm-7.5-4,7.4,2.6c11.9-4.9,17.8-21,18-49.4-1.8,1.5-3.9,3.2-6,5-10.1,8.1-22.6,18.2-23.7,29.2C1320.7,273.1,1322.1,277.2,1325.4,281.3Z"/><path class="cls-8" d="M1344.4,296.3c-.2,0-.3-.1-.5-.2l-2.7-2.3-.1-.1c-2.9-4.1-1.9-9.4-.6-13.2a34,34,0,0,1,7.1-11.6c5.2-5.1,11.7-7.5,18-9.8,4.7-1.7,9.6-3.4,13.8-6.3a.64.64,0,0,1,.9.1.74.74,0,0,1,.1.9c-1.3,2.2-1.9,5.5-2.4,8.7a39.53,39.53,0,0,1-1.6,6.8,48.2,48.2,0,0,1-7.2,14.1c-6.8,9.2-13.3,12.5-24.8,12.9Zm-2.1-3.6,2.4,2.1c10.8-.4,16.9-3.6,23.4-12.3a47.28,47.28,0,0,0,7-13.8h0a37.12,37.12,0,0,0,1.5-6.6,38.54,38.54,0,0,1,1.6-6.9,71.3,71.3,0,0,1-12,5.2c-6.2,2.2-12.6,4.5-17.5,9.4a32.2,32.2,0,0,0-6.8,11C1340.7,284.3,1339.8,289.1,1342.3,292.7Z"/><path class="cls-8" d="M1276.7,283.3c-8.5,0-12.8-12.7-14.1-20.4-1.2-8.7-.7-17.9-.2-26.7.2-3.4.4-6.9.5-10.2a.86.86,0,0,1,.3-.6.66.66,0,0,1,.6-.1c7.7,2.7,19.1,12.4,24.2,19.3,5.3,7.5,5.2,16.1,4.5,25a.76.76,0,0,1-.2.5l-14.7,13a.76.76,0,0,1-.4.2ZM1264.3,227c-.1,3-.3,6.2-.5,9.2-.5,8.8-1.1,17.9.2,26.4,1.1,6.7,5.1,19.2,12.7,19.2h.3l14.3-12.6c.6-8.5.7-16.8-4.3-23.8-4.8-6.4-15.2-15.4-22.7-18.4Z"/><path class="cls-8" d="M1256.4,300h-.4c-6.6-.4-14.3-10.5-16.1-14.7-3.9-8.9-7.2-20.9-9.9-36.6a1,1,0,0,1,.2-.7.62.62,0,0,1,.7-.1l3.7,1.2c15.4,5.1,32.8,10.9,36.7,29.3a.9.9,0,0,1-.1.5l-8.9,17.4h0C1260.8,298.7,1258.8,300,1256.4,300Zm-24.8-50.4c2.7,15,5.9,26.5,9.6,35.1,1.7,3.8,9,13.5,14.9,13.8,2,.1,3.6-.9,4.9-3l8.7-17.1c-3.8-17.4-20.7-23-35.7-28Z"/><path class="cls-8" d="M1357.2,315.2a13.28,13.28,0,0,1-8.6-2.6,8.49,8.49,0,0,1-2.9-4.3v-.2c1.1-8.9,5.9-15.4,13.4-18.3,5.9-2.1,12-1.5,17.8-.8,5.5.6,11.2,1.2,16.6-.6h.5a.68.68,0,0,1,.7.7h0a.68.68,0,0,1-.7.7c-2.5,2.5-4.9,5.1-7.2,7.7-6.9,7.8-13.5,15.1-24.4,17.2A27,27,0,0,1,1357.2,315.2Zm-10-7.1c.3,1,2.5,7.5,15.2,5.1,10.4-2,16.8-9.1,23.6-16.8,1.8-2,3.6-4,5.5-6-4.8,1-9.8.5-14.6-.1-5.7-.6-11.6-1.3-17.2.7-6.9,2.8-11.4,8.8-12.5,17.1Z"/><path class="cls-8" d="M1360.7,335.1c-4.9,0-10-1-13.9-4.3a.55.55,0,0,1-.3-.5v-7a9.14,9.14,0,0,1,1.5-8.6c3.2-4.3,9.9-7.4,15.3-7.2,10.3.7,29.8,3,40.2,4.6a.66.66,0,0,1,.5.4.85.85,0,0,1,0,.7c-5.1,9-21,18.6-35.5,21.3A51.23,51.23,0,0,1,1360.7,335.1Zm-12.8-5.1c5.7,4.5,14.1,4.1,20.3,3,13.7-2.5,28.6-11.2,34-19.7-10.5-1.6-29-3.8-39-4.4-4.9-.2-11.2,2.7-14,6.6a7.65,7.65,0,0,0-1.3,7.4V330Z"/><path class="cls-8" d="M1225.5,349.3a79.8,79.8,0,0,1-29.3-6.3.66.66,0,0,1-.4-.5.84.84,0,0,1,.2-.7c1.7-1.4,3.3-2.7,5-4a61.24,61.24,0,0,0,10.4-9.3h0c1.2-1.3,2.4-2.7,3.6-4,3.2-3.7,6.4-7.5,11.1-9.6,8.5-4.3,21.9-3.7,27.5,4.1v.1l4.5,8a.75.75,0,0,1,.1.5c-1,6.9-6,11.8-10.1,14.7a39.16,39.16,0,0,1-16.8,6.7C1229.4,349.1,1227.4,349.3,1225.5,349.3Zm-27.6-7.2c11.5,4.6,23.9,6.6,33.3,5.4a37.82,37.82,0,0,0,16.1-6.5c3.8-2.7,8.5-7.2,9.4-13.5l-4.3-7.8c-2.4-3.3-6.6-5.4-11.8-6a25.55,25.55,0,0,0-13.9,2.4h0c-4.3,2-7.5,5.7-10.6,9.3-1.2,1.4-2.4,2.8-3.6,4.1a72.75,72.75,0,0,1-10.6,9.4C1200.6,340,1199.2,341,1197.9,342.1Z"/><path class="cls-8" d="M1216.5,379a.55.55,0,0,1-.6-.4.6.6,0,0,1,0-.8c1.5-2.2,3.2-4.9,5-7.9,6.9-11.2,15.5-25.2,26.9-27.8,4.7-1.1,9.5-.1,14.3,3l.3.3,3.7,7.4a.45.45,0,0,1,0,.5c-2,8.1-9.1,14.5-20.8,19.1-10,3.9-21.2,5.6-28.8,6.6Zm35.2-35.9a13.93,13.93,0,0,0-3.5.4c-10.8,2.5-19.2,16.2-26,27.2-1.5,2.4-2.9,4.7-4.2,6.6,28.1-3.8,43.4-11.7,46.8-24.1l-3.5-7a18.52,18.52,0,0,0-9.6-3.1Z"/><path class="cls-8" d="M1240.4,404.5c-.2,0-.3-.1-.5-.2a.76.76,0,0,1-.2-.9c2.3-4.5,3.5-9.6,4.5-14.5,1.5-6.6,3-13.4,7.4-19.1a33.74,33.74,0,0,1,10.6-8.5c3.6-1.8,8.8-3.4,13.2-1.1a.1.1,0,0,1,.1.1l2.7,2.4a.76.76,0,0,1,.2.5c1.1,11.4-1.4,18.3-9.7,26.2a50.93,50.93,0,0,1-13.1,9,47.31,47.31,0,0,1-6.6,2.5c-3.1,1-6.3,1.9-8.3,3.5A1,1,0,0,1,1240.4,404.5Zm30.2-44a17.4,17.4,0,0,0-7.7,2.1,31.72,31.72,0,0,0-10.1,8.1c-4.3,5.5-5.7,12.1-7.2,18.5a62.66,62.66,0,0,1-3.7,12.6,41.23,41.23,0,0,1,6.7-2.4,34.13,34.13,0,0,0,6.3-2.4h.1a48.66,48.66,0,0,0,12.8-8.8c7.8-7.4,10.2-13.9,9.3-24.7l-2.4-2.2A11.5,11.5,0,0,0,1270.6,360.5Z"/><path class="cls-8" d="M1243.9,317.2c-8.9,0-16-4.1-21.5-7.3a35.84,35.84,0,0,0-3.2-1.8c-1.2-.7-2.5-1.3-3.8-2-6.7-3.5-14.2-7.5-17.4-13.8a.64.64,0,0,1,0-.6,1,1,0,0,1,.5-.4c3.3-.5,6.7-1.2,10.1-1.8,8.8-1.6,17.8-3.3,26.5-3.2,8,.2,21.6,3,22.1,12v.2l-2.8,16.5a.63.63,0,0,1-.5.6A33.74,33.74,0,0,1,1243.9,317.2Zm-44.1-24.8c3.2,5.5,10.1,9.1,16.3,12.3,1.3.7,2.6,1.4,3.8,2,1,.6,2.1,1.2,3.2,1.8,7.2,4.2,17,9.9,30,5.7l2.7-16c-.5-7.9-13.7-10.4-20.7-10.6-8.6-.1-17.5,1.5-26.2,3.2C1205.9,291.4,1202.8,292,1199.8,292.4Z"/><path class="cls-8" d="M1277.7,414.1a.67.67,0,0,1-.7-.6v-.3h0v-.1h0c1.1-5.6-.2-11.2-1.5-16.5-1.4-5.9-2.8-11.8-1.5-18,2-7.8,7.8-13.4,16.5-15.6h.2a8.37,8.37,0,0,1,4.7,2.3c2.9,2.8,4.2,7.3,3.8,13.6-.7,11-7.2,18.5-14,26.3-2.3,2.6-4.6,5.2-6.7,8v.1a1.09,1.09,0,0,1-.8.8Zm13-49.7c-8.1,2.2-13.5,7.3-15.3,14.5-1.3,5.8.1,11.5,1.4,17.1,1.1,4.7,2.3,9.5,1.9,14.5,1.7-2.2,3.5-4.2,5.3-6.2,6.7-7.7,13-14.9,13.7-25.5.7-12.9-6.1-14.2-7-14.4Z"/><path class="cls-8" d="M1305.7,418.5h-.2a1.21,1.21,0,0,1-.5-.5,89.57,89.57,0,0,0-5.7-13.5c-2.7-5.4-5.2-10.5-6.3-15.9s1.4-12.4,5.2-16a9.32,9.32,0,0,1,8.4-2.6l7-.9a.73.73,0,0,1,.6.2c5,4.6,7.3,11.4,6.9,19.6-.7,11.4-6.8,23.5-14.9,29.5A1.09,1.09,0,0,1,1305.7,418.5Zm-1-47.4a7.74,7.74,0,0,0-5.5,2.4c-3.5,3.3-5.6,9.9-4.8,14.8,1,5.2,3.5,10.2,6.1,15.6a85.09,85.09,0,0,1,5.5,12.8c7.4-6,12.9-17.2,13.5-27.8.3-5.3-.5-12.8-6.2-18.3l-6.8.9h-.2A2.73,2.73,0,0,0,1304.7,371.1Z"/><path class="cls-8" d="M1358.1,412.2a.6.6,0,0,1-.4-.1c-2.2-1.4-5.2-2.9-8.7-4.7-16.1-8.4-40.5-21-34.7-38.1,0-.1.1-.2.2-.3l14.6-12.2a.66.66,0,0,1,.6-.1c11.3,3.1,16.4,12.3,19.9,21,1.6,4.1,2,8.9,2.4,13.5.6,7.3,1.2,14.7,6.5,19.8a.77.77,0,0,1,.1,1C1358.6,412.1,1358.3,412.2,1358.1,412.2ZM1315.6,370c-5.1,15.8,18.5,28.1,34.1,36.2,1.9,1,3.7,1.9,5.3,2.8-3.4-5.1-3.9-11.4-4.4-17.6-.4-4.5-.7-9.2-2.3-13.1-3.5-8.6-8.2-17-18.6-20Z"/><path class="cls-8" d="M1379.9,394.4h0c-7-.2-12-3-17.3-5.9a51,51,0,0,0-12.4-5.5c-4.4-1.2-15.4-11.4-17.3-20.1-.8-3.6.1-6.5,2.6-8.5l10.5-10.2a.76.76,0,0,1,.5-.2c6.9.4,12.7,4.4,17.8,12.4,4.4,6.8,7.6,15.5,10.5,23.2a117.9,117.9,0,0,0,5.7,13.8.85.85,0,0,1,0,.7C1380.4,394.3,1380.1,394.5,1379.9,394.4Zm-33.1-49-10.3,10h0c-2,1.7-2.7,4.1-2.1,7.1,1.8,8,12.2,17.9,16.2,19a50,50,0,0,1,12.7,5.7c4.8,2.7,9.4,5.3,15.4,5.7-1.8-3.6-3.4-8.1-5.2-12.8-2.8-7.6-6.1-16.3-10.4-23-4.8-7.4-10.1-11.2-16.3-11.7Z"/><path class="cls-8" d="M1397.8,366.3a.52.52,0,0,1-.4-.2c-5.7-4.6-13.2-4.3-20.4-4-4.6.2-9.4.4-13.7-.6-9-2.4-18.8-6.3-23.3-17.1a.62.62,0,0,1,.1-.7l10.2-16,.3-.3c16.2-7.8,31.8,14.7,42.2,29.7,2.2,3.2,4.1,6,5.8,8a.77.77,0,0,1-.1,1A1.23,1.23,0,0,1,1397.8,366.3Zm-15.2-5.7c4.3,0,8.5.4,12.2,2.3-1.1-1.5-2.2-3.1-3.4-4.9-10-14.5-25.1-36.3-40.2-29.3l-9.9,15.5c4.3,9.9,13.2,13.5,22.2,15.9,4.1,1,8.8.8,13.3.6,2-.1,3.9-.1,5.8-.1Z"/><path class="cls-2" d="M1361.6,320.8a61.2,61.2,0,0,1-61.2,61.2h0a61.2,61.2,0,0,1-61.2-61.2h0a61.2,61.2,0,0,1,61.2-61.2h0a61.2,61.2,0,0,1,61.2,61.2Z"/><path class="cls-8" d="M1300.4,382.7a61.8,61.8,0,1,1,43.8-18.1A61,61,0,0,1,1300.4,382.7Zm0-122.3a60.45,60.45,0,1,0,60.6,60.4,60.47,60.47,0,0,0-60.6-60.4Z"/></g></svg>