<?xml version="1.0" encoding="utf-8"?>
<!-- Generator: Adobe Illustrator 24.1.2, SVG Export Plug-In . SVG Version: 6.00 Build 0)  -->
<svg version="1.1" id="Слой_1" xmlns="http://www.w3.org/2000/svg" xmlns:xlink="http://www.w3.org/1999/xlink" x="0px" y="0px"
	 viewBox="0 0 1920 2259.7" style="enable-background:new 0 0 1920 2259.7;" xml:space="preserve">
<style type="text/css">
	.st0{fill:#FFFFFF;}
	.st1{fill:#212121;}
	.st2{opacity:0.1;}
	.st3{fill:url(#SVGID_1_);}
	.st4{fill:url(#SVGID_2_);}
	.st5{fill:url(#SVGID_3_);}
	.st6{fill:url(#SVGID_4_);}
	.st7{opacity:0.1;fill:#FFFFFF;enable-background:new    ;}
</style>
<g>
	<g id="Слой_1_1_">
		<rect y="854.7" class="st0" width="1920" height="1405"/>
		<path class="st1" d="M0,0v915.7l0,0v683.7c0,0,281.6-23.5,396.8-309.3s406.4-260.3,577.6-250.7c171.2,9.6,760,178.3,945.6-123.7
			l0,0V0H0z"/>
		<g class="st2">
			
				<linearGradient id="SVGID_1_" gradientUnits="userSpaceOnUse" x1="1163.24" y1="2425.165" x2="1168.27" y2="2425.165" gradientTransform="matrix(1 0 0 -1 420 2737.74)">
				<stop  offset="0" style="stop-color:#FFFFFF"/>
				<stop  offset="1" style="stop-color:#FBE9F5"/>
			</linearGradient>
			<path class="st3" d="M1588.3,312.6c0,1.4-1.1,2.5-2.5,2.5l0,0c-1.4,0-2.5-1.1-2.5-2.5c0,0,0,0,0,0c0-1.4,1.1-2.5,2.5-2.5l0,0
				C1587.1,310.1,1588.3,311.2,1588.3,312.6C1588.3,312.6,1588.3,312.6,1588.3,312.6z"/>
			<path class="st0" d="M1450.2,501.2c0,2.8-2.2,5-5,5c-2.8,0-5-2.2-5-5c0-2.8,2.2-5,5-5C1447.9,496.2,1450.2,498.4,1450.2,501.2z"
				/>
			<path class="st0" d="M1750.2,849.5c0,2.8-2.2,5-5,5s-5-2.2-5-5c0-2.8,2.2-5,5-5S1750.2,846.8,1750.2,849.5z"/>
			<path class="st0" d="M1200.3,714.9c0,2.8-2.2,5-5,5s-5-2.2-5-5c0-2.8,2.2-5,5-5S1200.3,712.1,1200.3,714.9z"/>
			<path class="st0" d="M1882.4,648.3c0,4.6-3.7,8.3-8.3,8.3c-4.6,0-8.3-3.7-8.3-8.3s3.7-8.3,8.3-8.3
				C1878.6,639.9,1882.4,643.7,1882.4,648.3z"/>
			<path class="st0" d="M1332.3,77.4c0,1.7-1.3,3-3,3s-3-1.3-3-3s1.3-3,3-3S1332.3,75.7,1332.3,77.4z"/>
			
				<linearGradient id="SVGID_2_" gradientUnits="userSpaceOnUse" x1="2241.52" y1="11045.6152" x2="2246.5601" y2="11045.6152" gradientTransform="matrix(6.123234e-17 -1 -1 -6.123234e-17 11664.2402 2527.0598)">
				<stop  offset="0" style="stop-color:#FFFFFF"/>
				<stop  offset="1" style="stop-color:#FBE9F5"/>
			</linearGradient>
			<path class="st4" d="M618.6,280.5c1.4,0,2.5,1.1,2.5,2.5c0,0,0,0,0,0c0,1.4-1.1,2.5-2.5,2.5c0,0,0,0,0,0c-1.4,0-2.5-1.1-2.5-2.5
				c0,0,0,0,0,0C616.1,281.6,617.2,280.5,618.6,280.5C618.6,280.5,618.6,280.5,618.6,280.5z"/>
			<path class="st0" d="M746.5,342.7c1.2,0,2.1,0.9,2.1,2.1v0c0,1.2-0.9,2.1-2.1,2.1c0,0,0,0,0,0c-1.2,0-2.1-0.9-2.1-2.1
				C744.4,343.7,745.3,342.7,746.5,342.7z"/>
			<path class="st0" d="M453.7,136.5c4.6,0,8.3,3.7,8.3,8.3c0,4.6-3.7,8.3-8.3,8.3c-4.6,0-8.3-3.7-8.3-8.3
				C445.4,140.2,449.1,136.5,453.7,136.5z"/>
			<path class="st0" d="M541.2,102.4c1.7,0,3,1.3,3,3s-1.3,3-3,3s-3-1.3-3-3S539.5,102.4,541.2,102.4z"/>
			<path class="st0" d="M1445,783.7c0,2.8-2.2,5-5,5s-5-2.2-5-5s2.2-5,5-5S1445,781,1445,783.7z"/>
			<path class="st0" d="M110.9,1107.4c0-2.8,2.2-5,5-5s5,2.2,5,5c0,2.8-2.2,5-5,5S110.9,1110.2,110.9,1107.4z"/>
			<path class="st0" d="M98.9,1405.1c0-4.6,3.7-8.3,8.3-8.3c4.6,0,8.3,3.7,8.3,8.3c0,4.6-3.7,8.3-8.3,8.3
				C102.6,1413.4,98.9,1409.6,98.9,1405.1z"/>
			<path class="st0" d="M292.9,1233.1c0-4.6,3.7-8.3,8.3-8.3c4.6,0,8.3,3.7,8.3,8.3c0,4.6-3.7,8.3-8.3,8.3
				C296.6,1241.4,292.9,1237.6,292.9,1233.1z"/>
			<path class="st0" d="M114.3,719.5c0-2.8,2.2-5,5-5s5,2.2,5,5s-2.2,5-5,5S114.3,722.3,114.3,719.5z"/>
			
				<linearGradient id="SVGID_3_" gradientUnits="userSpaceOnUse" x1="-312.3" y1="2484.165" x2="-308.77" y2="2484.165" gradientTransform="matrix(1 0 0 -1 420 2737.74)">
				<stop  offset="0" style="stop-color:#FFFFFF"/>
				<stop  offset="1" style="stop-color:#FBE9F5"/>
			</linearGradient>
			<path class="st5" d="M111.2,253.6c0,1-0.8,1.8-1.7,1.8c0,0,0,0,0,0c-1,0-1.8-0.8-1.8-1.8c0-1,0.8-1.8,1.8-1.8c0,0,0,0,0,0
				C110.4,251.8,111.2,252.6,111.2,253.6L111.2,253.6z"/>
			<path class="st0" d="M157,159.7c0,1.2-0.9,2.1-2.1,2.1c-1.2,0-2.1-0.9-2.1-2.1c0-1.2,0.9-2.1,2.1-2.1
				C156.1,157.6,157,158.6,157,159.7L157,159.7z"/>
			<path class="st0" d="M306,961.6c2.8,0,5,2.2,5,5c0,2.8-2.2,5-5,5s-5-2.2-5-5C301,963.8,303.2,961.6,306,961.6z"/>
			<path class="st0" d="M1110.7,987.2c2.8,0,5,2.2,5,5s-2.2,5-5,5c-2.8,0-5-2.2-5-5S1107.9,987.2,1110.7,987.2z"/>
			<path class="st0" d="M513.6,481.3c-1.9,2-5,2.1-7,0.2c-2-1.9-2.1-5-0.2-7c1.9-2,5-2.1,7-0.2C515.3,476.2,515.4,479.3,513.6,481.3
				z"/>
			<path class="st0" d="M1036,326.6c-3.1,3.3-8.4,3.5-11.7,0.4c0,0,0,0,0,0c-3.3-3.1-3.5-8.4-0.4-11.7c0,0,0,0,0,0
				c3.1-3.3,8.4-3.5,11.7-0.3c0,0,0,0,0,0C1039,318,1039.1,323.2,1036,326.6C1036,326.6,1036,326.6,1036,326.6z"/>
			<path class="st0" d="M933.3,781.8c-1.9,2-5.1,2.1-7.1,0.2c-2-1.9-2.1-5.1-0.2-7.1s5.1-2.1,7.1-0.2c0,0,0,0,0,0
				C935.1,776.7,935.2,779.8,933.3,781.8z"/>
			<path class="st0" d="M1030.5,117.1c1.3-2.4,4.3-3.3,6.8-2c2.4,1.3,3.3,4.3,2,6.8c-1.3,2.4-4.3,3.3-6.8,2
				C1030.1,122.5,1029.2,119.5,1030.5,117.1z"/>
			<path class="st0" d="M1745.5,503.9c1.3-2.4,4.3-3.4,6.8-2.1c2.4,1.3,3.4,4.3,2.1,6.8c-1.3,2.4-4.3,3.4-6.8,2.1c0,0,0,0-0.1,0
				C1745.1,509.3,1744.2,506.3,1745.5,503.9z"/>
			<path class="st0" d="M1750.3,117.4c1.3-2.4,4.3-3.3,6.8-2c2.4,1.3,3.3,4.3,2,6.7c-1.3,2.4-4.3,3.3-6.8,2
				C1749.9,122.8,1749,119.8,1750.3,117.4z"/>
			
				<linearGradient id="SVGID_4_" gradientUnits="userSpaceOnUse" x1="2430.0049" y1="9678.4424" x2="2435.0349" y2="9678.4424" gradientTransform="matrix(-0.37 -0.93 0.93 -0.37 -7777.6304 6279.9502)">
				<stop  offset="0" style="stop-color:#FFFFFF"/>
				<stop  offset="1" style="stop-color:#FBE9F5"/>
			</linearGradient>
			<path class="st6" d="M313.2,411.5c-1.3,0.5-1.9,2-1.4,3.2c0,0,0,0,0,0c0.5,1.3,2,1.9,3.3,1.4c0,0,0,0,0,0c1.3-0.5,1.9-2,1.4-3.3
				c0,0,0,0,0,0C316,411.6,314.5,410.9,313.2,411.5C313.2,411.5,313.2,411.5,313.2,411.5z"/>
			<path class="st0" d="M311.8,540.8c-1.1,0.4-1.6,1.6-1.2,2.7c0,0,0,0,0,0c0.4,1.1,1.6,1.6,2.7,1.2c0,0,0,0,0,0
				c1.1-0.4,1.6-1.6,1.2-2.7c0,0,0,0,0,0C314.1,540.9,312.8,540.4,311.8,540.8C311.8,540.8,311.8,540.8,311.8,540.8z"/>
			<path class="st0" d="M96.4,495.6c2.5,1.2,5.5,0.1,6.6-2.4c1.1-2.5,0.1-5.5-2.4-6.6c-2.5-1.1-5.5-0.1-6.6,2.4
				C92.8,491.5,93.9,494.5,96.4,495.6z"/>
			<path class="st0" d="M788.3,624.3c2.5,1.2,5.5,0.1,6.6-2.4c1.2-2.5,0.1-5.5-2.4-6.6c-2.5-1.2-5.5-0.1-6.6,2.4c0,0,0,0,0,0
				C784.7,620.2,785.8,623.2,788.3,624.3z"/>
			<path class="st0" d="M616.3,957.8c0-4.6-3.7-8.3-8.3-8.3c-4.6,0-8.3,3.7-8.3,8.3s3.7,8.3,8.3,8.3l0,0
				C612.5,966.2,616.3,962.4,616.3,957.8z"/>
		</g>
		<path class="st7" d="M1306.3,280.6c-0.1,0-0.2,0-0.3-0.1l-8.5-3.4h-0.1c-8.4-4.6-10.7-17.8-7.5-26.8c1.5-4.8,4.9-8.6,8.2-12.2
			c1.2-1.3,2.4-2.7,3.5-4.1l0,0c3-3.6,5.6-7.4,7.9-11.5c1.1-1.8,2.1-3.6,3.3-5.4c0.1-0.2,0.4-0.3,0.6-0.3c0.2,0,0.5,0.1,0.6,0.4
			c6.5,11.3,10.3,24.1,10.3,34.1c-0.1,6.1-1.7,12.1-4.5,17.4c-2.4,4.4-6.6,10-13.4,11.9C1306.4,280.6,1306.3,280.6,1306.3,280.6z
			 M1298.1,275.8l8.3,3.3c6.1-1.8,10-7,12.2-11.1c2.8-5.2,4.3-10.9,4.4-16.8c0-9.5-3.6-21.5-9.6-32.4c-0.9,1.5-1.8,3-2.6,4.4
			c-2.3,4.1-5,8.1-8,11.7c-1.1,1.4-2.4,2.8-3.6,4.1c-3.2,3.5-6.4,7.1-7.9,11.6l0,0c-1.5,4.5-1.7,9.4-0.6,14.1
			C1291.9,270,1294.5,273.9,1298.1,275.8z"/>
		<path class="st7" d="M1332.9,285.3c-0.1,0-0.2,0-0.2,0l-7.8-2.7c-0.1,0-0.2-0.1-0.3-0.2c-3.6-4.4-5.2-9.1-4.7-13.9
			c1.2-11.7,13.9-21.9,24.2-30.2c2.7-2.2,5.2-4.2,7.2-6c0.2-0.2,0.5-0.2,0.8-0.1c0.3,0.1,0.4,0.4,0.4,0.6c0,7.6-0.3,19-2.9,29.4
			c-3,12.3-8.5,20-16.3,23.1C1333,285.4,1332.9,285.4,1332.9,285.3z M1325.4,281.3l7.4,2.6c11.9-4.9,17.8-21,18-49.4
			c-1.8,1.5-3.9,3.2-6,5c-10.1,8.1-22.6,18.2-23.7,29.2C1320.7,273.1,1322.1,277.2,1325.4,281.3z"/>
		<path class="st7" d="M1344.4,296.3c-0.2,0-0.3-0.1-0.5-0.2l-2.7-2.3c0,0-0.1-0.1-0.1-0.1c-2.9-4.1-1.9-9.4-0.6-13.2
			c1.5-4.3,4-8.2,7.1-11.6c5.2-5.1,11.7-7.5,18-9.8c4.7-1.7,9.6-3.4,13.8-6.3c0.3-0.2,0.6-0.2,0.9,0.1c0.2,0.2,0.3,0.6,0.1,0.9
			c-1.3,2.2-1.9,5.5-2.4,8.7c-0.3,2.3-0.9,4.6-1.6,6.8c-1.6,5.1-4.1,9.9-7.2,14.1C1362.4,292.6,1355.9,295.9,1344.4,296.3
			L1344.4,296.3z M1342.3,292.7l2.4,2.1c10.8-0.4,16.9-3.6,23.4-12.3c3.1-4.2,5.4-8.8,7-13.8l0,0c0.7-2.1,1.2-4.4,1.5-6.6
			c0.3-2.4,0.9-4.7,1.6-6.9c-3.8,2.1-7.8,3.8-12,5.2c-6.2,2.2-12.6,4.5-17.5,9.4c-3,3.2-5.3,6.9-6.8,11
			C1340.7,284.3,1339.8,289.1,1342.3,292.7z"/>
		<path class="st7" d="M1276.7,283.3c-8.5,0-12.8-12.7-14.1-20.4c-1.2-8.7-0.7-17.9-0.2-26.7c0.2-3.4,0.4-6.9,0.5-10.2
			c0-0.2,0.1-0.4,0.3-0.6c0.2-0.1,0.4-0.2,0.6-0.1c7.7,2.7,19.1,12.4,24.2,19.3c5.3,7.5,5.2,16.1,4.5,25c0,0.2-0.1,0.4-0.2,0.5
			l-14.7,13c-0.1,0.1-0.3,0.2-0.4,0.2C1277.2,283.3,1276.9,283.3,1276.7,283.3z M1264.3,227c-0.1,3-0.3,6.2-0.5,9.2
			c-0.5,8.8-1.1,17.9,0.2,26.4c1.1,6.7,5.1,19.2,12.7,19.2h0.3l14.3-12.6c0.6-8.5,0.7-16.8-4.3-23.8
			C1282.2,239,1271.8,230,1264.3,227L1264.3,227z"/>
		<path class="st7" d="M1256.4,300h-0.4c-6.6-0.4-14.3-10.5-16.1-14.7c-3.9-8.9-7.2-20.9-9.9-36.6c0-0.2,0-0.5,0.2-0.7
			c0.2-0.2,0.5-0.2,0.7-0.1l3.7,1.2c15.4,5.1,32.8,10.9,36.7,29.3c0,0.2,0,0.3-0.1,0.5l-8.9,17.4l0,0
			C1260.8,298.7,1258.8,300,1256.4,300z M1231.6,249.6c2.7,15,5.9,26.5,9.6,35.1c1.7,3.8,9,13.5,14.9,13.8c2,0.1,3.6-0.9,4.9-3
			l8.7-17.1c-3.8-17.4-20.7-23-35.7-28L1231.6,249.6z"/>
		<path class="st7" d="M1357.2,315.2c-3.1,0.2-6.1-0.8-8.6-2.6c-1.4-1.1-2.4-2.6-2.9-4.3c0-0.1,0-0.2,0-0.2
			c1.1-8.9,5.9-15.4,13.4-18.3c5.9-2.1,12-1.5,17.8-0.8c5.5,0.6,11.2,1.2,16.6-0.6h0c0,0,0.1,0,0.2,0h0.3c0.4,0,0.7,0.3,0.7,0.7
			c0,0,0,0,0,0c0,0.4-0.3,0.7-0.7,0.7c-2.5,2.5-4.9,5.1-7.2,7.7c-6.9,7.8-13.5,15.1-24.4,17.2C1360.9,315,1359.1,315.2,1357.2,315.2
			z M1347.2,308.1c0.3,1,2.5,7.5,15.2,5.1c10.4-2,16.8-9.1,23.6-16.8c1.8-2,3.6-4,5.5-6c-4.8,1-9.8,0.5-14.6-0.1
			c-5.7-0.6-11.6-1.3-17.2,0.7C1352.8,293.8,1348.3,299.8,1347.2,308.1L1347.2,308.1z"/>
		<path class="st7" d="M1360.7,335.1c-4.9,0-10-1-13.9-4.3c-0.2-0.1-0.3-0.3-0.3-0.5v-7c-1-3-0.4-6.2,1.5-8.6
			c3.2-4.3,9.9-7.4,15.3-7.2c10.3,0.7,29.8,3,40.2,4.6c0.2,0,0.4,0.2,0.5,0.4c0.1,0.2,0.1,0.5,0,0.7c-5.1,9-21,18.6-35.5,21.3
			C1365.9,334.9,1363.3,335.1,1360.7,335.1z M1347.9,330c5.7,4.5,14.1,4.1,20.3,3c13.7-2.5,28.6-11.2,34-19.7
			c-10.5-1.6-29-3.8-39-4.4c-4.9-0.2-11.2,2.7-14,6.6c-1.7,2.1-2.2,4.9-1.3,7.4c0,0.1,0,0.2,0,0.2L1347.9,330z"/>
		<path class="st7" d="M1225.5,349.3c-10.1-0.2-20-2.4-29.3-6.3c-0.2-0.1-0.4-0.3-0.4-0.5c0-0.3,0-0.5,0.2-0.7c1.7-1.4,3.3-2.7,5-4
			c3.8-2.7,7.3-5.8,10.4-9.3l0,0c1.2-1.3,2.4-2.7,3.6-4c3.2-3.7,6.4-7.5,11.1-9.6c8.5-4.3,21.9-3.7,27.5,4.1c0,0,0,0,0,0.1l4.5,8
			c0.1,0.1,0.1,0.3,0.1,0.5c-1,6.9-6,11.8-10.1,14.7c-5,3.5-10.7,5.8-16.8,6.7C1229.4,349.1,1227.4,349.3,1225.5,349.3z
			 M1197.9,342.1c11.5,4.6,23.9,6.6,33.3,5.4c5.8-0.9,11.3-3.1,16.1-6.5c3.8-2.7,8.5-7.2,9.4-13.5l-4.3-7.8c-2.4-3.3-6.6-5.4-11.8-6
			c-4.8-0.5-9.6,0.3-13.9,2.4l0,0c-4.3,2-7.5,5.7-10.6,9.3c-1.2,1.4-2.4,2.8-3.6,4.1c-3.2,3.5-6.8,6.6-10.6,9.4
			C1200.6,340,1199.2,341,1197.9,342.1z"/>
		<path class="st7" d="M1216.5,379c-0.3,0-0.5-0.1-0.6-0.4c-0.2-0.2-0.2-0.5,0-0.8c1.5-2.2,3.2-4.9,5-7.9
			c6.9-11.2,15.5-25.2,26.9-27.8c4.7-1.1,9.5-0.1,14.3,3c0.1,0.1,0.2,0.2,0.3,0.3l3.7,7.4c0.1,0.2,0.1,0.3,0,0.5
			c-2,8.1-9.1,14.5-20.8,19.1C1235.3,376.3,1224.1,378,1216.5,379L1216.5,379z M1251.7,343.1c-1.2,0-2.3,0.1-3.5,0.4
			c-10.8,2.5-19.2,16.2-26,27.2c-1.5,2.4-2.9,4.7-4.2,6.6c28.1-3.8,43.4-11.7,46.8-24.1l-3.5-7
			C1258.4,344.3,1255.1,343.2,1251.7,343.1L1251.7,343.1z"/>
		<path class="st7" d="M1240.4,404.5c-0.2,0-0.3-0.1-0.5-0.2c-0.3-0.2-0.3-0.6-0.2-0.9c2.3-4.5,3.5-9.6,4.5-14.5
			c1.5-6.6,3-13.4,7.4-19.1c2.9-3.5,6.5-6.4,10.6-8.5c3.6-1.8,8.8-3.4,13.2-1.1c0.1,0,0.1,0.1,0.1,0.1l2.7,2.4
			c0.1,0.1,0.2,0.3,0.2,0.5c1.1,11.4-1.4,18.3-9.7,26.2c-3.9,3.7-8.3,6.7-13.1,9c-2.1,1-4.3,1.8-6.6,2.5c-3.1,1-6.3,1.9-8.3,3.5
			C1240.7,404.4,1240.5,404.5,1240.4,404.5z M1270.6,360.5c-2.7,0.1-5.3,0.8-7.7,2.1c-3.9,2-7.3,4.7-10.1,8.1
			c-4.3,5.5-5.7,12.1-7.2,18.5c-0.8,4.3-2,8.5-3.7,12.6c2.2-1,4.4-1.8,6.7-2.4c2.2-0.6,4.3-1.4,6.3-2.4h0.1c4.7-2.2,9-5.2,12.8-8.8
			c7.8-7.4,10.2-13.9,9.3-24.7l-2.4-2.2C1273.4,360.8,1272,360.5,1270.6,360.5z"/>
		<path class="st7" d="M1243.9,317.2c-8.9,0-16-4.1-21.5-7.3c-1.1-0.7-2.2-1.3-3.2-1.8c-1.2-0.7-2.5-1.3-3.8-2
			c-6.7-3.5-14.2-7.5-17.4-13.8c-0.1-0.2-0.1-0.4,0-0.6c0.1-0.2,0.3-0.3,0.5-0.4c3.3-0.5,6.7-1.2,10.1-1.8
			c8.8-1.6,17.8-3.3,26.5-3.2c8,0.2,21.6,3,22.1,12c0,0.1,0,0.1,0,0.2l-2.8,16.5c0,0.3-0.2,0.5-0.5,0.6
			C1250.7,316.6,1247.3,317.2,1243.9,317.2z M1199.8,292.4c3.2,5.5,10.1,9.1,16.3,12.3c1.3,0.7,2.6,1.4,3.8,2c1,0.6,2.1,1.2,3.2,1.8
			c7.2,4.2,17,9.9,30,5.7l2.7-16c-0.5-7.9-13.7-10.4-20.7-10.6c-8.6-0.1-17.5,1.5-26.2,3.2C1205.9,291.4,1202.8,292,1199.8,292.4z"
			/>
		<path class="st7" d="M1277.7,414.1c-0.4,0-0.7-0.3-0.7-0.6v-0.3l0,0v-0.1l0,0l0,0c1.1-5.6-0.2-11.2-1.5-16.5
			c-1.4-5.9-2.8-11.8-1.5-18c2-7.8,7.8-13.4,16.5-15.6c0.1,0,0.2,0,0.2,0c1.8,0.2,3.4,1.1,4.7,2.3c2.9,2.8,4.2,7.3,3.8,13.6
			c-0.7,11-7.2,18.5-14,26.3c-2.3,2.6-4.6,5.2-6.7,8v0.1C1278.4,413.7,1278.1,414,1277.7,414.1L1277.7,414.1z M1290.7,364.4
			c-8.1,2.2-13.5,7.3-15.3,14.5c-1.3,5.8,0.1,11.5,1.4,17.1c1.1,4.7,2.3,9.5,1.9,14.5c1.7-2.2,3.5-4.2,5.3-6.2
			c6.7-7.7,13-14.9,13.7-25.5C1298.4,365.9,1291.6,364.6,1290.7,364.4L1290.7,364.4z"/>
		<path class="st7" d="M1305.7,418.5c-0.1,0-0.2,0-0.2,0c-0.2-0.1-0.4-0.3-0.5-0.5c-1.5-4.7-3.5-9.2-5.7-13.5
			c-2.7-5.4-5.2-10.5-6.3-15.9s1.4-12.4,5.2-16c2.2-2.2,5.3-3.2,8.4-2.6l7-0.9c0.2,0,0.4,0,0.6,0.2c5,4.6,7.3,11.4,6.9,19.6
			c-0.7,11.4-6.8,23.5-14.9,29.5C1306,418.5,1305.8,418.5,1305.7,418.5z M1304.7,371.1c-2.1,0-4,0.9-5.5,2.4
			c-3.5,3.3-5.6,9.9-4.8,14.8c1,5.2,3.5,10.2,6.1,15.6c2.2,4.1,4,8.4,5.5,12.8c7.4-6,12.9-17.2,13.5-27.8c0.3-5.3-0.5-12.8-6.2-18.3
			l-6.8,0.9c-0.1,0-0.2,0-0.2,0C1305.9,371.2,1305.3,371.1,1304.7,371.1z"/>
		<path class="st7" d="M1358.1,412.2c-0.1,0-0.3,0-0.4-0.1c-2.2-1.4-5.2-2.9-8.7-4.7c-16.1-8.4-40.5-21-34.7-38.1
			c0-0.1,0.1-0.2,0.2-0.3l14.6-12.2c0.2-0.1,0.4-0.2,0.6-0.1c11.3,3.1,16.4,12.3,19.9,21c1.6,4.1,2,8.9,2.4,13.5
			c0.6,7.3,1.2,14.7,6.5,19.8c0.3,0.3,0.3,0.7,0.1,1C1358.6,412.1,1358.3,412.2,1358.1,412.2z M1315.6,370
			c-5.1,15.8,18.5,28.1,34.1,36.2c1.9,1,3.7,1.9,5.3,2.8c-3.4-5.1-3.9-11.4-4.4-17.6c-0.4-4.5-0.7-9.2-2.3-13.1
			c-3.5-8.6-8.2-17-18.6-20L1315.6,370z"/>
		<path class="st7" d="M1379.9,394.4L1379.9,394.4c-7-0.2-12-3-17.3-5.9c-3.9-2.4-8-4.2-12.4-5.5c-4.4-1.2-15.4-11.4-17.3-20.1
			c-0.8-3.6,0.1-6.5,2.6-8.5l10.5-10.2c0.1-0.1,0.3-0.2,0.5-0.2c6.9,0.4,12.7,4.4,17.8,12.4c4.4,6.8,7.6,15.5,10.5,23.2
			c1.6,4.7,3.5,9.3,5.7,13.8c0.1,0.2,0.1,0.5,0,0.7C1380.4,394.3,1380.1,394.5,1379.9,394.4z M1346.8,345.4l-10.3,10l0,0
			c-2,1.7-2.7,4.1-2.1,7.1c1.8,8,12.2,17.9,16.2,19c4.5,1.3,8.7,3.2,12.7,5.7c4.8,2.7,9.4,5.3,15.4,5.7c-1.8-3.6-3.4-8.1-5.2-12.8
			c-2.8-7.6-6.1-16.3-10.4-23C1358.3,349.7,1353,345.9,1346.8,345.4L1346.8,345.4z"/>
		<path class="st7" d="M1397.8,366.3c-0.2,0-0.3-0.1-0.4-0.2c-5.7-4.6-13.2-4.3-20.4-4c-4.6,0.2-9.4,0.4-13.7-0.6
			c-9-2.4-18.8-6.3-23.3-17.1c-0.1-0.2-0.1-0.5,0.1-0.7l10.2-16c0.1-0.1,0.2-0.2,0.3-0.3c16.2-7.8,31.8,14.7,42.2,29.7
			c2.2,3.2,4.1,6,5.8,8c0.2,0.3,0.2,0.7-0.1,1C1398.1,366.3,1398,366.3,1397.8,366.3z M1382.6,360.6c4.3,0,8.5,0.4,12.2,2.3
			c-1.1-1.5-2.2-3.1-3.4-4.9c-10-14.5-25.1-36.3-40.2-29.3l-9.9,15.5c4.3,9.9,13.2,13.5,22.2,15.9c4.1,1,8.8,0.8,13.3,0.6
			C1378.8,360.6,1380.7,360.6,1382.6,360.6L1382.6,360.6z"/>
		<path class="st1" d="M1361.6,320.8c0,33.8-27.4,61.2-61.2,61.2c0,0,0,0,0,0c-33.8,0-61.2-27.4-61.2-61.2c0,0,0,0,0,0
			c0-33.8,27.4-61.2,61.2-61.2l0,0C1334.2,259.6,1361.6,287,1361.6,320.8L1361.6,320.8z"/>
		<path class="st7" d="M1300.4,382.7c-16.4,0-32.2-6.5-43.8-18.1c-11.6-11.6-18.2-27.3-18.1-43.8c0-16.4,6.5-32.2,18.1-43.8
			c11.6-11.6,27.3-18.2,43.8-18.1c16.4,0,32.2,6.5,43.8,18.1c11.6,11.6,18.2,27.3,18.1,43.8c0,16.4-6.5,32.2-18.1,43.8
			C1332.6,376.3,1316.9,382.8,1300.4,382.7z M1300.4,260.4c-33.4,0.1-60.4,27.1-60.4,60.4c0,33.4,27.1,60.4,60.5,60.5
			c33.4,0,60.4-27.1,60.5-60.5C1360.9,287.4,1333.8,260.4,1300.4,260.4L1300.4,260.4z"/>
	</g>
</g>
</svg>
