<svg id="Слой_1" data-name="Слой 1" xmlns="http://www.w3.org/2000/svg" viewBox="0 0 183.05 180.24"><defs><style>.cls-1{fill:#fff;}</style></defs><path class="cls-1" d="M698.44,479.9q-20.91-12.13-46.58-12.14-26.15,0-47.16,12.14A89.95,89.95,0,0,0,604.93,636q21,12,46.93,12a87.38,87.38,0,0,0,37.35-7.94l-7.23-18q-12.86,7-30.12,7A72.1,72.1,0,0,1,616,619.87a69.31,69.31,0,0,1-26.15-25.57,73.68,73.68,0,0,1-.12-72.84,68.77,68.77,0,0,1,25.92-25.57,72.43,72.43,0,0,1,36.19-9.22,71.34,71.34,0,0,1,36.53,9.57A70.5,70.5,0,0,1,714.31,522a69,69,0,0,1,9.46,35.37q0,13.08-3.62,22.3t-12,9.22c-4.19,0-7.39-1.52-9.56-4.55a17.76,17.76,0,0,1-3.27-10.63V514.46H675.67v9.8h-1.39a35.05,35.05,0,0,0-27.79-13.07,42.24,42.24,0,0,0-22.06,6.06,44.43,44.43,0,0,0-16.23,17,52.76,52.76,0,0,0,0,49.14,44,44,0,0,0,39.22,23,39.3,39.3,0,0,0,18.8-4.43,37.21,37.21,0,0,0,13.66-12.61,29.11,29.11,0,0,0,26.85,17q17.26,0,26.73-13.78t9.46-35.25a88.72,88.72,0,0,0-44.48-77.51Zm-30.94,99a25.52,25.52,0,0,1-18.44,7.47,25.1,25.1,0,0,1-18.32-7.47q-7.61-7.47-7.6-20.08t7.6-20.07a25.11,25.11,0,0,1,18.32-7.48,25.53,25.53,0,0,1,18.44,7.48q7.71,7.47,7.71,20.07T667.5,578.89Z" transform="translate(-559.87 -467.76)"/></svg>