<svg xmlns="http://www.w3.org/2000/svg" xmlns:xlink="http://www.w3.org/1999/xlink" viewBox="0 0 1689 1080"><defs><style>.cls-1{isolation:isolate;}.cls-2{fill:#212121;}.cls-3{mix-blend-mode:overlay;}.cls-4{fill:#fff;}.cls-5{fill:url(#Degradado_sin_nombre_19);}</style><linearGradient id="Degradado_sin_nombre_19" x1="-213.01" y1="205.46" x2="-209.48" y2="205.46" gradientUnits="userSpaceOnUse"><stop offset="0" stop-color="#fff"/><stop offset="1" stop-color="#fbe9f5"/></linearGradient></defs><g class="cls-1"><g id="Слой_1" data-name="Слой 1"><rect class="cls-2" width="1689" height="1080"/><g class="cls-3"><path class="cls-4" d="M713.8,545.61a5,5,0,1,1-5-5A5,5,0,0,1,713.8,545.61Z" transform="translate(304.17 -0.33)"/><path class="cls-4" d="M412.8,869.61a5,5,0,1,1-5-5A5,5,0,0,1,412.8,869.61Z" transform="translate(304.17 -0.33)"/><path class="cls-4" d="M1267.44,562.09a5,5,0,1,1-5-5A5,5,0,0,1,1267.44,562.09Z" transform="translate(304.17 -0.33)"/><path class="cls-4" d="M651.48,375.41a5,5,0,1,1-5-5A5,5,0,0,1,651.48,375.41Z" transform="translate(304.17 -0.33)"/><path class="cls-4" d="M1023.64,770.79a5,5,0,1,1-5-5A5,5,0,0,1,1023.64,770.79Z" transform="translate(304.17 -0.33)"/><path class="cls-4" d="M742.57,949.09a5,5,0,1,1-5-5A5,5,0,0,1,742.57,949.09Z" transform="translate(304.17 -0.33)"/><path class="cls-4" d="M871.64,142.25a3,3,0,1,1-3-3A3,3,0,0,1,871.64,142.25Z" transform="translate(304.17 -0.33)"/><path class="cls-4" d="M375.79,590.6a2.1,2.1,0,1,1-2.09,2.1A2.1,2.1,0,0,1,375.79,590.6Z" transform="translate(304.17 -0.33)"/><path class="cls-4" d="M1262.27,1038.65a5,5,0,1,1-5-5A5,5,0,0,1,1262.27,1038.65Z" transform="translate(304.17 -0.33)"/><path class="cls-4" d="M-217.81,943.94a8.31,8.31,0,0,1,8.31-8.31,8.31,8.31,0,0,1,8.31,8.31,8.31,8.31,0,0,1-8.31,8.31A8.31,8.31,0,0,1-217.81,943.94Z" transform="translate(304.17 -0.33)"/><path class="cls-5" d="M-209.48,205.46a1.76,1.76,0,0,1-1.76,1.77,1.77,1.77,0,0,1-1.77-1.77,1.76,1.76,0,0,1,1.77-1.76A1.76,1.76,0,0,1-209.48,205.46Z" transform="translate(304.17 -0.33)"/><path class="cls-4" d="M120.25,106.64a2.1,2.1,0,1,1-2.1-2.1A2.1,2.1,0,0,1,120.25,106.64Z" transform="translate(304.17 -0.33)"/><path class="cls-4" d="M-23.76,479.46a5,5,0,0,1,5,5,5,5,0,0,1-5,5,5,5,0,0,1-5-5A5,5,0,0,1-23.76,479.46Z" transform="translate(304.17 -0.33)"/><path class="cls-4" d="M87,722.07a5,5,0,1,1-5,5A5,5,0,0,1,87,722.07Z" transform="translate(304.17 -0.33)"/><path class="cls-4" d="M1099.77,329a5,5,0,1,1,2,6.75A5,5,0,0,1,1099.77,329Z" transform="translate(304.17 -0.33)"/><path class="cls-4" d="M1262.83,108.81a5,5,0,1,1,2.05,6.74A5,5,0,0,1,1262.83,108.81Z" transform="translate(304.17 -0.33)"/><path class="cls-4" d="M-244,462.73a2.09,2.09,0,0,0-1.16,2.72,2.09,2.09,0,0,0,2.72,1.16,2.09,2.09,0,0,0,1.17-2.72A2.1,2.1,0,0,0-244,462.73Z" transform="translate(304.17 -0.33)"/><path class="cls-4" d="M418,211.53a8.31,8.31,0,1,0-4.06-11A8.31,8.31,0,0,0,418,211.53Z" transform="translate(304.17 -0.33)"/><path class="cls-4" d="M44.57,257.24a5,5,0,1,0-2.43-6.61A5,5,0,0,0,44.57,257.24Z" transform="translate(304.17 -0.33)"/></g></g></g></svg>