<svg xmlns="http://www.w3.org/2000/svg" xmlns:xlink="http://www.w3.org/1999/xlink" viewBox="0 0 1920 1080"><defs><style>.cls-1{isolation:isolate;}.cls-2{fill:#212121;}.cls-3,.cls-5{mix-blend-mode:overlay;}.cls-4,.cls-5{fill:none;stroke:#fff;stroke-miterlimit:10;}.cls-6{fill:url(#Degradado_sin_nombre_19);}.cls-7{fill:url(#Degradado_sin_nombre_19-2);}.cls-14,.cls-8{fill:#fff;}.cls-9{fill:url(#Degradado_sin_nombre_19-3);}.cls-10{fill:url(#Degradado_sin_nombre_19-4);}.cls-11{fill:url(#Degradado_sin_nombre_19-5);}.cls-12{fill:#97ade2;opacity:0.1;}.cls-13{fill:#aa5cff;opacity:0.21;}.cls-14{opacity:0.6;}</style><linearGradient id="Degradado_sin_nombre_19" x1="1166.12" y1="209.36" x2="1169.64" y2="209.36" gradientUnits="userSpaceOnUse"><stop offset="0" stop-color="#fff"/><stop offset="1" stop-color="#fbe9f5"/></linearGradient><linearGradient id="Degradado_sin_nombre_19-2" x1="1355.55" y1="109.65" x2="1360.58" y2="109.65" xlink:href="#Degradado_sin_nombre_19"/><linearGradient id="Degradado_sin_nombre_19-3" x1="769.71" y1="-9035.31" x2="774.75" y2="-9035.31" gradientTransform="translate(9154.24 1039.32) rotate(-90)" xlink:href="#Degradado_sin_nombre_19"/><linearGradient id="Degradado_sin_nombre_19-4" x1="-391.99" y1="237.65" x2="-388.46" y2="237.65" xlink:href="#Degradado_sin_nombre_19"/><linearGradient id="Degradado_sin_nombre_19-5" x1="903.47" y1="189.29" x2="906.99" y2="189.29" xlink:href="#Degradado_sin_nombre_19"/></defs><g class="cls-1"><g id="Слой_1" data-name="Слой 1"><rect class="cls-2" width="1920" height="1080"/><g class="cls-3"><path class="cls-4" d="M-106.45,393a92.3,92.3,0,0,0-10.09-15.59A91.67,91.67,0,0,0-245.4,363.12,91.68,91.68,0,0,0-259.7,492a93.35,93.35,0,0,0,12,12.44" transform="translate(419.78 -0.44)"/><path class="cls-4" d="M-215.44,522.21a91.56,91.56,0,0,0,84.6-15.94,91.59,91.59,0,0,0,34.12-78.75" transform="translate(419.78 -0.44)"/><path class="cls-4" d="M-273.76,467.48c-53.52,51.47-84.32,95.37-73.41,109,14.84,18.55,101.25-26,193-99.37S-.08,329.12-14.92,310.57c-10.9-13.62-60.42,6.77-122.3,47.65l7.18,5.28c20.77-10.62,35.83-14.4,40.29-8.83,8.94,11.17-28.13,55.7-82.81,99.46s-106.25,70.18-115.19,59c-4.48-5.6,2.58-19.56,17.61-37.59" transform="translate(419.78 -0.44)"/></g><g class="cls-3"><circle class="cls-4" cx="1339.96" cy="454.24" r="111.43" transform="translate(347.69 364.62) rotate(-15.11)"/><path class="cls-4" d="M1337.38,421.45c-25.4,14.21-51.5,30.88-77.14,38.91a134.4,134.4,0,0,1-31.09,5.82,111.74,111.74,0,0,0,6.1,26.16c8.24,1.06,16.6,1.69,27.66-.22,26.9-4.47,60-24.69,90.08-41.21,29.92-17,66.65-30.42,92.11-26.15.84.12,1.64.26,2.43.41-.85-3.1-1.82-6.18-2.94-9.25a111.68,111.68,0,0,0-8.93-18.77,80.53,80.53,0,0,0-20-2.63C1392.12,394.44,1362.7,407,1337.38,421.45Z" transform="translate(419.78 -0.44)"/><path class="cls-4" d="M1274.4,422.19c19.54-7.75,43.42-12,65.63-17.13s46.07-12.65,60.24-23.19a70.27,70.27,0,0,0,12.55-11.94,110.41,110.41,0,0,0-11.38-8.62c-14.31,11.85-39.85,21.39-63.73,26.76-26.11,6.25-56.06,12-74.86,21.55-10.8,5.44-16.15,10.61-22.83,16.32-2.92,2.56-6.18,5.3-9.69,8.29a111.75,111.75,0,0,0-1.81,18C1242,440.13,1253.46,430.64,1274.4,422.19Z" transform="translate(419.78 -0.44)"/><path class="cls-4" d="M1389.38,470.08c21.51-7.35,44.62-16.64,61.52-26.47a110.58,110.58,0,0,0-1.94-12.52c-16.91,9.49-38.56,18.59-58.71,25.53-29,10.23-61.87,20.78-83.71,32.33-12.54,6.58-19.24,11.86-27.45,17.85-7,5.21-15.53,11.22-25,18.43q2.87,3.48,6,6.69c17.43-13.2,31.6-23.53,56.3-34.93C1338.6,486.81,1364.8,478.62,1389.38,470.08Z" transform="translate(419.78 -0.44)"/><path class="cls-4" d="M1239.37,406.32c25.45-6.49,55.37-24.6,82.76-39.66a249.15,249.15,0,0,1,45.54-20.35,111.41,111.41,0,0,0-128.3,60Z" transform="translate(419.78 -0.44)"/><path class="cls-4" d="M1364.94,496.7c-25.4,14.2-51.49,30.87-77.14,38.91a142.28,142.28,0,0,1-18.94,4.45,112,112,0,0,0,41.76,21.69c22.35-8.28,47-23,69.94-35.6,18.85-10.7,40.42-20,60.16-24.33a112.08,112.08,0,0,0,9.55-31.7c-2.22-.2-4.56-.32-7.06-.35C1419.69,469.69,1390.26,482.26,1364.94,496.7Z" transform="translate(419.78 -0.44)"/><path class="cls-4" d="M1336,565.63a111.61,111.61,0,0,0,88.81-39.13c-8.44,0-16.91.39-27.81,3.75C1378,536,1356.81,550.4,1336,565.63Z" transform="translate(419.78 -0.44)"/></g><g class="cls-3"><circle class="cls-4" cx="197.6" cy="144.46" r="78.8" transform="translate(404.6 265.02) rotate(-65.8)"/><path class="cls-4" d="M213.69,127.67C194.25,121,173.17,115,156.86,105.25a94.88,94.88,0,0,1-17.7-13.67,78.88,78.88,0,0,0-10.94,15.53,61.49,61.49,0,0,0,13.13,14.5c15,12.09,41.27,20.06,64.14,28.16,23,7.81,47.41,20.88,57.13,36.33.34.5.64,1,.93,1.47,1.24-1.9,2.41-3.86,3.51-5.9a79,79,0,0,0,5.7-13.54,56.74,56.74,0,0,0-8-11.81C253.71,143.87,233.23,134.25,213.69,127.67Z" transform="translate(419.78 -0.44)"/><path class="cls-4" d="M175.57,68.81c15.4,10.39,39,17.66,59.88,25a175.08,175.08,0,0,1,32.16,14.47,78.77,78.77,0,0,0-92-39.51Z" transform="translate(419.78 -0.44)"/><path class="cls-4" d="M186.94,177.62C167.49,170.9,146.41,165,130.1,155.2a100.24,100.24,0,0,1-11.26-7.9,79.16,79.16,0,0,0,8.2,32.25c14.88,7.9,34.27,14,51.69,20.18,14.53,4.92,29.57,11.93,41.15,20.31a79.21,79.21,0,0,0,21.23-9.87c-.94-1.26-2-2.56-3.13-3.9C227,193.82,206.47,184.2,186.94,177.62Z" transform="translate(419.78 -0.44)"/></g><path class="cls-5" d="M1196.52,119.89a60.31,60.31,0,1,1-9.41-84.78A60.33,60.33,0,0,1,1196.52,119.89Z" transform="translate(419.78 -0.44)"/><path class="cls-5" d="M301.32,258.33a29.85,29.85,0,1,1-4.66-41.95A29.85,29.85,0,0,1,301.32,258.33Z" transform="translate(419.78 -0.44)"/><g class="cls-3"><circle class="cls-4" cx="729.76" cy="359.68" r="49.66" transform="translate(539.03 897.01) rotate(-67.61)"/><circle class="cls-4" cx="1124.65" cy="344.64" r="11.76"/><path class="cls-4" d="M728.15,327.08a4.53,4.53,0,1,1-4.52-4.53A4.52,4.52,0,0,1,728.15,327.08Z" transform="translate(419.78 -0.44)"/><path class="cls-4" d="M764.15,331.61a4.53,4.53,0,1,1-4.53-4.53A4.53,4.53,0,0,1,764.15,331.61Z" transform="translate(419.78 -0.44)"/><path class="cls-4" d="M711.74,389.12a4.53,4.53,0,1,1-4.53-4.53A4.53,4.53,0,0,1,711.74,389.12Z" transform="translate(419.78 -0.44)"/><path class="cls-4" d="M750.6,340.61a9,9,0,1,1-9-9A9,9,0,0,1,750.6,340.61Z" transform="translate(419.78 -0.44)"/></g><g class="cls-3"><path class="cls-6" d="M1169.64,209.36a1.76,1.76,0,1,1-1.76-1.77A1.76,1.76,0,0,1,1169.64,209.36Z" transform="translate(419.78 -0.44)"/><path class="cls-7" d="M1360.58,109.65a2.52,2.52,0,1,1-2.51-2.52A2.51,2.51,0,0,1,1360.58,109.65Z" transform="translate(419.78 -0.44)"/><path class="cls-8" d="M32.82,621.79a5,5,0,1,1-5-5A5,5,0,0,1,32.82,621.79Z" transform="translate(419.78 -0.44)"/><path class="cls-8" d="M-193.18,259.79a5,5,0,0,1-5,5,5,5,0,0,1-5-5,5,5,0,0,1,5-5A5,5,0,0,1-193.18,259.79Z" transform="translate(419.78 -0.44)"/><path class="cls-8" d="M950.46,485.27a5,5,0,1,1-5-5A5,5,0,0,1,950.46,485.27Z" transform="translate(419.78 -0.44)"/><path class="cls-8" d="M472.5,407.59a5,5,0,1,1-5-5A5,5,0,0,1,472.5,407.59Z" transform="translate(419.78 -0.44)"/><path class="cls-8" d="M1498.66,704a5,5,0,1,1-5-5A5,5,0,0,1,1498.66,704Z" transform="translate(419.78 -0.44)"/><path class="cls-8" d="M1459.66,309a5,5,0,1,1-5-5A5,5,0,0,1,1459.66,309Z" transform="translate(419.78 -0.44)"/><path class="cls-8" d="M1402.68,642.33a8.32,8.32,0,1,1-8.32-8.31A8.32,8.32,0,0,1,1402.68,642.33Z" transform="translate(419.78 -0.44)"/><path class="cls-8" d="M424.59,870.27a5,5,0,1,1-5-5A5,5,0,0,1,424.59,870.27Z" transform="translate(419.78 -0.44)"/><path class="cls-8" d="M189.59,786.27a5,5,0,1,1-5-5A5,5,0,0,1,189.59,786.27Z" transform="translate(419.78 -0.44)"/><path class="cls-8" d="M1298.37,237.53a2.1,2.1,0,1,1-2.09-2.1A2.09,2.09,0,0,1,1298.37,237.53Z" transform="translate(419.78 -0.44)"/><path class="cls-8" d="M1091.37,306.53a2.1,2.1,0,1,1-2.09-2.1A2.09,2.09,0,0,1,1091.37,306.53Z" transform="translate(419.78 -0.44)"/><path class="cls-8" d="M1462.63,74a8.31,8.31,0,1,1-8.31-8.31A8.31,8.31,0,0,1,1462.63,74Z" transform="translate(419.78 -0.44)"/><path class="cls-8" d="M1496.66,161.43a3,3,0,1,1-3-3A3,3,0,0,1,1496.66,161.43Z" transform="translate(419.78 -0.44)"/><path class="cls-9" d="M118.93,264.57a2.52,2.52,0,1,1-2.51,2.52A2.52,2.52,0,0,1,118.93,264.57Z" transform="translate(419.78 -0.44)"/><path class="cls-8" d="M246.81,326.79a2.1,2.1,0,1,1-2.09,2.09A2.09,2.09,0,0,1,246.81,326.79Z" transform="translate(419.78 -0.44)"/><path class="cls-8" d="M-46,120.53a8.31,8.31,0,0,1,8.31,8.31A8.31,8.31,0,0,1-46,137.15a8.31,8.31,0,0,1-8.31-8.31A8.31,8.31,0,0,1-46,120.53Z" transform="translate(419.78 -0.44)"/><path class="cls-8" d="M41.49,86.5a3,3,0,1,1-3,3A3,3,0,0,1,41.49,86.5Z" transform="translate(419.78 -0.44)"/><path class="cls-8" d="M1464.29,772.83a5,5,0,1,1-5-5A5,5,0,0,1,1464.29,772.83Z" transform="translate(419.78 -0.44)"/><path class="cls-8" d="M1109.29,611.83a5,5,0,1,1-5-5A5,5,0,0,1,1109.29,611.83Z" transform="translate(419.78 -0.44)"/><path class="cls-8" d="M769.29,89.83a5,5,0,1,1-5-5A5,5,0,0,1,769.29,89.83Z" transform="translate(419.78 -0.44)"/><path class="cls-8" d="M1104.29,826.83a5,5,0,1,1-5-5A5,5,0,0,1,1104.29,826.83Z" transform="translate(419.78 -0.44)"/><path class="cls-8" d="M-419.78,772.48a5,5,0,0,1,5-5,5,5,0,0,1,5,5,5,5,0,0,1-5,5A5,5,0,0,1-419.78,772.48Z" transform="translate(419.78 -0.44)"/><path class="cls-8" d="M-323.79,834.12a8.31,8.31,0,0,1,8.31-8.31,8.31,8.31,0,0,1,8.31,8.31,8.31,8.31,0,0,1-8.31,8.31A8.31,8.31,0,0,1-323.79,834.12Z" transform="translate(419.78 -0.44)"/><path class="cls-8" d="M-385.41,703.62a5,5,0,0,1,5-5,5,5,0,0,1,5,5,5,5,0,0,1-5,5A5,5,0,0,1-385.41,703.62Z" transform="translate(419.78 -0.44)"/><path class="cls-10" d="M-388.46,237.65a1.76,1.76,0,0,1-1.76,1.76,1.76,1.76,0,0,1-1.77-1.76,1.77,1.77,0,0,1,1.77-1.77A1.76,1.76,0,0,1-388.46,237.65Z" transform="translate(419.78 -0.44)"/><path class="cls-8" d="M-342.73,143.82a2.09,2.09,0,0,1-2.1,2.09,2.09,2.09,0,0,1-2.09-2.09,2.09,2.09,0,0,1,2.09-2.09A2.09,2.09,0,0,1-342.73,143.82Z" transform="translate(419.78 -0.44)"/><path class="cls-8" d="M9.48,777.33a5,5,0,1,1-5.3-4.66A5,5,0,0,1,9.48,777.33Z" transform="translate(419.78 -0.44)"/><path class="cls-8" d="M118.77,430.91a8.31,8.31,0,1,1-8.82-7.76A8.33,8.33,0,0,1,118.77,430.91Z" transform="translate(419.78 -0.44)"/><path class="cls-8" d="M-166.44,648.23a5,5,0,0,1-4.66,5.29,5,5,0,0,1-5.29-4.65,5,5,0,0,1,4.66-5.3A5,5,0,0,1-166.44,648.23Z" transform="translate(419.78 -0.44)"/><path class="cls-8" d="M482.08,139.21a5,5,0,1,1-5-5A5,5,0,0,1,482.08,139.21Z" transform="translate(419.78 -0.44)"/><path class="cls-11" d="M907,189.29a1.76,1.76,0,1,1-1.76-1.76A1.76,1.76,0,0,1,907,189.29Z" transform="translate(419.78 -0.44)"/><path class="cls-8" d="M595.72,189.46a2.1,2.1,0,1,1-2.09-2.09A2.1,2.1,0,0,1,595.72,189.46Z" transform="translate(419.78 -0.44)"/></g><path class="cls-12" d="M1469.39,730.35c-107.2,0-198.39,68.52-232.18,164.15a131.07,131.07,0,0,1,34.89,54.11,110.41,110.41,0,0,1,72.53,4.5,135.18,135.18,0,0,1,155.59-84.57V732.27A249,249,0,0,0,1469.39,730.35Z" transform="translate(419.78 -0.44)"/><path class="cls-12" d="M-263.19,953.11a109.9,109.9,0,0,1,42.77-8.6,110.31,110.31,0,0,1,29.77,4.1,131.09,131.09,0,0,1,40.34-58.9c-35.11-93.12-125-159.36-230.43-159.36a247.5,247.5,0,0,0-39,3.08V868.75a135.46,135.46,0,0,1,30.07-3.36A135.1,135.1,0,0,1-263.19,953.11Z" transform="translate(419.78 -0.44)"/><path class="cls-13" d="M282.1,1026.2a93.47,93.47,0,0,1,54.41,17c5.46-21.8,17.81-41.25,34.86-56.42-25.7-20.29-57.35-29-85-29a136.13,136.13,0,0,0-80,25.19,136.1,136.1,0,0,0-79.95-25.19A137.78,137.78,0,0,0,63,973.08,130.81,130.81,0,0,0-66.65,859.4a130.16,130.16,0,0,0-83.66,30.31,245.71,245.71,0,0,1,15.77,86.84,248.07,248.07,0,0,1-2.69,36.49,103.78,103.78,0,0,1,66.15-23.69,104.29,104.29,0,0,1,94.57,60.29,76.91,76.91,0,0,1,116,30.8h59.65C210.54,1049,243.34,1026.28,282.1,1026.2Z" transform="translate(419.78 -0.44)"/><path class="cls-12" d="M-266.31,1049.64a76.58,76.58,0,0,1,45.61-15,76.6,76.6,0,0,1,52.57,20.79,104.57,104.57,0,0,1,30.9-42.4,248.07,248.07,0,0,0,2.69-36.49,245.71,245.71,0,0,0-15.77-86.84,131.09,131.09,0,0,0-40.34,58.9,110.31,110.31,0,0,0-29.77-4.1,109.9,109.9,0,0,0-42.77,8.6,135.1,135.1,0,0,0-126.52-87.72,135.46,135.46,0,0,0-30.07,3.36v138.81a103.8,103.8,0,0,1,58.9-18.21A104.3,104.3,0,0,1-266.31,1049.64Z" transform="translate(419.78 -0.44)"/><path class="cls-13" d="M-266.31,1049.64a76.58,76.58,0,0,1,45.61-15,76.6,76.6,0,0,1,52.57,20.79,104.57,104.57,0,0,1,30.9-42.4,248.07,248.07,0,0,0,2.69-36.49,245.71,245.71,0,0,0-15.77-86.84,131.09,131.09,0,0,0-40.34,58.9,110.31,110.31,0,0,0-29.77-4.1,109.9,109.9,0,0,0-42.77,8.6,135.1,135.1,0,0,0-126.52-87.72,135.46,135.46,0,0,0-30.07,3.36v138.81a103.8,103.8,0,0,1,58.9-18.21A104.3,104.3,0,0,1-266.31,1049.64Z" transform="translate(419.78 -0.44)"/><path class="cls-13" d="M1047.68,1034.65a76.64,76.64,0,0,1,45.62,15,104.35,104.35,0,0,1,130.63-53.87q-.73-9.53-.75-19.22a245.81,245.81,0,0,1,14-82,130.74,130.74,0,0,0-218.76,78.58A137.85,137.85,0,0,0,955,957.72a136.13,136.13,0,0,0-80,25.19,136.1,136.1,0,0,0-79.95-25.19c-27.7.06-59.38,8.78-85.1,29.1,17,15.17,29.35,34.59,34.81,56.37a93.47,93.47,0,0,1,54.41-17c38.76.08,71.56,22.82,83,54.24h95.12A76.9,76.9,0,0,1,1047.68,1034.65Z" transform="translate(419.78 -0.44)"/><path class="cls-12" d="M1344.63,953.11a110.41,110.41,0,0,0-72.53-4.5,131.07,131.07,0,0,0-34.89-54.11,245.81,245.81,0,0,0-14,82q0,9.71.75,19.22a104.63,104.63,0,0,1,61,59.67,76.87,76.87,0,0,1,98.18-5.8,104.42,104.42,0,0,1,117.12-57.84V868.54a135.18,135.18,0,0,0-155.59,84.57Z" transform="translate(419.78 -0.44)"/><path class="cls-13" d="M1344.63,953.11a110.41,110.41,0,0,0-72.53-4.5,131.07,131.07,0,0,0-34.89-54.11,245.81,245.81,0,0,0-14,82q0,9.71.75,19.22a104.63,104.63,0,0,1,61,59.67,76.87,76.87,0,0,1,98.18-5.8,104.42,104.42,0,0,1,117.12-57.84V868.54a135.18,135.18,0,0,0-155.59,84.57Z" transform="translate(419.78 -0.44)"/><path class="cls-8" d="M69.1,1034.65a76.63,76.63,0,0,0-45.61,15,104.29,104.29,0,0,0-94.57-60.29A103.78,103.78,0,0,0-137.23,1013a104.57,104.57,0,0,0-30.9,42.4,76.6,76.6,0,0,0-52.57-20.79,76.58,76.58,0,0,0-45.61,15,104.3,104.3,0,0,0-94.57-60.29,103.8,103.8,0,0,0-58.9,18.21v72.88H139.44A76.91,76.91,0,0,0,69.1,1034.65Z" transform="translate(419.78 -0.44)"/><path class="cls-8" d="M1383.1,1049.64a76.87,76.87,0,0,0-98.18,5.8,104.31,104.31,0,0,0-191.62-5.8,76.91,76.91,0,0,0-115.95,30.8h522.87V991.8a104.42,104.42,0,0,0-117.12,57.84Z" transform="translate(419.78 -0.44)"/><path class="cls-14" d="M404.86,1027.5c18.11-18.14,44.34-29.57,73.58-29.63a106,106,0,0,1,62.22,19.6,106,106,0,0,1,62.22-19.6c29.29.06,55.55,11.53,73.66,29.71A123.94,123.94,0,0,1,710,986.82c-23-20.46-54.5-33.13-89.39-33.21a136.17,136.17,0,0,0-80,25.19,136.2,136.2,0,0,0-80-25.19c-34.85.08-66.36,12.73-89.33,33.16A123.67,123.67,0,0,1,404.86,1027.5Z" transform="translate(419.78 -0.44)"/><path class="cls-13" d="M339.45,1054.36a72.64,72.64,0,0,1,42.34,13.21,86.67,86.67,0,0,1,23.07-40.07,123.67,123.67,0,0,0-33.49-40.73c-17.05,15.17-29.4,34.62-34.86,56.42a93.47,93.47,0,0,0-54.41-17c-38.76.08-71.56,22.82-83,54.24h84.76C296.15,1064.71,316.45,1054.4,339.45,1054.36Z" transform="translate(419.78 -0.44)"/><path class="cls-14" d="M339.45,1054.36a72.64,72.64,0,0,1,42.34,13.21,86.67,86.67,0,0,1,23.07-40.07,123.67,123.67,0,0,0-33.49-40.73c-17.05,15.17-29.4,34.62-34.86,56.42a93.47,93.47,0,0,0-54.41-17c-38.76.08-71.56,22.82-83,54.24h84.76C296.15,1064.71,316.45,1054.4,339.45,1054.36Z" transform="translate(419.78 -0.44)"/><path class="cls-13" d="M799.22,1026.2a93.47,93.47,0,0,0-54.41,17C739.35,1021.41,727,1002,710,986.82a123.94,123.94,0,0,0-33.46,40.76,86.52,86.52,0,0,1,23,40,72.66,72.66,0,0,1,42.34-13.21c23,0,43.31,10.35,55.61,26.08h84.76C870.78,1049,838,1026.28,799.22,1026.2Z" transform="translate(419.78 -0.44)"/><path class="cls-14" d="M799.22,1026.2a93.47,93.47,0,0,0-54.41,17C739.35,1021.41,727,1002,710,986.82a123.94,123.94,0,0,0-33.46,40.76,86.52,86.52,0,0,1,23,40,72.66,72.66,0,0,1,42.34-13.21c23,0,43.31,10.35,55.61,26.08h84.76C870.78,1049,838,1026.28,799.22,1026.2Z" transform="translate(419.78 -0.44)"/><path class="cls-8" d="M741.86,1054.36a72.66,72.66,0,0,0-42.34,13.21,86.52,86.52,0,0,0-23-40c-18.11-18.18-44.37-29.65-73.66-29.71a106,106,0,0,0-62.22,19.6,106,106,0,0,0-62.22-19.6c-29.24.06-55.47,11.49-73.58,29.63a86.67,86.67,0,0,0-23.07,40.07,72.64,72.64,0,0,0-42.34-13.21c-23,0-43.3,10.35-55.6,26.08H797.47C785.17,1064.71,764.87,1054.4,741.86,1054.36Z" transform="translate(419.78 -0.44)"/></g></g></svg>