<svg id="Слой_1" data-name="Слой 1" xmlns="http://www.w3.org/2000/svg" xmlns:xlink="http://www.w3.org/1999/xlink" viewBox="0 0 1920 370.61"><defs><style>.cls-1{fill:#212121;}.cls-2,.cls-3,.cls-4{opacity:0.1;}.cls-2{fill:url(#Degradado_sin_nombre_19);}.cls-3{fill:#fff;}.cls-4{fill:url(#Degradado_sin_nombre_19-2);}</style><linearGradient id="Degradado_sin_nombre_19" x1="-1248.36" y1="557.46" x2="-1243.32" y2="557.46" gradientTransform="matrix(-1, 0, 0, 1, -210.26, 0)" gradientUnits="userSpaceOnUse"><stop offset="0" stop-color="#fff"/><stop offset="1" stop-color="#fbe9f5"/></linearGradient><linearGradient id="Degradado_sin_nombre_19-2" x1="288.1" y1="682.33" x2="293.13" y2="682.33" gradientTransform="matrix(1, 0, 0, 1, 0, 0)" xlink:href="#Degradado_sin_nombre_19"/></defs><path class="cls-1" d="M982.66,356.61c-86.39-2.3-144,.26-225.86,4.72-187.23,10.2-293.72,35.3-474.19,39.22-84.17,1.82-179.42,3.88-296.16-12.1-63.67-8.71-91-16.95-150.74-21.59-103.71-8.06-194,3.37-255.38,14.68v40.82h0v304h1920v-351C1338.07,387.42,1202.64,362.47,982.66,356.61Z" transform="translate(419.67 -355.75)"/><path class="cls-2" d="M1033.06,557.46a2.52,2.52,0,1,0,2.52-2.52A2.51,2.51,0,0,0,1033.06,557.46Z" transform="translate(419.67 -355.75)"/><path class="cls-3" d="M-150.68,540.08a5,5,0,0,1-5,5,5,5,0,0,1-5-5,5,5,0,0,1,5-5A5,5,0,0,1-150.68,540.08Z" transform="translate(419.67 -355.75)"/><path class="cls-3" d="M-326.46,458.13a8.32,8.32,0,0,1-8.32,8.31,8.31,8.31,0,0,1-8.31-8.31,8.31,8.31,0,0,1,8.31-8.31A8.32,8.32,0,0,1-326.46,458.13Z" transform="translate(419.67 -355.75)"/><path class="cls-3" d="M862.28,449.34a2.1,2.1,0,1,0,2.09-2.1A2.09,2.09,0,0,0,862.28,449.34Z" transform="translate(419.67 -355.75)"/><path class="cls-3" d="M76.52,483.24a3,3,0,1,1-3-3A3,3,0,0,1,76.52,483.24Z" transform="translate(419.67 -355.75)"/><path class="cls-3" d="M-332.8,646.42a2.1,2.1,0,0,1-2.63,1.37,2.1,2.1,0,0,1-1.37-2.62,2.11,2.11,0,0,1,2.63-1.38A2.1,2.1,0,0,1-332.8,646.42Z" transform="translate(419.67 -355.75)"/><path class="cls-3" d="M306.35,497.3a3,3,0,1,1-3,3A3,3,0,0,1,306.35,497.3Z" transform="translate(419.67 -355.75)"/><path class="cls-3" d="M1293.53,469.7a5,5,0,1,1-.21-7.05A5,5,0,0,1,1293.53,469.7Z" transform="translate(419.67 -355.75)"/><path class="cls-3" d="M1372.86,645a5,5,0,1,0-2.06,6.74A5,5,0,0,0,1372.86,645Z" transform="translate(419.67 -355.75)"/><path class="cls-3" d="M1135.06,650.24a5,5,0,1,0-2,6.74A5,5,0,0,0,1135.06,650.24Z" transform="translate(419.67 -355.75)"/><path class="cls-3" d="M937.42,598.14a5,5,0,1,1-5,5A5,5,0,0,1,937.42,598.14Z" transform="translate(419.67 -355.75)"/><path class="cls-4" d="M293.13,682.33a2.52,2.52,0,1,1-2.51-2.51A2.51,2.51,0,0,1,293.13,682.33Z" transform="translate(419.67 -355.75)"/><path class="cls-3" d="M-18.08,643.21a2.1,2.1,0,0,1-2.09,2.1,2.1,2.1,0,0,1-2.1-2.1,2.1,2.1,0,0,1,2.1-2.09A2.1,2.1,0,0,1-18.08,643.21Z" transform="translate(419.67 -355.75)"/><path class="cls-3" d="M577.21,532.11a3,3,0,1,1-3-3A3,3,0,0,1,577.21,532.11Z" transform="translate(419.67 -355.75)"/><path class="cls-3" d="M767.4,416.67a5,5,0,1,1,2.05,6.75A5,5,0,0,1,767.4,416.67Z" transform="translate(419.67 -355.75)"/></svg>