<svg xmlns="http://www.w3.org/2000/svg" xmlns:xlink="http://www.w3.org/1999/xlink" viewBox="0 0 1890.64 789.87"><defs><style>.cls-1{isolation:isolate;}.cls-2{opacity:0.1;}.cls-3,.cls-5{mix-blend-mode:overlay;}.cls-4,.cls-5{fill:none;stroke:#fff;stroke-miterlimit:10;}.cls-6{fill:url(#Degradado_sin_nombre_19);}.cls-7{fill:url(#Degradado_sin_nombre_19-2);}.cls-8{fill:#fff;}.cls-9{fill:url(#Degradado_sin_nombre_19-3);}.cls-10{fill:url(#Degradado_sin_nombre_19-4);}</style><linearGradient id="Degradado_sin_nombre_19" x1="1250.01" y1="443.32" x2="1253.53" y2="443.32" gradientUnits="userSpaceOnUse"><stop offset="0" stop-color="#fff"/><stop offset="1" stop-color="#fbe9f5"/></linearGradient><linearGradient id="Degradado_sin_nombre_19-2" x1="1356.44" y1="221.62" x2="1361.48" y2="221.62" xlink:href="#Degradado_sin_nombre_19"/><linearGradient id="Degradado_sin_nombre_19-3" x1="657.75" y1="-9034.41" x2="662.78" y2="-9034.41" gradientTransform="translate(9154.24 1039.32) rotate(-90)" xlink:href="#Degradado_sin_nombre_19"/><linearGradient id="Degradado_sin_nombre_19-4" x1="-391.09" y1="349.61" x2="-387.57" y2="349.61" xlink:href="#Degradado_sin_nombre_19"/></defs><g class="cls-1"><g id="Слой_1" data-name="Слой 1"><g class="cls-2"><g class="cls-3"><path class="cls-4" d="M-105.56,505a92.62,92.62,0,0,0-10.09-15.58,91.68,91.68,0,0,0-128.86-14.3A91.67,91.67,0,0,0-258.8,603.94a91.56,91.56,0,0,0,12,12.44" transform="translate(391.09 -133.36)"/><path class="cls-4" d="M-214.55,634.18a91.59,91.59,0,0,0,84.61-15.95,91.59,91.59,0,0,0,34.12-78.74" transform="translate(391.09 -133.36)"/><path class="cls-4" d="M-272.86,579.44c-53.53,51.47-84.33,95.38-73.42,109,14.84,18.54,101.25-26,193-99.38S.81,441.09-14,422.54c-10.9-13.62-60.42,6.77-122.3,47.65l7.18,5.27c20.77-10.61,35.83-14.39,40.29-8.82,8.94,11.17-28.13,55.7-82.81,99.46s-106.25,70.17-115.19,59c-4.48-5.59,2.59-19.55,17.62-37.59" transform="translate(391.09 -133.36)"/></g><g class="cls-3"><circle class="cls-4" cx="1340.85" cy="566.21" r="111.43" transform="translate(289.84 235.81) rotate(-15.11)"/><path class="cls-4" d="M1338.27,533.42c-25.4,14.21-51.49,30.87-77.14,38.91a134.42,134.42,0,0,1-31.08,5.82,111.83,111.83,0,0,0,6.09,26.16c8.24,1.05,16.6,1.69,27.66-.22,26.9-4.48,60-24.69,90.08-41.21,29.93-17,66.65-30.42,92.11-26.15.84.12,1.64.26,2.43.4-.84-3.09-1.81-6.18-2.94-9.25a111.54,111.54,0,0,0-8.92-18.76,80.22,80.22,0,0,0-20-2.63C1393,506.41,1363.59,519,1338.27,533.42Z" transform="translate(391.09 -133.36)"/><path class="cls-4" d="M1275.29,534.16c19.54-7.75,43.42-12,65.63-17.14,22.3-4.95,46.07-12.64,60.24-23.18a70.38,70.38,0,0,0,12.56-11.95,112.52,112.52,0,0,0-11.38-8.61c-14.32,11.85-39.86,21.38-63.73,26.76-26.12,6.24-56.07,12-74.86,21.55-10.8,5.44-16.16,10.6-22.84,16.32-2.92,2.55-6.18,5.29-9.68,8.28a110.87,110.87,0,0,0-1.81,18C1242.87,552.09,1254.35,542.61,1275.29,534.16Z" transform="translate(391.09 -133.36)"/><path class="cls-4" d="M1390.27,582.05c21.51-7.36,44.62-16.64,61.53-26.47a110.28,110.28,0,0,0-2-12.52c-16.91,9.48-38.56,18.59-58.71,25.53-29,10.23-61.87,20.78-83.71,32.33-12.53,6.57-19.23,11.86-27.45,17.85-7,5.21-15.53,11.22-25,18.43,1.91,2.31,3.91,4.55,6,6.68,17.43-13.2,31.61-23.52,56.3-34.92C1339.49,598.78,1365.69,590.58,1390.27,582.05Z" transform="translate(391.09 -133.36)"/><path class="cls-4" d="M1240.26,518.29c25.45-6.49,55.37-24.61,82.76-39.66a248.48,248.48,0,0,1,45.54-20.35,111.41,111.41,0,0,0-128.3,60Z" transform="translate(391.09 -133.36)"/><path class="cls-4" d="M1365.83,608.67c-25.39,14.2-51.49,30.87-77.14,38.9a139.22,139.22,0,0,1-18.94,4.45,112,112,0,0,0,41.76,21.7c22.35-8.28,47-23,69.94-35.6,18.86-10.7,40.42-20,60.16-24.33a111.85,111.85,0,0,0,9.55-31.7c-2.22-.2-4.55-.33-7.06-.36C1420.58,581.65,1391.15,594.23,1365.83,608.67Z" transform="translate(391.09 -133.36)"/><path class="cls-4" d="M1336.9,677.59a111.61,111.61,0,0,0,88.8-39.13c-8.44,0-16.91.4-27.8,3.76C1378.9,648,1357.71,662.37,1336.9,677.59Z" transform="translate(391.09 -133.36)"/></g><g class="cls-3"><circle class="cls-4" cx="198.49" cy="256.43" r="78.8" transform="translate(274.31 198.98) rotate(-65.8)"/><path class="cls-4" d="M214.59,239.64c-19.45-6.72-40.53-12.66-56.84-22.42a95.55,95.55,0,0,1-17.69-13.67,78.73,78.73,0,0,0-10.95,15.52,61.3,61.3,0,0,0,13.13,14.5c15,12.1,41.27,20.07,64.14,28.17,23.05,7.81,47.42,20.88,57.14,36.33.33.5.63,1,.93,1.47q1.86-2.85,3.5-5.9a79.86,79.86,0,0,0,5.71-13.54,57.13,57.13,0,0,0-8-11.81C254.6,255.84,234.12,246.22,214.59,239.64Z" transform="translate(391.09 -133.36)"/><path class="cls-4" d="M176.47,180.78c15.4,10.38,39,17.66,59.87,25a175.44,175.44,0,0,1,32.17,14.46,78.79,78.79,0,0,0-92-39.5Z" transform="translate(391.09 -133.36)"/><path class="cls-4" d="M187.83,289.59c-19.45-6.72-40.53-12.66-56.83-22.42a98.09,98.09,0,0,1-11.26-7.91,79.16,79.16,0,0,0,8.19,32.26c14.89,7.9,34.27,14,51.7,20.17,14.52,4.92,29.57,11.94,41.15,20.32A79.15,79.15,0,0,0,242,322.14c-.94-1.27-2-2.56-3.13-3.9C227.85,305.79,207.36,296.17,187.83,289.59Z" transform="translate(391.09 -133.36)"/></g><path class="cls-5" d="M1197.41,231.86a60.32,60.32,0,1,1-9.4-84.78A60.32,60.32,0,0,1,1197.41,231.86Z" transform="translate(391.09 -133.36)"/><path class="cls-5" d="M302.21,370.3a29.85,29.85,0,1,1-4.65-42A29.84,29.84,0,0,1,302.21,370.3Z" transform="translate(391.09 -133.36)"/><g class="cls-3"><circle class="cls-4" cx="730.65" cy="471.65" r="49.66" transform="translate(407.37 834.25) rotate(-67.61)"/><circle class="cls-4" cx="1096.86" cy="323.7" r="11.76"/><path class="cls-4" d="M729.05,439.05a4.53,4.53,0,1,1-4.53-4.53A4.53,4.53,0,0,1,729.05,439.05Z" transform="translate(391.09 -133.36)"/><path class="cls-4" d="M765,443.58a4.53,4.53,0,1,1-4.52-4.53A4.52,4.52,0,0,1,765,443.58Z" transform="translate(391.09 -133.36)"/><path class="cls-4" d="M712.63,501.09a4.53,4.53,0,1,1-4.52-4.53A4.52,4.52,0,0,1,712.63,501.09Z" transform="translate(391.09 -133.36)"/><path class="cls-4" d="M751.49,452.58a9,9,0,1,1-9-9A9,9,0,0,1,751.49,452.58Z" transform="translate(391.09 -133.36)"/><path class="cls-4" d="M776.2,491.63a17.83,17.83,0,0,0-24.92,25.22A49.77,49.77,0,0,0,776.2,491.63Z" transform="translate(391.09 -133.36)"/></g><g class="cls-3"><path class="cls-6" d="M1253.53,443.32a1.76,1.76,0,1,1-1.76-1.76A1.75,1.75,0,0,1,1253.53,443.32Z" transform="translate(391.09 -133.36)"/><path class="cls-7" d="M1361.48,221.62a2.52,2.52,0,1,1-2.52-2.52A2.51,2.51,0,0,1,1361.48,221.62Z" transform="translate(391.09 -133.36)"/><path class="cls-8" d="M411.71,845.76a5,5,0,1,1-5-5A5,5,0,0,1,411.71,845.76Z" transform="translate(391.09 -133.36)"/><path class="cls-8" d="M951.35,597.24a5,5,0,1,1-5-5A5,5,0,0,1,951.35,597.24Z" transform="translate(391.09 -133.36)"/><path class="cls-8" d="M473.39,519.55a5,5,0,1,1-5-5A5,5,0,0,1,473.39,519.55Z" transform="translate(391.09 -133.36)"/><path class="cls-8" d="M1499.55,815.94a5,5,0,1,1-5-5A5,5,0,0,1,1499.55,815.94Z" transform="translate(391.09 -133.36)"/><path class="cls-8" d="M1403.57,754.29a8.31,8.31,0,1,1-8.31-8.31A8.31,8.31,0,0,1,1403.57,754.29Z" transform="translate(391.09 -133.36)"/><path class="cls-8" d="M325.48,918.23a5,5,0,1,1-5-5A5,5,0,0,1,325.48,918.23Z" transform="translate(391.09 -133.36)"/><path class="cls-8" d="M1299.26,349.5a2.1,2.1,0,1,1-2.09-2.1A2.09,2.09,0,0,1,1299.26,349.5Z" transform="translate(391.09 -133.36)"/><path class="cls-8" d="M1463.52,185.93a8.31,8.31,0,1,1-8.31-8.31A8.31,8.31,0,0,1,1463.52,185.93Z" transform="translate(391.09 -133.36)"/><path class="cls-8" d="M1497.56,273.4a3,3,0,1,1-3-3A3,3,0,0,1,1497.56,273.4Z" transform="translate(391.09 -133.36)"/><path class="cls-9" d="M119.83,376.54a2.52,2.52,0,1,1-2.52,2.52A2.51,2.51,0,0,1,119.83,376.54Z" transform="translate(391.09 -133.36)"/><path class="cls-8" d="M247.71,438.75a2.1,2.1,0,1,1-2.1,2.1A2.1,2.1,0,0,1,247.71,438.75Z" transform="translate(391.09 -133.36)"/><path class="cls-8" d="M-45.09,232.5a8.31,8.31,0,0,1,8.31,8.31,8.31,8.31,0,0,1-8.31,8.31,8.31,8.31,0,0,1-8.31-8.31A8.31,8.31,0,0,1-45.09,232.5Z" transform="translate(391.09 -133.36)"/><path class="cls-8" d="M42.38,198.46a3,3,0,1,1-3,3A3,3,0,0,1,42.38,198.46Z" transform="translate(391.09 -133.36)"/><path class="cls-8" d="M-384.52,815.59a5,5,0,0,1,5-5,5,5,0,0,1,5,5,5,5,0,0,1-5,5A5,5,0,0,1-384.52,815.59Z" transform="translate(391.09 -133.36)"/><path class="cls-10" d="M-387.57,349.61a1.76,1.76,0,0,1-1.76,1.77,1.76,1.76,0,0,1-1.76-1.77,1.76,1.76,0,0,1,1.76-1.76A1.76,1.76,0,0,1-387.57,349.61Z" transform="translate(391.09 -133.36)"/><path class="cls-8" d="M-341.84,255.79a2.1,2.1,0,0,1-2.09,2.09,2.1,2.1,0,0,1-2.1-2.09,2.1,2.1,0,0,1,2.1-2.1A2.1,2.1,0,0,1-341.84,255.79Z" transform="translate(391.09 -133.36)"/></g></g></g></g></svg>