<svg id="Слой_1" data-name="Слой 1" xmlns="http://www.w3.org/2000/svg" viewBox="0 0 377.6 377.68"><defs><style>.cls-1{fill:#212121;}</style></defs><path class="cls-1" d="M905,639.1c-.88-20.06-4.13-33.86-8.78-45.82a92,92,0,0,0-21.84-33.49A92.94,92.94,0,0,0,841,538c-12-4.64-25.75-7.89-45.81-8.78-20.22-1-26.64-1.18-77.92-1.18s-57.69.23-77.83,1.11-33.87,4.13-45.82,8.78a96.72,96.72,0,0,0-55.26,55.26c-4.65,12-7.89,25.75-8.78,45.82s-1.18,26.63-1.18,77.91.22,57.69,1.11,77.83,4.13,33.87,8.78,45.82a96.64,96.64,0,0,0,55.26,55.26c12,4.65,25.74,7.9,45.81,8.78s26.57,1.11,77.84,1.11,57.69-.22,77.84-1.11,33.86-4.13,45.81-8.78a96.55,96.55,0,0,0,55.26-55.26c4.65-12,7.9-25.75,8.78-45.82S906,768.21,906,716.94s-.08-57.7-1-77.84ZM871,793.3c-.81,18.44-3.91,28.41-6.49,35.05a62.65,62.65,0,0,1-35.86,35.85c-6.64,2.58-16.67,5.68-35,6.49-19.93.89-25.9,1.11-76.29,1.11s-56.44-.22-76.29-1.11c-18.45-.81-28.41-3.91-35-6.49a58.12,58.12,0,0,1-21.69-14.09,58.8,58.8,0,0,1-14.09-21.69c-2.58-6.64-5.68-16.68-6.49-35-.89-19.92-1.11-25.89-1.11-76.28s.22-56.45,1.11-76.29c.81-18.45,3.91-28.4,6.49-35a57.39,57.39,0,0,1,14.17-21.69A58.72,58.72,0,0,1,606.09,570c6.64-2.58,16.67-5.68,35-6.49,19.92-.89,25.9-1.11,76.29-1.11s56.44.22,76.29,1.11c18.45.81,28.41,3.91,35,6.49a62.32,62.32,0,0,1,35.78,35.78c2.58,6.65,5.68,16.67,6.49,35,.89,19.92,1.11,25.89,1.11,76.29s-.22,56.29-1.11,76.21Zm0,0" transform="translate(-528.4 -528.06)"/><path class="cls-1" d="M717.27,619.92a97,97,0,1,0,97,97,97,97,0,0,0-97-97Zm0,160a62.94,62.94,0,1,1,62.94-62.93,62.94,62.94,0,0,1-62.94,62.93Zm0,0" transform="translate(-528.4 -528.06)"/><path class="cls-1" d="M840.78,616.08a22.65,22.65,0,1,1-22.65-22.65,22.65,22.65,0,0,1,22.65,22.65Zm0,0" transform="translate(-528.4 -528.06)"/></svg>