<svg id="Слой_1" data-name="Слой 1" xmlns="http://www.w3.org/2000/svg" viewBox="0 0 395.64 395.72"><defs><style>.cls-1{fill:#fff;}</style></defs><path class="cls-1" d="M910.92,632.62c-.92-21-4.32-35.48-9.2-48a101.33,101.33,0,0,0-57.9-57.89c-12.6-4.87-27-8.28-48-9.2-21.19-1-27.91-1.24-81.64-1.24s-60.45.23-81.55,1.16-35.48,4.33-48,9.2a96.49,96.49,0,0,0-35.1,22.88,97.48,97.48,0,0,0-22.8,35c-4.87,12.6-8.27,27-9.2,48-1,21.19-1.24,27.91-1.24,81.64s.24,60.45,1.16,81.55,4.33,35.49,9.2,48a101.31,101.31,0,0,0,57.9,57.9c12.61,4.87,27,8.27,48,9.2S660.38,912,714.11,912s60.45-.23,81.55-1.16,35.48-4.33,48-9.2a101.22,101.22,0,0,0,57.9-57.9c4.87-12.6,8.27-27,9.2-48s1.16-27.83,1.16-81.55-.08-60.45-1-81.56ZM875.29,794.19c-.86,19.32-4.1,29.76-6.81,36.72a65.64,65.64,0,0,1-37.57,37.57c-6.95,2.7-17.47,5.95-36.72,6.8-20.87.93-27.13,1.16-79.93,1.16s-59.14-.23-79.93-1.16c-19.33-.85-29.77-4.1-36.72-6.8A65.3,65.3,0,0,1,560.11,831c-2.7-7-6-17.48-6.8-36.72-.93-20.88-1.16-27.14-1.16-79.94s.23-59.14,1.16-79.93c.85-19.33,4.1-29.76,6.8-36.72A60.15,60.15,0,0,1,575,575a61.42,61.42,0,0,1,22.72-14.76c7-2.71,17.48-6,36.73-6.81,20.87-.92,27.13-1.16,79.93-1.16s59.13.24,79.93,1.16c19.33.86,29.76,4.1,36.72,6.81A60.9,60.9,0,0,1,853.72,575a61.54,61.54,0,0,1,14.76,22.73c2.71,7,5.95,17.47,6.81,36.72.92,20.87,1.16,27.13,1.16,79.93s-.24,59-1.16,79.86Zm0,0" transform="translate(-516.28 -516.28)"/><path class="cls-1" d="M714.18,612.52A101.66,101.66,0,1,0,815.84,714.18,101.68,101.68,0,0,0,714.18,612.52Zm0,167.6a65.94,65.94,0,1,1,65.94-65.94,65.95,65.95,0,0,1-65.94,65.94Zm0,0" transform="translate(-516.28 -516.28)"/><path class="cls-1" d="M843.59,608.5a23.73,23.73,0,1,1-23.73-23.73,23.73,23.73,0,0,1,23.73,23.73Zm0,0" transform="translate(-516.28 -516.28)"/></svg>