<svg id="Слой_1" data-name="Слой 1" xmlns="http://www.w3.org/2000/svg" viewBox="0 0 310.81 274.38"><defs><style>.cls-1{fill:#ff3f68;}</style></defs><path class="cls-1" d="M-337.32,974.93a9.75,9.75,0,0,1-6.39-2.4c-13.41-11.73-26.31-22.73-37.7-32.43-67-57.12-111.31-94.86-111.31-150,0-51.05,35.49-89.55,82.56-89.55a73.61,73.61,0,0,1,46,15.89c13.06,10.1,21.76,23,26.88,32.33,5.13-9.35,13.83-22.23,26.89-32.33a73.59,73.59,0,0,1,46-15.89c47.06,0,82.56,38.5,82.56,89.55,0,55.15-44.28,92.89-111.31,150-11.39,9.7-24.29,20.7-37.7,32.43A9.75,9.75,0,0,1-337.32,974.93Z" transform="translate(492.72 -700.54)"/></svg>