<svg id="Слой_1" data-name="Слой 1" xmlns="http://www.w3.org/2000/svg" viewBox="0 0 406.17 406.17"><defs><style>.cls-1{fill:#aa5cff;}</style></defs><path class="cls-1" d="M468.92,313.83c-112,0-203.09,91.11-203.09,203.09S356.94,720,468.92,720,672,628.9,672,516.92,580.9,313.83,468.92,313.83Zm0,387.06c-101.44,0-184-82.53-184-184s82.53-184,184-184,184,82.53,184,184S570.36,700.89,468.92,700.89Z" transform="translate(-265.83 -313.83)"/><path class="cls-1" d="M371.6,634a7,7,0,0,0,9.87,0l92.24-92.23,1.45,12.18a7,7,0,0,0,12.51,3.35L511,526.12l35.77,15.33a7,7,0,0,0,9.16-9.17l-15.33-35.76,31.16-23.31a7,7,0,0,0-3.36-12.52l-38.63-4.6-4.61-38.64a7,7,0,0,0-12.52-3.35l-23.31,31.15-35.76-15.33a7,7,0,0,0-9.16,9.17l15.33,35.76-31.16,23.31a7,7,0,0,0,3.35,12.52l12.19,1.45-92.24,92.24a7,7,0,0,0,0,9.87ZM472.47,482.74a7,7,0,0,0,2.24-8.34l-10.62-24.77,24.77,10.61A7,7,0,0,0,497.2,458l16.15-21.58,3.19,26.76a7,7,0,0,0,6.1,6.1l26.77,3.2-21.59,16.14a7,7,0,0,0-2.23,8.34l10.62,24.77-24.78-10.61a7,7,0,0,0-8.33,2.23L487,534.94l-3.19-26.76a7,7,0,0,0-6.11-6.1l-26.76-3.2Zm-10.74,31.49,8.82,1,1.05,8.82-95.07,95.07-9.87-9.87Zm0,0" transform="translate(-265.83 -313.83)"/><path class="cls-1" d="M554.43,421.53l-9.87,9.87a7,7,0,1,0,9.87,9.87l9.87-9.87a7,7,0,1,0-9.87-9.87Zm0,0" transform="translate(-265.83 -313.83)"/><path class="cls-1" d="M476.67,398.06a7,7,0,0,0-4.94,8.54l3.62,13.48a7,7,0,1,0,13.48-3.61L485.21,403a7,7,0,0,0-8.54-4.93Zm0,0" transform="translate(-265.83 -313.83)"/><path class="cls-1" d="M516.4,546.35a7,7,0,0,0-4.93,8.55l3.61,13.48a7,7,0,1,0,13.48-3.61L525,551.29a7,7,0,0,0-8.55-4.94Zm0,0" transform="translate(-265.83 -313.83)"/><path class="cls-1" d="M421.06,457.27a7,7,0,0,0-3.61,13.48l13.48,3.61a7,7,0,0,0,3.62-13.48Zm0,0" transform="translate(-265.83 -313.83)"/><path class="cls-1" d="M582.85,500.62,569.36,497a7,7,0,0,0-3.61,13.48l13.48,3.61a7,7,0,0,0,3.62-13.48Zm0,0" transform="translate(-265.83 -313.83)"/></svg>