<svg id="Слой_1" data-name="Слой 1" xmlns="http://www.w3.org/2000/svg" xmlns:xlink="http://www.w3.org/1999/xlink" viewBox="0 0 521.17 674.02"><defs><style>.cls-1{fill:url(#Безымянный_градиент_4);}.cls-10,.cls-2,.cls-7{fill:#fff;}.cls-2,.cls-3,.cls-4,.cls-5,.cls-6{stroke:#fff;stroke-miterlimit:10;}.cls-4{fill:none;}.cls-5{fill:#f4ddb2;}.cls-6{fill:#ffd600;}.cls-7{font-size:20.86px;font-family:FuturaPT-Medium, Futura PT;font-weight:500;}.cls-8{letter-spacing:-0.02em;}.cls-9{letter-spacing:0.01em;}.cls-10{font-size:13.17px;font-family:FuturaPT-Book, Futura PT;}.cls-11{letter-spacing:-0.15em;}.cls-12{letter-spacing:-0.05em;}.cls-13{letter-spacing:-0.02em;}.cls-14{letter-spacing:-0.1em;}.cls-15{letter-spacing:-0.13em;}.cls-16{letter-spacing:-0.02em;}.cls-17{letter-spacing:-0.04em;}</style><linearGradient id="Безымянный_градиент_4" x1="-97.05" y1="-65.49" x2="506.06" y2="613.27" gradientUnits="userSpaceOnUse"><stop offset="0" stop-color="#333"/><stop offset="1" stop-color="#1a1a1a"/></linearGradient></defs><rect class="cls-1" width="521.17" height="674.02"/><rect x="29.14" y="28.91" width="462.47" height="615.23"/><path class="cls-2" d="M754.72,830H325.53V249.67H754.72Zm-428.09-1.1h427V250.76h-427Z" transform="translate(-279.75 -203.33)"/><circle class="cls-3" cx="260.38" cy="253.96" r="174.18"/><path class="cls-2" d="M540.12,632.05c-96.36,0-174.77-78.4-174.77-174.77s78.41-174.77,174.77-174.77,174.77,78.4,174.77,174.77S636.49,632.05,540.12,632.05Zm0-348.37c-95.72,0-173.6,77.88-173.6,173.6s77.88,173.6,173.6,173.6,173.6-77.88,173.6-173.6S635.85,283.68,540.12,283.68Z" transform="translate(-279.75 -203.33)"/><circle class="cls-2" cx="181.42" cy="116.03" r="1.29"/><circle class="cls-2" cx="216.23" cy="102.17" r="1.29"/><circle class="cls-2" cx="208.98" cy="106.84" r="0.81"/><circle class="cls-2" cx="212.68" cy="115.71" r="0.64"/><circle class="cls-2" cx="207.69" cy="99.11" r="0.81"/><circle class="cls-2" cx="212.52" cy="100.4" r="0.81"/><circle class="cls-2" cx="207.36" cy="102.98" r="0.81"/><circle class="cls-2" cx="208.65" cy="104.26" r="0.48"/><circle class="cls-2" cx="242.97" cy="122.15" r="0.97"/><circle class="cls-2" cx="227.67" cy="132.62" r="1.13"/><circle class="cls-2" cx="231.37" cy="153.73" r="0.97"/><circle class="cls-2" cx="209.78" cy="137.3" r="0.97"/><circle class="cls-2" cx="206.72" cy="164.21" r="1.45"/><circle class="cls-2" cx="222.51" cy="167.11" r="1.13"/><circle class="cls-2" cx="205.43" cy="153.25" r="0.81"/><rect class="cls-2" x="460.33" y="312.67" width="28.1" height="0.16" transform="translate(-369.53 41.84) rotate(-26.57)"/><rect class="cls-2" x="207.44" y="99.59" width="0.16" height="2.9"/><rect class="cls-2" x="489.93" y="300.93" width="0.16" height="4.3" transform="translate(-195.24 509.07) rotate(-77.01)"/><rect class="cls-2" x="493.96" y="302.58" width="0.16" height="3.89" transform="translate(-267.37 424.95) rotate(-65.56)"/><rect class="cls-2" x="509.27" y="299.02" width="0.16" height="32.94" transform="translate(-327.54 332.53) rotate(-53.35)"/><rect class="cls-2" x="487.67" y="306.03" width="0.16" height="1.82" transform="translate(-353.93 231.47) rotate(-45)"/><rect class="cls-2" x="488.48" y="307.58" width="0.16" height="2.6" transform="translate(-314.29 -140.34) rotate(-7.13)"/><rect class="cls-2" x="488" y="307.67" width="8.85" height="0.16" transform="translate(-367.89 115.85) rotate(-33.13)"/><rect class="cls-2" x="490.57" y="309.77" width="0.16" height="9.82" transform="translate(-364.03 15.4) rotate(-23.2)"/><rect class="cls-2" x="499.92" y="316.17" width="0.16" height="22.81" transform="translate(-369.33 222.69) rotate(-42.71)"/><rect class="cls-2" x="489.41" y="338.12" width="18.6" height="0.16" transform="translate(-346.78 -72.54) rotate(-14.01)"/><rect class="cls-2" x="478.95" y="348.44" width="16.65" height="0.16" transform="translate(-251.69 529.92) rotate(-75.53)"/><rect class="cls-2" x="509.43" y="335.8" width="0.16" height="21.24" transform="translate(-330.41 -113.45) rotate(-9.61)"/><polygon class="cls-2" points="222.5 167.19 206.71 164.28 206.73 164.13 222.53 167.03 222.5 167.19"/><polygon class="cls-2" points="222.58 167.15 222.44 167.06 231.47 153.85 231.6 153.94 222.58 167.15"/><rect class="cls-2" x="485.74" y="356.54" width="0.16" height="11.03" transform="translate(-318.72 -144.08) rotate(-6.71)"/><circle class="cls-2" cx="175.14" cy="134.24" r="0.81"/><circle class="cls-2" cx="180.46" cy="132.78" r="0.97"/><circle class="cls-2" cx="181.1" cy="140.84" r="0.64"/><circle class="cls-2" cx="179.17" cy="149.86" r="0.97"/><circle class="cls-2" cx="172.08" cy="167.59" r="0.97"/><circle class="cls-2" cx="165.79" cy="173.87" r="1.13"/><circle class="cls-2" cx="157.57" cy="157.28" r="0.97"/><circle class="cls-2" cx="155.8" cy="153.25" r="0.81"/><circle class="cls-2" cx="149.2" cy="154.7" r="0.64"/><circle class="cls-2" cx="160.8" cy="183.7" r="0.97"/><circle class="cls-2" cx="157.9" cy="190.79" r="0.64"/><rect class="cls-2" x="460.44" y="336.1" width="0.16" height="8.08" transform="translate(-305.4 -165.52) rotate(-4.57)"/><rect class="cls-2" x="455.3" y="348.44" width="9.17" height="0.16" transform="translate(-243.8 536.64) rotate(-79.88)"/><rect class="cls-2" x="446.03" y="361.97" width="18.67" height="0.16" transform="translate(-327.13 451.45) rotate(-68.7)"/><rect class="cls-2" x="444.2" y="373.9" width="9.11" height="0.16" transform="translate(-412.75 223.53) rotate(-45)"/><polygon class="cls-2" points="165.72 173.91 157.34 157.15 157.49 157.08 165.86 173.84 165.72 173.91"/><polygon class="cls-2" points="157.34 157.15 155.73 153.28 155.88 153.22 157.49 157.09 157.34 157.15"/><rect class="cls-2" x="428.72" y="357.14" width="6.89" height="0.16" transform="translate(-339.15 -115.79) rotate(-10.83)"/><polygon class="cls-2" points="161.03 183.58 160.89 183.51 165.72 173.52 165.87 173.59 161.03 183.58"/><rect class="cls-2" x="435.1" y="390.65" width="7.66" height="0.16" transform="translate(-368.69 445.63) rotate(-67.74)"/><rect class="cls-2" x="454.97" y="336.67" width="5.31" height="0.16" transform="translate(-347.66 -82.53) rotate(-14.01)"/><circle class="cls-2" cx="237.98" cy="86.86" r="0.81"/><circle class="cls-2" cx="240.88" cy="84.93" r="0.81"/><circle class="cls-2" cx="235.24" cy="90.57" r="0.64"/><circle class="cls-2" cx="236.05" cy="93.63" r="0.48"/><circle class="cls-2" cx="259.41" cy="94.76" r="1.29"/><circle class="cls-2" cx="259.09" cy="103.14" r="0.97"/><circle class="cls-2" cx="275.36" cy="87.18" r="1.13"/><circle class="cls-2" cx="279.23" cy="87.51" r="1.13"/><circle class="cls-2" cx="283.42" cy="88.15" r="1.13"/><circle class="cls-2" cx="273.27" cy="105.71" r="1.29"/><circle class="cls-2" cx="272.94" cy="111.19" r="0.64"/><circle class="cls-2" cx="252.32" cy="124.41" r="0.64"/><circle class="cls-2" cx="257.15" cy="126.34" r="0.64"/><circle class="cls-2" cx="266.82" cy="120.22" r="0.64"/><circle class="cls-2" cx="269.72" cy="120.86" r="0.64"/><rect class="cls-2" x="515.39" y="294.02" width="0.16" height="2.97" transform="translate(-331.58 -84.47) rotate(-12.53)"/><rect class="cls-2" x="514.24" y="291.88" width="4.38" height="0.16" transform="translate(-303.15 334.65) rotate(-53.98)"/><rect class="cls-2" x="517.43" y="289.14" width="3.49" height="0.16" transform="translate(-352.98 133.24) rotate(-33.69)"/><rect class="cls-2" x="528.28" y="282.74" width="0.16" height="22.63" transform="translate(-208.3 486.79) rotate(-70.02)"/><polygon class="cls-2" points="259.61 94.67 259.54 94.52 275.33 87.11 275.4 87.26 259.61 94.67"/><rect class="cls-2" x="560.99" y="289.04" width="0.16" height="4.24" transform="translate(-91.76 598.1) rotate(-81.25)"/><rect class="cls-2" x="556.96" y="289.05" width="0.16" height="3.24" transform="translate(-25.97 637.63) rotate(-88.7)"/><line class="cls-4" x1="273.27" y1="105.71" x2="283.26" y2="87.99"/><rect class="cls-2" x="534.8" y="302.19" width="8.39" height="0.16" transform="translate(-63.83 625.73) rotate(-87.76)"/><rect class="cls-2" x="545.84" y="300.73" width="0.16" height="14.04" transform="translate(-125.29 593.81) rotate(-80.75)"/><rect class="cls-2" x="548" y="300.26" width="20.35" height="0.16" transform="translate(-257.07 436.14) rotate(-60.63)"/><rect class="cls-2" x="550.11" y="311.54" width="5.48" height="0.16" transform="translate(-76.59 637.88) rotate(-85.97)"/><rect class="cls-2" x="548.1" y="322.41" width="0.16" height="2.92" transform="translate(-162.96 588.82) rotate(-77.92)"/><polygon class="cls-2" points="267.05 120.1 266.92 120.01 273.04 110.99 273.17 111.08 267.05 120.1"/><rect class="cls-2" x="546.3" y="319.27" width="9.89" height="0.16" transform="translate(-199.75 544.73) rotate(-72.38)"/><rect class="cls-2" x="531.77" y="325.56" width="15.09" height="0.16" transform="translate(-348.9 -41) rotate(-16.1)"/><rect class="cls-2" x="536.54" y="326.85" width="13.29" height="0.16" transform="translate(-364.09 33.38) rotate(-22.86)"/><circle class="cls-2" cx="105.77" cy="183.78" r="1.05"/><circle class="cls-2" cx="105.69" cy="194.02" r="0.64"/><circle class="cls-2" cx="107.62" cy="200.78" r="0.64"/><circle class="cls-2" cx="132.44" cy="174.68" r="0.97"/><rect class="cls-2" x="384.7" y="382.44" width="28.23" height="0.16" transform="translate(-379.8 -58.51) rotate(-18.33)"/><rect class="cls-2" x="105.61" y="183.54" width="0.16" height="10.32"/><polygon class="cls-2" points="107.55 200.8 105.61 194.04 105.77 193.99 107.7 200.76 107.55 200.8"/><circle class="cls-2" cx="309.36" cy="97.01" r="0.64"/><circle class="cls-2" cx="317.26" cy="102.65" r="0.81"/><circle class="cls-2" cx="306.62" cy="120.38" r="0.81"/><circle class="cls-2" cx="321.45" cy="128.43" r="0.81"/><circle class="cls-2" cx="291.96" cy="112.48" r="0.64"/><circle class="cls-2" cx="289.06" cy="104.43" r="0.64"/><circle class="cls-2" cx="344.17" cy="155.02" r="0.64"/><circle class="cls-2" cx="349.64" cy="136.97" r="0.64"/><rect class="cls-2" x="617.22" y="349.24" width="18.86" height="0.16" transform="translate(-168.69 644.88) rotate(-73.19)"/><rect class="cls-2" x="612.39" y="327.6" width="0.16" height="34.74" transform="translate(-357.08 276.93) rotate(-40.49)"/><rect class="cls-2" x="599.02" y="305.81" width="0.16" height="26.12" transform="translate(-323.13 -103.1) rotate(-9.23)"/><rect class="cls-2" x="593.54" y="319.37" width="0.16" height="16.72" transform="translate(-260.2 485.28) rotate(-61.06)"/><rect class="cls-2" x="578.87" y="311.48" width="0.16" height="16.72" transform="translate(-258.43 472.21) rotate(-61.45)"/><rect class="cls-2" x="570.17" y="307.29" width="0.16" height="8.98" transform="translate(-351.88 9.79) rotate(-19.94)"/><rect class="cls-2" x="592.89" y="298.37" width="0.16" height="9.74" transform="matrix(0.59, -0.81, 0.81, 0.59, -282.13, 398.45)"/><circle class="cls-2" cx="309.84" cy="143.26" r="0.81"/><circle class="cls-2" cx="319.83" cy="146.48" r="1.45"/><rect class="cls-2" x="594.67" y="342.99" width="0.16" height="10.4" transform="translate(-193.71 609.81) rotate(-72.77)"/><circle class="cls-2" cx="344.65" cy="104.91" r="1.45"/><circle class="cls-2" cx="349.48" cy="110.07" r="0.81"/><circle class="cls-2" cx="349.16" cy="114.9" r="0.81"/><circle class="cls-2" cx="337.56" cy="112.32" r="0.81"/><rect class="cls-2" x="626.89" y="307.16" width="0.16" height="7.31" transform="translate(-328.54 289.25) rotate(-41.42)"/><rect class="cls-2" x="626.65" y="315.73" width="4.84" height="0.16" transform="translate(-7.55 719.2) rotate(-86.19)"/><rect class="cls-2" x="623.03" y="310.99" width="0.16" height="11.88" transform="translate(-101.2 653.13) rotate(-77.47)"/><rect class="cls-2" x="617.2" y="314.44" width="12.14" height="0.16" transform="matrix(0.98, -0.19, 0.19, 0.98, -327.29, -82.19)"/><circle class="cls-2" cx="384.61" cy="136.17" r="0.81"/><circle class="cls-2" cx="387.99" cy="146.64" r="0.97"/><rect class="cls-2" x="666.05" y="339.41" width="0.16" height="10.8" transform="translate(-354.33 23.28) rotate(-18.3)"/><circle class="cls-2" cx="252" cy="131.82" r="0.64"/><circle class="cls-2" cx="257.64" cy="133.59" r="0.81"/><circle class="cls-2" cx="261.02" cy="136.01" r="0.97"/><circle class="cls-2" cx="266.98" cy="134.56" r="0.81"/><circle class="cls-2" cx="265.21" cy="146" r="0.97"/><circle class="cls-2" cx="266.18" cy="161.47" r="0.97"/><circle class="cls-2" cx="254.74" cy="160.98" r="0.81"/><circle class="cls-2" cx="275.04" cy="163.24" r="0.81"/><circle class="cls-2" cx="279.39" cy="165.66" r="0.97"/><circle class="cls-2" cx="286" cy="166.14" r="0.81"/><circle class="cls-2" cx="270.37" cy="170.49" r="1.29"/><circle class="cls-2" cx="280.03" cy="170.17" r="1.29"/><circle class="cls-2" cx="283.1" cy="154.22" r="0.81"/><circle class="cls-2" cx="279.87" cy="147.13" r="0.81"/><circle class="cls-2" cx="277.3" cy="132.62" r="1.13"/><circle class="cls-2" cx="286.16" cy="131.17" r="0.97"/><circle class="cls-2" cx="291.48" cy="147.45" r="0.81"/><rect class="cls-2" x="534.4" y="333.09" width="0.16" height="5.71" transform="translate(-218.37 550.6) rotate(-73.61)"/><polygon class="cls-2" points="260.81 135.91 257.59 133.66 257.68 133.53 260.91 135.78 260.81 135.91"/><rect class="cls-2" x="542.78" y="339.13" width="0.16" height="10.71" transform="translate(-367.5 15.87) rotate(-21.16)"/><rect class="cls-2" x="540.17" y="343.44" width="11.5" height="0.16" transform="translate(-161.34 623.18) rotate(-80.67)"/><rect class="cls-2" x="545.36" y="349.31" width="0.16" height="15.5" transform="translate(-300.96 -168.61) rotate(-3.58)"/><rect class="cls-2" x="540.04" y="358.66" width="0.16" height="11.62" transform="translate(-120.35 689.93) rotate(-88.26)"/><rect class="cls-2" x="550.35" y="361.14" width="0.16" height="8.91" transform="translate(-205.61 620.29) rotate(-77.47)"/><polygon class="cls-2" points="270.13 170.36 265.94 161.34 266.09 161.27 270.28 170.29 270.13 170.36"/><polygon class="cls-2" points="279.19 165.56 275 163.31 275.08 163.17 279.27 165.42 279.19 165.56"/><rect class="cls-2" x="562.28" y="365.92" width="0.16" height="6.78" transform="translate(-113.02 710.13) rotate(-87.27)"/><polygon class="cls-2" points="279.79 170.01 279.47 165.82 279.63 165.81 279.95 170 279.79 170.01"/><polygon class="cls-2" points="279.63 165.52 279.47 165.47 283.02 154.19 283.17 154.24 279.63 165.52"/><rect class="cls-2" x="561.15" y="350.1" width="0.16" height="7.79" transform="translate(-375.93 60.65) rotate(-24.44)"/><rect class="cls-2" x="561.65" y="354.08" width="10.77" height="0.16" transform="translate(-376.3 232.15) rotate(-38.97)"/><rect class="cls-2" x="568.56" y="334.26" width="0.16" height="16.92" transform="translate(-357.14 -13.71) rotate(-17.74)"/><rect class="cls-2" x="558.25" y="335.84" width="0.16" height="14.73" transform="translate(-331.2 -100.3) rotate(-10.08)"/><circle class="cls-2" cx="305.98" cy="187.41" r="0.81"/><circle class="cls-2" cx="312.42" cy="185.8" r="0.81"/><circle class="cls-2" cx="327.09" cy="188.21" r="0.97"/><circle class="cls-2" cx="322.73" cy="166.78" r="0.81"/><circle class="cls-2" cx="293.41" cy="194.18" r="0.81"/><circle class="cls-2" cx="290.51" cy="182.25" r="0.81"/><rect class="cls-2" x="578.07" y="380.16" width="0.16" height="16.31" transform="translate(-252.81 610.68) rotate(-71.57)"/><polygon class="cls-2" points="293.29 194.41 293.21 194.27 305.78 187.5 305.85 187.64 293.29 194.41"/><rect class="cls-2" x="585.62" y="389.85" width="6.64" height="0.16" transform="translate(-356.73 -48.84) rotate(-14.04)"/><rect class="cls-2" x="599.5" y="382.89" width="0.16" height="15.05" transform="translate(-167.54 710.91) rotate(-80.13)"/><rect class="cls-2" x="586.44" y="379.54" width="21.76" height="0.16" transform="translate(-300.86 520.44) rotate(-61.53)"/><circle class="cls-2" cx="131.31" cy="234.46" r="1.13"/><circle class="cls-2" cx="130.67" cy="222.54" r="1.13"/><circle class="cls-2" cx="139.53" cy="222.7" r="1.29"/><circle class="cls-2" cx="143.56" cy="214.8" r="1.13"/><circle class="cls-2" cx="153.06" cy="214.32" r="0.97"/><rect class="cls-2" x="410.49" y="426.01" width="0.16" height="11.62" transform="translate(-303.07 -179.89) rotate(-3.18)"/><rect class="cls-2" x="130.67" y="222.45" width="8.7" height="0.16"/><rect class="cls-2" x="416.67" y="422.07" width="9.08" height="0.16" transform="translate(-427.38 397.85) rotate(-62.53)"/><rect class="cls-2" x="423.29" y="417.72" width="9.37" height="0.16" transform="translate(-297.29 -184.57) rotate(-2.46)"/><circle class="cls-2" cx="170.47" cy="194.02" r="0.97"/><circle class="cls-2" cx="189.8" cy="204.33" r="0.97"/><circle class="cls-2" cx="179.17" cy="215.93" r="0.97"/><circle class="cls-2" cx="190.77" cy="231.08" r="1.29"/><polygon class="cls-2" points="179.09 215.96 170.39 194.04 170.54 193.99 179.24 215.9 179.09 215.96"/><rect class="cls-2" x="456.2" y="413.21" width="15.74" height="0.16" transform="translate(-433.96 272.41) rotate(-47.46)"/><rect class="cls-2" x="459.64" y="391.38" width="0.16" height="21.91" transform="translate(-391.37 415.31) rotate(-61.93)"/><polygon class="cls-2" points="190.54 230.96 178.94 215.82 179.07 215.72 190.67 230.87 190.54 230.96"/><circle class="cls-2" cx="213.33" cy="194.98" r="0.97"/><circle class="cls-2" cx="222.19" cy="198.69" r="1.13"/><circle class="cls-2" cx="241.69" cy="190.47" r="0.97"/><circle class="cls-2" cx="262.79" cy="198.37" r="1.13"/><circle class="cls-2" cx="271.66" cy="208.84" r="0.97"/><circle class="cls-2" cx="278.58" cy="208.68" r="0.81"/><circle class="cls-2" cx="283.58" cy="211.74" r="0.97"/><circle class="cls-2" cx="288.74" cy="211.09" r="0.97"/><rect class="cls-2" x="497.34" y="395.38" width="0.16" height="9.4" transform="translate(-340.51 506.47) rotate(-67.83)"/><polygon class="cls-2" points="222.22 198.76 222.16 198.61 241.81 190.24 241.88 190.38 222.22 198.76"/><rect class="cls-2" x="531.82" y="386.29" width="0.16" height="22.74" transform="translate(-308.13 550.89) rotate(-69.25)"/><polygon class="cls-2" points="271.76 208.73 262.73 198.42 262.85 198.31 271.88 208.63 271.76 208.73"/><rect class="cls-2" x="271.49" y="208.6" width="7.09" height="0.16"/><rect class="cls-2" x="560.67" y="410.71" width="0.16" height="5.81" transform="translate(-374.19 447.43) rotate(-56.31)"/><rect class="cls-2" x="563.47" y="414.82" width="5.2" height="0.16" transform="translate(-327.17 -129.32) rotate(-7.18)"/><circle class="cls-2" cx="286.32" cy="217.7" r="0.81"/><circle class="cls-2" cx="291.8" cy="229.63" r="0.81"/><circle class="cls-2" cx="295.5" cy="247.83" r="0.97"/><circle class="cls-2" cx="290.19" cy="238" r="0.81"/><rect class="cls-2" x="568.56" y="420.27" width="0.16" height="13.12" transform="translate(-406.02 73.06) rotate(-24.68)"/><polygon class="cls-2" points="290.26 238.02 290.11 237.99 291.72 229.61 291.88 229.64 290.26 238.02"/><rect class="cls-2" x="572.59" y="440.63" width="0.16" height="11.39" transform="translate(-423.81 127.02) rotate(-28.74)"/><polygon class="cls-2" points="295.59 247.69 291.72 229.32 291.88 229.29 295.74 247.66 295.59 247.69"/><circle class="cls-2" cx="311.62" cy="216.57" r="0.97"/><circle class="cls-2" cx="307.91" cy="220.28" r="0.81"/><circle class="cls-2" cx="315" cy="230.27" r="0.81"/><circle class="cls-2" cx="322.09" cy="230.91" r="1.13"/><circle class="cls-2" cx="327.25" cy="224.15" r="0.81"/><circle class="cls-2" cx="336.43" cy="223.66" r="1.29"/><circle class="cls-2" cx="332.24" cy="257.18" r="0.97"/><circle class="cls-2" cx="322.41" cy="257.02" r="1.13"/><circle class="cls-2" cx="332.56" cy="274.58" r="1.29"/><rect class="cls-2" x="587.08" y="421.59" width="5.01" height="0.16" transform="translate(-405.23 337.08) rotate(-45)"/><polygon class="cls-2" points="314.93 230.32 307.85 220.33 307.98 220.23 315.07 230.22 314.93 230.32"/><rect class="cls-2" x="598.21" y="430.36" width="0.16" height="7.12" transform="translate(-167.76 787.14) rotate(-84.81)"/><rect class="cls-2" x="600.16" y="430.77" width="8.51" height="0.16" transform="translate(-384.32 447.29) rotate(-52.7)"/><rect class="cls-2" x="606.98" y="427.07" width="9.37" height="0.16" transform="translate(-307.56 -160.44) rotate(-3.93)"/><polygon class="cls-2" points="332.34 257.05 332.18 257.03 336.33 223.47 336.49 223.49 332.34 257.05"/><rect class="cls-2" x="601.92" y="434.24" width="0.16" height="25.78" transform="translate(-285.29 -195.77) rotate(-0.72)"/><rect class="cls-2" x="606.91" y="455.51" width="0.16" height="9.67" transform="translate(-146.32 853.75) rotate(-88.74)"/><polygon class="cls-2" points="332.33 274.46 322.34 257.06 322.48 256.98 332.47 274.38 332.33 274.46"/><polygon class="cls-2" points="332.32 274.42 332 257.02 332.16 257.02 332.48 274.42 332.32 274.42"/><circle class="cls-2" cx="360.28" cy="220.76" r="0.64"/><rect class="cls-2" x="640.91" y="424.01" width="0.16" height="12.4" transform="translate(-339 -98.09) rotate(-8.97)"/><circle class="cls-2" cx="91.51" cy="283.93" r="0.64"/><circle class="cls-2" cx="99.24" cy="272.97" r="0.64"/><circle class="cls-2" cx="108.43" cy="270.87" r="0.81"/><circle class="cls-2" cx="111.81" cy="272.32" r="0.64"/><circle class="cls-2" cx="112.78" cy="269.1" r="0.64"/><circle class="cls-2" cx="116.65" cy="271.04" r="0.64"/><polygon class="cls-2" points="91.58 283.97 91.44 283.88 99.18 272.92 99.31 273.02 91.58 283.97"/><rect class="cls-2" x="379.05" y="475.09" width="9.23" height="0.16" transform="translate(-370.69 -112.52) rotate(-12.08)"/><rect class="cls-2" x="388.04" y="473.31" width="4.79" height="0.16" transform="translate(-428.38 -23.09) rotate(-21.95)"/><rect class="cls-2" x="389.87" y="473.06" width="0.16" height="3.89" transform="translate(-483.59 430.12) rotate(-65.56)"/><rect class="cls-2" x="391.34" y="474.85" width="5" height="0.16" transform="matrix(0.96, -0.29, 0.29, 0.96, -400.88, -68.2)"/><rect class="cls-2" x="394.38" y="471.45" width="0.16" height="3.89" transform="translate(-479.48 433.28) rotate(-65.56)"/><circle class="cls-2" cx="164.5" cy="249.93" r="0.81"/><circle class="cls-2" cx="129.38" cy="271.84" r="0.81"/><circle class="cls-2" cx="142.43" cy="282.32" r="0.97"/><circle class="cls-2" cx="142.27" cy="257.66" r="0.81"/><circle class="cls-2" cx="154.51" cy="271.52" r="0.81"/><rect class="cls-2" x="415.65" y="471.97" width="0.16" height="16.71" transform="translate(-498.95 297.09) rotate(-50.94)"/><rect class="cls-2" x="405.94" y="468" width="18.93" height="0.16" transform="translate(-490.15 260.39) rotate(-48.01)"/><rect class="cls-2" x="428.06" y="458.67" width="0.16" height="18.49" transform="translate(-482.28 197.48) rotate(-41.47)"/><rect class="cls-2" x="420.31" y="480.08" width="15.98" height="0.16" transform="translate(-490.72 203.85) rotate(-41.75)"/><rect class="cls-2" x="421.36" y="457.04" width="23.54" height="0.16" transform="translate(-405.69 -36.02) rotate(-19.14)"/><polygon class="cls-2" points="154.59 271.55 154.44 271.49 164.43 249.89 164.58 249.96 154.59 271.55"/><circle class="cls-2" cx="187.22" cy="252.34" r="1.29"/><circle class="cls-2" cx="187.55" cy="260.72" r="0.64"/><circle class="cls-2" cx="190.28" cy="269.59" r="0.81"/><circle class="cls-2" cx="205.59" cy="286.18" r="0.97"/><circle class="cls-2" cx="206.4" cy="279.9" r="1.13"/><circle class="cls-2" cx="197.37" cy="277" r="0.81"/><circle class="cls-2" cx="195.76" cy="282.15" r="0.81"/><rect class="cls-2" x="467.05" y="455.67" width="0.16" height="8.39" transform="translate(-297.07 -185.03) rotate(-2.2)"/><rect class="cls-2" x="468.66" y="464.02" width="0.16" height="9.08" transform="translate(-393.55 -50.86) rotate(-16.5)"/><rect class="cls-2" x="473.49" y="471.49" width="0.16" height="10.26" transform="translate(-477.84 256.21) rotate(-43.73)"/><rect class="cls-2" x="481.55" y="477.03" width="0.16" height="9.48" transform="translate(-404.16 589.55) rotate(-72.18)"/><rect class="cls-2" x="482.74" y="486.2" width="6.16" height="0.16" transform="translate(-328.75 714.77) rotate(-83.94)"/><rect class="cls-2" x="480.42" y="482.16" width="0.16" height="10.83" transform="translate(-434.7 538.81) rotate(-67.25)"/><polygon class="cls-2" points="195.84 282.18 195.69 282.13 197.3 276.97 197.45 277.02 195.84 282.18"/><circle class="cls-2" cx="234.27" cy="218.51" r="0.97"/><circle class="cls-2" cx="236.53" cy="233.01" r="0.97"/><circle class="cls-2" cx="245.39" cy="234.78" r="0.81"/><circle class="cls-2" cx="254.9" cy="232.36" r="0.97"/><circle class="cls-2" cx="257.8" cy="225.6" r="0.97"/><circle class="cls-2" cx="260.05" cy="213.35" r="0.64"/><circle class="cls-2" cx="262.31" cy="213.67" r="0.64"/><circle class="cls-2" cx="253.13" cy="252.18" r="1.13"/><circle class="cls-2" cx="243.14" cy="252.51" r="1.13"/><circle class="cls-2" cx="249.74" cy="271.36" r="0.97"/><circle class="cls-2" cx="257.32" cy="266.69" r="1.13"/><circle class="cls-2" cx="276.17" cy="254.28" r="0.97"/><circle class="cls-2" cx="277.62" cy="236.07" r="0.81"/><circle class="cls-2" cx="280.68" cy="237.2" r="0.97"/><circle class="cls-2" cx="268.92" cy="266.04" r="0.81"/><circle class="cls-2" cx="248.13" cy="281.67" r="0.97"/><circle class="cls-2" cx="246.84" cy="290.05" r="0.97"/><circle class="cls-2" cx="252.96" cy="301.33" r="0.97"/><polygon class="cls-2" points="236.45 233.02 234.19 218.52 234.35 218.5 236.61 233 236.45 233.02"/><rect class="cls-2" x="519.58" y="420.31" width="0.16" height="19.49" transform="translate(-431.63 163.31) rotate(-34.22)"/><rect class="cls-2" x="525.01" y="436.9" width="9.93" height="0.16" transform="translate(-365.06 -71.7) rotate(-13.11)"/><rect class="cls-2" x="532.32" y="432.23" width="7.54" height="0.16" transform="translate(-346.81 561.38) rotate(-67.74)"/><polygon class="cls-2" points="257.88 225.61 257.72 225.58 259.98 213.34 260.13 213.37 257.88 225.61"/><rect class="cls-2" x="533.52" y="422.88" width="12.57" height="0.16" transform="translate(-325.76 576.15) rotate(-69.4)"/><polygon class="cls-2" points="253.37 252.35 253.21 252.34 254.82 232.36 254.98 232.37 253.37 252.35"/><rect class="cls-2" x="519.26" y="435.66" width="0.16" height="20.69" transform="translate(-392.85 -19.33) rotate(-18.15)"/><rect class="cls-2" x="522.56" y="455.59" width="10.32" height="0.16" transform="translate(-293.72 -186.62) rotate(-1.79)"/><rect class="cls-2" x="534.89" y="455.21" width="0.16" height="15.09" transform="translate(-387.16 -36.67) rotate(-16.11)"/><rect class="cls-2" x="526.02" y="455.18" width="0.16" height="19.99" transform="translate(-404.48 -1.94) rotate(-19.42)"/><rect class="cls-2" x="528.79" y="472.19" width="9.12" height="0.16" transform="translate(-448.93 150.85) rotate(-31.98)"/><rect class="cls-2" x="537.05" y="469.61" width="11.62" height="0.16" transform="translate(-304.58 -172.98) rotate(-3.13)"/><rect class="cls-2" x="545.35" y="463.32" width="14.04" height="0.16" transform="translate(-412.4 485.01) rotate(-58.17)"/><rect class="cls-2" x="549.53" y="448.98" width="17.27" height="0.16" transform="translate(-292.4 678.6) rotate(-75.99)"/><rect class="cls-2" x="547.5" y="448.34" width="18.12" height="0.16" transform="translate(-219.79 759.12) rotate(-84.85)"/><rect class="cls-2" x="523.33" y="479.76" width="10.71" height="0.16" transform="translate(-302.23 730.35) rotate(-81.7)"/><rect class="cls-2" x="523.12" y="489.1" width="8.22" height="0.16" transform="translate(-312.72 736.91) rotate(-81.7)"/><rect class="cls-2" x="529.57" y="492.82" width="0.16" height="12.4" transform="translate(-451.68 102.48) rotate(-27.9)"/><circle class="cls-2" cx="335.14" cy="175" r="0.64"/><circle class="cls-2" cx="339.33" cy="174.03" r="0.64"/><circle class="cls-2" cx="339.98" cy="176.29" r="0.64"/><circle class="cls-2" cx="334.98" cy="179.67" r="0.81"/><circle class="cls-2" cx="336.75" cy="180.48" r="0.64"/><circle class="cls-2" cx="337.88" cy="183.86" r="0.81"/><circle class="cls-2" cx="348.35" cy="192.73" r="0.64"/><circle class="cls-2" cx="357.7" cy="200.46" r="0.64"/><circle class="cls-2" cx="360.6" cy="198.2" r="0.64"/><circle class="cls-2" cx="372.04" cy="196.11" r="1.13"/><circle class="cls-2" cx="386.86" cy="209" r="0.81"/><circle class="cls-2" cx="385.09" cy="217.22" r="0.64"/><circle class="cls-2" cx="383.64" cy="220.6" r="0.81"/><circle class="cls-2" cx="393.47" cy="229.14" r="0.97"/><circle class="cls-2" cx="393.47" cy="243.32" r="0.97"/><circle class="cls-2" cx="423.12" cy="270.07" r="0.97"/><circle class="cls-2" cx="426.18" cy="281.83" r="0.81"/><circle class="cls-2" cx="396.69" cy="327.11" r="0.64"/><circle class="cls-2" cx="395.08" cy="333.23" r="0.97"/><rect class="cls-2" x="614.51" y="377.76" width="4.61" height="0.16" transform="translate(-345.16 -65.88) rotate(-12.08)"/><rect class="cls-2" x="619.48" y="377.47" width="0.16" height="2.04" transform="translate(-367.64 12.02) rotate(-18.43)"/><polygon class="cls-2" points="336.75 180.45 336.62 180.35 339.98 176.32 340.11 176.42 336.75 180.45"/><rect class="cls-2" x="615.61" y="382.62" width="0.16" height="1.74" transform="translate(-248.77 609.39) rotate(-68.2)"/><rect class="cls-2" x="334.9" y="174.84" width="0.16" height="4.83"/><polygon class="cls-2" points="337.64 183.73 336.68 180.5 336.83 180.46 337.8 183.68 337.64 183.73"/><polygon class="cls-2" points="348.14 192.63 337.83 183.93 337.93 183.8 348.25 192.5 348.14 192.63"/><rect class="cls-2" x="632.69" y="393.85" width="0.16" height="12.13" transform="translate(-358.5 429.1) rotate(-50.39)"/><rect class="cls-2" x="637.29" y="402.58" width="3.22" height="0.16" transform="translate(-393.61 259.96) rotate(-36.83)"/><polygon class="cls-2" points="360.61 198.28 360.59 198.13 371.87 196.19 371.89 196.35 360.61 198.28"/><rect class="cls-2" x="659.12" y="396.06" width="0.16" height="19.64" transform="translate(-359.38 433.66) rotate(-48.99)"/><polygon class="cls-2" points="385.01 217.4 384.85 217.36 386.79 208.98 386.94 209.02 385.01 217.4"/><rect class="cls-2" x="662.46" y="422.07" width="3.47" height="0.16" transform="translate(-254.19 678.73) rotate(-68.2)"/><rect class="cls-2" x="668.3" y="421.65" width="0.16" height="13.25" transform="translate(-373.3 447.68) rotate(-48.95)"/><rect class="cls-2" x="393.39" y="229.14" width="0.16" height="14.18"/><rect class="cls-2" x="687.8" y="439.89" width="0.16" height="39.93" transform="translate(-394.09 459.24) rotate(-47.94)"/><rect class="cls-2" x="704.24" y="472.7" width="0.16" height="12.66" transform="translate(-378.47 -8.31) rotate(-14.74)"/><polygon class="cls-2" points="396.61 327.38 396.48 327.29 426.1 281.72 426.24 281.81 396.61 327.38"/><rect class="cls-2" x="672.47" y="533.42" width="6.33" height="0.16" transform="translate(-291.73 848.13) rotate(-75.28)"/><circle class="cls-2" cx="420.54" cy="231.72" r="0.97"/><rect class="cls-2" x="694.78" y="426.34" width="18.75" height="0.32" transform="translate(-254.38 688.99) rotate(-65.66)"/><circle class="cls-2" cx="390.73" cy="260.88" r="0.81"/><circle class="cls-2" cx="396.05" cy="264.59" r="0.97"/><circle class="cls-2" cx="382.68" cy="264.11" r="0.81"/><circle class="cls-2" cx="380.1" cy="271.2" r="0.81"/><circle class="cls-2" cx="396.53" cy="276.68" r="0.81"/><circle class="cls-2" cx="393.15" cy="282.96" r="0.97"/><circle class="cls-2" cx="405.88" cy="256.7" r="0.81"/><circle class="cls-2" cx="397.5" cy="249.61" r="0.81"/><rect class="cls-2" x="681.35" y="450.76" width="0.16" height="11.43" transform="translate(-387.69 475.88) rotate(-49.57)"/><rect class="cls-2" x="672.98" y="462.63" width="0.16" height="6.71" transform="translate(-375.52 543.8) rotate(-54.78)"/><polygon class="cls-2" points="390.8 260.93 390.66 260.84 397.43 249.56 397.57 249.65 390.8 260.93"/><rect class="cls-2" x="674.6" y="463.81" width="12.38" height="0.16" transform="translate(-420.35 323.61) rotate(-38.66)"/><rect class="cls-2" x="662.11" y="465.74" width="8.68" height="0.16" transform="translate(-404.95 76.93) rotate(-21.76)"/><rect class="cls-2" x="676.04" y="468.07" width="0.16" height="11.93" transform="translate(-292.31 -184.89) rotate(-1.55)"/><rect class="cls-2" x="671.05" y="483.14" width="6.92" height="0.16" transform="translate(-346.73 652.26) rotate(-62.28)"/><polygon class="cls-2" points="392.93 282.86 380.04 271.26 380.15 271.14 393.04 282.74 392.93 282.86"/><polygon class="cls-2" points="380.17 271.22 380.02 271.17 382.6 264.08 382.75 264.13 380.17 271.22"/><circle class="cls-2" cx="389.28" cy="303.26" r="0.97"/><circle class="cls-2" cx="402.17" cy="306.81" r="1.29"/><circle class="cls-2" cx="392.67" cy="294.72" r="1.13"/><circle class="cls-2" cx="402.82" cy="291.98" r="0.97"/><circle class="cls-2" cx="407.17" cy="291.18" r="0.81"/><rect class="cls-2" x="666.15" y="502.32" width="8.98" height="0.16" transform="translate(-318.89 744.46) rotate(-68.95)"/><rect class="cls-2" x="672.25" y="496.68" width="10.63" height="0.16" transform="translate(-390.38 2.56) rotate(-15.99)"/><rect class="cls-2" x="682.7" y="494.74" width="4.24" height="0.16" transform="translate(-347.14 -93.22) rotate(-8.76)"/><rect class="cls-2" x="674.5" y="502.64" width="15.16" height="0.16" transform="translate(-129.2 959.26) rotate(-87.54)"/><rect class="cls-2" x="675.23" y="501.72" width="0.16" height="13.29" transform="translate(-261.4 836.89) rotate(-75.96)"/><circle class="cls-2" cx="303.08" cy="288.28" r="1.13"/><circle class="cls-2" cx="297.44" cy="307.45" r="0.97"/><rect class="cls-2" x="570.03" y="501.19" width="19.79" height="0.16" transform="translate(-342.25 716.12) rotate(-73.9)"/><rect class="cls-2" x="586.93" y="503.11" width="0.16" height="20.81" transform="translate(-349.55 730.75) rotate(-73.81)"/><circle class="cls-2" cx="278.1" cy="284.89" r="0.81"/><circle class="cls-2" cx="281" cy="294.24" r="0.97"/><rect class="cls-2" x="559.22" y="488" width="0.16" height="9.79" transform="translate(-400.71 -15.4) rotate(-17.24)"/><circle class="cls-2" cx="184" cy="333.88" r="0.97"/><circle class="cls-2" cx="192.06" cy="331.94" r="0.97"/><circle class="cls-2" cx="190.77" cy="326.14" r="0.64"/><circle class="cls-2" cx="184.16" cy="322.44" r="0.81"/><circle class="cls-2" cx="168.53" cy="294.88" r="0.97"/><circle class="cls-2" cx="165.63" cy="286.5" r="0.97"/><circle class="cls-2" cx="179.81" cy="288.12" r="0.97"/><circle class="cls-2" cx="192.86" cy="303.75" r="1.13"/><circle class="cls-2" cx="204.46" cy="309.87" r="1.13"/><circle class="cls-2" cx="212.36" cy="313.57" r="0.97"/><circle class="cls-2" cx="219.45" cy="308.1" r="0.97"/><circle class="cls-2" cx="226.22" cy="288.12" r="0.97"/><circle class="cls-2" cx="224.93" cy="268.14" r="0.97"/><circle class="cls-2" cx="227.99" cy="257.66" r="0.81"/><rect class="cls-2" x="463.63" y="536.15" width="8.29" height="0.16" transform="translate(-391.57 -79.92) rotate(-13.44)"/><polygon class="cls-2" points="191.98 331.96 190.69 326.16 190.85 326.13 192.13 331.93 191.98 331.96"/><polygon class="cls-2" points="190.57 326.05 184.12 322.51 184.2 322.37 190.65 325.91 190.57 326.05"/><rect class="cls-2" x="458.1" y="531.32" width="11.28" height="0.16" transform="translate(-351.01 787.66) rotate(-89.55)"/><rect class="cls-2" x="455.93" y="495.96" width="0.16" height="31.9" transform="matrix(0.87, -0.5, 0.5, 0.87, -473.37, 89.55)"/><rect class="cls-2" x="446.75" y="489.38" width="0.16" height="9.28" transform="matrix(0.94, -0.35, 0.35, 0.94, -423.51, -17.38)"/><rect class="cls-2" x="452.39" y="483.36" width="0.16" height="14.56" transform="translate(-356.05 694.56) rotate(-84.92)"/><rect class="cls-2" x="466.08" y="489.27" width="0.16" height="20.14" transform="translate(-490.5 204.21) rotate(-39.24)"/><polygon class="cls-2" points="204.5 310.12 192.75 303.96 192.82 303.82 204.58 309.97 204.5 310.12"/><polygon class="cls-2" points="212.11 313.62 204.49 310.13 204.56 309.98 212.17 313.48 212.11 313.62"/><rect class="cls-2" x="491.04" y="514.24" width="9.22" height="0.16" transform="translate(-488.3 191.42) rotate(-36.42)"/><rect class="cls-2" x="491.98" y="501.51" width="21.21" height="0.16" transform="translate(-410.76 618.79) rotate(-71.78)"/><rect class="cls-2" x="505.24" y="471.61" width="0.16" height="20" transform="translate(-308.93 -170.72) rotate(-3.59)"/><rect class="cls-2" x="500.57" y="466.22" width="11.11" height="0.16" transform="translate(-366.35 612.66) rotate(-73.19)"/><circle class="cls-2" cx="125.83" cy="317.6" r="1.45"/><circle class="cls-2" cx="126.8" cy="333.07" r="1.13"/><circle class="cls-2" cx="144.2" cy="334.04" r="1.13"/><circle class="cls-2" cx="154.03" cy="323.89" r="0.97"/><circle class="cls-2" cx="158.86" cy="322.6" r="0.97"/><circle class="cls-2" cx="111.17" cy="335.17" r="1.29"/><circle class="cls-2" cx="133.57" cy="351.76" r="1.13"/><circle class="cls-2" cx="143.88" cy="373.35" r="1.13"/><rect class="cls-2" x="390.83" y="537.28" width="15.95" height="0.16" transform="translate(-351.47 -141.78) rotate(-8.1)"/><rect class="cls-2" x="405.98" y="520.91" width="0.16" height="15.5" transform="translate(-311.93 -176.97) rotate(-3.58)"/><rect class="cls-2" x="415.17" y="528.17" width="0.16" height="17.43" transform="translate(-423.59 718.38) rotate(-86.82)"/><rect class="cls-2" x="421.71" y="532.13" width="14.14" height="0.16" transform="translate(-532.54 278.3) rotate(-46.9)"/><rect class="cls-2" x="433.48" y="526.49" width="5.1" height="0.16" transform="translate(-391.74 -85.49) rotate(-13.66)"/><rect class="cls-2" x="409.85" y="535.8" width="0.16" height="19.88" transform="translate(-441.05 -31.17) rotate(-19.9)"/><polygon class="cls-2" points="143.81 373.39 133.49 351.8 133.64 351.73 143.95 373.32 143.81 373.39"/><circle class="cls-2" cx="170.63" cy="358.53" r="1.61"/><circle class="cls-2" cx="160.8" cy="369.33" r="0.97"/><circle class="cls-2" cx="165.31" cy="369" r="0.97"/><circle class="cls-2" cx="167.24" cy="360.3" r="0.97"/><circle class="cls-2" cx="162.73" cy="360.63" r="0.97"/><rect class="cls-2" x="442.47" y="563.71" width="4.52" height="0.16" transform="translate(-318.34 -170.61) rotate(-4.04)"/><rect class="cls-2" x="446.58" y="562.74" width="4.04" height="0.16" transform="translate(-494.26 79.69) rotate(-28.57)"/><polygon class="cls-2" points="165.23 369.18 165.07 369.15 167 360.45 167.16 360.48 165.23 369.18"/><polygon class="cls-2" points="160.72 369.5 160.56 369.47 162.49 360.45 162.65 360.48 160.72 369.5"/><rect class="cls-2" x="440.38" y="572.25" width="4.52" height="0.16" transform="translate(-318.95 -170.74) rotate(-4.04)"/><circle class="cls-2" cx="188.67" cy="381.73" r="0.81"/><circle class="cls-2" cx="193.67" cy="380.28" r="0.97"/><circle class="cls-2" cx="200.44" cy="382.86" r="0.97"/><rect class="cls-2" x="468.5" y="584.17" width="5" height="0.16" transform="translate(-414.61 -61.93) rotate(-14.96)"/><rect class="cls-2" x="476.88" y="581.44" width="0.16" height="7.24" transform="matrix(0.36, -0.93, 0.93, 0.36, -519.31, 619.17)"/><circle class="cls-2" cx="191.9" cy="345.32" r="0.81"/><circle class="cls-2" cx="189.8" cy="363.53" r="0.97"/><circle class="cls-2" cx="203.82" cy="362.72" r="0.81"/><circle class="cls-2" cx="206.24" cy="361.91" r="0.64"/><circle class="cls-2" cx="207.85" cy="362.56" r="0.97"/><circle class="cls-2" cx="218.97" cy="354.99" r="0.81"/><circle class="cls-2" cx="218.64" cy="347.25" r="0.81"/><circle class="cls-2" cx="219.61" cy="338.23" r="0.81"/><circle class="cls-2" cx="224.77" cy="338.87" r="0.81"/><circle class="cls-2" cx="232.66" cy="340.32" r="0.64"/><circle class="cls-2" cx="227.67" cy="367.88" r="1.13"/><circle class="cls-2" cx="219.77" cy="372.23" r="0.97"/><circle class="cls-2" cx="210.75" cy="385.12" r="0.97"/><circle class="cls-2" cx="219.29" cy="385.92" r="1.13"/><circle class="cls-2" cx="245.71" cy="383.02" r="1.13"/><circle class="cls-2" cx="252.96" cy="384.79" r="0.97"/><rect class="cls-2" x="461.28" y="557.59" width="18.47" height="0.16" transform="translate(-419.79 753.83) rotate(-83.04)"/><rect class="cls-2" x="469.38" y="566.29" width="14.19" height="0.16" transform="translate(-304.68 -181.37) rotate(-2.57)"/><rect class="cls-2" x="483.52" y="565.64" width="2.35" height="0.16" transform="translate(-416.84 -47.9) rotate(-15.99)"/><rect class="cls-2" x="486.71" y="564.9" width="0.16" height="1.33" transform="translate(-459.7 697.32) rotate(-75.96)"/><rect class="cls-2" x="486.62" y="561.94" width="13.23" height="0.16" transform="matrix(0.83, -0.56, 0.56, 0.83, -510.01, 169.75)"/><polygon class="cls-2" points="218.88 354.99 218.56 347.25 218.72 347.25 219.05 354.98 218.88 354.99"/><polygon class="cls-2" points="218.72 347.26 218.56 347.24 219.53 338.22 219.69 338.24 218.72 347.26"/><rect class="cls-2" x="501.85" y="539.28" width="0.16" height="5.2" transform="translate(-377.76 769.4) rotate(-82.87)"/><rect class="cls-2" x="508.46" y="538.9" width="0.16" height="8.22" transform="translate(-403.4 731.85) rotate(-78.69)"/><rect class="cls-2" x="502.98" y="556.98" width="0.16" height="15.55" transform="translate(-509.61 174.78) rotate(-34.02)"/><rect class="cls-2" x="498.77" y="573.38" width="9.23" height="0.16" transform="translate(-495.86 116.04) rotate(-29.27)"/><polygon class="cls-2" points="219.56 372.13 207.64 362.78 207.74 362.66 219.66 372 219.56 372.13"/><polygon class="cls-2" points="210.65 385 210.52 384.91 219.54 372.34 219.68 372.44 210.65 385"/><rect class="cls-2" x="494.6" y="584.56" width="0.16" height="8.72" transform="translate(-408.92 835.43) rotate(-85.76)"/><rect class="cls-2" x="516.36" y="566.99" width="0.16" height="23.56" transform="translate(-538.64 398.95) rotate(-49.99)"/><polygon class="cls-2" points="252.79 384.71 245.7 383.1 245.73 382.94 252.82 384.56 252.79 384.71"/><circle class="cls-2" cx="252" cy="366.43" r="0.81"/><circle class="cls-2" cx="256.35" cy="365.3" r="0.81"/><circle class="cls-2" cx="258.77" cy="363.2" r="0.97"/><circle class="cls-2" cx="261.18" cy="360.14" r="1.13"/><circle class="cls-2" cx="259.89" cy="354.99" r="0.81"/><circle class="cls-2" cx="254.74" cy="353.37" r="0.81"/><circle class="cls-2" cx="246.68" cy="362.72" r="0.81"/><rect class="cls-2" x="529.09" y="564.85" width="0.16" height="6.26" transform="translate(-518.41 478.93) rotate(-55.49)"/><rect class="cls-2" x="531.88" y="569.19" width="4.56" height="0.16" transform="translate(-399.86 -59.87) rotate(-13.77)"/><rect class="cls-2" x="535.9" y="567.41" width="2.97" height="0.16" transform="translate(-521.52 302.98) rotate(-42.07)"/><rect class="cls-2" x="537.58" y="565" width="4.13" height="0.16" transform="translate(-518.47 430.14) rotate(-51.34)"/><rect class="cls-2" x="540.2" y="558.23" width="0.16" height="5.31" transform="translate(-399.65 -55.54) rotate(-14.04)"/><rect class="cls-2" x="536.98" y="554.8" width="0.16" height="5.4" transform="translate(-435 700.5) rotate(-72.65)"/><circle class="cls-2" cx="250.87" cy="332.1" r="1.13"/><circle class="cls-2" cx="257.64" cy="345.32" r="1.13"/><circle class="cls-2" cx="262.15" cy="326.3" r="1.13"/><circle class="cls-2" cx="275.36" cy="335.33" r="1.13"/><circle class="cls-2" cx="277.13" cy="343.87" r="1.29"/><circle class="cls-2" cx="299.53" cy="340.48" r="1.77"/><circle class="cls-2" cx="305.98" cy="332.43" r="1.13"/><circle class="cls-2" cx="312.58" cy="331.94" r="0.97"/><circle class="cls-2" cx="301.95" cy="356.11" r="0.97"/><rect class="cls-2" x="548.18" y="526.04" width="0.16" height="16.04" transform="translate(-482.01 480.79) rotate(-55.55)"/><polygon class="cls-2" points="250.91 332.18 250.83 332.03 261.79 326.23 261.86 326.38 250.91 332.18"/><rect class="cls-2" x="533.92" y="534.61" width="0.16" height="14.85" transform="translate(-468.13 99.71) rotate(-27.12)"/><rect class="cls-2" x="537.36" y="547.92" width="19.38" height="0.16" transform="translate(-314.99 -165.72) rotate(-3.81)"/><rect class="cls-2" x="567.11" y="528.87" width="0.16" height="24.71" transform="translate(-360.21 779.69) rotate(-77.96)"/><rect class="cls-2" x="556.58" y="545.5" width="22.84" height="0.16" transform="translate(-357.11 -109.18) rotate(-8.87)"/><rect class="cls-2" x="577.34" y="539.7" width="10.32" height="0.16" transform="translate(-482.63 454.11) rotate(-51.34)"/><rect class="cls-2" x="585.71" y="535.35" width="6.8" height="0.16" transform="translate(-296.18 -184.66) rotate(-1.79)"/><rect class="cls-2" x="580.49" y="543.7" width="0.16" height="15.68" transform="translate(-350.04 -118.31) rotate(-7.9)"/><circle class="cls-2" cx="317.26" cy="313.09" r="1.13"/><circle class="cls-2" cx="348.68" cy="275.23" r="0.97"/><circle class="cls-2" cx="360.12" cy="294.08" r="1.13"/><circle class="cls-2" cx="358.51" cy="306.32" r="1.45"/><circle class="cls-2" cx="369.62" cy="333.88" r="1.61"/><circle class="cls-2" cx="346.9" cy="335.01" r="1.13"/><circle class="cls-2" cx="346.74" cy="312.29" r="1.29"/><circle class="cls-2" cx="331.11" cy="312.12" r="1.13"/><circle class="cls-2" cx="336.27" cy="347.57" r="1.13"/><circle class="cls-2" cx="347.07" cy="359.66" r="0.97"/><circle class="cls-2" cx="356.57" cy="360.14" r="1.13"/><circle class="cls-2" cx="338.53" cy="373.35" r="1.13"/><circle class="cls-2" cx="322.41" cy="369.17" r="1.13"/><rect class="cls-2" x="618.84" y="507.55" width="0.16" height="15.79" transform="translate(-188.8 920.39) rotate(-88.83)"/><rect class="cls-2" x="625.97" y="512.47" width="12.97" height="0.16" transform="translate(-442.2 133.63) rotate(-26.57)"/><polygon class="cls-2" points="358.43 306.5 358.26 306.47 359.88 294.23 360.04 294.25 358.43 306.5"/><polygon class="cls-2" points="360.05 294.44 348.45 275.11 348.58 275.02 360.19 294.36 360.05 294.44"/><polygon class="cls-2" points="369.55 333.91 358.27 306.51 358.42 306.45 369.7 333.85 369.55 333.91"/><rect class="cls-2" x="626.64" y="537.77" width="22.58" height="0.16" transform="translate(-302.25 -175.44) rotate(-2.46)"/><rect class="cls-2" x="346.66" y="312.12" width="0.16" height="22.88"/><polygon class="cls-2" points="336.33 347.63 336.21 347.52 346.84 334.95 346.97 335.06 336.33 347.63"/><polygon class="cls-2" points="322.48 369.21 322.34 369.12 336.2 347.53 336.34 347.62 322.48 369.21"/><rect class="cls-2" x="614.44" y="569.67" width="16.36" height="0.16" transform="translate(-470.54 591.43) rotate(-57.92)"/><rect class="cls-2" x="631.57" y="558.46" width="0.16" height="9.37" transform="translate(-253.37 951.22) rotate(-86.05)"/><polygon class="cls-2" points="356.64 360.18 356.5 360.11 369.39 334 369.54 334.07 356.64 360.18"/><circle class="cls-2" cx="268.92" cy="376.58" r="0.81"/><circle class="cls-2" cx="269.88" cy="382.7" r="0.81"/><circle class="cls-2" cx="274.88" cy="379.32" r="0.97"/><circle class="cls-2" cx="287.93" cy="381.41" r="0.81"/><circle class="cls-2" cx="291.15" cy="390.11" r="1.13"/><circle class="cls-2" cx="291.8" cy="394.95" r="0.81"/><circle class="cls-2" cx="307.75" cy="402.84" r="0.97"/><rect class="cls-2" x="551.64" y="577.95" width="0.16" height="6.49" transform="translate(-494.59 611.43) rotate(-63.43)"/><rect class="cls-2" x="549.07" y="580.18" width="0.16" height="5.25" transform="translate(-377.74 -92.14) rotate(-10.62)"/><rect class="cls-2" x="549.25" y="584.17" width="5.92" height="0.16" transform="matrix(0.83, -0.56, 0.56, 0.83, -512.34, 206.63)"/><rect class="cls-2" x="560.99" y="577.09" width="0.16" height="13.03" transform="translate(-379.06 848.57) rotate(-81.47)"/><rect class="cls-2" x="569.21" y="584.45" width="0.16" height="9.28" transform="translate(-448.91 31.07) rotate(-20.32)"/><rect class="cls-2" x="571.14" y="593.09" width="0.16" height="5.2" transform="translate(-349.22 -127.87) rotate(-7.13)"/><rect class="cls-2" x="579.36" y="593.35" width="0.16" height="17.58" transform="translate(-495.94 654.32) rotate(-63.9)"/><circle class="cls-2" cx="223.32" cy="412.19" r="1.13"/><circle class="cls-2" cx="249.9" cy="409.77" r="1.13"/><circle class="cls-2" cx="296.95" cy="416.54" r="1.13"/><rect class="cls-2" x="502.85" y="614.14" width="26.84" height="0.16" transform="translate(-329.53 -157.78) rotate(-4.82)"/><rect class="cls-2" x="553.09" y="592.71" width="0.16" height="47.53" transform="translate(-415.53 872.93) rotate(-81.81)"/><circle class="cls-2" cx="333.85" cy="392.85" r="1.13"/><circle class="cls-2" cx="338.04" cy="406.06" r="0.97"/><circle class="cls-2" cx="357.22" cy="383.67" r="1.13"/><rect class="cls-2" x="612.7" y="591.42" width="25.31" height="0.16" transform="translate(-453.89 69.2) rotate(-21.66)"/><rect class="cls-2" x="615.61" y="595.64" width="0.16" height="13.96" transform="translate(-430.86 6.56) rotate(-17.27)"/><circle class="cls-2" cx="263.44" cy="95.56" r="0.48"/><circle class="cls-2" cx="271.17" cy="95.56" r="0.48"/><circle class="cls-2" cx="261.02" cy="102.49" r="0.32"/><circle class="cls-2" cx="277.78" cy="93.15" r="0.32"/><circle class="cls-2" cx="282.29" cy="97.34" r="0.32"/><circle class="cls-2" cx="281.48" cy="89.12" r="0.16"/><circle class="cls-2" cx="266.02" cy="90.09" r="0.48"/><circle class="cls-2" cx="263.28" cy="89.6" r="0.32"/><circle class="cls-2" cx="267.47" cy="87.67" r="0.32"/><circle class="cls-2" cx="259.25" cy="85.9" r="0.48"/><circle class="cls-2" cx="269.88" cy="83.64" r="0.48"/><circle class="cls-2" cx="275.85" cy="85.09" r="0.32"/><circle class="cls-2" cx="266.82" cy="123.44" r="0.32"/><circle class="cls-2" cx="261.83" cy="111.68" r="0.48"/><circle class="cls-2" cx="251.84" cy="115.22" r="0.48"/><circle class="cls-2" cx="244.1" cy="116.19" r="0.48"/><circle class="cls-2" cx="236.69" cy="106.2" r="0.48"/><circle class="cls-2" cx="231.53" cy="111.03" r="0.48"/><circle class="cls-2" cx="234.43" cy="104.91" r="0.48"/><circle class="cls-2" cx="232.5" cy="99.75" r="0.48"/><circle class="cls-2" cx="229.12" cy="100.24" r="0.32"/><circle class="cls-2" cx="222.83" cy="94.92" r="0.48"/><circle class="cls-2" cx="219.13" cy="101.53" r="0.32"/><circle class="cls-2" cx="217.35" cy="98.46" r="0.48"/><circle class="cls-2" cx="224.44" cy="90.09" r="0.48"/><circle class="cls-2" cx="295.5" cy="94.11" r="0.32"/><circle class="cls-2" cx="305.17" cy="102.49" r="0.32"/><circle class="cls-2" cx="289.86" cy="125.53" r="0.48"/><circle class="cls-2" cx="295.66" cy="125.86" r="0.48"/><circle class="cls-2" cx="291.15" cy="119.41" r="0.48"/><circle class="cls-2" cx="325.63" cy="121.34" r="0.48"/><circle class="cls-2" cx="328.21" cy="124.57" r="0.48"/><circle class="cls-2" cx="337.4" cy="101.85" r="0.64"/><circle class="cls-2" cx="357.86" cy="130.05" r="0.48"/><circle class="cls-2" cx="361.41" cy="133.27" r="0.48"/><circle class="cls-2" cx="363.82" cy="122.47" r="0.64"/><circle class="cls-2" cx="374.94" cy="127.79" r="0.81"/><circle class="cls-2" cx="374.94" cy="125.21" r="0.48"/><circle class="cls-2" cx="373.49" cy="143.42" r="0.64"/><circle class="cls-2" cx="365.27" cy="151.64" r="0.48"/><circle class="cls-2" cx="371.56" cy="151.8" r="0.64"/><circle class="cls-2" cx="377.68" cy="147.93" r="0.64"/><circle class="cls-2" cx="382.51" cy="140.52" r="0.64"/><circle class="cls-2" cx="350.61" cy="163.08" r="0.64"/><circle class="cls-2" cx="361.57" cy="172.1" r="0.64"/><circle class="cls-2" cx="370.91" cy="168.23" r="0.64"/><circle class="cls-2" cx="374.46" cy="171.46" r="0.64"/><circle class="cls-2" cx="378.32" cy="167.91" r="0.64"/><circle class="cls-2" cx="372.52" cy="192.08" r="0.64"/><circle class="cls-2" cx="377.36" cy="190.79" r="0.64"/><circle class="cls-2" cx="405.88" cy="164.85" r="0.48"/><circle class="cls-2" cx="404.11" cy="171.46" r="0.64"/><circle class="cls-2" cx="404.91" cy="174.52" r="0.48"/><circle class="cls-2" cx="403.14" cy="182.09" r="0.64"/><circle class="cls-2" cx="405.72" cy="190.15" r="0.64"/><circle class="cls-2" cx="411.2" cy="191.11" r="0.64"/><circle class="cls-2" cx="398.95" cy="193.69" r="0.64"/><circle class="cls-2" cx="403.3" cy="201.91" r="0.48"/><circle class="cls-2" cx="404.27" cy="202.88" r="0.48"/><circle class="cls-2" cx="411.36" cy="203.84" r="0.48"/><circle class="cls-2" cx="408.94" cy="210.13" r="0.64"/><circle class="cls-2" cx="395.24" cy="210.61" r="0.48"/><circle class="cls-2" cx="289.38" cy="134.4" r="0.32"/><circle class="cls-2" cx="304.2" cy="147.61" r="0.64"/><circle class="cls-2" cx="307.59" cy="143.26" r="0.48"/><circle class="cls-2" cx="213" cy="97.66" r="0.32"/><circle class="cls-2" cx="207.36" cy="153.89" r="0.48"/><circle class="cls-2" cx="213.16" cy="152.93" r="0.48"/><circle class="cls-2" cx="212.36" cy="149.22" r="0.32"/><circle class="cls-2" cx="226.7" cy="155.5" r="0.48"/><circle class="cls-2" cx="225.41" cy="155.18" r="0.48"/><circle class="cls-2" cx="228.31" cy="152.28" r="0.48"/><circle class="cls-2" cx="219.29" cy="139.71" r="0.48"/><circle class="cls-2" cx="226.7" cy="139.71" r="0.48"/><circle class="cls-2" cx="203.34" cy="158.57" r="0.97"/><circle class="cls-2" cx="194.96" cy="151.8" r="0.64"/><circle class="cls-2" cx="186.58" cy="150.19" r="0.64"/><circle class="cls-2" cx="186.74" cy="162.92" r="0.48"/><circle class="cls-2" cx="184" cy="166.94" r="0.64"/><circle class="cls-2" cx="181.42" cy="165.98" r="0.64"/><circle class="cls-2" cx="221.7" cy="169.2" r="0.64"/><circle class="cls-2" cx="203.5" cy="144.87" r="0.48"/><circle class="cls-2" cx="204.79" cy="143.9" r="0.48"/><circle class="cls-2" cx="192.06" cy="137.94" r="0.64"/><circle class="cls-2" cx="197.21" cy="122.79" r="0.64"/><circle class="cls-2" cx="203.82" cy="112.64" r="0.48"/><circle class="cls-2" cx="204.46" cy="114.25" r="0.48"/><circle class="cls-2" cx="200.92" cy="109.42" r="0.48"/><circle class="cls-2" cx="192.86" cy="112" r="0.48"/><circle class="cls-2" cx="241.2" cy="135.85" r="0.48"/><circle class="cls-2" cx="245.71" cy="134.56" r="0.48"/><circle class="cls-2" cx="247.65" cy="144.23" r="0.48"/><circle class="cls-2" cx="243.78" cy="130.05" r="0.48"/><circle class="cls-2" cx="237.17" cy="120.86" r="0.32"/><circle class="cls-2" cx="233.15" cy="119.41" r="0.48"/><circle class="cls-2" cx="225.41" cy="115.87" r="0.48"/><circle class="cls-2" cx="297.28" cy="160.98" r="0.48"/><circle class="cls-2" cx="305.98" cy="171.3" r="0.48"/><circle class="cls-2" cx="284.71" cy="171.94" r="0.48"/><circle class="cls-2" cx="285.51" cy="176.61" r="0.64"/><circle class="cls-2" cx="277.94" cy="170.33" r="0.48"/><circle class="cls-2" cx="267.47" cy="175.65" r="0.64"/><circle class="cls-2" cx="252.48" cy="173.55" r="0.48"/><circle class="cls-2" cx="242.49" cy="171.62" r="0.48"/><circle class="cls-2" cx="240.24" cy="178.06" r="0.48"/><circle class="cls-2" cx="238.46" cy="170.17" r="0.64"/><circle class="cls-2" cx="225.25" cy="178.87" r="0.64"/><circle class="cls-2" cx="210.1" cy="186.28" r="0.64"/><circle class="cls-2" cx="213.16" cy="184.19" r="0.81"/><circle class="cls-2" cx="199.95" cy="174.84" r="0.81"/><circle class="cls-2" cx="195.92" cy="178.22" r="0.64"/><circle class="cls-2" cx="194.15" cy="192.24" r="0.48"/><circle class="cls-2" cx="177.39" cy="194.5" r="0.48"/><circle class="cls-2" cx="170.3" cy="191.6" r="0.48"/><circle class="cls-2" cx="162.57" cy="190.31" r="0.48"/><circle class="cls-2" cx="175.46" cy="199.98" r="0.48"/><circle class="cls-2" cx="176.75" cy="204.17" r="0.48"/><circle class="cls-2" cx="170.95" cy="206.74" r="0.48"/><circle class="cls-2" cx="203.34" cy="213.67" r="0.64"/><circle class="cls-2" cx="218.64" cy="199.01" r="0.48"/><circle class="cls-2" cx="230.57" cy="206.74" r="0.48"/><circle class="cls-2" cx="246.2" cy="203.36" r="0.64"/><circle class="cls-2" cx="332.08" cy="154.86" r="0.48"/><circle class="cls-2" cx="339.17" cy="152.28" r="0.48"/><circle class="cls-2" cx="343.36" cy="150.03" r="0.48"/><circle class="cls-2" cx="275.2" cy="81.55" r="0.64"/><circle class="cls-2" cx="162.73" cy="112.16" r="0.32"/><circle class="cls-2" cx="163.86" cy="129.08" r="0.48"/><circle class="cls-2" cx="162.25" cy="141" r="0.48"/><circle class="cls-2" cx="173.85" cy="137.78" r="0.48"/><circle class="cls-2" cx="152.58" cy="146.16" r="0.48"/><circle class="cls-2" cx="148.87" cy="147.61" r="0.64"/><circle class="cls-2" cx="146.3" cy="135.69" r="0.64"/><circle class="cls-2" cx="143.56" cy="132.95" r="0.48"/><circle class="cls-2" cx="146.94" cy="130.85" r="0.64"/><circle class="cls-2" cx="127.77" cy="147.45" r="0.48"/><circle class="cls-2" cx="129.38" cy="158.4" r="0.81"/><polygon class="cls-2" points="129.52 158.24 129.37 158.19 131.17 153.09 131.32 153.15 129.52 158.24"/><circle class="cls-2" cx="132.6" cy="153.89" r="0.48"/><circle class="cls-2" cx="159.02" cy="153.57" r="0.48"/><circle class="cls-2" cx="163.54" cy="160.34" r="0.48"/><circle class="cls-2" cx="173.37" cy="156.31" r="0.64"/><circle class="cls-2" cx="167.73" cy="169.04" r="0.48"/><circle class="cls-2" cx="169.82" cy="168.56" r="0.32"/><circle class="cls-2" cx="159.35" cy="165.17" r="0.48"/><circle class="cls-2" cx="146.62" cy="160.18" r="0.64"/><circle class="cls-2" cx="153.39" cy="155.99" r="0.64"/><circle class="cls-2" cx="151.77" cy="178.22" r="0.64"/><circle class="cls-2" cx="160.64" cy="174.84" r="0.48"/><circle class="cls-2" cx="157.41" cy="183.54" r="0.48"/><circle class="cls-2" cx="146.62" cy="184.02" r="0.32"/><circle class="cls-2" cx="137.59" cy="175.32" r="0.32"/><circle class="cls-2" cx="130.99" cy="164.21" r="0.48"/><circle class="cls-2" cx="180.46" cy="171.46" r="0.64"/><circle class="cls-2" cx="184.32" cy="171.13" r="0.64"/><circle class="cls-2" cx="341.75" cy="188.7" r="0.48"/><circle class="cls-2" cx="333.85" cy="204.97" r="0.32"/><circle class="cls-2" cx="337.4" cy="208.52" r="0.64"/><circle class="cls-2" cx="347.55" cy="206.1" r="0.48"/><circle class="cls-2" cx="358.67" cy="204.97" r="0.64"/><circle class="cls-2" cx="304.2" cy="208.52" r="0.64"/><circle class="cls-2" cx="311.29" cy="209.81" r="0.64"/><circle class="cls-2" cx="122.61" cy="179.35" r="0.48"/><circle class="cls-2" cx="125.19" cy="181.93" r="0.48"/><circle class="cls-2" cx="122.29" cy="181.93" r="0.81"/><circle class="cls-2" cx="124.38" cy="191.76" r="0.64"/><circle class="cls-2" cx="122.77" cy="194.02" r="0.64"/><circle class="cls-2" cx="130.99" cy="193.85" r="0.81"/><circle class="cls-2" cx="134.69" cy="195.3" r="0.32"/><circle class="cls-2" cx="144.36" cy="197.24" r="0.64"/><circle class="cls-2" cx="163.05" cy="215.61" r="0.64"/><circle class="cls-2" cx="159.35" cy="221.89" r="0.48"/><circle class="cls-2" cx="163.05" cy="224.63" r="0.64"/><circle class="cls-2" cx="165.31" cy="226.89" r="0.64"/><circle class="cls-2" cx="175.3" cy="224.31" r="0.64"/><circle class="cls-2" cx="155" cy="225.92" r="0.64"/><circle class="cls-2" cx="133.4" cy="211.74" r="0.64"/><circle class="cls-2" cx="139.37" cy="213.51" r="0.48"/><circle class="cls-2" cx="143.07" cy="211.74" r="0.64"/><circle class="cls-2" cx="136.95" cy="220.76" r="0.64"/><circle class="cls-2" cx="134.05" cy="221.09" r="0.64"/><circle class="cls-2" cx="120.68" cy="215.45" r="0.48"/><circle class="cls-2" cx="122.77" cy="213.35" r="0.64"/><circle class="cls-2" cx="125.35" cy="220.76" r="0.64"/><circle class="cls-2" cx="125.67" cy="223.34" r="0.64"/><circle class="cls-2" cx="117.61" cy="211.74" r="0.64"/><circle class="cls-2" cx="115.36" cy="210.77" r="0.32"/><circle class="cls-2" cx="96.02" cy="214" r="0.32"/><circle class="cls-2" cx="93.28" cy="211.9" r="0.48"/><circle class="cls-2" cx="201.24" cy="230.27" r="0.48"/><circle class="cls-2" cx="226.38" cy="231.24" r="0.48"/><circle class="cls-2" cx="227.99" cy="232.2" r="0.48"/><circle class="cls-2" cx="233.79" cy="229.3" r="0.48"/><circle class="cls-2" cx="229.6" cy="224.15" r="0.48"/><circle class="cls-2" cx="251.68" cy="223.02" r="0.64"/><circle class="cls-2" cx="255.38" cy="219.31" r="0.81"/><circle class="cls-2" cx="280.36" cy="219.47" r="0.64"/><circle class="cls-2" cx="283.26" cy="241.39" r="0.64"/><circle class="cls-2" cx="278.91" cy="248.96" r="0.48"/><circle class="cls-2" cx="295.83" cy="236.88" r="0.64"/><circle class="cls-2" cx="299.85" cy="241.87" r="0.48"/><circle class="cls-2" cx="313.87" cy="248.16" r="0.64"/><circle class="cls-2" cx="317.58" cy="257.34" r="0.81"/><circle class="cls-2" cx="323.86" cy="251.38" r="0.64"/><circle class="cls-2" cx="341.75" cy="262.5" r="0.81"/><circle class="cls-2" cx="350.45" cy="261.21" r="0.81"/><circle class="cls-2" cx="347.55" cy="252.83" r="0.81"/><circle class="cls-2" cx="350.29" cy="250.41" r="0.32"/><circle class="cls-2" cx="355.44" cy="250.41" r="0.64"/><circle class="cls-2" cx="344" cy="235.43" r="0.81"/><circle class="cls-2" cx="340.3" cy="223.02" r="0.64"/><circle class="cls-2" cx="343.2" cy="218.51" r="0.64"/><circle class="cls-2" cx="356.57" cy="264.75" r="0.48"/><circle class="cls-2" cx="362.7" cy="270.55" r="0.48"/><circle class="cls-2" cx="367.53" cy="267.01" r="0.48"/><circle class="cls-2" cx="368.82" cy="259.6" r="0.48"/><circle class="cls-2" cx="366.24" cy="250.89" r="0.48"/><circle class="cls-5" cx="353.99" cy="270.23" r="1.13"/><circle class="cls-2" cx="121.8" cy="201.1" r="0.64"/><circle class="cls-2" cx="99.24" cy="237.52" r="0.64"/><circle class="cls-2" cx="101.82" cy="237.2" r="0.64"/><circle class="cls-2" cx="105.69" cy="235.26" r="0.32"/><circle class="cls-2" cx="104.72" cy="239.13" r="0.64"/><circle class="cls-2" cx="124.22" cy="235.43" r="0.48"/><circle class="cls-2" cx="109.24" cy="249.12" r="0.32"/><circle class="cls-2" cx="109.88" cy="251.38" r="0.64"/><circle class="cls-2" cx="126.96" cy="237.84" r="0.64"/><circle class="cls-2" cx="128.41" cy="240.58" r="0.48"/><circle class="cls-2" cx="127.6" cy="246.22" r="0.64"/><circle class="cls-2" cx="129.22" cy="254.28" r="0.64"/><circle class="cls-2" cx="134.53" cy="248.64" r="0.48"/><circle class="cls-2" cx="110.2" cy="258.15" r="0.64"/><circle class="cls-2" cx="110.85" cy="254.92" r="0.64"/><circle class="cls-2" cx="96.02" cy="256.53" r="0.64"/><circle class="cls-2" cx="98.44" cy="261.85" r="0.48"/><circle class="cls-2" cx="114.55" cy="265.72" r="0.48"/><circle class="cls-2" cx="101.02" cy="267.33" r="0.48"/><circle class="cls-2" cx="128.41" cy="266.04" r="0.48"/><circle class="cls-2" cx="126.64" cy="271.04" r="0.64"/><circle class="cls-2" cx="90.87" cy="270.07" r="0.64"/><circle class="cls-2" cx="106.66" cy="275.55" r="0.64"/><circle class="cls-2" cx="146.13" cy="251.22" r="0.48"/><circle class="cls-2" cx="160.15" cy="253.31" r="0.64"/><circle class="cls-2" cx="141.46" cy="269.75" r="0.64"/><circle class="cls-2" cx="137.11" cy="277" r="0.48"/><circle class="cls-2" cx="139.85" cy="277.16" r="0.64"/><circle class="cls-2" cx="133.08" cy="279.41" r="0.64"/><circle class="cls-2" cx="175.3" cy="254.6" r="0.64"/><circle class="cls-2" cx="177.23" cy="254.28" r="0.32"/><circle class="cls-2" cx="182.07" cy="249.44" r="0.64"/><circle class="cls-2" cx="172.08" cy="272.32" r="0.64"/><circle class="cls-2" cx="154.51" cy="268.3" r="0.48"/><circle class="cls-2" cx="155.32" cy="263.62" r="0.64"/><circle class="cls-2" cx="196.73" cy="240.9" r="0.48"/><circle class="cls-2" cx="203.66" cy="246.87" r="0.64"/><circle class="cls-2" cx="215.58" cy="249.77" r="0.64"/><circle class="cls-2" cx="224.44" cy="238" r="0.48"/><circle class="cls-2" cx="234.76" cy="244.77" r="0.48"/><circle class="cls-2" cx="252.48" cy="243.48" r="0.48"/><circle class="cls-2" cx="277.94" cy="258.95" r="0.48"/><circle class="cls-2" cx="288.09" cy="258.15" r="0.64"/><circle class="cls-2" cx="298.08" cy="258.47" r="0.97"/><circle class="cls-2" cx="387.67" cy="236.23" r="0.64"/><circle class="cls-2" cx="414.42" cy="236.23" r="0.64"/><circle class="cls-2" cx="414.9" cy="252.83" r="0.48"/><circle class="cls-2" cx="344.81" cy="273.94" r="0.32"/><circle class="cls-2" cx="347.23" cy="282.48" r="0.48"/><circle class="cls-2" cx="342.88" cy="283.93" r="0.64"/><circle class="cls-2" cx="357.22" cy="277.96" r="0.81"/><circle class="cls-2" cx="418.12" cy="269.26" r="0.48"/><circle class="cls-2" cx="428.6" cy="273.94" r="0.64"/><circle class="cls-2" cx="421.35" cy="316.31" r="0.48"/><circle class="cls-2" cx="379.45" cy="336.94" r="0.81"/><circle class="cls-2" cx="385.74" cy="332.27" r="0.64"/><circle class="cls-2" cx="372.2" cy="315.83" r="0.64"/><circle class="cls-2" cx="371.4" cy="306.97" r="0.81"/><circle class="cls-2" cx="335.95" cy="302.78" r="0.81"/><circle class="cls-2" cx="351.74" cy="293.43" r="0.48"/><circle class="cls-2" cx="361.73" cy="323.4" r="0.48"/><circle class="cls-2" cx="358.67" cy="335.81" r="0.64"/><circle class="cls-2" cx="339.17" cy="332.1" r="0.48"/><circle class="cls-2" cx="338.36" cy="322.92" r="0.64"/><circle class="cls-2" cx="320.96" cy="323.56" r="0.64"/><circle class="cls-2" cx="378.97" cy="349.99" r="0.64"/><circle class="cls-2" cx="392.83" cy="361.27" r="0.97"/><circle class="cls-2" cx="369.46" cy="361.11" r="0.48"/><circle class="cls-2" cx="366.88" cy="362.72" r="0.48"/><circle class="cls-2" cx="361.41" cy="364.33" r="0.48"/><circle class="cls-6" cx="368.01" cy="350.31" r="1.61"/><circle class="cls-2" cx="94.89" cy="283.77" r="0.48"/><circle class="cls-2" cx="116.16" cy="287.63" r="0.48"/><circle class="cls-2" cx="120.35" cy="287.95" r="0.81"/><circle class="cls-2" cx="100.53" cy="304.87" r="0.64"/><circle class="cls-2" cx="107.3" cy="312.61" r="0.64"/><circle class="cls-2" cx="106.5" cy="315.67" r="0.81"/><circle class="cls-2" cx="101.18" cy="319.05" r="0.64"/><circle class="cls-2" cx="115.68" cy="318.73" r="0.64"/><circle class="cls-2" cx="117.29" cy="311" r="0.64"/><circle class="cls-2" cx="121.16" cy="315.51" r="0.64"/><circle class="cls-2" cx="124.22" cy="313.74" r="0.48"/><circle class="cls-2" cx="123.25" cy="307.94" r="0.48"/><circle class="cls-2" cx="121.96" cy="305.36" r="0.48"/><circle class="cls-2" cx="112.78" cy="297.14" r="0.64"/><circle class="cls-2" cx="133.24" cy="315.35" r="0.48"/><circle class="cls-2" cx="140.49" cy="297.14" r="0.64"/><circle class="cls-2" cx="146.13" cy="290.21" r="0.81"/><circle class="cls-2" cx="151.29" cy="292.47" r="0.81"/><circle class="cls-2" cx="145.81" cy="306.32" r="0.81"/><circle class="cls-2" cx="152.42" cy="305.52" r="0.64"/><circle class="cls-2" cx="136.14" cy="321.15" r="0.81"/><circle class="cls-2" cx="135.98" cy="323.56" r="0.64"/><circle class="cls-2" cx="146.62" cy="317.76" r="0.64"/><circle class="cls-2" cx="150.32" cy="325.98" r="0.48"/><circle class="cls-2" cx="160.64" cy="288.92" r="0.48"/><circle class="cls-2" cx="165.79" cy="297.62" r="0.81"/><circle class="cls-2" cx="168.05" cy="288.6" r="0.48"/><circle class="cls-2" cx="174.17" cy="289.57" r="0.48"/><circle class="cls-2" cx="172.72" cy="283.93" r="0.64"/><circle class="cls-2" cx="179.17" cy="291.66" r="0.97"/><circle class="cls-2" cx="176.91" cy="302.62" r="0.64"/><circle class="cls-2" cx="179.17" cy="305.52" r="0.64"/><circle class="cls-2" cx="186.42" cy="297.94" r="0.48"/><circle class="cls-2" cx="185.61" cy="290.69" r="0.64"/><circle class="cls-2" cx="198.66" cy="296.33" r="0.48"/><circle class="cls-2" cx="199.15" cy="304.87" r="0.64"/><circle class="cls-2" cx="205.59" cy="271.36" r="0.64"/><circle class="cls-2" cx="206.72" cy="275.71" r="0.81"/><circle class="cls-2" cx="215.9" cy="293.59" r="0.32"/><circle class="cls-2" cx="227.83" cy="285.54" r="0.64"/><circle class="cls-2" cx="241.69" cy="307.77" r="0.64"/><circle class="cls-2" cx="244.26" cy="304.87" r="0.64"/><circle class="cls-2" cx="244.91" cy="293.92" r="0.64"/><circle class="cls-2" cx="255.7" cy="298.27" r="0.81"/><circle class="cls-2" cx="259.73" cy="276.51" r="0.64"/><circle class="cls-2" cx="273.59" cy="300.68" r="0.64"/><circle class="cls-2" cx="275.2" cy="299.4" r="0.64"/><circle class="cls-2" cx="276.65" cy="308.9" r="0.81"/><circle class="cls-2" cx="277.78" cy="311" r="0.64"/><circle class="cls-2" cx="294.38" cy="300.52" r="0.81"/><circle class="cls-2" cx="295.18" cy="281.99" r="0.64"/><circle class="cls-2" cx="301.3" cy="299.07" r="0.32"/><circle class="cls-2" cx="299.05" cy="305.52" r="0.32"/><circle class="cls-2" cx="312.91" cy="302.94" r="0.32"/><circle class="cls-2" cx="319.51" cy="307.61" r="0.48"/><circle class="cls-2" cx="312.74" cy="294.08" r="0.48"/><circle class="cls-2" cx="305.49" cy="288.76" r="0.32"/><circle class="cls-2" cx="307.91" cy="286.99" r="0.48"/><circle class="cls-2" cx="312.42" cy="285.05" r="0.48"/><circle class="cls-2" cx="323.7" cy="289.57" r="0.81"/><circle class="cls-2" cx="168.37" cy="313.74" r="0.48"/><circle class="cls-2" cx="173.04" cy="320.02" r="0.64"/><circle class="cls-2" cx="176.1" cy="317.28" r="0.48"/><circle class="cls-2" cx="164.99" cy="331.94" r="0.64"/><circle class="cls-2" cx="198.99" cy="326.63" r="0.48"/><circle class="cls-2" cx="202.85" cy="320.83" r="0.48"/><circle class="cls-2" cx="211.07" cy="335.49" r="0.64"/><circle class="cls-2" cx="216.87" cy="320.34" r="0.64"/><circle class="cls-2" cx="225.25" cy="336.13" r="0.64"/><circle class="cls-2" cx="210.26" cy="342.42" r="0.48"/><circle class="cls-2" cx="240.07" cy="321.95" r="0.64"/><circle class="cls-2" cx="241.2" cy="338.87" r="0.48"/><circle class="cls-2" cx="248.61" cy="342.42" r="0.81"/><circle class="cls-2" cx="252.8" cy="312.77" r="0.81"/><circle class="cls-2" cx="270.53" cy="324.69" r="0.81"/><circle class="cls-2" cx="277.94" cy="317.28" r="0.48"/><circle class="cls-2" cx="290.19" cy="333.07" r="0.81"/><circle class="cls-2" cx="302.11" cy="328.24" r="0.81"/><circle class="cls-2" cx="309.36" cy="329.69" r="0.64"/><circle class="cls-2" cx="303.56" cy="344.83" r="0.64"/><circle class="cls-2" cx="316.93" cy="353.05" r="0.48"/><circle class="cls-2" cx="271.49" cy="350.47" r="0.81"/><circle class="cls-2" cx="273.75" cy="354.02" r="0.48"/><circle class="cls-2" cx="275.52" cy="351.92" r="0.64"/><circle class="cls-2" cx="288.41" cy="354.5" r="0.64"/><circle class="cls-2" cx="294.54" cy="354.82" r="0.64"/><circle class="cls-2" cx="296.95" cy="353.7" r="0.81"/><circle class="cls-2" cx="259.25" cy="352.09" r="0.48"/><circle class="cls-2" cx="312.1" cy="361.43" r="0.48"/><circle class="cls-2" cx="331.44" cy="352.41" r="0.48"/><circle class="cls-2" cx="335.79" cy="363.53" r="0.64"/><circle class="cls-2" cx="117.13" cy="338.23" r="0.48"/><circle class="cls-2" cx="119.23" cy="348.06" r="0.64"/><circle class="cls-2" cx="126.15" cy="338.87" r="0.48"/><circle class="cls-2" cx="126.8" cy="342.42" r="0.48"/><circle class="cls-2" cx="128.89" cy="343.87" r="0.64"/><circle class="cls-2" cx="135.5" cy="344.67" r="0.81"/><circle class="cls-2" cx="113.59" cy="330.49" r="0.48"/><circle class="cls-2" cx="144.52" cy="359.5" r="0.48"/><circle class="cls-2" cx="140.01" cy="349.83" r="0.48"/><circle class="cls-2" cx="139.21" cy="366.75" r="0.32"/><circle class="cls-2" cx="147.91" cy="371.58" r="0.64"/><circle class="cls-2" cx="168.85" cy="384.47" r="0.64"/><circle class="cls-2" cx="165.63" cy="392.21" r="0.64"/><circle class="cls-2" cx="171.43" cy="397.69" r="0.64"/><circle class="cls-2" cx="184.48" cy="396.56" r="0.81"/><circle class="cls-2" cx="186.42" cy="395.91" r="0.48"/><circle class="cls-2" cx="194.47" cy="398.17" r="0.81"/><circle class="cls-2" cx="194.47" cy="394.95" r="0.48"/><circle class="cls-2" cx="197.05" cy="396.24" r="0.81"/><circle class="cls-2" cx="203.01" cy="406.39" r="0.64"/><circle class="cls-2" cx="232.5" cy="404.94" r="1.13"/><circle class="cls-2" cx="239.59" cy="403.33" r="0.81"/><circle class="cls-2" cx="240.56" cy="406.23" r="0.81"/><circle class="cls-2" cx="250.55" cy="407.51" r="0.81"/><circle class="cls-2" cx="259.57" cy="399.78" r="0.81"/><circle class="cls-2" cx="259.57" cy="393.98" r="0.81"/><circle class="cls-2" cx="240.72" cy="424.76" r="0.64"/><circle class="cls-2" cx="276.97" cy="412.35" r="0.81"/><circle class="cls-2" cx="282.77" cy="411.06" r="0.81"/><circle class="cls-2" cx="296.95" cy="413.64" r="1.13"/><circle class="cls-2" cx="327.73" cy="401.87" r="0.64"/><circle class="cls-2" cx="332.56" cy="397.36" r="0.32"/><circle class="cls-2" cx="337.72" cy="384.15" r="0.64"/><circle class="cls-2" cx="330.79" cy="379.48" r="0.81"/><circle class="cls-2" cx="315.64" cy="376.9" r="0.81"/><circle class="cls-2" cx="328.7" cy="374.8" r="0.64"/><circle class="cls-2" cx="357.38" cy="396.4" r="0.32"/><circle class="cls-2" cx="152.9" cy="354.66" r="0.48"/><circle class="cls-2" cx="154.35" cy="352.89" r="0.64"/><circle class="cls-2" cx="163.05" cy="345.48" r="0.64"/><circle class="cls-2" cx="167.4" cy="355.95" r="0.48"/><circle class="cls-2" cx="179.49" cy="365.46" r="0.64"/><circle class="cls-2" cx="184.97" cy="375.77" r="0.64"/><circle class="cls-2" cx="192.38" cy="378.35" r="0.64"/><circle class="cls-2" cx="209.94" cy="369.81" r="0.16"/><circle class="cls-2" cx="236.85" cy="365.46" r="0.64"/><circle class="cls-2" cx="234.76" cy="353.37" r="0.81"/><circle class="cls-2" cx="221.38" cy="347.73" r="0.97"/><circle class="cls-2" cx="241.85" cy="351.44" r="0.81"/><circle class="cls-2" cx="245.55" cy="346.77" r="0.97"/><circle class="cls-2" cx="256.19" cy="373.84" r="0.64"/><circle class="cls-2" cx="263.92" cy="373.19" r="0.64"/><circle class="cls-2" cx="269.88" cy="372.39" r="0.81"/><circle class="cls-2" cx="288.74" cy="389.63" r="0.64"/><text class="cls-7" transform="translate(138.57 494.83)"><tspan class="cls-8">Э</tspan><tspan x="12.56" y="0">ТИ ЗВЁЗДЫ Я </tspan><tspan class="cls-9" x="136.2" y="0">Д</tspan><tspan x="149.99" y="0">АРЮ ТЕБЕ</tspan></text><text class="cls-10" transform="translate(230.41 538.2)"><tspan class="cls-11">2</tspan><tspan class="cls-12" x="5.51" y="0">1</tspan><tspan x="12.33" y="0">.05.</tspan><tspan class="cls-13" x="33.3" y="0">2</tspan><tspan class="cls-14" x="40.45" y="0">0</tspan><tspan class="cls-15" x="46.62" y="0">1</tspan><tspan x="52.45" y="0">8</tspan><tspan x="1.7" y="15.81">Ваш </tspan><tspan class="cls-16" x="27.53" y="15.81">г</tspan><tspan x="31.44" y="15.81">ород</tspan><tspan class="cls-12" x="-21.54" y="31.61">5</tspan><tspan x="-14.71" y="31.61" xml:space="preserve">2.36°N   </tspan><tspan class="cls-13" x="36.52" y="31.61">3</tspan><tspan x="43.68" y="31.61">9.</tspan><tspan class="cls-17" x="54.16" y="31.61">3</tspan><tspan x="61.14" y="31.61">5°E</tspan></text></svg>