<svg id="Слой_1" data-name="Слой 1" xmlns="http://www.w3.org/2000/svg" xmlns:xlink="http://www.w3.org/1999/xlink" viewBox="0 0 1920 1919.5"><defs><style>.cls-1{fill:none;}.cls-2,.cls-4{opacity:0.1;}.cls-3,.cls-4{fill:#fff;}.cls-5{fill:url(#Degradado_sin_nombre_19);}.cls-6{fill:url(#Degradado_sin_nombre_19-2);}.cls-7{fill:url(#Degradado_sin_nombre_19-3);}</style><linearGradient id="Degradado_sin_nombre_19" x1="124.38" y1="573.36" x2="126.68" y2="573.36" gradientUnits="userSpaceOnUse"><stop offset="0" stop-color="#fff"/><stop offset="1" stop-color="#fbe9f5"/></linearGradient><linearGradient id="Degradado_sin_nombre_19-2" x1="1107.64" y1="270.82" x2="1110.92" y2="270.82" xlink:href="#Degradado_sin_nombre_19"/><linearGradient id="Degradado_sin_nombre_19-3" x1="-91.77" y1="873.2" x2="-89.47" y2="873.2" xlink:href="#Degradado_sin_nombre_19"/></defs><rect class="cls-1" width="1920" height="1919.5"/><g class="cls-2"><path class="cls-1" d="M979.9,968.55c-4.3-1.43-8.7-3.72-13.35-3.46-4.85.26-8.81,4-11.37,7.86a32.94,32.94,0,0,0-5.1,13.61,22.36,22.36,0,0,0,0,6.88,24.19,24.19,0,0,0,2.79,7c.05.09.11.18.16.28l.37.57c0-1.09-.09-2.18-.1-3.27,0-4.26.35-8.63,2.52-12.39a11.76,11.76,0,0,1,8-5.89,24.89,24.89,0,0,1,10,.77c3.47.83,6.87,1.94,10.35,2.72a29,29,0,0,0,10,.8,13.62,13.62,0,0,0,8.14-4c6-6.25,5.85-15.91,6.29-24,.12-2.18.29-4.36.6-6.52a29.43,29.43,0,0,1,1.06-5.1,9.72,9.72,0,0,1,4.26-5.62c4.26-2.37,9.77-.9,14.14.36,5.1,1.46,10.37,3.6,15.57,4.08a12.55,12.55,0,0,0,6.56-1,10.18,10.18,0,0,0,4.91-4.65c2.36-4.4,2.52-9.93,3-14.89.47-4.65,1.11-9.69,4.1-13.4-.55-.65-1.1-1.3-1.67-1.93-.88-1-1.78-2-2.74-2.86a9.24,9.24,0,0,0-1-.88,3.59,3.59,0,0,0-.47-.27c-.07,0,0,0-.12,0a.61.61,0,0,1-.53-.27,3.8,3.8,0,0,0-2.56,1.76,10,10,0,0,0-1.27,4.29c-.22,1.82-.28,3.65-.37,5.47-.18,3.38-.29,7.39-2.37,10.24a12.71,12.71,0,0,1-5.44,4.46,12.36,12.36,0,0,1-6.82.4c-5.11-1-9.66-3.73-14.65-5.11a29.52,29.52,0,0,0-10.61-1.14,14.3,14.3,0,0,0-3.6.84,9.73,9.73,0,0,0-1.37.66,8.09,8.09,0,0,0-.73.46l-.3.21,0,0-.15.12a11.78,11.78,0,0,0-3.39,4.92,20.81,20.81,0,0,0-.94,3.28c-.13.61-.24,1.21-.33,1.82s-.14,1-.21,1.72c-.55,5.24-.33,10.53-.63,15.78-.25,4.47-.73,9.5-3.66,13.1C992.78,971.43,985.3,970.34,979.9,968.55Z" transform="translate(368 756)"/><path class="cls-1" d="M1045.09,955.31a75.44,75.44,0,0,0,9.82,1.31,13.4,13.4,0,0,0,8.09-1.89c2.82-1.89,4.64-5.38,5.49-8.62s.52-7,.13-10.41c-.45-3.93-1.16-7.82-1.61-11.75a25.12,25.12,0,0,1,.21-9.23l-.07-.09-.08-.1-.16-.21-.48-.61c-.79-1-1.6-2-2.42-3a10.48,10.48,0,0,0-1,1.89,25,25,0,0,0-1.64,6.85c-.32,2.67-.52,5.36-.81,8-.55,5-1.37,10.53-5,14.26a13.16,13.16,0,0,1-6.8,3.54,18.19,18.19,0,0,1-7.16-.25c-5.36-1.07-10.44-3.23-15.74-4.53a22.34,22.34,0,0,0-7-.81,7,7,0,0,0-4.9,2.34c-1.79,2.06-2.24,5.35-2.62,8-.59,4.27-.6,8.6-.95,12.89-.62,7.75-2.56,16.76-9.84,21-5.94,3.45-13.28,2.09-19.55.38-3.35-.91-6.68-2-10.1-2.6-3-.55-6.41-.77-9.25.62-3.54,1.72-5.46,5.45-6.29,9.15s-.58,7.73-.7,11.62a87.43,87.43,0,0,0,7.85,10.12,21.54,21.54,0,0,1,.26-9.49,11,11,0,0,1,5.94-6.87,18.13,18.13,0,0,1,9.54-1,69.28,69.28,0,0,1,10.74,2.35c3.19.91,6.37,2,9.63,2.62a32,32,0,0,0,10,.29c5.86-.7,11.18-3.52,14.08-8.69a22.85,22.85,0,0,0,2.6-8.46,55.3,55.3,0,0,0-.17-11,44.18,44.18,0,0,1,0-9.34,11.5,11.5,0,0,1,2.71-6.5,10.3,10.3,0,0,1,6.73-2.82C1038.05,954,1041.62,954.72,1045.09,955.31Z" transform="translate(368 756)"/><path class="cls-1" d="M1015.25,1029.34a29.79,29.79,0,0,0,6.47.18,38.3,38.3,0,0,0,8.54-2.2c5.51-2.06,11.21-5.31,14.76-10.13,2.87-3.9,3.34-8.73,4.09-13.36.66-4.11,1.73-8.63,5.64-10.84,2.47-1.4,5.23-1.41,8-1.71a31.89,31.89,0,0,0,7.79-1.76,13.92,13.92,0,0,0,7.88-6.84c1.41-2.89,1.78-6.31,1.93-9.58.31-6.27-.4-13.64,3.65-18.9l-.09-.62c-.09-.61-.17-1.19-.22-1.77L1083,949a10.57,10.57,0,0,0-1,.68c-2.89,2.37-4.5,5.9-5.74,9.38-1.37,3.87-2.32,7.87-3.7,11.74-1.24,3.5-2.87,7.14-5.75,9.63a12.59,12.59,0,0,1-5,2.64c-2.36.62-4.68.38-7.08.43a14.1,14.1,0,0,0-6.64,1.48,10.13,10.13,0,0,0-3.69,3.75,33.93,33.93,0,0,0-2.59,5.93c-.92,2.56-1.8,5.12-2.84,7.63-2.33,5.6-4.67,11.33-9,15.69a17.58,17.58,0,0,1-8.17,4.77c-3,.73-5.93.11-8.82-.89a37.67,37.67,0,0,0-9.39-2.28,17.92,17.92,0,0,0-8,1.13,12.82,12.82,0,0,0-5.93,4.67,13.6,13.6,0,0,0-2.15,6.41c1.17.51,2.36,1,3.56,1.42q6.33,1.3,12.64,2.65a9,9,0,0,1,.59-2.56C1006.12,1028.85,1011.25,1029,1015.25,1029.34Z" transform="translate(368 756)"/><path class="cls-1" d="M948.71,934.73A28.83,28.83,0,0,1,959.15,932c3.85-.4,7.72-.44,11.57-.75A31.62,31.62,0,0,0,981.29,929a15.38,15.38,0,0,0,4.26-2.81,19.15,19.15,0,0,0,3.51-4.91c2-3.75,3.52-7.84,5.87-11.41a16.49,16.49,0,0,1,9.47-6.9c4-1.14,8.19-1.18,12.28-1.64,3.46-.39,7.29-1,10.22-3a6.81,6.81,0,0,0,2.71-3.6,10.62,10.62,0,0,0-.08-5.62,8.46,8.46,0,0,1-1.26-.1,20.52,20.52,0,0,1-2.35-.37l-1.73-.37a13.25,13.25,0,0,1-.19,2.52c-1.6,9.1-13.47,4.57-19.41,4.23-4.76-.27-9.78.41-13.46,3.7-3.34,3-5.16,7.31-6.72,11.41a46.32,46.32,0,0,1-2.59,6.5,12.16,12.16,0,0,1-3.52,3.93c-2.79,2-6.31,2.63-9.66,3-3.54.34-7.16.29-10.66.78-3.31.47-6.62,1.45-9,3.84a13.31,13.31,0,0,0-3,4.72c-.62,1.6-.83,3.3-1.36,4.91A16.08,16.08,0,0,1,948.71,934.73Z" transform="translate(368 756)"/><path class="cls-1" d="M949.35,980a30.24,30.24,0,0,1,7.38-12.37,16.58,16.58,0,0,1,7.14-4.33,15.18,15.18,0,0,1,7,0c4.72,1,9,3.41,13.78,4.31a17.53,17.53,0,0,0,3.62.31c.36,0,.71,0,1.06,0l.47-.05h.1l.1,0a10.36,10.36,0,0,0,1.65-.37c.25-.08.49-.17.73-.27l.18-.08.31-.15a8,8,0,0,0,1.17-.74l.24-.19.27-.24.45-.46.28-.33.09-.11h0l.38-.54a11.74,11.74,0,0,0,.73-1.3c.06-.13.12-.27.19-.41l0-.07,0-.07c.09-.23.18-.47.26-.7.18-.52.33-1,.47-1.57s.26-1.11.36-1.67l.15-.87.06-.44a.59.59,0,0,0,0-.13s0,0,0-.14a76.75,76.75,0,0,0,.48-7.74c.14-5.27,0-10.64,1.19-15.82,1-4.62,3.39-8.88,8-10.75a18.57,18.57,0,0,1,8.49-1,41.16,41.16,0,0,1,5.83.94,46.81,46.81,0,0,1,7.27,2.56,59.37,59.37,0,0,0,7.41,2.75,11.83,11.83,0,0,0,6.82.09,9,9,0,0,0,3.16-1.93,13,13,0,0,0,2-2.28,12.4,12.4,0,0,0,1.61-4.75c.6-3.69.4-7.47,1.09-11.15a7.9,7.9,0,0,1,1.73-4.09,4.68,4.68,0,0,1,3-1.42c-.91-.73-1.84-1.46-2.79-2.15a71.2,71.2,0,0,0-18-9.5q-2.42-.85-4.88-1.53a15.43,15.43,0,0,1,.46,2.53,8.41,8.41,0,0,1-1.06,5.11,9.15,9.15,0,0,1-3.52,3.24c-3.23,1.76-7.05,2.27-10.66,2.67-4.18.46-8.51.56-12.49,2.07-3.79,1.44-6.35,4.26-8.25,7.75-2.11,3.89-3.61,8.13-6,11.85a17,17,0,0,1-8.48,6.57c-7.15,2.65-15.08,1.83-22.53,2.79A23,23,0,0,0,948,937a15.16,15.16,0,0,0-5.53,7.12l-.78,2.31a.82.82,0,0,1-.3.41A64.65,64.65,0,0,0,943,978.72a92.49,92.49,0,0,0,4.56,11.89A31.4,31.4,0,0,1,949.35,980Z" transform="translate(368 756)"/><path class="cls-1" d="M1084.34,957.26a11.7,11.7,0,0,0-.6,1.41c-1.19,3.41-1.23,6.89-1.32,10.53a47.84,47.84,0,0,1-1.1,11.2,15.42,15.42,0,0,1-6.5,9.16,22.44,22.44,0,0,1-6.85,2.82,40.55,40.55,0,0,1-4.66.82c-1.57.19-3.18.19-4.73.51a7.93,7.93,0,0,0-5.31,3.39,16.5,16.5,0,0,0-2,6.16c-.88,5-1.18,10.32-4.18,14.63-3.81,5.46-9.93,9.12-16.06,11.43a39.66,39.66,0,0,1-9.47,2.34,33.87,33.87,0,0,1-6.9-.26,26.37,26.37,0,0,0-3.44-.12,8.7,8.7,0,0,0-2.71.52,3.84,3.84,0,0,0-2,1.7,6.61,6.61,0,0,0-.74,2.92c.65.06,1.3.1,2,.13a57.41,57.41,0,0,0,23-3.77,105.18,105.18,0,0,0,19.16-9.65,87.28,87.28,0,0,0,16.34-13.34,69.49,69.49,0,0,0,12-17.12,62.09,62.09,0,0,0,6-20.79,70.13,70.13,0,0,0,.24-12C1084.5,959,1084.42,958.15,1084.34,957.26Z" transform="translate(368 756)"/><path class="cls-1" d="M959.15,922.36c3.58-.38,7.2-.33,10.77-.8,3.07-.39,6.26-1.26,8.51-3.46a11.88,11.88,0,0,0,2.77-4.53c.85-2.37,1.7-4.75,2.7-7.08,1.75-4.11,4.08-8.12,7.91-10.62,4.06-2.64,9.26-3.13,14-2.64,3.83.4,7.69,1.58,11.56,1.27a5.13,5.13,0,0,0,3.78-1.7c1.07-1.35,1.18-3.5,1.08-5.34-2-.27-4.06-.46-6.1-.54a64.9,64.9,0,0,0-19.89,2.45,78.6,78.6,0,0,0-38.45,24.37,74.81,74.81,0,0,0-8.28,11.63C952.31,923.42,955.79,922.71,959.15,922.36Z" transform="translate(368 756)"/><path class="cls-1" d="M986.45,1031.27a13.34,13.34,0,0,1,.28-2.35c1.14-5.33,5.55-9.12,10.7-10.44a20.33,20.33,0,0,1,8.61-.22,37.43,37.43,0,0,1,5,1.18c1.44.47,2.86,1,4.33,1.43a12.15,12.15,0,0,0,9.17-1,19.71,19.71,0,0,0,6.73-6.11,41.82,41.82,0,0,0,4.47-8.14c1.13-2.64,2.2-5.32,3.17-8,1.48-4.13,2.65-8.84,5.66-12.17a11.25,11.25,0,0,1,5.13-3.16,26.75,26.75,0,0,1,8-.68,11.5,11.5,0,0,0,9.58-4.42c2.3-2.94,3.53-6.78,4.63-10.37a95.79,95.79,0,0,1,4-11.81c1.56-3.44,3.86-6.65,7.31-8.38a91.71,91.71,0,0,0-3.39-11.14A81.8,81.8,0,0,0,1069,915.74a18.41,18.41,0,0,0-.19,4.45c.1,2,.36,4.08.65,6.1.64,4.46,1.48,8.91,1.7,13.41a26.73,26.73,0,0,1-.27,5.86,19.65,19.65,0,0,1-2.32,6.19,13.42,13.42,0,0,1-8.25,6.66c-3.54.93-7.27.52-10.84,0-4-.58-8-1.53-12-1.74a15.89,15.89,0,0,0-4.67.31c-.33.08-.65.17-1,.28l-.32.13-.32.14c-.28.14-.56.3-.83.47l-.29.21-.19.16a7,7,0,0,0-.61.61,2.76,2.76,0,0,0-.21.25,2.22,2.22,0,0,0-.19.27,7.31,7.31,0,0,0-.46.76c-.06.12-.12.24-.17.36s-.06.12-.07.13a.32.32,0,0,1,0,.1,12.31,12.31,0,0,0-.56,1.88,13.59,13.59,0,0,0-.3,1.91,57.74,57.74,0,0,0,.32,11.15,36.4,36.4,0,0,1-.78,12,21.5,21.5,0,0,1-4.52,9,19.12,19.12,0,0,1-8.3,5.43,31.39,31.39,0,0,1-12.11,1.34,49,49,0,0,1-10.34-2.19,103.46,103.46,0,0,0-11.89-3c-3.3-.54-7.14-.84-10.17.62a9.39,9.39,0,0,0-3.53,3,10.22,10.22,0,0,0-1.6,5,21.93,21.93,0,0,0,1.2,9.69c.73.73,1.47,1.44,2.23,2.14a71.36,71.36,0,0,0,18.58,12.55Z" transform="translate(368 756)"/><path class="cls-3" d="M1087,959.27c-.16-2.12-.42-4.24-.75-6.35-.08-.52-.14-1.07-.26-1.59a9.63,9.63,0,0,0-.6-1.54l-.44-1c-.12-.53-.25-1.06-.37-1.59a.83.83,0,0,0-.12-.27.46.46,0,0,0,0-.2,87.36,87.36,0,0,0-8.72-23.09,79.06,79.06,0,0,0-13.67-18A73.37,73.37,0,0,0,1045,893.09a68.2,68.2,0,0,0-19.29-6.84,64.42,64.42,0,0,0-20-.69,76.07,76.07,0,0,0-21.64,6.24,84.09,84.09,0,0,0-19.93,12.67,79.05,79.05,0,0,0-15.47,17.67,71.88,71.88,0,0,0-9.37,21.49,68.29,68.29,0,0,0-1.47,24.09A80.94,80.94,0,0,0,945,991.67a94.53,94.53,0,0,0,13,20.79,82.55,82.55,0,0,0,17.59,16,65.92,65.92,0,0,0,20.9,9.32,58.57,58.57,0,0,0,23.4.86c7.83-1.29,15.24-4.32,22.29-7.88a101.28,101.28,0,0,0,18.49-12,78.73,78.73,0,0,0,14.77-15.84,65.35,65.35,0,0,0,9.38-19.86A68.87,68.87,0,0,0,1087,959.27Zm-82.71,74a9,9,0,0,0-.59,2.56q-6.32-1.35-12.64-2.65c-1.2-.44-2.39-.91-3.56-1.42a13.6,13.6,0,0,1,2.15-6.41,12.82,12.82,0,0,1,5.93-4.67,17.92,17.92,0,0,1,8-1.13,37.67,37.67,0,0,1,9.39,2.28c2.89,1,5.78,1.62,8.82.89a17.58,17.58,0,0,0,8.17-4.77c4.38-4.36,6.72-10.09,9-15.69,1-2.51,1.92-5.07,2.84-7.63a33.93,33.93,0,0,1,2.59-5.93,10.13,10.13,0,0,1,3.69-3.75,14.1,14.1,0,0,1,6.64-1.48c2.4-.05,4.72.19,7.08-.43a12.59,12.59,0,0,0,5-2.64c2.88-2.49,4.51-6.13,5.75-9.63,1.38-3.87,2.33-7.87,3.7-11.74,1.24-3.48,2.85-7,5.74-9.38a10.57,10.57,0,0,1,1-.68l.66,2.85c0,.58.13,1.16.22,1.77l.09.62c-4,5.26-3.34,12.63-3.65,18.9-.15,3.27-.52,6.69-1.93,9.58a13.92,13.92,0,0,1-7.88,6.84,31.89,31.89,0,0,1-7.79,1.76c-2.75.3-5.51.31-8,1.71-3.91,2.21-5,6.73-5.64,10.84-.75,4.63-1.22,9.46-4.09,13.36-3.55,4.82-9.25,8.07-14.76,10.13a38.3,38.3,0,0,1-8.54,2.2,29.79,29.79,0,0,1-6.47-.18C1011.25,1029,1006.12,1028.85,1004.31,1033.26Zm23.47-76.15a11.5,11.5,0,0,0-2.71,6.5,44.18,44.18,0,0,0,0,9.34,55.3,55.3,0,0,1,.17,11,22.85,22.85,0,0,1-2.6,8.46c-2.9,5.17-8.22,8-14.08,8.69a32,32,0,0,1-10-.29c-3.26-.67-6.44-1.71-9.63-2.62a69.28,69.28,0,0,0-10.74-2.35,18.13,18.13,0,0,0-9.54,1,11,11,0,0,0-5.94,6.87,21.54,21.54,0,0,0-.26,9.49,87.43,87.43,0,0,1-7.85-10.12c.12-3.89-.15-7.8.7-11.62s2.75-7.43,6.29-9.15c2.84-1.39,6.22-1.17,9.25-.62,3.42.63,6.75,1.69,10.1,2.6,6.27,1.71,13.61,3.07,19.55-.38,7.28-4.22,9.22-13.23,9.84-21,.35-4.29.36-8.62.95-12.89.38-2.7.83-6,2.62-8a7,7,0,0,1,4.9-2.34,22.34,22.34,0,0,1,7,.81c5.3,1.3,10.38,3.46,15.74,4.53a18.19,18.19,0,0,0,7.16.25,13.16,13.16,0,0,0,6.8-3.54c3.65-3.73,4.47-9.3,5-14.26.29-2.67.49-5.36.81-8a25,25,0,0,1,1.64-6.85,10.48,10.48,0,0,1,1-1.89c.82,1,1.63,2,2.42,3l.48.61.16.21.08.1.07.09A25.12,25.12,0,0,0,1067,924c.45,3.93,1.16,7.82,1.61,11.75.39,3.4.75,7.06-.13,10.41s-2.67,6.73-5.49,8.62a13.4,13.4,0,0,1-8.09,1.89,75.44,75.44,0,0,1-9.82-1.31c-3.47-.59-7-1.33-10.58-1A10.3,10.3,0,0,0,1027.78,957.11Zm-30.92,9.29c2.93-3.6,3.41-8.63,3.66-13.1.3-5.25.08-10.54.63-15.78.07-.72.12-1.12.21-1.72s.2-1.21.33-1.82a20.81,20.81,0,0,1,.94-3.28,11.78,11.78,0,0,1,3.39-4.92l.15-.12,0,0,.3-.21a8.09,8.09,0,0,1,.73-.46,9.73,9.73,0,0,1,1.37-.66,14.3,14.3,0,0,1,3.6-.84,29.52,29.52,0,0,1,10.61,1.14c5,1.38,9.54,4.15,14.65,5.11a12.36,12.36,0,0,0,6.82-.4,12.71,12.71,0,0,0,5.44-4.46c2.08-2.85,2.19-6.86,2.37-10.24.09-1.82.15-3.65.37-5.47a10,10,0,0,1,1.27-4.29,3.8,3.8,0,0,1,2.56-1.76.61.61,0,0,0,.53.27c.09,0,.05,0,.12,0a3.59,3.59,0,0,1,.47.27,9.24,9.24,0,0,1,1,.88c1,.9,1.86,1.88,2.74,2.86.57.63,1.12,1.28,1.67,1.93-3,3.71-3.63,8.75-4.1,13.4-.49,5-.65,10.49-3,14.89a10.18,10.18,0,0,1-4.91,4.65,12.55,12.55,0,0,1-6.56,1c-5.2-.48-10.47-2.62-15.57-4.08-4.37-1.26-9.88-2.73-14.14-.36a9.72,9.72,0,0,0-4.26,5.62,29.43,29.43,0,0,0-1.06,5.1c-.31,2.16-.48,4.34-.6,6.52-.44,8.08-.26,17.74-6.29,24a13.62,13.62,0,0,1-8.14,4,29,29,0,0,1-10-.8c-3.48-.78-6.88-1.89-10.35-2.72a24.89,24.89,0,0,0-10-.77,11.76,11.76,0,0,0-8,5.89c-2.17,3.76-2.56,8.13-2.52,12.39,0,1.09,0,2.18.1,3.27l-.37-.57c0-.1-.11-.19-.16-.28a24.19,24.19,0,0,1-2.79-7,22.36,22.36,0,0,1,0-6.88,32.94,32.94,0,0,1,5.1-13.61c2.56-3.86,6.52-7.6,11.37-7.86,4.65-.26,9.05,2,13.35,3.46C985.3,970.34,992.78,971.43,996.86,966.4ZM946,932.88a13.31,13.31,0,0,1,3-4.72c2.42-2.39,5.73-3.37,9-3.84,3.5-.49,7.12-.44,10.66-.78,3.35-.33,6.87-.95,9.66-3a12.16,12.16,0,0,0,3.52-3.93,46.32,46.32,0,0,0,2.59-6.5c1.56-4.1,3.38-8.42,6.72-11.41,3.68-3.29,8.7-4,13.46-3.7,5.94.34,17.81,4.87,19.41-4.23a13.25,13.25,0,0,0,.19-2.52l1.73.37a20.52,20.52,0,0,0,2.35.37,8.46,8.46,0,0,0,1.26.1,10.62,10.62,0,0,1,.08,5.62,6.81,6.81,0,0,1-2.71,3.6c-2.93,2-6.76,2.6-10.22,3-4.09.46-8.3.5-12.28,1.64a16.49,16.49,0,0,0-9.47,6.9c-2.35,3.57-3.84,7.66-5.87,11.41a19.15,19.15,0,0,1-3.51,4.91,15.38,15.38,0,0,1-4.26,2.81,31.62,31.62,0,0,1-10.57,2.28c-3.85.31-7.72.35-11.57.75a28.83,28.83,0,0,0-10.44,2.69,16.08,16.08,0,0,0-4.1,3.06C945.14,936.18,945.35,934.48,946,932.88Zm29.16-34.13a79.6,79.6,0,0,1,21.09-9.38,64.9,64.9,0,0,1,19.89-2.45c2,.08,4.07.27,6.1.54.1,1.84,0,4-1.08,5.34a5.13,5.13,0,0,1-3.78,1.7c-3.87.31-7.73-.87-11.56-1.27-4.72-.49-9.92,0-14,2.64-3.83,2.5-6.16,6.51-7.91,10.62-1,2.33-1.85,4.71-2.7,7.08a11.88,11.88,0,0,1-2.77,4.53c-2.25,2.2-5.44,3.07-8.51,3.46-3.57.47-7.19.42-10.77.8-3.36.35-6.84,1.06-9.66,3a74.81,74.81,0,0,1,8.28-11.63A78.94,78.94,0,0,1,975.13,898.75Zm-32.09,80a64.65,64.65,0,0,1-1.66-31.89.82.82,0,0,0,.3-.41l.78-2.31A15.16,15.16,0,0,1,948,937a23,23,0,0,1,10-3.26c7.45-1,15.38-.14,22.53-2.79a17,17,0,0,0,8.48-6.57c2.43-3.72,3.93-8,6-11.85,1.9-3.49,4.46-6.31,8.25-7.75,4-1.51,8.31-1.61,12.49-2.07,3.61-.4,7.43-.91,10.66-2.67a9.15,9.15,0,0,0,3.52-3.24,8.41,8.41,0,0,0,1.06-5.11,15.43,15.43,0,0,0-.46-2.53q2.46.68,4.88,1.53a71.2,71.2,0,0,1,18,9.5c.95.69,1.88,1.42,2.79,2.15a4.68,4.68,0,0,0-3,1.42,7.9,7.9,0,0,0-1.73,4.09c-.69,3.68-.49,7.46-1.09,11.15a12.4,12.4,0,0,1-1.61,4.75,13,13,0,0,1-2,2.28,9,9,0,0,1-3.16,1.93,11.83,11.83,0,0,1-6.82-.09,59.37,59.37,0,0,1-7.41-2.75,46.81,46.81,0,0,0-7.27-2.56,41.16,41.16,0,0,0-5.83-.94,18.57,18.57,0,0,0-8.49,1c-4.56,1.87-6.92,6.13-8,10.75-1.15,5.18-1,10.55-1.19,15.82a76.75,76.75,0,0,1-.48,7.74c0,.1,0,.13,0,.14a.59.59,0,0,1,0,.13l-.06.44-.15.87c-.1.56-.22,1.12-.36,1.67s-.29,1.05-.47,1.57c-.08.23-.17.47-.26.7l0,.07,0,.07c-.07.14-.13.28-.19.41a11.74,11.74,0,0,1-.73,1.3l-.38.54h0l-.09.11-.28.33-.45.46-.27.24-.24.19a8,8,0,0,1-1.17.74l-.31.15-.18.08c-.24.1-.48.19-.73.27a10.36,10.36,0,0,1-1.65.37l-.1,0h-.1l-.47.05c-.35,0-.7,0-1.06,0a17.53,17.53,0,0,1-3.62-.31c-4.76-.9-9.06-3.31-13.78-4.31a15.18,15.18,0,0,0-7,0,16.58,16.58,0,0,0-7.14,4.33A30.24,30.24,0,0,0,949.35,980a31.4,31.4,0,0,0-1.75,10.63A92.49,92.49,0,0,1,943,978.72Zm24.79,40c-.76-.7-1.5-1.41-2.23-2.14a21.93,21.93,0,0,1-1.2-9.69,10.22,10.22,0,0,1,1.6-5,9.39,9.39,0,0,1,3.53-3c3-1.46,6.87-1.16,10.17-.62a103.46,103.46,0,0,1,11.89,3,49,49,0,0,0,10.34,2.19,31.39,31.39,0,0,0,12.11-1.34,19.12,19.12,0,0,0,8.3-5.43,21.5,21.5,0,0,0,4.52-9,36.4,36.4,0,0,0,.78-12,57.74,57.74,0,0,1-.32-11.15,13.59,13.59,0,0,1,.3-1.91,12.31,12.31,0,0,1,.56-1.88.32.32,0,0,0,0-.1s0,0,.07-.13.11-.24.17-.36a7.31,7.31,0,0,1,.46-.76,2.22,2.22,0,0,1,.19-.27,2.76,2.76,0,0,1,.21-.25,7,7,0,0,1,.61-.61l.19-.16.29-.21c.27-.17.55-.33.83-.47l.32-.14.32-.13c.32-.11.64-.2,1-.28a15.89,15.89,0,0,1,4.67-.31c4,.21,8,1.16,12,1.74,3.57.52,7.3.93,10.84,0a13.42,13.42,0,0,0,8.25-6.66,19.65,19.65,0,0,0,2.32-6.19,26.73,26.73,0,0,0,.27-5.86c-.22-4.5-1.06-9-1.7-13.41-.29-2-.55-4.06-.65-6.1a18.41,18.41,0,0,1,.19-4.45,81.8,81.8,0,0,1,10.75,19.76,91.71,91.71,0,0,1,3.39,11.14c-3.45,1.73-5.75,4.94-7.31,8.38a95.79,95.79,0,0,0-4,11.81c-1.1,3.59-2.33,7.43-4.63,10.37a11.5,11.5,0,0,1-9.58,4.42,26.75,26.75,0,0,0-8,.68,11.25,11.25,0,0,0-5.13,3.16c-3,3.33-4.18,8-5.66,12.17-1,2.71-2,5.39-3.17,8a41.82,41.82,0,0,1-4.47,8.14,19.71,19.71,0,0,1-6.73,6.11,12.15,12.15,0,0,1-9.17,1c-1.47-.41-2.89-1-4.33-1.43a37.43,37.43,0,0,0-5-1.18,20.33,20.33,0,0,0-8.61.22c-5.15,1.32-9.56,5.11-10.7,10.44a13.34,13.34,0,0,0-.28,2.35l0,0A71.36,71.36,0,0,1,967.83,1018.7Zm116.48-46.82a62.09,62.09,0,0,1-6,20.79,69.49,69.49,0,0,1-12,17.12,87.28,87.28,0,0,1-16.34,13.34,105.18,105.18,0,0,1-19.16,9.65,57.41,57.41,0,0,1-23,3.77c-.65,0-1.3-.07-2-.13a6.61,6.61,0,0,1,.74-2.92,3.84,3.84,0,0,1,2-1.7,8.7,8.7,0,0,1,2.71-.52,26.37,26.37,0,0,1,3.44.12,33.87,33.87,0,0,0,6.9.26,39.66,39.66,0,0,0,9.47-2.34c6.13-2.31,12.25-6,16.06-11.43,3-4.31,3.3-9.63,4.18-14.63a16.5,16.5,0,0,1,2-6.16,7.93,7.93,0,0,1,5.31-3.39c1.55-.32,3.16-.32,4.73-.51a40.55,40.55,0,0,0,4.66-.82,22.44,22.44,0,0,0,6.85-2.82,15.42,15.42,0,0,0,6.5-9.16,47.84,47.84,0,0,0,1.1-11.2c.09-3.64.13-7.12,1.32-10.53a11.7,11.7,0,0,1,.6-1.41c.08.89.16,1.78.21,2.67A70.13,70.13,0,0,1,1084.31,971.88Z" transform="translate(368 756)"/></g><g class="cls-2"><path class="cls-1" d="M1360,231.81Z" transform="translate(368 756)"/><path class="cls-1" d="M1360,231.91s0,0,0,0Z" transform="translate(368 756)"/><path class="cls-1" d="M1267.6,193.86c-3,.14-6,.09-9.07,0a62,62,0,0,0-17.74,2,73.25,73.25,0,0,0-5.47,10.32,67.68,67.68,0,0,0-3.15,9,4.9,4.9,0,0,1,2-.91.79.79,0,0,1,.77.29,4.14,4.14,0,0,1,2.47-1.66.75.75,0,0,1,.88.5q.9,2.19,1.81,4.38c1,2.28,1.91,4.55,2.9,6.81.37.82.73,1.65,1.12,2.47a3.54,3.54,0,0,0,1.22,1.5c1.93,1.47,4.27,2.28,6.14,3.84a5.21,5.21,0,0,1,1.83,2.6,4.24,4.24,0,0,1-.15,2.47,18.41,18.41,0,0,1,2.46.2c1.15.2,2.61.68,2.81,2,.18,1.16-.66,2.26-1.34,3.12-1,1.23-2.08,2.34-3.1,3.52a4.39,4.39,0,0,0-1.36,2.22c-.13,1.19-.07,2.17-1.13,2.95a9.84,9.84,0,0,1-2.87,1.21,4.73,4.73,0,0,0-2.42,1.88,4.39,4.39,0,0,0-.27.47.06.06,0,0,0,0,.05.73.73,0,0,0,.25.15c.69.29,1.43.45,2.12.75a5.12,5.12,0,0,1,2.21,1.77,5.39,5.39,0,0,1,.76,2.94,14.6,14.6,0,0,0,.27,3.49,8.86,8.86,0,0,0,1.67,2.94c.72,1,1.46,2,2.19,2.93a21.86,21.86,0,0,0,2.07,2.54c1.52,1.53,3.31,3.12,3.64,5.38s-.6,4.55-.5,6.84a8.11,8.11,0,0,1,.05,1.48,11.19,11.19,0,0,0-.24,1.12c0,.39.3.53.68.62h.13l.35-.07a14,14,0,0,0,4.37-2.73c.54-.43,1.07-.88,1.61-1.32s1.23-1.12,1.89-1.57h0c0-.26-.11-.51-.15-.77a22.74,22.74,0,0,0-.45-3,13.1,13.1,0,0,1-.61-3.15,31.35,31.35,0,0,1,.54-4.51,23.22,23.22,0,0,0,.21-6.91,3.21,3.21,0,0,1-.06-1.51,2.12,2.12,0,0,1,1.14-1.14,13.4,13.4,0,0,1,3-1.14c.83-.19,1.72-.12,2.52-.39a6.5,6.5,0,0,0,2.64-2.16c.71-.86,1.32-1.8,2.07-2.63-.43-2.82,1.52-5.29,1.44-8.1a3.9,3.9,0,0,0-.54-2.44,2.08,2.08,0,0,0-1.33-.45,21.25,21.25,0,0,1-2.52-.37,16.53,16.53,0,0,1-3.56-1.48,8.91,8.91,0,0,0-3.54-1.16,18.36,18.36,0,0,0-2.86.29,4.54,4.54,0,0,1-2.53-.23,2.38,2.38,0,0,1-1-1,1.15,1.15,0,0,1-.25-.12c-1.2-1-2.67-2.58-1.65-4.19.9-1.42,2.93-2,4.43-2.44,1.86-.56,3.77-1,5.65-1.46.84-.22,1.68-.46,2.5-.76a6.14,6.14,0,0,0,1.54-.79,8.36,8.36,0,0,0,1.73-2.93c.65-1.47,1.17-3,1.73-4.48a23.55,23.55,0,0,1,3.74-7c1.45-1.68,3.64-2.26,5.7-2.83,2.55-.72,5.39-2,6.58-4.53,2.78-5.92-5.2-9.62-9.1-12.07a20.61,20.61,0,0,0-9.6-2.8A80.66,80.66,0,0,0,1267.6,193.86Z" transform="translate(368 756)"/><path class="cls-1" d="M1331.32,173.54a10.05,10.05,0,0,0,4.56-.34,22.4,22.4,0,0,0,3.86-1.77A70.32,70.32,0,0,0,1324.8,164a63.1,63.1,0,0,0-39.07-1.31,79.32,79.32,0,0,0-19.79,8.6,40,40,0,0,1,8.62-2.66,10.45,10.45,0,0,1,4.24.18,22.28,22.28,0,0,1,4.75,2.07,4.89,4.89,0,0,1,1.84,1.8,7,7,0,0,0,1.26,1.78c1.77,1.48,4.33.69,6.27,0a32.36,32.36,0,0,1,3.21-1,11.68,11.68,0,0,1,3.64-.1c1.21.08,2.43.23,3.64.4a21.72,21.72,0,0,0,3.77.39c4.86-.17,9.53-1.78,14.36-2.23l.17,0h.18a24.79,24.79,0,0,1,5.07.65C1328.41,172.9,1329.84,173.33,1331.32,173.54Z" transform="translate(368 756)"/><path class="cls-1" d="M1354.28,222.36a33.92,33.92,0,0,0,5.14,0,6.51,6.51,0,0,0,2.06-.69,12.76,12.76,0,0,1,2.75-.47c1.71-.41,2.79-2,4.12-3.11a6.07,6.07,0,0,1,3.12-1.59c-.73-2.67-1.57-5.31-2.54-7.9a79.58,79.58,0,0,0-15.73-25.78,2.13,2.13,0,0,0-.64.63l-2.38,4a.73.73,0,0,1-.81.33,7.86,7.86,0,0,0-4.39.4,35.57,35.57,0,0,0-5.69,2.41c-3.34,1.71-6.52,3.68-9.71,5.65-2.7,1.66-5.65,3.23-7.63,5.79-.74,1-1.44,2.25-.92,3.46.75,1.73,3.17,2.56,4.8,3.08,4.37,1.4,9.27-1.38,13.35,1.38a.72.72,0,0,1,.25,1c-2.14,3.16-5.56,5.26-9.12,6.65a7.16,7.16,0,0,0,3.63-1.54.71.71,0,0,1,1.12.86c-.52,1-1.09,2.38-.4,3.3a4.79,4.79,0,0,0,2.4,1.23c1.62.47,4.1.69,5,2.34a2.38,2.38,0,0,1-.08,2.42,3.78,3.78,0,0,1-2.2,1.22c-1.91.5-4,.47-5.83,1.17a2.28,2.28,0,0,0-.69.4l0,0a.11.11,0,0,0,0,0l0,.05v0a.37.37,0,0,0,0,.14,6.4,6.4,0,0,0,2.19,2.67.71.71,0,0,1-.31,1.19,12.14,12.14,0,0,0-3.28,1.54,8.16,8.16,0,0,1-3.39,1.13,10.69,10.69,0,0,1-2.76-.27,15.36,15.36,0,0,0-6,.82,21.81,21.81,0,0,0-6.27,2.59c-.54.36-1.41.88-1.58,1.45a3.2,3.2,0,0,0,.19,1.69,17.38,17.38,0,0,0,2.54,4.57,36,36,0,0,0,3.5,4.19,8.84,8.84,0,0,1,1.49,1.57,8.61,8.61,0,0,1,.79,2.78,4,4,0,0,0,1.07,2.5,9.65,9.65,0,0,0,3.2,1.57c1.93.65,3.83,1.34,5.78,2a16.12,16.12,0,0,1,5.47,2.47,4.13,4.13,0,0,1,1.51,2,6.88,6.88,0,0,1-.2,2.85,3.9,3.9,0,0,0,.36,3.19,2.58,2.58,0,0,0,2.23,1.16,4.6,4.6,0,0,1,2.14.34,6.11,6.11,0,0,1,2.16,2.35,5.3,5.3,0,0,1,.25,4.61,13.49,13.49,0,0,0-1.11,5.7c.12,1.29.44,3.6,1.87,4.17,1.13.46,2.43-.53,3.21-1.25a14.1,14.1,0,0,0,3.16-4.71c1.81-4.13,2.5-9.68-.71-13.34a.71.71,0,0,1-.12-.86c1.36-1.84,3.36-2.92,5.19-4.22a7.27,7.27,0,0,0,2.12-2.05,5.21,5.21,0,0,0,.57-2.91,16.76,16.76,0,0,0-1.48-5.89,12.32,12.32,0,0,0-3-3.81c-2.83-2.75-6-5.17-8.6-8.15a15.16,15.16,0,0,1-2.87-4.38,14.56,14.56,0,0,1-.88-4.72,6.05,6.05,0,0,1,1-4.1,5.56,5.56,0,0,1,4.51-1.76.74.74,0,0,1,.71.72c.18,1.56,1.35,1.95,2.6,2.54a2.58,2.58,0,0,1,1.62,2.42,7.25,7.25,0,0,1,2.38.91,36.11,36.11,0,0,1,3.35,2.17,22.92,22.92,0,0,0,2.88,1.77,3.66,3.66,0,0,0,1.16.37.92.92,0,0,0,.62-.12,2.85,2.85,0,0,0,.67-2.27,2.73,2.73,0,0,0-1.22-1.81,17.25,17.25,0,0,0-2-1.15c-.53-.29-1.15-.66-1.31-1.29-.2-.8.49-1.41,1.09-1.81a16.26,16.26,0,0,1,3.13-1.54c-2.12-1.13-4.74.56-6.84,1.37a5.12,5.12,0,0,1-3.33.37,4.41,4.41,0,0,1-2.55-3.07c-.45-1.31-1-3.22.17-4.3C1351.32,222.26,1353,222.33,1354.28,222.36Z" transform="translate(368 756)"/><path class="cls-1" d="M1360,231.94a0,0,0,0,1,0,0v0Z" transform="translate(368 756)"/><path class="cls-1" d="M1270.27,263v0Z" transform="translate(368 756)"/><path class="cls-1" d="M1301.08,300.05a8.09,8.09,0,0,1-3.44,2.26,7.31,7.31,0,0,1-4.55-.23c-3.21-1.17-4.35-5.2-7.62-6.19-1.82-.55-3.25.1-4.84.91a7.31,7.31,0,0,1-2.12.78,8.36,8.36,0,0,1-2.82-.11c-1.74-.29-3.45-1.09-5.23-1.1a4.84,4.84,0,0,0-2.63.8,3.81,3.81,0,0,0-1.49,1.58,69.22,69.22,0,0,0,9.6,5.43,56.09,56.09,0,0,0,44.24,1.52,104.57,104.57,0,0,0,18.16-9,6.41,6.41,0,0,1-.12-1.23c-3.64.33-7.4,2.52-10.92.66a31.52,31.52,0,0,1-3.12-2.28,6.3,6.3,0,0,0-4.29-1.14.73.73,0,0,1-.69-.91c.58-1.47,1.49-5.07-.71-5.77a4.1,4.1,0,0,0-3.07.75,1.83,1.83,0,0,0-1,1.14c-.53,1.3-.79,2.7-1.26,4-.4,1.1-1,2.57-2.24,2.91s-2.59-.84-3.43-1.91C1304.81,294.74,1303.3,297.76,1301.08,300.05Z" transform="translate(368 756)"/><path class="cls-1" d="M1373.15,226.73a17.34,17.34,0,0,1-.28-3.29c0-.58,0-1.16.05-1.74,0-.3,0-.68,0-1a.54.54,0,0,1-.44-.44c-.17-.74-.36-1.48-.55-2.22-.63-.24-1.38.23-1.89.57a16.17,16.17,0,0,0-2.15,1.82,13.33,13.33,0,0,1-1.68,1.51,6.85,6.85,0,0,1-3.34.9,8.7,8.7,0,0,0-2,.72,9,9,0,0,1-2.26.35c-1.62.09-3.23-.09-4.85-.1-.77,0-2.42-.06-2.72.7a3.65,3.65,0,0,0,.28,2.15,5.39,5.39,0,0,0,.87,1.92c1.35,1.69,4,0,5.57-.67,2.4-1,5-1.46,7,.63a.72.72,0,0,1-.32,1.19c-1,.4-2,.8-3,1.29a5.81,5.81,0,0,0-1.38.85l0,0,0,0c.14.1.29.18.43.27,1.46.82,3.13,1.52,3.79,3.2s.05,4.6-2,4.84-4-1.48-5.48-2.51a34.5,34.5,0,0,0-3-1.95,4.58,4.58,0,0,0-2.48-.77.71.71,0,0,1-.69-.9,1.27,1.27,0,0,0-.28-1.35,6.68,6.68,0,0,0-1.47-.72,3.92,3.92,0,0,1-2.29-2.66c-1.5.12-2.9.66-3.36,2.27a10.76,10.76,0,0,0,.18,4.85c.66,3.46,3.48,6.1,5.94,8.4,2.66,2.48,5.67,4.73,7.89,7.63a13.87,13.87,0,0,1,2.07,4.89,11.09,11.09,0,0,1,.28,5.74c-1,3.58-5.29,4.5-7.53,7.12a9.67,9.67,0,0,1,1.42,2.45c1.78,4.43.55,9.86-1.77,13.87q2-1.83,3.87-3.79a69.52,69.52,0,0,0,12-17.07,61.88,61.88,0,0,0,6-20.73,70.84,70.84,0,0,0,.24-11.92Q1373.62,229.88,1373.15,226.73Z" transform="translate(368 756)"/><path class="cls-1" d="M1245.91,255.14Z" transform="translate(368 756)"/><path class="cls-1" d="M1266.56,296.32a6.38,6.38,0,0,1,3-1.3c2.06-.3,4,.55,6,1a7.68,7.68,0,0,0,2.78.19,7.27,7.27,0,0,0,2.1-.86,7.11,7.11,0,0,1,5.11-.9,8.55,8.55,0,0,1,4.28,2.94c1.06,1.17,2.09,2.66,3.59,3.3a5.75,5.75,0,0,0,4.35.12,8.77,8.77,0,0,0,3.17-2.63c2-2.4,3.64-5.17,6.4-6.81a.74.74,0,0,1,1,.25,4.6,4.6,0,0,0,2.06,1.86.42.42,0,0,0,.37-.08,1.88,1.88,0,0,0,.47-.52,15.57,15.57,0,0,0,1.41-3.94,13.56,13.56,0,0,1,.7-2,3.35,3.35,0,0,1,1.63-1.54c1.78-1,4.25-1.52,5.61.41,1.07,1.53.91,3.64.38,5.41a7.32,7.32,0,0,1,3.54,1c1.11.68,2,1.63,3.12,2.32a6.59,6.59,0,0,0,4.93.6c2.16-.42,4.25-1.19,6.47-1.22a.71.71,0,0,1,.71.72,8.83,8.83,0,0,0,0,1.15c2-1.33,4.06-2.73,6-4.21a3,3,0,0,1-1.61-.45c-1.59-.94-2.07-3.06-2.29-4.75a13.32,13.32,0,0,1,1-6.29,6.35,6.35,0,0,0,.51-2.27,4.2,4.2,0,0,0-1.15-2.48,2.37,2.37,0,0,0-2.11-1.08,4.4,4.4,0,0,1-2.47-.54,4.47,4.47,0,0,1-2-2.82,10.42,10.42,0,0,1,.28-3.51,2.21,2.21,0,0,0-.51-2.24,7.67,7.67,0,0,0-2.47-1.56c-1.91-.84-4-1.27-5.92-2-2.21-.8-4.8-1.36-6.62-2.93a4.43,4.43,0,0,1-1.34-2.62,9.62,9.62,0,0,0-.74-2.95,10.45,10.45,0,0,0-1.55-1.57c-.65-.68-1.27-1.39-1.86-2.12a30.41,30.41,0,0,1-3.39-5c-.67-1.28-1.46-2.94-1.07-4.43a3.5,3.5,0,0,1,1.52-1.83,15.24,15.24,0,0,1,2.87-1.67,29.14,29.14,0,0,1,6.82-2.11,16.1,16.1,0,0,1,3.17-.41c1,0,1.91.33,2.89.36,2.23.08,3.87-1.41,5.8-2.23a5,5,0,0,1-1.68-2.58,2,2,0,0,1,1.34-2.19c1.84-.86,4-.83,6-1.28a8.86,8.86,0,0,0,1.18-.36,2.3,2.3,0,0,0,.43-.25l.11-.1c.06-.07,0,.07.06-.07a.58.58,0,0,0,.07-.25.84.84,0,0,0,0-.46,1.14,1.14,0,0,0-.44-.57,8,8,0,0,0-2.55-.92,14.69,14.69,0,0,1-3-1A3.46,3.46,0,0,1,1333,220a3.66,3.66,0,0,1,0-1.8,6.11,6.11,0,0,1-5.71.11.72.72,0,0,1,.17-1.3c3.77-1.15,7.81-3.06,10.28-6.25-2.24-1.11-4.88-.66-7.31-.48a15.6,15.6,0,0,1-4-.12,14.47,14.47,0,0,1-3.9-1.46c-1.5-.8-2.93-2.05-3.08-3.85a6,6,0,0,1,1.78-4.2c2.26-2.63,5.4-4.29,8.3-6.09a109.93,109.93,0,0,1,10.68-6,28.8,28.8,0,0,1,5.28-2,8.92,8.92,0,0,1,3.74-.28l2.11-3.53a3.66,3.66,0,0,1,.91-1,71.59,71.59,0,0,0-9.51-8.31c-.54-.39-1.09-.78-1.65-1.16-2.92,1.66-6,3.06-9.41,2.69a37.68,37.68,0,0,1-4.61-.95,23.6,23.6,0,0,0-5.35-.72,76.68,76.68,0,0,0-8.24,1.42c-2.58.51-5.4,1.11-8,.73a60,60,0,0,0-7.44-.78c-2.32-.06-4.47,1.24-6.69,1.75-2,.46-4.23.38-5.78-1.09a8.45,8.45,0,0,1-1.25-1.77,4.19,4.19,0,0,0-1.82-1.69,17.73,17.73,0,0,0-4.57-1.84,10.11,10.11,0,0,0-4.24.19,41.07,41.07,0,0,0-6.4,2,65.89,65.89,0,0,1-6.26,2.28A79.31,79.31,0,0,0,1247.39,187a72.87,72.87,0,0,0-5.42,7.08c.91-.23,1.82-.43,2.74-.61a65.35,65.35,0,0,1,14.85-1c2.35.08,4.68.1,7,0s4.73-.25,7.09-.25c4.66,0,9.41.59,13.44,3.09,4.72,3,12.92,7.1,9.62,14-1.23,2.57-3.92,4-6.5,4.89-2,.7-4.41,1-5.93,2.67a15.26,15.26,0,0,0-1.91,3,36.42,36.42,0,0,0-1.75,4c-.55,1.49-1.09,3-1.74,4.44a9.31,9.31,0,0,1-1.83,3,9.75,9.75,0,0,1-4.16,1.82c-1.87.51-3.78.91-5.65,1.44-1.33.38-3.08.83-4,1.79a.73.73,0,0,0-.23.9,3,3,0,0,0,.6.87.67.67,0,0,1,1.12.34c.17,1.13.65,1.54,1.79,1.5s2.33-.37,3.51-.36a10,10,0,0,1,4.32,1.32,14.51,14.51,0,0,0,4.16,1.55,16.27,16.27,0,0,1,2.52.36c2.26.71,2.29,3.86,2,5.77-.27,1.59-1.06,3-1.35,4.61a4.53,4.53,0,0,0-.07,1.22c0,.39.24.81,0,1.18a5.57,5.57,0,0,1-.65.73c-.27.32-.52.66-.78,1a13.68,13.68,0,0,1-3.14,3.3,6.82,6.82,0,0,1-3.16.85,9.28,9.28,0,0,0-3.48,1.29,1.34,1.34,0,0,0-.15.13h0v.08c0,.25.06.44.12.77.53,3.07-.06,6.36-.5,9.41a10.74,10.74,0,0,0-.19,2.83,10.9,10.9,0,0,0,.43,1.86,11.42,11.42,0,0,1,.43,2c.06.53.06,1.07.16,1.6s.27,1.24-.22,1.8a19.9,19.9,0,0,1-2.29,1.9,25.18,25.18,0,0,1-5.42,3.8,3,3,0,0,1-2.62.18c-1.21-.53-1.29-1.51-1-2.65a5.9,5.9,0,0,0,0-1.73,12.75,12.75,0,0,1,.13-2.14,19.41,19.41,0,0,0,.41-4.36,6.53,6.53,0,0,0-2.15-3.61,28.47,28.47,0,0,1-2.75-3.05c-.89-1.22-1.83-2.42-2.73-3.65a9.71,9.71,0,0,1-2-3.85c-.3-1.43-.09-2.88-.29-4.31a3.34,3.34,0,0,0-2.15-2.61,13.14,13.14,0,0,1-2.47-.95,1.53,1.53,0,0,1-.36-2.15,6.12,6.12,0,0,1,2.9-2.63c1-.38,3.15-.61,3.43-1.84a14,14,0,0,1,.34-2.32,6,6,0,0,1,.91-1.33c.64-.79,1.33-1.53,2-2.28s1.25-1.36,1.8-2.09a4.24,4.24,0,0,0,.85-1.62.4.4,0,0,0-.14-.4,2.2,2.2,0,0,0-.75-.38,13.15,13.15,0,0,0-4.05-.37.72.72,0,0,1-.62-1.07,3.08,3.08,0,0,0,.07-3.29,8.19,8.19,0,0,0-2.8-2.29c-1-.61-2.12-1.16-3.14-1.79a7.28,7.28,0,0,1-2.34-2,32.42,32.42,0,0,1-2.09-4.56c-1.36-3.14-2.67-6.3-4-9.46-1.34.64-2.12,2.53-2.9,3.66-.51.75-1.7.08-1.23-.72a3.48,3.48,0,0,0,.39-1.36,6.23,6.23,0,0,0-2,2,68,68,0,0,0-1.5,10.1,65,65,0,0,0,2.74,23.64,93.71,93.71,0,0,0,9.87,21.74,86.94,86.94,0,0,0,14.86,18.13,75,75,0,0,0,7.73,6.26A5,5,0,0,1,1266.56,296.32Z" transform="translate(368 756)"/><path class="cls-3" d="M1376.27,232.4c-.16-2.11-.42-4.23-.75-6.33-.08-.52-.14-1.06-.26-1.58a9.63,9.63,0,0,0-.6-1.54c-.21-.48-.42-1-.64-1.43-.14-.31-.35-.66-.51-1a.56.56,0,0,0,.21-.61c-.17-.78-.37-1.56-.57-2.34a.69.69,0,0,0,0-.32A84.55,84.55,0,0,0,1359.31,188a77.64,77.64,0,0,0-5.46-6.55,1,1,0,0,0-.13-.09c-.76-.82-1.53-1.62-2.32-2.4a73.42,73.42,0,0,0-17-12.54,68.26,68.26,0,0,0-19.24-6.82,64.34,64.34,0,0,0-20-.69,76,76,0,0,0-21.58,6.23,84.24,84.24,0,0,0-19.88,12.63,79,79,0,0,0-15.42,17.61A71.7,71.7,0,0,0,1229,216.8a67.91,67.91,0,0,0-1.46,24,80.66,80.66,0,0,0,7.13,23.88,94.08,94.08,0,0,0,13,20.74,81.82,81.82,0,0,0,17.54,15.94,65.8,65.8,0,0,0,20.83,9.29,58.65,58.65,0,0,0,23.34.87c7.81-1.29,15.2-4.31,22.23-7.87A100.51,100.51,0,0,0,1350,291.72a78.78,78.78,0,0,0,14.72-15.79,65.07,65.07,0,0,0,9.35-19.8A68.8,68.8,0,0,0,1376.27,232.4Zm-26.15-4.92a4.41,4.41,0,0,0,2.55,3.07,5.12,5.12,0,0,0,3.33-.37c2.1-.81,4.72-2.5,6.84-1.37a16.26,16.26,0,0,0-3.13,1.54c-.6.4-1.29,1-1.09,1.81.16.63.78,1,1.31,1.29a17.25,17.25,0,0,1,2,1.15,2.73,2.73,0,0,1,1.22,1.81,2.85,2.85,0,0,1-.67,2.27.92.92,0,0,1-.62.12,3.66,3.66,0,0,1-1.16-.37,22.92,22.92,0,0,1-2.88-1.77,36.11,36.11,0,0,0-3.35-2.17,7.25,7.25,0,0,0-2.38-.91,2.58,2.58,0,0,0-1.62-2.42c-1.25-.59-2.42-1-2.6-2.54a.74.74,0,0,0-.71-.72,5.56,5.56,0,0,0-4.51,1.76,6.05,6.05,0,0,0-1,4.1,14.56,14.56,0,0,0,.88,4.72,15.16,15.16,0,0,0,2.87,4.38c2.61,3,5.77,5.4,8.6,8.15a12.32,12.32,0,0,1,3,3.81,16.76,16.76,0,0,1,1.48,5.89,5.21,5.21,0,0,1-.57,2.91,7.27,7.27,0,0,1-2.12,2.05c-1.83,1.3-3.83,2.38-5.19,4.22a.71.71,0,0,0,.12.86c3.21,3.66,2.52,9.21.71,13.34a14.1,14.1,0,0,1-3.16,4.71c-.78.72-2.08,1.71-3.21,1.25-1.43-.57-1.75-2.88-1.87-4.17a13.49,13.49,0,0,1,1.11-5.7,5.3,5.3,0,0,0-.25-4.61,6.11,6.11,0,0,0-2.16-2.35,4.6,4.6,0,0,0-2.14-.34,2.58,2.58,0,0,1-2.23-1.16,3.9,3.9,0,0,1-.36-3.19,6.88,6.88,0,0,0,.2-2.85,4.13,4.13,0,0,0-1.51-2,16.12,16.12,0,0,0-5.47-2.47c-2-.61-3.85-1.3-5.78-2a9.65,9.65,0,0,1-3.2-1.57,4,4,0,0,1-1.07-2.5,8.61,8.61,0,0,0-.79-2.78,8.84,8.84,0,0,0-1.49-1.57,36,36,0,0,1-3.5-4.19,17.38,17.38,0,0,1-2.54-4.57,3.2,3.2,0,0,1-.19-1.69c.17-.57,1-1.09,1.58-1.45a21.81,21.81,0,0,1,6.27-2.59,15.36,15.36,0,0,1,6-.82,10.69,10.69,0,0,0,2.76.27,8.16,8.16,0,0,0,3.39-1.13,12.14,12.14,0,0,1,3.28-1.54.71.71,0,0,0,.31-1.19,6.4,6.4,0,0,1-2.19-2.67.37.37,0,0,1,0-.14v0l0-.05a.11.11,0,0,1,0,0l0,0a2.28,2.28,0,0,1,.69-.4c1.86-.7,3.92-.67,5.83-1.17a3.78,3.78,0,0,0,2.2-1.22,2.38,2.38,0,0,0,.08-2.42c-.91-1.65-3.39-1.87-5-2.34a4.79,4.79,0,0,1-2.4-1.23c-.69-.92-.12-2.3.4-3.3a.71.71,0,0,0-1.12-.86,7.16,7.16,0,0,1-3.63,1.54c3.56-1.39,7-3.49,9.12-6.65a.72.72,0,0,0-.25-1c-4.08-2.76-9,0-13.35-1.38-1.63-.52-4-1.35-4.8-3.08-.52-1.21.18-2.51.92-3.46,2-2.56,4.93-4.13,7.63-5.79,3.19-2,6.37-3.94,9.71-5.65a35.57,35.57,0,0,1,5.69-2.41,7.86,7.86,0,0,1,4.39-.4.73.73,0,0,0,.81-.33l2.38-4a2.13,2.13,0,0,1,.64-.63,79.58,79.58,0,0,1,15.73,25.78c1,2.59,1.81,5.23,2.54,7.9a6.07,6.07,0,0,0-3.12,1.59c-1.33,1.08-2.41,2.7-4.12,3.11a12.76,12.76,0,0,0-2.75.47,6.51,6.51,0,0,1-2.06.69,33.92,33.92,0,0,1-5.14,0c-1.28,0-3-.1-4,.82C1349.08,224.26,1349.67,226.17,1350.12,227.48ZM1360,232a0,0,0,0,0,0,0h0Zm0-.16h0Zm0,.11Zm-38.14-60h-.18l-.17,0c-4.83.45-9.5,2.06-14.36,2.23a21.72,21.72,0,0,1-3.77-.39c-1.21-.17-2.43-.32-3.64-.4a11.68,11.68,0,0,0-3.64.1,32.36,32.36,0,0,0-3.21,1c-1.94.67-4.5,1.46-6.27,0a7,7,0,0,1-1.26-1.78,4.89,4.89,0,0,0-1.84-1.8,22.28,22.28,0,0,0-4.75-2.07,10.45,10.45,0,0,0-4.24-.18,40,40,0,0,0-8.62,2.66,79.32,79.32,0,0,1,19.79-8.6A63.1,63.1,0,0,1,1324.8,164a70.32,70.32,0,0,1,14.94,7.42,22.4,22.4,0,0,1-3.86,1.77,10.05,10.05,0,0,1-4.56.34c-1.48-.21-2.91-.64-4.36-1A24.79,24.79,0,0,0,1321.89,171.92Zm-35.49,24.63c3.9,2.45,11.88,6.15,9.1,12.07-1.19,2.54-4,3.81-6.58,4.53-2.06.57-4.25,1.15-5.7,2.83a23.55,23.55,0,0,0-3.74,7c-.56,1.5-1.08,3-1.73,4.48a8.36,8.36,0,0,1-1.73,2.93,6.14,6.14,0,0,1-1.54.79c-.82.3-1.66.54-2.5.76-1.88.5-3.79.9-5.65,1.46-1.5.45-3.53,1-4.43,2.44-1,1.61.45,3.22,1.65,4.19a1.15,1.15,0,0,0,.25.12,2.38,2.38,0,0,0,1,1,4.54,4.54,0,0,0,2.53.23,18.36,18.36,0,0,1,2.86-.29,8.91,8.91,0,0,1,3.54,1.16,16.53,16.53,0,0,0,3.56,1.48,21.25,21.25,0,0,0,2.52.37,2.08,2.08,0,0,1,1.33.45,3.9,3.9,0,0,1,.54,2.44c.08,2.81-1.87,5.28-1.44,8.1-.75.83-1.36,1.77-2.07,2.63a6.5,6.5,0,0,1-2.64,2.16c-.8.27-1.69.2-2.52.39a13.4,13.4,0,0,0-3,1.14,2.12,2.12,0,0,0-1.14,1.14,3.21,3.21,0,0,0,.06,1.51,23.22,23.22,0,0,1-.21,6.91,31.35,31.35,0,0,0-.54,4.51,13.1,13.1,0,0,0,.61,3.15,22.74,22.74,0,0,1,.45,3c0,.26.11.51.15.77h0c-.66.45-1.28,1.07-1.89,1.57s-1.07.89-1.61,1.32a14,14,0,0,1-4.37,2.73l-.35.07h-.13c-.38-.09-.71-.23-.68-.62a11.19,11.19,0,0,1,.24-1.12,8.11,8.11,0,0,0-.05-1.48c-.1-2.29.83-4.56.5-6.84s-2.12-3.85-3.64-5.38a21.86,21.86,0,0,1-2.07-2.54c-.73-1-1.47-1.94-2.19-2.93a8.86,8.86,0,0,1-1.67-2.94,14.6,14.6,0,0,1-.27-3.49,5.39,5.39,0,0,0-.76-2.94,5.12,5.12,0,0,0-2.21-1.77c-.69-.3-1.43-.46-2.12-.75a.73.73,0,0,1-.25-.15.06.06,0,0,1,0-.05,4.39,4.39,0,0,1,.27-.47,4.73,4.73,0,0,1,2.42-1.88,9.84,9.84,0,0,0,2.87-1.21c1.06-.78,1-1.76,1.13-2.95a4.39,4.39,0,0,1,1.36-2.22c1-1.18,2.13-2.29,3.1-3.52.68-.86,1.52-2,1.34-3.12-.2-1.33-1.66-1.81-2.81-2a18.41,18.41,0,0,0-2.46-.2,4.24,4.24,0,0,0,.15-2.47,5.21,5.21,0,0,0-1.83-2.6c-1.87-1.56-4.21-2.37-6.14-3.84a3.54,3.54,0,0,1-1.22-1.5c-.39-.82-.75-1.65-1.12-2.47-1-2.26-1.94-4.53-2.9-6.81q-.91-2.19-1.81-4.38a.75.75,0,0,0-.88-.5,4.14,4.14,0,0,0-2.47,1.66.79.79,0,0,0-.77-.29,4.9,4.9,0,0,0-2,.91,67.68,67.68,0,0,1,3.15-9,73.25,73.25,0,0,1,5.47-10.32,62,62,0,0,1,17.74-2c3,.08,6,.13,9.07,0a80.66,80.66,0,0,1,9.2-.11A20.61,20.61,0,0,1,1286.4,196.55ZM1270.27,263h0v0Zm-24.36-7.85Zm-3.35,18.39a93.71,93.71,0,0,1-9.87-21.74,65,65,0,0,1-2.74-23.64,68,68,0,0,1,1.5-10.1,6.23,6.23,0,0,1,2-2,3.48,3.48,0,0,1-.39,1.36c-.47.8.72,1.47,1.23.72.78-1.13,1.56-3,2.9-3.66,1.31,3.16,2.62,6.32,4,9.46a32.42,32.42,0,0,0,2.09,4.56,7.28,7.28,0,0,0,2.34,2c1,.63,2.1,1.18,3.14,1.79a8.19,8.19,0,0,1,2.8,2.29,3.08,3.08,0,0,1-.07,3.29.72.72,0,0,0,.62,1.07,13.15,13.15,0,0,1,4.05.37,2.2,2.2,0,0,1,.75.38.4.4,0,0,1,.14.4,4.24,4.24,0,0,1-.85,1.62c-.55.73-1.18,1.41-1.8,2.09s-1.37,1.49-2,2.28a6,6,0,0,0-.91,1.33,14,14,0,0,0-.34,2.32c-.28,1.23-2.45,1.46-3.43,1.84a6.12,6.12,0,0,0-2.9,2.63,1.53,1.53,0,0,0,.36,2.15,13.14,13.14,0,0,0,2.47.95,3.34,3.34,0,0,1,2.15,2.61c.2,1.43,0,2.88.29,4.31a9.71,9.71,0,0,0,2,3.85c.9,1.23,1.84,2.43,2.73,3.65a28.47,28.47,0,0,0,2.75,3.05,6.53,6.53,0,0,1,2.15,3.61,19.41,19.41,0,0,1-.41,4.36,12.75,12.75,0,0,0-.13,2.14,5.9,5.9,0,0,1,0,1.73c-.27,1.14-.19,2.12,1,2.65a3,3,0,0,0,2.62-.18,25.18,25.18,0,0,0,5.42-3.8,19.9,19.9,0,0,0,2.29-1.9c.49-.56.35-1.13.22-1.8s-.1-1.07-.16-1.6a11.42,11.42,0,0,0-.43-2,10.9,10.9,0,0,1-.43-1.86,10.74,10.74,0,0,1,.19-2.83c.44-3.05,1-6.34.5-9.41-.06-.33-.09-.52-.12-.77V263h0a1.34,1.34,0,0,1,.15-.13,9.28,9.28,0,0,1,3.48-1.29,6.82,6.82,0,0,0,3.16-.85,13.68,13.68,0,0,0,3.14-3.3c.26-.34.51-.68.78-1a5.57,5.57,0,0,0,.65-.73c.21-.37,0-.79,0-1.18a4.53,4.53,0,0,1,.07-1.22c.29-1.58,1.08-3,1.35-4.61.32-1.91.29-5.06-2-5.77a16.27,16.27,0,0,0-2.52-.36,14.51,14.51,0,0,1-4.16-1.55,10,10,0,0,0-4.32-1.32c-1.18,0-2.33.32-3.51.36s-1.62-.37-1.79-1.5a.67.67,0,0,0-1.12-.34,3,3,0,0,1-.6-.87.73.73,0,0,1,.23-.9c.92-1,2.67-1.41,4-1.79,1.87-.53,3.78-.93,5.65-1.44a9.75,9.75,0,0,0,4.16-1.82,9.31,9.31,0,0,0,1.83-3c.65-1.45,1.19-3,1.74-4.44a36.42,36.42,0,0,1,1.75-4,15.26,15.26,0,0,1,1.91-3c1.52-1.7,3.88-2,5.93-2.67,2.58-.87,5.27-2.32,6.5-4.89,3.3-6.92-4.9-11.06-9.62-14-4-2.5-8.78-3.1-13.44-3.09-2.36,0-4.73.14-7.09.25s-4.68.08-7,0a65.35,65.35,0,0,0-14.85,1c-.92.18-1.83.38-2.74.61a72.87,72.87,0,0,1,5.42-7.08A79.31,79.31,0,0,1,1261,174.58a65.89,65.89,0,0,0,6.26-2.28,41.07,41.07,0,0,1,6.4-2,10.11,10.11,0,0,1,4.24-.19,17.73,17.73,0,0,1,4.57,1.84,4.19,4.19,0,0,1,1.82,1.69,8.45,8.45,0,0,0,1.25,1.77c1.55,1.47,3.8,1.55,5.78,1.09,2.22-.51,4.37-1.81,6.69-1.75a60,60,0,0,1,7.44.78c2.64.38,5.46-.22,8-.73a76.68,76.68,0,0,1,8.24-1.42,23.6,23.6,0,0,1,5.35.72,37.68,37.68,0,0,0,4.61.95c3.44.37,6.49-1,9.41-2.69.56.38,1.11.77,1.65,1.16a71.59,71.59,0,0,1,9.51,8.31,3.66,3.66,0,0,0-.91,1l-2.11,3.53a8.92,8.92,0,0,0-3.74.28,28.8,28.8,0,0,0-5.28,2,109.93,109.93,0,0,0-10.68,6c-2.9,1.8-6,3.46-8.3,6.09a6,6,0,0,0-1.78,4.2c.15,1.8,1.58,3.05,3.08,3.85a14.47,14.47,0,0,0,3.9,1.46,15.6,15.6,0,0,0,4,.12c2.43-.18,5.07-.63,7.31.48-2.47,3.19-6.51,5.1-10.28,6.25a.72.72,0,0,0-.17,1.3,6.11,6.11,0,0,0,5.71-.11,3.66,3.66,0,0,0,0,1.8,3.46,3.46,0,0,0,1.86,2.09,14.69,14.69,0,0,0,3,1,8,8,0,0,1,2.55.92,1.14,1.14,0,0,1,.44.57.84.84,0,0,1,0,.46.58.58,0,0,1-.07.25c-.09.14,0,0-.06.07l-.11.1a2.3,2.3,0,0,1-.43.25,8.86,8.86,0,0,1-1.18.36c-2,.45-4.13.42-6,1.28a2,2,0,0,0-1.34,2.19,5,5,0,0,0,1.68,2.58c-1.93.82-3.57,2.31-5.8,2.23-1,0-1.92-.34-2.89-.36a16.1,16.1,0,0,0-3.17.41,29.14,29.14,0,0,0-6.82,2.11,15.24,15.24,0,0,0-2.87,1.67,3.5,3.5,0,0,0-1.52,1.83c-.39,1.49.4,3.15,1.07,4.43a30.41,30.41,0,0,0,3.39,5c.59.73,1.21,1.44,1.86,2.12a10.45,10.45,0,0,1,1.55,1.57,9.62,9.62,0,0,1,.74,2.95,4.43,4.43,0,0,0,1.34,2.62c1.82,1.57,4.41,2.13,6.62,2.93,2,.72,4,1.15,5.92,2a7.67,7.67,0,0,1,2.47,1.56,2.21,2.21,0,0,1,.51,2.24,10.42,10.42,0,0,0-.28,3.51,4.47,4.47,0,0,0,2,2.82,4.4,4.4,0,0,0,2.47.54,2.37,2.37,0,0,1,2.11,1.08,4.2,4.2,0,0,1,1.15,2.48,6.35,6.35,0,0,1-.51,2.27,13.32,13.32,0,0,0-1,6.29c.22,1.69.7,3.81,2.29,4.75a3,3,0,0,0,1.61.45c-1.94,1.48-4,2.88-6,4.21a8.83,8.83,0,0,1,0-1.15.71.71,0,0,0-.71-.72c-2.22,0-4.31.8-6.47,1.22a6.59,6.59,0,0,1-4.93-.6c-1.1-.69-2-1.64-3.12-2.32a7.32,7.32,0,0,0-3.54-1c.53-1.77.69-3.88-.38-5.41-1.36-1.93-3.83-1.4-5.61-.41a3.35,3.35,0,0,0-1.63,1.54,13.56,13.56,0,0,0-.7,2,15.57,15.57,0,0,1-1.41,3.94,1.88,1.88,0,0,1-.47.52.42.42,0,0,1-.37.08,4.6,4.6,0,0,1-2.06-1.86.74.74,0,0,0-1-.25c-2.76,1.64-4.39,4.41-6.4,6.81a8.77,8.77,0,0,1-3.17,2.63,5.75,5.75,0,0,1-4.35-.12c-1.5-.64-2.53-2.13-3.59-3.3a8.55,8.55,0,0,0-4.28-2.94,7.11,7.11,0,0,0-5.11.9,7.27,7.27,0,0,1-2.1.86,7.68,7.68,0,0,1-2.78-.19c-2-.42-3.92-1.27-6-1a6.38,6.38,0,0,0-3,1.3,5,5,0,0,0-1.41,1.6,75,75,0,0,1-7.73-6.26A86.94,86.94,0,0,1,1242.56,273.53Zm64.92,19.38c.84,1.07,2,2.29,3.43,1.91s1.84-1.81,2.24-2.91c.47-1.33.73-2.73,1.26-4a1.83,1.83,0,0,1,1-1.14,4.1,4.1,0,0,1,3.07-.75c2.2.7,1.29,4.3.71,5.77a.73.73,0,0,0,.69.91,6.3,6.3,0,0,1,4.29,1.14,31.52,31.52,0,0,0,3.12,2.28c3.52,1.86,7.28-.33,10.92-.66a6.41,6.41,0,0,0,.12,1.23,104.57,104.57,0,0,1-18.16,9,56.09,56.09,0,0,1-44.24-1.52,69.22,69.22,0,0,1-9.6-5.43,3.81,3.81,0,0,1,1.49-1.58,4.84,4.84,0,0,1,2.63-.8c1.78,0,3.49.81,5.23,1.1a8.36,8.36,0,0,0,2.82.11,7.31,7.31,0,0,0,2.12-.78c1.59-.81,3-1.46,4.84-.91,3.27,1,4.41,5,7.62,6.19a7.31,7.31,0,0,0,4.55.23,8.09,8.09,0,0,0,3.44-2.26C1303.3,297.76,1304.81,294.74,1307.48,292.91ZM1373.57,245a61.88,61.88,0,0,1-6,20.73,69.52,69.52,0,0,1-12,17.07q-1.87,2-3.87,3.79c2.32-4,3.55-9.44,1.77-13.87a9.67,9.67,0,0,0-1.42-2.45c2.24-2.62,6.51-3.54,7.53-7.12a11.09,11.09,0,0,0-.28-5.74,13.87,13.87,0,0,0-2.07-4.89c-2.22-2.9-5.23-5.15-7.89-7.63-2.46-2.3-5.28-4.94-5.94-8.4a10.76,10.76,0,0,1-.18-4.85c.46-1.61,1.86-2.15,3.36-2.27a3.92,3.92,0,0,0,2.29,2.66,6.68,6.68,0,0,1,1.47.72,1.27,1.27,0,0,1,.28,1.35.71.71,0,0,0,.69.9,4.58,4.58,0,0,1,2.48.77,34.5,34.5,0,0,1,3,1.95c1.5,1,3.52,2.73,5.48,2.51s2.69-3.18,2-4.84-2.33-2.38-3.79-3.2c-.14-.09-.29-.17-.43-.27l0,0,0,0a5.81,5.81,0,0,1,1.38-.85c1-.49,2-.89,3-1.29a.72.72,0,0,0,.32-1.19c-2-2.09-4.58-1.64-7-.63-1.59.67-4.22,2.36-5.57.67a5.39,5.39,0,0,1-.87-1.92,3.65,3.65,0,0,1-.28-2.15c.3-.76,2-.71,2.72-.7,1.62,0,3.23.19,4.85.1a9,9,0,0,0,2.26-.35,8.7,8.7,0,0,1,2-.72,6.85,6.85,0,0,0,3.34-.9,13.33,13.33,0,0,0,1.68-1.51,16.17,16.17,0,0,1,2.15-1.82c.51-.34,1.26-.81,1.89-.57.19.74.38,1.48.55,2.22a.54.54,0,0,0,.44.44c0,.35,0,.73,0,1,0,.58,0,1.16-.05,1.74a17.34,17.34,0,0,0,.28,3.29q.46,3.15.66,6.33A70.84,70.84,0,0,1,1373.57,245Z" transform="translate(368 756)"/></g><g class="cls-2"><path class="cls-1" d="M-157.72,727.59a172.25,172.25,0,0,0,33-22.23,162.54,162.54,0,0,0,26.32-28.82,168.64,168.64,0,0,0,19-34.79,208.08,208.08,0,0,0,11.14-39.66c-.39-.39-.79-.76-1.19-1.15l-5.48-5.27-2-1.92c-.21,1-.43,2-.67,2.94C-81,610.37-87.69,623.14-95.5,634.8a205.3,205.3,0,0,1-27.72,32.93,199.7,199.7,0,0,1-34.23,26.56A234.37,234.37,0,0,1-178,705.56a187.14,187.14,0,0,1-18.32,8c-7.09,2.54-14.4,4.59-21.72,6.43.59,1,1.19,2,1.8,3l.93,1.46,8.48,11.37,2,2.75q2.24,2.57,4.64,5c1.19-.3,2.39-.61,3.58-.93A194.62,194.62,0,0,0-157.72,727.59Z" transform="translate(368 756)"/><path class="cls-1" d="M-193.88,710.06a234.12,234.12,0,0,0,39.64-20.62,196.42,196.42,0,0,0,32.66-26.68,195.5,195.5,0,0,0,26.9-33.59c7.26-11.59,13.25-24.27,16-37.73-1.1-.87-2.21-1.73-3.34-2.55a96.33,96.33,0,0,0-9.75-6.22,1.06,1.06,0,0,1-.66.41c-.47,1.26-1.06,2.5-1.61,3.72-1.36,3-2.89,5.92-4.5,8.79a153,153,0,0,1-17.67,25.18,128.38,128.38,0,0,1-30.55,26.07c-13.46,8.14-27.46,15.7-42.19,21.3-14.07,5.36-28.93,8.62-44,8.62a89.15,89.15,0,0,0,3.45,17.09,125.22,125.22,0,0,0,10.21,23.95q5.13-1.31,10.21-2.75A150.64,150.64,0,0,0-193.88,710.06Z" transform="translate(368 756)"/><path class="cls-1" d="M-184.09,664.2c7.13-3,14.06-6.39,20.86-10s13.54-7.28,19.94-11.47a130.51,130.51,0,0,0,28.85-26.1,151.9,151.9,0,0,0,16.31-24.06c1.38-2.52,2.71-5.07,3.95-7.66.33-.69.65-1.39,1-2.09a23.36,23.36,0,0,0-5.72-3.72q-3.15-1.42-6.41-2.61a64.33,64.33,0,0,0-8.08-2,56,56,0,0,0-5.61-.79c-.13.58-.27,1.15-.44,1.71a30.69,30.69,0,0,1-5.65,10.22,54.43,54.43,0,0,1-9.52,9,98,98,0,0,1-12.27,7.87c-4.59,2.52-9.32,4.77-14.12,6.83s-9.94,4.06-15,5.86c-4.82,1.71-9.68,3.28-14.58,4.76q-6.57,2-13.21,3.69-5.37,1.39-10.77,2.64c-2.41.56-4.82,1.09-7.25,1.59l-2,.41c-.56,1.13-1.09,2.26-1.6,3.41a104.37,104.37,0,0,0-3.71,11,139.94,139.94,0,0,0-4,19.78,86,86,0,0,0,.06,12.33c1.28,0,2.55,0,3.82,0C-213.68,674.26-198.46,670.18-184.09,664.2Z" transform="translate(368 756)"/><path class="cls-1" d="M-209.37,622.77q8-2,15.9-4.32c6.21-1.84,12.37-3.82,18.46-6,6.26-2.26,12.45-4.75,18.48-7.59a125.26,125.26,0,0,0,16.84-9.37,58.86,58.86,0,0,0,12.5-10.87,31.94,31.94,0,0,0,4-6,19.93,19.93,0,0,0,1.3-3.06,22.67,22.67,0,0,0,.84-3.24,84.69,84.69,0,0,0-10.79-1.13,86.47,86.47,0,0,0-26.57,3.28A106.36,106.36,0,0,0-186.59,587a105,105,0,0,0-23.2,20,99.78,99.78,0,0,0-12.88,18.81l2-.42Q-215,624.17-209.37,622.77Z" transform="translate(368 756)"/><path class="cls-1" d="M-40.9,662.74c-.32.94-.63,1.87-1,2.8q-1.65,4.79-3.37,9.55-3.8,10.45-8.11,20.72c-3,7.17-6.3,14.24-9.89,21.14a192.41,192.41,0,0,1-11.85,19.94,120.37,120.37,0,0,1-13.91,17c-.65.65-1.3,1.28-2,1.91,1.46-.86,2.9-1.73,4.32-2.64a116.11,116.11,0,0,0,21.84-17.82A93,93,0,0,0-48.73,712.5a82.88,82.88,0,0,0,8-27.79,94.65,94.65,0,0,0,.33-16C-40.48,666.73-40.66,664.74-40.9,662.74Z" transform="translate(368 756)"/><path class="cls-1" d="M-103.17,734.18c7.35-7.42,14.28-15.25,21.06-23.19,4.19-4.91,8.25-9.9,12-15.17A176.63,176.63,0,0,0-59.58,679.1a189.3,189.3,0,0,0,8.51-17.34c1.28-3,2.45-6,3.67-9,1.1-2.72,2.22-5.43,3.29-8.16a5.67,5.67,0,0,1-.06-.71v-.3q-1.16-3.79-2.55-7.52A109.47,109.47,0,0,0-61.6,609c-1.69-2.24-3.5-4.41-5.38-6.51-.18,1.42-.37,2.84-.59,4.25a168.37,168.37,0,0,1-11.78,40.2,164.68,164.68,0,0,1-20,34.62,165.72,165.72,0,0,1-27.48,28.54A176.77,176.77,0,0,1-161,731.87a199.27,199.27,0,0,1-37.19,13.66c.61.59,1.21,1.18,1.83,1.75a95.65,95.65,0,0,0,24.83,16.77,78.69,78.69,0,0,0,10.69,4c.86,0,1.71-.06,2.56-.14,10.38-.93,20.11-5.78,28.69-11.44C-119.94,750.15-111.28,742.36-103.17,734.18Z" transform="translate(368 756)"/><path class="cls-1" d="M-82.79,743.17a149.71,149.71,0,0,0,10.88-15.81c3.45-5.72,6.6-11.62,9.53-17.62s5.54-11.88,8-17.93q3.59-8.7,6.78-17.55,2.81-7.75,5.4-15.58c-.07-.49-.15-1-.23-1.48-.44-2.76-.83-5.53-1.22-8.3-.11-.74-.2-1.47-.28-2.22l-.48,1.62a149.14,149.14,0,0,1-7.09,18.48,187.54,187.54,0,0,1-8.89,17.34,182.74,182.74,0,0,1-11.23,17c-3.54,4.75-7.34,9.29-11.17,13.81-7.06,8.32-14.31,16.48-22.12,24.1-8.34,8.15-17.31,15.85-27.32,21.88-6.73,4.06-14.14,7.42-21.91,8.86A73.64,73.64,0,0,0-143,771.14a77,77,0,0,0,30.81-5c3.06-1.15,6.08-2.44,9-3.82a67.47,67.47,0,0,0,7.83-5.84A97.87,97.87,0,0,0-82.79,743.17Z" transform="translate(368 756)"/><path class="cls-3" d="M-37,667.86c-.22-2.84-.57-5.67-1-8.48-.11-.71-.2-1.44-.36-2.13a12.91,12.91,0,0,0-.8-2.06c-.28-.64-.57-1.28-.86-1.92-.18-.4-.45-.84-.66-1.27v-.07a.78.78,0,0,0,.27-.82q-.75-3.3-1.67-6.56a.29.29,0,0,1,0-.09,5.47,5.47,0,0,0-.28-1s0,0,0-.13l0-.09a.75.75,0,0,0-.23-.47,113.49,113.49,0,0,0-9.45-22.52,106.15,106.15,0,0,0-18.27-24,98.36,98.36,0,0,0-22.79-16.81c-1.57-.84-3.17-1.61-4.78-2.36l-.08,0a38.76,38.76,0,0,0-5.48-2.31A91.16,91.16,0,0,0-119,570.27a85.83,85.83,0,0,0-26.76-.92,101.79,101.79,0,0,0-28.93,8.34,112.53,112.53,0,0,0-26.64,16.93A105.87,105.87,0,0,0-222,618.23,95.9,95.9,0,0,0-234.49,647a90.84,90.84,0,0,0-2,32.19c1.33,11.12,4.91,21.86,9.56,32a126,126,0,0,0,17.45,27.79,109.86,109.86,0,0,0,23.51,21.37A88.2,88.2,0,0,0-158,772.76a78.5,78.5,0,0,0,31.28,1.16c10.46-1.72,20.37-5.77,29.79-10.54a134.53,134.53,0,0,0,24.71-16,105.47,105.47,0,0,0,19.74-21.17A87.36,87.36,0,0,0-40,699.65,92.34,92.34,0,0,0-37,667.86ZM-209.79,607a105,105,0,0,1,23.2-20,106.36,106.36,0,0,1,28.19-12.54,86.47,86.47,0,0,1,26.57-3.28A84.69,84.69,0,0,1-121,572.29a22.67,22.67,0,0,1-.84,3.24,19.93,19.93,0,0,1-1.3,3.06,31.94,31.94,0,0,1-4,6,58.86,58.86,0,0,1-12.5,10.87,125.26,125.26,0,0,1-16.84,9.37c-6,2.84-12.22,5.33-18.48,7.59-6.09,2.2-12.25,4.18-18.46,6q-7.91,2.32-15.9,4.32-5.61,1.4-11.26,2.63l-2,.42A99.78,99.78,0,0,1-209.79,607Zm-23.39,55.42a139.94,139.94,0,0,1,4-19.78,104.37,104.37,0,0,1,3.71-11c.51-1.15,1-2.28,1.6-3.41l2-.41c2.43-.5,4.84-1,7.25-1.59q5.4-1.25,10.77-2.64,6.65-1.73,13.21-3.69c4.9-1.48,9.76-3,14.58-4.76,5.07-1.8,10.08-3.74,15-5.86s9.53-4.31,14.12-6.83a98,98,0,0,0,12.27-7.87,54.43,54.43,0,0,0,9.52-9,30.69,30.69,0,0,0,5.65-10.22c.17-.56.31-1.13.44-1.71a56,56,0,0,1,5.61.79,64.33,64.33,0,0,1,8.08,2q3.25,1.18,6.41,2.61a23.36,23.36,0,0,1,5.72,3.72c-.31.7-.63,1.4-1,2.09-1.24,2.59-2.57,5.14-3.95,7.66a151.9,151.9,0,0,1-16.31,24.06,130.51,130.51,0,0,1-28.85,26.1c-6.4,4.19-13.2,7.85-19.94,11.47s-13.73,7.08-20.86,10c-14.37,6-29.59,10.06-45.21,10.52-1.27,0-2.54,0-3.82,0A86,86,0,0,1-233.18,662.43Zm3.69,31.42a89.15,89.15,0,0,1-3.45-17.09c15.08,0,29.94-3.26,44-8.62,14.73-5.6,28.73-13.16,42.19-21.3a128.38,128.38,0,0,0,30.55-26.07,153,153,0,0,0,17.67-25.18c1.61-2.87,3.14-5.79,4.5-8.79.55-1.22,1.14-2.46,1.61-3.72a1.06,1.06,0,0,0,.66-.41A96.33,96.33,0,0,1-82,588.89c1.13.82,2.24,1.68,3.34,2.55-2.77,13.46-8.76,26.14-16,37.73a195.5,195.5,0,0,1-26.9,33.59,196.42,196.42,0,0,1-32.66,26.68,234.12,234.12,0,0,1-39.64,20.62,150.64,150.64,0,0,1-15.19,5q-5.09,1.46-10.21,2.75A125.22,125.22,0,0,1-229.49,693.85Zm24.69,44.71-2-2.75-8.48-11.37-.93-1.46c-.61-1-1.21-2-1.8-3,7.32-1.84,14.63-3.89,21.72-6.43a187.14,187.14,0,0,0,18.32-8,234.37,234.37,0,0,0,20.57-11.27,199.7,199.7,0,0,0,34.23-26.56A205.3,205.3,0,0,0-95.5,634.8c7.81-11.66,14.5-24.43,17.91-38.11.24-1,.46-2,.67-2.94l2,1.92,5.48,5.27c.4.39.8.76,1.19,1.15a208.08,208.08,0,0,1-11.14,39.66,168.64,168.64,0,0,1-19,34.79,162.54,162.54,0,0,1-26.32,28.82,172.25,172.25,0,0,1-32.95,22.23,194.62,194.62,0,0,1-38.86,15c-1.19.32-2.39.63-3.58.93Q-202.56,741.13-204.8,738.56Zm46.53,29.38c-.85.08-1.7.12-2.56.14a78.69,78.69,0,0,1-10.69-4,95.65,95.65,0,0,1-24.83-16.77c-.62-.57-1.22-1.16-1.83-1.75A199.27,199.27,0,0,0-161,731.87a176.77,176.77,0,0,0,34.15-21.78,165.72,165.72,0,0,0,27.48-28.54,164.68,164.68,0,0,0,20-34.62,168.37,168.37,0,0,0,11.78-40.2c.22-1.41.41-2.83.59-4.25,1.88,2.1,3.69,4.27,5.38,6.51a109.47,109.47,0,0,1,14.87,27.09q1.4,3.72,2.55,7.52v.3a5.67,5.67,0,0,0,.06.71c-1.07,2.73-2.19,5.44-3.29,8.16-1.22,3-2.39,6-3.67,9a189.3,189.3,0,0,1-8.51,17.34,176.63,176.63,0,0,1-10.54,16.72c-3.74,5.27-7.8,10.26-12,15.17-6.78,7.94-13.71,15.77-21.06,23.19-8.11,8.18-16.77,16-26.41,22.32C-138.16,762.16-147.89,767-158.27,767.94Zm55.09-5.67c-3,1.38-6,2.67-9,3.82a77,77,0,0,1-30.81,5,73.64,73.64,0,0,1-11.06-1.38c7.77-1.44,15.18-4.8,21.91-8.86,10-6,19-13.73,27.32-21.88,7.81-7.62,15.06-15.78,22.12-24.1,3.83-4.52,7.63-9.06,11.17-13.81a182.74,182.74,0,0,0,11.23-17,187.54,187.54,0,0,0,8.89-17.34,149.14,149.14,0,0,0,7.09-18.48l.48-1.62c.08.75.17,1.48.28,2.22.39,2.77.78,5.54,1.22,8.3.08.5.16,1,.23,1.48q-2.61,7.82-5.4,15.58-3.21,8.85-6.78,17.55c-2.5,6.05-5.16,12-8,17.93s-6.08,11.9-9.53,17.62a149.71,149.71,0,0,1-10.88,15.81,97.87,97.87,0,0,1-12.56,13.26A67.47,67.47,0,0,1-103.18,762.27Zm62.5-77.56a82.88,82.88,0,0,1-8,27.79,93,93,0,0,1-16.06,22.87,116.11,116.11,0,0,1-21.84,17.82c-1.42.91-2.86,1.78-4.32,2.64.67-.63,1.32-1.26,2-1.91a120.37,120.37,0,0,0,13.91-17A192.41,192.41,0,0,0-63.22,717c3.59-6.9,6.86-14,9.89-21.14q4.34-10.24,8.11-20.72,1.72-4.76,3.37-9.55c.32-.93.63-1.86,1-2.8.24,2,.42,4,.55,6A94.65,94.65,0,0,1-40.68,684.71Z" transform="translate(368 756)"/></g><path class="cls-4" d="M1200.62,603.72a5.43,5.43,0,1,1-5.42-5.42A5.42,5.42,0,0,1,1200.62,603.72Z" transform="translate(368 756)"/><g class="cls-2"><path class="cls-5" d="M126.68,573.36a1.15,1.15,0,1,1-1.15-1.15A1.15,1.15,0,0,1,126.68,573.36Z" transform="translate(368 756)"/><path class="cls-6" d="M1110.92,270.82a1.64,1.64,0,1,1-1.64-1.64A1.64,1.64,0,0,1,1110.92,270.82Z" transform="translate(368 756)"/><path class="cls-3" d="M649.61,965.1a3.26,3.26,0,1,1-3.25-3.25A3.26,3.26,0,0,1,649.61,965.1Z" transform="translate(368 756)"/><path class="cls-3" d="M-295.42,549.28a5.41,5.41,0,0,1-5.42,5.42,5.42,5.42,0,0,1-5.42-5.42,5.42,5.42,0,0,1,5.42-5.42A5.42,5.42,0,0,1-295.42,549.28Z" transform="translate(368 756)"/><path class="cls-3" d="M-256.55,1043.79a1.36,1.36,0,0,1-1.36,1.36,1.36,1.36,0,0,1-1.37-1.36,1.37,1.37,0,0,1,1.37-1.37A1.36,1.36,0,0,1-256.55,1043.79Z" transform="translate(368 756)"/><path class="cls-3" d="M621.33,602.14a2,2,0,1,1-2-1.95A1.95,1.95,0,0,1,621.33,602.14Z" transform="translate(368 756)"/><path class="cls-3" d="M1399.34,977.38a1.37,1.37,0,1,1-1.37,1.37A1.37,1.37,0,0,1,1399.34,977.38Z" transform="translate(368 756)"/><path class="cls-3" d="M909.51,477.18a3.26,3.26,0,1,1-3.26-3.25A3.26,3.26,0,0,1,909.51,477.18Z" transform="translate(368 756)"/><path class="cls-3" d="M872.53,820a3.25,3.25,0,1,1-3.27,3.24A3.25,3.25,0,0,1,872.53,820Z" transform="translate(368 756)"/><path class="cls-3" d="M1488.08,168.58a3.26,3.26,0,1,1-3.26,3.24A3.26,3.26,0,0,1,1488.08,168.58Z" transform="translate(368 756)"/><path class="cls-3" d="M379.5,841.16a5.42,5.42,0,1,1-.23-7.67A5.41,5.41,0,0,1,379.5,841.16Z" transform="translate(368 756)"/><path class="cls-3" d="M154.35,569.55a3.25,3.25,0,1,1,1.34,4.41A3.26,3.26,0,0,1,154.35,569.55Z" transform="translate(368 756)"/><path class="cls-7" d="M-89.47,873.2a1.15,1.15,0,0,1-1.15,1.15,1.16,1.16,0,0,1-1.15-1.15,1.15,1.15,0,0,1,1.15-1.15A1.14,1.14,0,0,1-89.47,873.2Z" transform="translate(368 756)"/><path class="cls-3" d="M1155.2,1083.55a1.37,1.37,0,1,1-1.36-1.37A1.36,1.36,0,0,1,1155.2,1083.55Z" transform="translate(368 756)"/><path class="cls-3" d="M1464.74,508.85a3.25,3.25,0,1,1,1.34,4.4A3.26,3.26,0,0,1,1464.74,508.85Z" transform="translate(368 756)"/><path class="cls-3" d="M123.86,992.56a3.25,3.25,0,1,1,1.33,4.4A3.24,3.24,0,0,1,123.86,992.56Z" transform="translate(368 756)"/></g><path class="cls-4" d="M9.73,1066.09a5,5,0,1,1-2.24-6.69A5,5,0,0,1,9.73,1066.09Z" transform="translate(368 756)"/><path class="cls-4" d="M4.73,840.09a5,5,0,1,1-2.24-6.69A5,5,0,0,1,4.73,840.09Z" transform="translate(368 756)"/><path class="cls-4" d="M-167.27,369.09a5,5,0,0,1-6.68,2.24,5,5,0,0,1-2.24-6.69,5,5,0,0,1,6.68-2.24A5,5,0,0,1-167.27,369.09Z" transform="translate(368 756)"/><path class="cls-4" d="M427.36,634.58a5,5,0,1,1-2.24-6.69A5,5,0,0,1,427.36,634.58Z" transform="translate(368 756)"/><path class="cls-4" d="M55.36,205.58a5,5,0,1,1-2.24-6.69A5,5,0,0,1,55.36,205.58Z" transform="translate(368 756)"/><path class="cls-4" d="M677.36,482.58a5,5,0,1,1-2.24-6.69A5,5,0,0,1,677.36,482.58Z" transform="translate(368 756)"/><path class="cls-4" d="M390.36,345.58a5,5,0,1,1-2.24-6.69A5,5,0,0,1,390.36,345.58Z" transform="translate(368 756)"/><path class="cls-4" d="M1159.36,373.58a5,5,0,1,1-2.24-6.69A5,5,0,0,1,1159.36,373.58Z" transform="translate(368 756)"/><path class="cls-4" d="M-99.77,1092.52a5,5,0,0,1-6.68,2.25,5,5,0,0,1-2.24-6.69,5,5,0,0,1,6.68-2.24A5,5,0,0,1-99.77,1092.52Z" transform="translate(368 756)"/><path class="cls-4" d="M-228.77,891.52a5,5,0,0,1-6.68,2.25,5,5,0,0,1-2.24-6.69,5,5,0,0,1,6.68-2.24A5,5,0,0,1-228.77,891.52Z" transform="translate(368 756)"/><path class="cls-4" d="M647.23,731.52a5,5,0,1,1-2.24-6.68A5,5,0,0,1,647.23,731.52Z" transform="translate(368 756)"/><path class="cls-4" d="M1158.23,807.52a5,5,0,1,1-2.24-6.68A5,5,0,0,1,1158.23,807.52Z" transform="translate(368 756)"/><path class="cls-4" d="M1231.23,471.52a5,5,0,1,1-2.24-6.68A5,5,0,0,1,1231.23,471.52Z" transform="translate(368 756)"/><path class="cls-4" d="M1316.23,1015.52a5,5,0,1,1-2.24-6.68A5,5,0,0,1,1316.23,1015.52Z" transform="translate(368 756)"/><path class="cls-4" d="M44.35,628.65a2.1,2.1,0,1,1-2.81.94A2.09,2.09,0,0,1,44.35,628.65Z" transform="translate(368 756)"/><path class="cls-4" d="M1172.35,106.65a2.1,2.1,0,1,1-2.81.94A2.09,2.09,0,0,1,1172.35,106.65Z" transform="translate(368 756)"/><path class="cls-4" d="M1441.35,798.65a2.1,2.1,0,1,1-2.81.94A2.09,2.09,0,0,1,1441.35,798.65Z" transform="translate(368 756)"/><path class="cls-4" d="M517.35,1029.65a2.1,2.1,0,1,1-2.81.94A2.09,2.09,0,0,1,517.35,1029.65Z" transform="translate(368 756)"/><path class="cls-4" d="M870.35,1088.65a2.1,2.1,0,1,1-2.81.94A2.09,2.09,0,0,1,870.35,1088.65Z" transform="translate(368 756)"/></svg>