<?xml version="1.0" encoding="utf-8"?>
<!-- Generator: Adobe Illustrator 24.1.2, SVG Export Plug-In . SVG Version: 6.00 Build 0)  -->
<svg version="1.1" id="Слой_1" xmlns="http://www.w3.org/2000/svg" xmlns:xlink="http://www.w3.org/1999/xlink" x="0px" y="0px"
	 viewBox="0 0 1920 1803" style="enable-background:new 0 0 1920 1803;" xml:space="preserve">
<style type="text/css">
	.st0{fill:#FFFFFF;}
	.st1{fill:#212121;}
	.st2{opacity:0.1;}
	.st3{fill:none;}
	.st4{fill:url(#SVGID_1_);}
	.st5{fill:url(#SVGID_2_);}
	.st6{fill:url(#SVGID_3_);}
	.st7{fill:url(#SVGID_4_);}
	.st8{fill:url(#SVGID_5_);}
	.st9{fill:url(#SVGID_6_);}
</style>
<rect class="st0" width="1920" height="1151.9"/>
<path class="st1" d="M1599.1,670.2c-260.3-4.4-372.8,74.7-506.5,184.5S428.4,882.6,174.1,906C104.8,912.4,47.5,924.4,0,939.4v666.9
	v198.8h1920v-198.8V556C1889.2,670.2,1859.4,674.6,1599.1,670.2z"/>
<g class="st2">
	<path class="st3" d="M259.1,1273.1L259.1,1273.1L259.1,1273.1L259.1,1273.1z"/>
	<path class="st3" d="M259.1,1273.2L259.1,1273.2z"/>
	<path class="st3" d="M166.6,1235.1c-3,0.1-6,0.1-9.1,0c-6-0.2-12,0.5-17.8,2c-2.1,3.3-3.9,6.8-5.5,10.3c-1.3,2.9-2.3,5.9-3.2,9
		c0.6-0.4,1.3-0.8,2-0.9c0.3-0.1,0.6,0.1,0.8,0.3c0.6-0.8,1.5-1.4,2.5-1.7c0.4-0.1,0.8,0.1,0.9,0.5c0.6,1.5,1.2,2.9,1.8,4.4
		c1,2.3,1.9,4.6,2.9,6.8c0.4,0.8,0.7,1.7,1.1,2.5c0.2,0.6,0.7,1.1,1.2,1.5c1.9,1.5,4.3,2.3,6.2,3.8c0.9,0.7,1.5,1.6,1.8,2.6
		c0.2,0.8,0.1,1.7-0.1,2.5c0.8,0,1.6,0.1,2.5,0.2c1.2,0.2,2.6,0.7,2.8,2c0.2,1.2-0.7,2.3-1.3,3.1c-1,1.2-2.1,2.4-3.1,3.5
		c-0.6,0.7-1.3,1.3-1.4,2.2c-0.1,1.2-0.1,2.2-1.1,3c-0.9,0.6-1.9,1-2.9,1.2c-1,0.3-1.8,1-2.4,1.9c-0.1,0.2-0.2,0.3-0.3,0.5
		c0,0,0,0,0,0.1c0.1,0.1,0.2,0.1,0.3,0.1c0.7,0.3,1.4,0.5,2.1,0.8c0.9,0.4,1.7,1,2.2,1.8c0.5,0.9,0.8,1.9,0.8,2.9
		c0,1.2,0,2.3,0.3,3.5c0.4,1.1,0.9,2.1,1.7,3c0.7,1,1.5,2,2.2,2.9c0.6,0.9,1.3,1.7,2.1,2.5c1.5,1.5,3.3,3.1,3.7,5.4
		s-0.6,4.6-0.5,6.8c0.1,0.5,0.1,1,0,1.5c-0.1,0.4-0.2,0.8-0.2,1.1c0,0.4,0.3,0.5,0.7,0.6c0,0,0,0,0.1,0c0.1,0,0.2,0,0.3-0.1
		c1.6-0.4,3.1-1.7,4.4-2.7c0.5-0.4,1.1-0.9,1.6-1.3c0.5-0.4,1.2-1.1,1.9-1.6l0,0c0-0.3-0.1-0.5-0.1-0.8c-0.1-1-0.2-2-0.4-3
		c-0.3-1-0.5-2.1-0.6-3.2c0.1-1.5,0.3-3,0.5-4.5c0.3-2.3,0.6-4.7,0.2-6.9c-0.1-0.5-0.2-1-0.1-1.5c0.2-0.5,0.6-0.9,1.1-1.1
		c0.9-0.5,2-0.9,3-1.1c0.8-0.2,1.7-0.1,2.5-0.4c1.1-0.5,2-1.2,2.6-2.2c0.7-0.9,1.3-1.8,2.1-2.6c-0.4-2.8,1.5-5.3,1.4-8.1
		c0-0.7,0-1.8-0.5-2.4c-0.4-0.3-0.8-0.5-1.3-0.4c-0.9-0.1-1.7-0.2-2.5-0.4c-1.2-0.4-2.4-0.9-3.6-1.5c-1.1-0.6-2.3-1-3.5-1.2
		c-1,0-1.9,0.1-2.9,0.3c-0.9,0.2-1.7,0.1-2.5-0.2c-0.4-0.2-0.8-0.6-1-1c-0.1,0-0.2-0.1-0.2-0.1c-1.2-1-2.7-2.6-1.7-4.2
		c0.9-1.4,2.9-2,4.4-2.4c1.9-0.6,3.8-1,5.7-1.5c0.8-0.2,1.7-0.5,2.5-0.8c0.6-0.2,1.1-0.5,1.6-0.8c0.8-0.7,1.3-2,1.7-2.9
		c0.6-1.5,1.2-3,1.7-4.5c0.9-2.4,2-5,3.7-7c1.5-1.7,3.6-2.3,5.7-2.8c2.6-0.7,5.4-2,6.6-4.5c2.8-5.9-5.2-9.6-9.1-12.1
		c-2.9-1.7-6.2-2.7-9.6-2.8C172.8,1234.8,169.7,1234.9,166.6,1235.1z"/>
	<path class="st3" d="M230.4,1214.7c1.5,0.2,3.1,0.1,4.6-0.3c1.3-0.5,2.6-1.1,3.9-1.8c-4.7-3.1-9.7-5.6-15-7.4
		c-6.2-2.2-12.7-3.5-19.3-3.8c-6.7-0.2-13.4,0.6-19.9,2.5c-7,1.9-13.6,4.8-19.8,8.6c2.8-1.1,5.6-2.2,8.6-2.7
		c1.4-0.2,2.9-0.2,4.2,0.2c1.7,0.5,3.3,1.2,4.8,2.1c0.8,0.4,1.4,1,1.8,1.8c0.3,0.7,0.7,1.3,1.3,1.8c1.8,1.5,4.3,0.7,6.3,0
		c1.1-0.4,2.1-0.7,3.2-1c1.2-0.2,2.4-0.3,3.6-0.1c1.2,0.1,2.4,0.2,3.7,0.4c1.2,0.2,2.5,0.4,3.8,0.4c4.9-0.2,9.5-1.8,14.4-2.2
		c0.1,0,0.1,0,0.2,0c0.1,0,0.1,0,0.2,0c1.7,0,3.4,0.3,5.1,0.7C227.5,1214.1,228.9,1214.5,230.4,1214.7z"/>
	<path class="st3" d="M253.4,1263.6c1.7,0.1,3.4,0.1,5.1,0c0.7-0.1,1.4-0.3,2.1-0.7c0.9-0.4,1.8-0.3,2.8-0.5c1.7-0.4,2.8-2,4.1-3.1
		c0.9-0.7,2-1.5,3.1-1.6c-0.7-2.7-1.6-5.3-2.5-7.9c-3.6-9.5-8.9-18.3-15.7-25.8c-0.3,0.2-0.5,0.4-0.6,0.6l-2.4,4
		c-0.2,0.3-0.5,0.4-0.8,0.3c-1.4-0.4-3,0-4.4,0.4c-2,0.6-3.9,1.4-5.7,2.4c-3.3,1.7-6.5,3.7-9.7,5.6c-2.7,1.7-5.7,3.2-7.6,5.8
		c-0.7,1-1.4,2.3-0.9,3.5c0.7,1.7,3.2,2.6,4.8,3.1c4.4,1.4,9.3-1.4,13.4,1.4c0.3,0.2,0.4,0.6,0.3,1c-2.1,3.2-5.6,5.3-9.1,6.7
		c1.3-0.2,2.6-0.7,3.6-1.5c0.3-0.3,0.7-0.3,1,0c0.2,0.2,0.3,0.6,0.1,0.8c-0.5,1-1.1,2.4-0.4,3.3c0.5,0.6,1.5,1,2.4,1.2
		c1.6,0.5,4.1,0.7,5,2.3c0.4,0.8,0.4,1.7-0.1,2.4c-0.6,0.6-1.3,1.1-2.2,1.2c-1.9,0.5-4,0.5-5.8,1.2c-0.2,0.1-0.5,0.2-0.7,0.4l0,0
		c0,0,0,0,0,0.1v0l0,0c0,0.1,0,0.2,0,0.1c0.3,1,1.3,1.9,2.2,2.7c0.3,0.3,0.3,0.7,0,1c-0.1,0.1-0.2,0.1-0.3,0.2
		c-1.2,0.3-2.3,0.9-3.3,1.5c-1,0.6-2.2,1-3.4,1.1c-0.9,0-1.9-0.1-2.8-0.3c-1.9-0.3-4.2,0.3-6,0.8c-2.2,0.5-4.3,1.4-6.3,2.6
		c-0.5,0.4-1.4,0.9-1.6,1.4c-0.1,0.6,0,1.2,0.2,1.7c0.6,1.6,1.5,3.2,2.5,4.6c1.1,1.5,2.2,2.9,3.5,4.2c0.6,0.5,1.1,1,1.5,1.6
		c0.4,0.9,0.7,1.8,0.8,2.8c0.2,0.9,0.3,1.9,1.1,2.5c1,0.7,2,1.3,3.2,1.6c1.9,0.6,3.8,1.3,5.8,1.9c2,0.6,3.9,1.2,5.5,2.5
		c0.7,0.5,1.2,1.2,1.5,2c0.2,0.9,0,1.9-0.2,2.9c-0.2,1.1-0.3,2.2,0.4,3.2c0.5,0.7,1.3,1.2,2.2,1.2c0.7-0.1,1.5,0.1,2.1,0.3
		c0.9,0.6,1.7,1.4,2.2,2.4c0.8,1.4,0.9,3.1,0.3,4.6c-0.6,1.9-1.3,3.7-1.1,5.7c0.1,1.3,0.4,3.6,1.9,4.2c1.1,0.5,2.4-0.5,3.2-1.3
		c1.4-1.3,2.4-2.9,3.2-4.7c1.8-4.1,2.5-9.7-0.7-13.4c-0.2-0.2-0.3-0.6-0.1-0.9c1.4-1.8,3.4-2.9,5.2-4.2c0.8-0.5,1.6-1.2,2.1-2.1
		c0.5-0.9,0.7-1.9,0.6-2.9c-0.2-2-0.7-4-1.6-5.8c-0.7-1.5-1.8-2.8-3-3.8c-2.8-2.8-6-5.2-8.6-8.2c-1.2-1.3-2.2-2.8-2.9-4.4
		c-0.5-1.5-0.8-3.1-0.9-4.7c-0.2-1.5,0.2-2.9,1-4.1c1.1-1.4,2.9-1.7,4.5-1.8c0.4,0,0.7,0.3,0.7,0.7c0.2,1.6,1.4,2,2.6,2.5
		c1,0.4,1.6,1.3,1.6,2.4c0.8,0.2,1.7,0.5,2.4,0.9c1.2,0.7,2.3,1.4,3.4,2.2c0.9,0.7,1.9,1.3,2.9,1.8c0.4,0.2,0.8,0.3,1.2,0.4
		c0.2,0,0.4,0,0.6-0.1c0.5-0.4,0.8-1.6,0.7-2.3c-0.1-0.7-0.6-1.4-1.2-1.8c-0.6-0.4-1.3-0.8-2-1.2c-0.5-0.3-1.2-0.7-1.3-1.3
		c-0.2-0.8,0.5-1.4,1.1-1.8c1-0.6,2-1.1,3.1-1.5c-2.1-1.1-4.7,0.6-6.9,1.4c-1,0.5-2.2,0.6-3.3,0.4c-1.4-0.4-2.1-1.8-2.6-3.1
		c-0.4-1.3-1-3.2,0.2-4.3C250.4,1263.5,252.1,1263.6,253.4,1263.6z"/>
	<path class="st3" d="M259.1,1273.2L259.1,1273.2L259.1,1273.2z"/>
	<path class="st3" d="M169.3,1304.3L169.3,1304.3z"/>
	<path class="st3" d="M200.1,1341.4c-0.9,1-2.1,1.8-3.4,2.3c-1.5,0.4-3.1,0.3-4.6-0.2c-3.2-1.2-4.4-5.2-7.6-6.2
		c-1.8-0.6-3.2,0.1-4.8,0.9c-0.7,0.4-1.4,0.6-2.1,0.8c-0.9,0.1-1.9,0.1-2.8-0.1c-1.7-0.3-3.5-1.1-5.2-1.1c-0.9,0-1.9,0.3-2.6,0.8
		c-0.6,0.4-1.2,0.9-1.5,1.6c3.1,2.1,6.3,3.9,9.6,5.4c6.7,3.1,13.9,4.9,21.3,5.3c7.8,0.3,15.7-1,23-3.8c6.3-2.4,12.4-5.4,18.2-9.1
		c-0.1-0.4-0.1-0.8-0.1-1.2c-3.6,0.3-7.4,2.5-10.9,0.7c-1.1-0.6-2.1-1.6-3.1-2.3c-1.2-0.9-2.8-1.3-4.3-1.1c-0.4,0-0.7-0.3-0.7-0.7
		c0-0.1,0-0.1,0-0.2c0.6-1.5,1.5-5.1-0.7-5.8c-1-0.3-2.2,0.3-3.1,0.8c-0.5,0.2-0.9,0.6-1,1.1c-0.5,1.3-0.8,2.7-1.3,4
		c-0.4,1.1-1,2.6-2.2,2.9c-1.4,0.4-2.6-0.8-3.4-1.9C203.9,1336.1,202.3,1339.1,200.1,1341.4z"/>
	<path class="st3" d="M272.3,1268c-0.2-1.1-0.3-2.2-0.3-3.3c0-0.6,0-1.2,0-1.7c0-0.3,0-0.7,0.1-1c-0.2,0-0.4-0.2-0.4-0.4
		c-0.2-0.7-0.4-1.5-0.6-2.2c-0.6-0.2-1.4,0.2-1.9,0.6c-0.8,0.5-1.5,1.2-2.2,1.8c-0.5,0.6-1.1,1.1-1.7,1.5c-1,0.6-2.2,0.9-3.4,0.9
		c-0.7,0.1-1.3,0.5-2,0.7c-0.7,0.2-1.5,0.3-2.3,0.4c-1.6,0.1-3.2-0.1-4.9-0.1c-0.8,0-2.4-0.1-2.7,0.7c-0.3,0.6,0.1,1.5,0.3,2.1
		c0.2,0.7,0.5,1.3,0.9,1.9c1.3,1.7,4,0,5.6-0.7c2.4-1,5-1.5,7,0.6c0.3,0.3,0.3,0.7,0,1c-0.1,0.1-0.2,0.1-0.3,0.2c-1,0.4-2,0.8-3,1.3
		c-0.5,0.2-1,0.5-1.4,0.9l0,0c0,0,0,0,0,0c0.1,0.1,0.3,0.2,0.4,0.3c1.5,0.8,3.1,1.5,3.8,3.2c0.7,1.7,0,4.6-2,4.8
		c-2,0.2-4-1.5-5.5-2.5c-1-0.7-2-1.4-3-2c-0.7-0.5-1.6-0.8-2.5-0.8c-0.4,0-0.7-0.3-0.7-0.7c0-0.1,0-0.1,0-0.2c0.2-0.5,0.1-1-0.3-1.3
		c-0.5-0.3-0.9-0.5-1.5-0.7c-1.1-0.5-2-1.5-2.3-2.7c-1.5,0.1-2.9,0.7-3.4,2.3s-0.1,3.3,0.2,4.9c0.7,3.5,3.5,6.1,5.9,8.4
		c2.7,2.5,5.7,4.7,7.9,7.6c1.1,1.4,1.6,3.2,2.1,4.9c0.5,1.8,0.8,3.9,0.3,5.7c-1,3.6-5.3,4.5-7.5,7.1c0.6,0.7,1.1,1.6,1.4,2.5
		c1.8,4.4,0.6,9.9-1.8,13.9c1.3-1.2,2.6-2.5,3.9-3.8c4.8-5,8.9-10.8,12-17c3.2-6.5,5.2-13.5,6-20.8c0.4-4,0.5-8,0.2-11.9
		C272.8,1272.2,272.6,1270.1,272.3,1268z"/>
	<path class="st3" d="M144.9,1296.5L144.9,1296.5z"/>
	<path class="st3" d="M165.6,1337.7c0.9-0.7,1.9-1.1,3-1.3c2.1-0.3,4,0.6,6,1c0.9,0.2,1.9,0.3,2.8,0.2c0.7-0.2,1.4-0.5,2.1-0.9
		c1.6-0.9,3.3-1.3,5.1-0.9c1.8,0.4,3.1,1.6,4.3,2.9c1.1,1.2,2.1,2.7,3.6,3.3c1.4,0.6,2.9,0.7,4.4,0.1c1.3-0.6,2.3-1.5,3.2-2.6
		c2-2.4,3.7-5.2,6.4-6.8c0.3-0.2,0.8-0.1,1,0.3c0.5,0.7,1.2,1.6,2.1,1.9c0.1,0,0.3,0,0.4-0.1c0.2-0.1,0.3-0.3,0.5-0.5
		c0.7-1.2,1-2.6,1.4-4c0.2-0.7,0.4-1.3,0.7-2c0.4-0.7,0.9-1.2,1.6-1.6c1.8-1,4.3-1.5,5.6,0.4c1.1,1.5,0.9,3.6,0.4,5.4
		c1.2,0,2.5,0.4,3.5,1c1.1,0.7,2,1.6,3.1,2.3c1.5,1,3.2,0.9,4.9,0.6c2.2-0.4,4.2-1.2,6.5-1.2c0.4,0,0.7,0.3,0.7,0.7
		c0,0.4,0,0.8,0,1.2c2.1-1.3,4.1-2.7,6-4.2c-0.6,0-1.1-0.1-1.6-0.4c-1.6-0.9-2.1-3.1-2.3-4.8c-0.3-2.2,0.2-4.2,1-6.3
		c0.3-0.7,0.5-1.5,0.5-2.3c-0.1-0.9-0.5-1.8-1.1-2.5c-0.5-0.7-1.3-1.1-2.1-1.1c-0.9,0.1-1.7-0.1-2.5-0.5c-1-0.6-1.7-1.7-2-2.8
		c-0.1-1.2,0-2.4,0.3-3.5c0.2-0.9,0.2-1.6-0.5-2.2c-0.7-0.7-1.6-1.2-2.5-1.6c-1.9-0.8-4-1.3-5.9-2c-2.2-0.8-4.8-1.4-6.6-2.9
		c-0.7-0.7-1.2-1.6-1.3-2.6c-0.2-0.9-0.2-2.1-0.7-3c-0.5-0.6-1-1.1-1.6-1.6c-0.6-0.7-1.3-1.4-1.9-2.1c-1.3-1.5-2.4-3.2-3.4-5
		c-0.7-1.3-1.5-2.9-1.1-4.4c0.3-0.8,0.8-1.4,1.5-1.8c0.9-0.7,1.9-1.2,2.9-1.7c2.2-1,4.5-1.7,6.8-2.1c1-0.2,2.1-0.4,3.2-0.4
		c1,0,1.9,0.3,2.9,0.4c2.2,0.1,3.9-1.4,5.8-2.2c-0.8-0.7-1.4-1.6-1.7-2.6c-0.1-1,0.4-1.9,1.3-2.2c1.8-0.9,4-0.8,6-1.3
		c0.4-0.1,0.8-0.2,1.2-0.4c0.2-0.1,0.3-0.1,0.4-0.2c0,0,0.1-0.1,0.1-0.1c0,0,0,0.1,0.1-0.1c0-0.1,0.1-0.2,0.1-0.3c0-0.2,0-0.3,0-0.5
		c-0.1-0.2-0.2-0.4-0.4-0.6c-0.8-0.5-1.7-0.8-2.5-0.9c-1-0.2-2.1-0.6-3-1c-0.9-0.4-1.6-1.2-1.8-2.1c-0.1-0.6-0.1-1.2,0-1.8
		c-1.8,0.9-3.9,1.1-5.7,0.1c-0.3-0.2-0.4-0.6-0.2-1c0.1-0.2,0.2-0.3,0.4-0.3c3.8-1.1,7.8-3.1,10.3-6.3c-2.2-1.1-4.9-0.7-7.3-0.5
		c-1.3,0.1-2.7,0.1-4-0.1c-1.4-0.3-2.7-0.8-3.9-1.5c-1.5-0.8-2.9-2.1-3.1-3.9c-0.1-1.6,0.8-3.1,1.8-4.2c2.3-2.6,5.4-4.3,8.3-6.1
		c3.4-2.2,7-4.3,10.6-6.1c1.7-0.8,3.5-1.5,5.3-2c1.2-0.4,2.5-0.4,3.7-0.3l2.1-3.5c0.2-0.4,0.6-0.7,0.9-1c-2.9-3-6.1-5.8-9.5-8.3
		c-0.5-0.4-1.1-0.8-1.7-1.2c-2.9,1.7-6,3.1-9.4,2.7c-1.6-0.2-3.1-0.5-4.6-1c-1.8-0.4-3.5-0.7-5.4-0.7c-2.8,0.3-5.5,0.8-8.2,1.4
		c-2.6,0.5-5.4,1.1-8,0.7c-2.5-0.4-5-0.7-7.5-0.8c-2.3-0.1-4.5,1.2-6.7,1.8c-2,0.5-4.2,0.4-5.8-1.1c-0.5-0.5-0.9-1.1-1.3-1.8
		c-0.4-0.7-1.1-1.3-1.8-1.7c-1.4-0.8-3-1.5-4.6-1.8c-1.4-0.2-2.9-0.2-4.2,0.2c-2.2,0.5-4.3,1.2-6.4,2c-2.1,0.9-4.1,1.6-6.3,2.3
		c-5,3.6-9.6,7.8-13.6,12.4c-1.9,2.3-3.8,4.6-5.4,7.1c0.9-0.2,1.8-0.4,2.7-0.6c4.9-0.9,9.9-1.2,14.9-1c2.4,0.1,4.7,0.1,7.1,0
		c2.4-0.1,4.7-0.2,7.1-0.2c4.7,0,9.4,0.6,13.5,3.1c4.7,3,12.9,7.1,9.6,14c-1.2,2.6-3.9,4-6.5,4.9c-2,0.7-4.4,1-5.9,2.7
		c-0.8,0.9-1.4,1.9-1.9,3c-0.7,1.3-1.3,2.6-1.8,4c-0.6,1.5-1.1,3-1.7,4.4c-0.4,1.1-1,2.1-1.8,3c-1.1,1-2.8,1.4-4.2,1.8
		c-1.9,0.5-3.8,0.9-5.7,1.4c-1.3,0.4-3.1,0.8-4,1.8c-0.3,0.2-0.4,0.6-0.2,0.9c0.1,0.3,0.3,0.6,0.6,0.9c0.4-0.3,1-0.2,1.1,0.3
		c0.2,1.1,0.7,1.6,1.8,1.5c1.1,0,2.3-0.4,3.5-0.4c1.5,0.1,3,0.6,4.3,1.3c1.3,0.7,2.7,1.3,4.2,1.6c0.9,0.1,1.7,0.2,2.5,0.4
		c2.3,0.7,2.3,3.9,2,5.8c-0.3,1.6-1.1,3-1.3,4.6c-0.1,0.4-0.1,0.8-0.1,1.2c0,0.4,0.2,0.8,0,1.2c-0.2,0.3-0.4,0.5-0.6,0.7
		c-0.3,0.3-0.5,0.7-0.8,1c-0.9,1.3-1.9,2.4-3.1,3.3c-1,0.7-2,0.7-3.2,0.9c-1.2,0.2-2.4,0.6-3.5,1.3c-0.1,0-0.1,0.1-0.1,0.1l0,0
		c0,0,0,0.1,0,0.1c0,0.2,0.1,0.4,0.1,0.8c0.5,3.1-0.1,6.4-0.5,9.4c-0.2,0.9-0.3,1.9-0.2,2.8c0.1,0.6,0.2,1.3,0.4,1.9
		c0.2,0.7,0.4,1.3,0.4,2c0.1,0.5,0.1,1.1,0.2,1.6c0.1,0.7,0.3,1.2-0.2,1.8c-0.7,0.7-1.5,1.3-2.3,1.9c-1.7,1.4-3.4,2.9-5.4,3.8
		c-0.8,0.5-1.8,0.5-2.6,0.2c-1.2-0.5-1.3-1.5-1-2.7c0.1-0.6,0.1-1.2,0-1.7c0-0.7,0-1.4,0.1-2.1c0.2-1.4,0.6-2.9,0.4-4.4
		c-0.2-1.4-1.2-2.6-2.2-3.6c-1-0.9-1.9-2-2.8-3.1c-0.9-1.2-1.8-2.4-2.7-3.7c-1-1.1-1.7-2.4-2-3.9c-0.3-1.4-0.1-2.9-0.3-4.3
		c-0.2-1.2-1-2.2-2.2-2.6c-0.8-0.3-1.7-0.4-2.5-1c-0.7-0.5-0.9-1.4-0.4-2.1c0,0,0,0,0,0c0.6-1.2,1.7-2.1,2.9-2.6
		c1-0.4,3.2-0.6,3.4-1.9c0.2-0.8,0-1.6,0.3-2.3c0.2-0.5,0.5-0.9,0.9-1.3c0.6-0.8,1.3-1.5,2-2.3c0.7-0.8,1.3-1.4,1.8-2.1
		c0.4-0.5,0.7-1,0.8-1.6c0-0.2,0-0.3-0.1-0.4c-0.2-0.2-0.5-0.3-0.7-0.4c-1.3-0.3-2.7-0.5-4.1-0.4c-0.4,0-0.7-0.3-0.7-0.7
		c0-0.1,0-0.2,0.1-0.3c0.6-1.1,0.8-2.2,0.1-3.3c-0.8-1-1.7-1.7-2.8-2.3c-1-0.6-2.1-1.2-3.1-1.8c-0.9-0.5-1.7-1.2-2.3-2
		c-0.8-1.5-1.5-3-2.1-4.6c-1.4-3.1-2.7-6.3-4-9.5c-1.4,0.6-2.1,2.5-2.9,3.7c-0.5,0.7-1.7,0.1-1.2-0.7c0.2-0.4,0.4-0.9,0.4-1.4
		c-0.8,0.5-1.5,1.2-2,2c-0.8,3.3-1.3,6.7-1.5,10.1c-0.6,8,0.4,16,2.7,23.7c2.3,7.6,5.7,15,9.9,21.8c4.1,6.7,9.1,12.8,14.9,18.2
		c2.4,2.3,5,4.3,7.7,6.3C164.5,1338.6,165,1338.1,165.6,1337.7z"/>
	<path class="st0" d="M275.4,1273.7c-0.2-2.1-0.4-4.2-0.8-6.3c-0.1-0.5-0.1-1.1-0.3-1.6c-0.2-0.5-0.4-1-0.6-1.5
		c-0.2-0.5-0.4-1-0.6-1.4c-0.1-0.3-0.3-0.7-0.5-1c0.2-0.1,0.3-0.4,0.2-0.6c-0.2-0.8-0.4-1.6-0.6-2.3c0-0.1,0-0.2,0-0.3
		c-2.7-10.6-7.4-20.5-13.8-29.3c-1.7-2.3-3.5-4.5-5.5-6.6c0,0-0.1-0.1-0.1-0.1c-0.8-0.8-1.5-1.6-2.3-2.4c-5-5-10.8-9.2-17-12.6
		c-6-3.2-12.5-5.5-19.3-6.8c-6.6-1.3-13.3-1.5-20-0.7c-7.5,1-14.8,3.1-21.6,6.2c-7.2,3.3-13.9,7.5-19.9,12.6
		c-6,5.1-11.2,11-15.4,17.6c-4.3,6.6-7.4,13.8-9.4,21.5c-1.9,7.9-2.4,16-1.5,24c1,8.3,3.7,16.3,7.1,23.9c3.4,7.5,7.8,14.4,13,20.7
		c5.1,6.1,11,11.5,17.6,16c6.4,4.3,13.4,7.4,20.9,9.3c7.6,1.9,15.6,2.1,23.3,0.9c7.8-1.3,15.2-4.3,22.3-7.9
		c6.6-3.3,12.8-7.3,18.5-12c5.6-4.6,10.6-9.9,14.7-15.8c4.2-6,7.4-12.7,9.4-19.8C275.3,1289.7,276.1,1281.7,275.4,1273.7z
		 M249.2,1268.8c0.4,1.3,1.2,2.6,2.6,3.1c1.1,0.3,2.3,0.1,3.3-0.4c2.1-0.8,4.7-2.5,6.9-1.4c-1.1,0.4-2.2,0.9-3.1,1.5
		c-0.6,0.4-1.3,1-1.1,1.8c0.2,0.6,0.8,1,1.3,1.3c0.7,0.4,1.4,0.7,2,1.2c0.6,0.4,1.1,1.1,1.2,1.8c0.1,0.7-0.2,1.9-0.7,2.3
		c-0.2,0.1-0.4,0.2-0.6,0.1c-0.4-0.1-0.8-0.2-1.2-0.4c-1-0.5-2-1.1-2.9-1.8c-1.1-0.8-2.2-1.5-3.4-2.2c-0.7-0.4-1.5-0.7-2.4-0.9
		c0-1.1-0.6-2-1.6-2.4c-1.3-0.6-2.4-1-2.6-2.5c0-0.4-0.3-0.7-0.7-0.7c-1.7,0-3.4,0.4-4.5,1.8c-0.8,1.2-1.2,2.7-1,4.1
		c0,1.6,0.3,3.2,0.9,4.7c0.7,1.6,1.7,3.1,2.9,4.4c2.6,3,5.8,5.4,8.6,8.2c1.2,1.1,2.3,2.4,3,3.8c0.8,1.9,1.4,3.9,1.5,5.9
		c0.1,1-0.1,2-0.6,2.9c-0.6,0.8-1.3,1.5-2.1,2.1c-1.8,1.3-3.8,2.4-5.2,4.2c-0.2,0.3-0.1,0.6,0.1,0.9c3.2,3.7,2.5,9.2,0.7,13.4
		c-0.7,1.8-1.8,3.4-3.2,4.7c-0.8,0.7-2.1,1.7-3.2,1.3c-1.4-0.6-1.7-2.9-1.9-4.2c-0.2-2,0.5-3.8,1.1-5.7c0.6-1.5,0.5-3.2-0.3-4.6
		c-0.5-1-1.2-1.8-2.2-2.4c-0.7-0.3-1.4-0.4-2.1-0.3c-0.9,0-1.7-0.4-2.2-1.2c-0.7-1-0.6-2.1-0.4-3.2c0.2-0.9,0.4-1.9,0.2-2.9
		c-0.3-0.8-0.8-1.5-1.5-2c-1.6-1.3-3.6-1.9-5.5-2.5s-3.8-1.3-5.8-1.9c-1.2-0.3-2.2-0.9-3.2-1.6c-0.8-0.6-0.9-1.6-1.1-2.5
		c-0.1-1-0.4-1.9-0.8-2.8c-0.4-0.6-0.9-1.1-1.5-1.6c-1.3-1.3-2.4-2.7-3.5-4.2c-1.1-1.4-1.9-2.9-2.5-4.6c-0.2-0.5-0.3-1.1-0.2-1.7
		c0.2-0.6,1-1.1,1.6-1.4c1.9-1.2,4.1-2.1,6.3-2.6c1.9-0.5,4.1-1.1,6-0.8c0.9,0.2,1.8,0.3,2.8,0.3c1.2-0.1,2.4-0.5,3.4-1.1
		c1-0.7,2.1-1.2,3.3-1.5c0.4-0.1,0.6-0.5,0.5-0.9c0-0.1-0.1-0.2-0.2-0.3c-0.9-0.7-1.9-1.6-2.2-2.7c0,0,0-0.1,0-0.1l0,0v0
		c0,0,0,0,0-0.1l0,0c0.2-0.2,0.4-0.3,0.7-0.4c1.9-0.7,3.9-0.7,5.8-1.2c0.8-0.1,1.6-0.6,2.2-1.2c0.5-0.7,0.5-1.6,0.1-2.4
		c-0.9-1.7-3.4-1.9-5-2.3c-0.9-0.2-1.9-0.6-2.4-1.2c-0.7-0.9-0.1-2.3,0.4-3.3c0.2-0.3,0.1-0.8-0.3-1c-0.3-0.2-0.6-0.1-0.8,0.1
		c-1,0.8-2.3,1.4-3.6,1.5c3.6-1.4,7-3.5,9.1-6.7c0.2-0.3,0.1-0.8-0.3-1c-4.1-2.8-9,0-13.4-1.4c-1.6-0.5-4.1-1.4-4.8-3.1
		c-0.5-1.2,0.2-2.5,0.9-3.5c2-2.6,4.9-4.1,7.6-5.8c3.2-2,6.4-3.9,9.7-5.6c1.8-1,3.7-1.8,5.7-2.4c1.4-0.4,3-0.8,4.4-0.4
		c0.3,0.1,0.6-0.1,0.8-0.3l2.4-4c0.2-0.3,0.4-0.5,0.6-0.6c6.8,7.5,12.2,16.3,15.7,25.8c1,2.6,1.8,5.2,2.5,7.9
		c-1.1,0.1-2.3,0.9-3.1,1.6c-1.3,1.1-2.4,2.7-4.1,3.1c-0.9,0.2-1.9,0.1-2.8,0.5c-0.6,0.3-1.3,0.6-2.1,0.7c-1.7,0.1-3.4,0.1-5.1,0
		c-1.3,0-3-0.1-4,0.8C248.2,1265.5,248.8,1267.4,249.2,1268.8z M259.1,1273.2L259.1,1273.2L259.1,1273.2L259.1,1273.2z
		 M259.1,1273.1L259.1,1273.1L259.1,1273.1L259.1,1273.1z M259.1,1273.2L259.1,1273.2z M221,1213.1c-0.1,0-0.1,0-0.2,0
		c-0.1,0-0.1,0-0.2,0c-4.8,0.4-9.5,2.1-14.4,2.2c-1.3,0-2.5-0.2-3.8-0.4c-1.2-0.2-2.4-0.3-3.7-0.4c-1.2-0.1-2.4-0.1-3.6,0.1
		c-1.1,0.3-2.2,0.6-3.2,1c-1.9,0.7-4.5,1.5-6.3,0c-0.5-0.5-0.9-1.1-1.3-1.8c-0.4-0.8-1.1-1.4-1.8-1.8c-1.5-0.9-3.1-1.6-4.8-2.1
		c-1.4-0.3-2.8-0.4-4.2-0.2c-3,0.4-5.8,1.6-8.6,2.7c6.2-3.8,12.8-6.7,19.8-8.6c6.4-1.8,13.1-2.7,19.9-2.5c6.6,0.3,13.1,1.5,19.3,3.8
		c5.3,1.9,10.3,4.4,15,7.4c-1.2,0.7-2.5,1.3-3.9,1.8c-1.5,0.5-3,0.6-4.6,0.3c-1.5-0.2-2.9-0.6-4.4-1
		C224.4,1213.4,222.7,1213.2,221,1213.1z M185.4,1237.8c3.9,2.5,11.9,6.2,9.1,12.1c-1.2,2.5-4,3.8-6.6,4.5c-2.1,0.6-4.2,1.2-5.7,2.8
		c-1.7,2-2.8,4.6-3.7,7c-0.6,1.5-1.1,3-1.7,4.5c-0.4,1-0.9,2.2-1.7,2.9c-0.5,0.3-1,0.6-1.6,0.8c-0.8,0.3-1.7,0.6-2.5,0.8
		c-1.9,0.5-3.8,0.9-5.7,1.5c-1.5,0.4-3.5,1-4.4,2.4c-1,1.6,0.4,3.2,1.7,4.2c0.1,0.1,0.2,0.1,0.2,0.1c0.2,0.4,0.6,0.8,1,1
		c0.8,0.3,1.7,0.4,2.5,0.2c0.9-0.2,1.9-0.3,2.9-0.3c1.2,0.1,2.5,0.5,3.5,1.2c1.1,0.6,2.3,1.1,3.6,1.5c0.8,0.2,1.7,0.3,2.5,0.4
		c0.5,0,0.9,0.2,1.3,0.4c0.6,0.6,0.5,1.7,0.5,2.4c0.1,2.8-1.9,5.3-1.4,8.1c-0.8,0.8-1.4,1.8-2.1,2.6c-0.7,0.9-1.6,1.7-2.6,2.2
		c-0.8,0.3-1.7,0.2-2.5,0.4c-1,0.3-2,0.6-3,1.1c-0.5,0.2-0.9,0.6-1.1,1.1c-0.1,0.5-0.1,1,0.1,1.5c0.4,2.3,0.1,4.7-0.2,6.9
		c-0.3,1.5-0.5,3-0.5,4.5c0.1,1.1,0.3,2.1,0.6,3.2c0.2,1,0.4,2,0.4,3c0,0.3,0.1,0.5,0.1,0.8l0,0c-0.7,0.4-1.3,1.1-1.9,1.6
		c-0.6,0.5-1.1,0.9-1.6,1.3c-1.3,1-2.8,2.3-4.4,2.7c-0.1,0-0.2,0.1-0.3,0.1c-0.1,0-0.2,0-0.1,0c-0.4-0.1-0.7-0.2-0.7-0.6
		c0-0.4,0.2-0.8,0.2-1.1c0-0.5,0-1,0-1.5c-0.1-2.3,0.8-4.6,0.5-6.8c-0.3-2.3-2.1-3.9-3.7-5.4c-0.7-0.8-1.4-1.6-2.1-2.5
		c-0.7-1-1.5-2-2.2-2.9c-0.7-0.9-1.3-1.9-1.7-3c-0.2-1.2-0.3-2.3-0.3-3.5c0-1-0.2-2.1-0.8-2.9c-0.6-0.8-1.3-1.4-2.2-1.8
		c-0.7-0.3-1.4-0.5-2.1-0.8c-0.1,0-0.2-0.1-0.3-0.1c0,0,0,0,0-0.1c0.1-0.2,0.2-0.3,0.3-0.5c0.6-0.9,1.4-1.5,2.4-1.9
		c1-0.2,2-0.6,2.9-1.2c1.1-0.8,1-1.8,1.1-3c0.1-0.9,0.8-1.6,1.4-2.2c1-1.2,2.1-2.3,3.1-3.5c0.7-0.9,1.5-2,1.3-3.1
		c-0.2-1.3-1.7-1.8-2.8-2c-0.8-0.1-1.6-0.2-2.5-0.2c0.3-0.8,0.3-1.7,0.1-2.5c-0.3-1-1-1.9-1.8-2.6c-1.9-1.6-4.2-2.4-6.2-3.8
		c-0.5-0.4-0.9-0.9-1.2-1.5c-0.4-0.8-0.8-1.6-1.1-2.5c-1-2.3-2-4.5-2.9-6.8c-0.6-1.5-1.2-2.9-1.8-4.4c-0.1-0.4-0.5-0.6-0.9-0.5
		c-1,0.2-1.9,0.8-2.5,1.7c-0.2-0.2-0.5-0.3-0.8-0.3c-0.7,0.1-1.4,0.5-2,0.9c0.8-3.1,1.9-6.1,3.2-9c1.5-3.6,3.4-7,5.5-10.3
		c5.8-1.5,11.8-2.2,17.8-2c3,0.1,6,0.1,9.1,0c3.1-0.2,6.1-0.3,9.2-0.1C179.2,1235.1,182.5,1236.1,185.4,1237.8z M169.3,1304.3
		L169.3,1304.3L169.3,1304.3z M144.9,1296.5L144.9,1296.5z M141.5,1314.9c-4.2-6.8-7.5-14.1-9.9-21.8c-2.4-7.7-3.3-15.7-2.7-23.7
		c0.2-3.4,0.7-6.8,1.5-10.1c0.5-0.8,1.2-1.5,2-2c0,0.5-0.2,0.9-0.4,1.4c-0.5,0.8,0.7,1.5,1.2,0.7c0.8-1.1,1.6-3,2.9-3.7
		c1.3,3.2,2.6,6.3,4,9.5c0.6,1.6,1.3,3.1,2.1,4.6c0.6,0.8,1.4,1.5,2.3,2c1,0.6,2.1,1.2,3.1,1.8c1.1,0.5,2.1,1.3,2.8,2.3
		c0.7,1.1,0.5,2.2-0.1,3.3c-0.2,0.3-0.1,0.8,0.3,1c0.1,0.1,0.2,0.1,0.3,0.1c1.4-0.1,2.7,0,4.1,0.4c0.3,0.1,0.5,0.2,0.7,0.4
		c0.1,0.1,0.2,0.3,0.1,0.4c-0.2,0.6-0.5,1.2-0.8,1.6c-0.6,0.7-1.2,1.4-1.8,2.1s-1.4,1.5-2,2.3c-0.4,0.4-0.7,0.8-0.9,1.3
		c-0.3,0.8-0.2,1.5-0.3,2.3c-0.3,1.2-2.5,1.5-3.4,1.9c-1.2,0.5-2.3,1.5-2.9,2.6c-0.5,0.7-0.3,1.6,0.3,2.1c0,0,0,0,0,0
		c0.7,0.5,1.7,0.6,2.5,1c1.1,0.4,2,1.4,2.2,2.6c0.2,1.4,0,2.9,0.3,4.3c0.4,1.4,1.1,2.7,2,3.9c0.9,1.2,1.8,2.4,2.7,3.7
		c0.8,1.1,1.8,2.1,2.8,3.1c1,1,2,2.2,2.2,3.6c0.2,1.4-0.2,2.9-0.4,4.4c-0.1,0.7-0.1,1.4-0.1,2.1c0.1,0.6,0.1,1.2,0,1.7
		c-0.3,1.2-0.2,2.1,1,2.7c0.9,0.3,1.8,0.3,2.6-0.2c2-0.9,3.8-2.4,5.4-3.8c0.8-0.6,1.6-1.2,2.3-1.9c0.5-0.6,0.4-1.1,0.2-1.8
		c-0.1-0.5-0.1-1.1-0.2-1.6c-0.1-0.7-0.2-1.4-0.4-2c-0.2-0.6-0.3-1.2-0.4-1.9c-0.1-0.9,0-1.9,0.2-2.8c0.4-3.1,1-6.3,0.5-9.4
		c-0.1-0.3-0.1-0.5-0.1-0.8c0,0,0-0.1,0-0.1l0,0c0-0.1,0.1-0.1,0.1-0.1c1.1-0.7,2.2-1.1,3.5-1.3c1.1-0.2,2.2-0.2,3.2-0.9
		c1.2-0.9,2.3-2,3.1-3.3c0.3-0.3,0.5-0.7,0.8-1c0.2-0.2,0.5-0.5,0.6-0.7c0.2-0.4,0-0.8,0-1.2c0-0.4,0-0.8,0.1-1.2
		c0.3-1.6,1.1-3,1.3-4.6c0.3-1.9,0.3-5.1-2-5.8c-0.8-0.2-1.7-0.3-2.5-0.4c-1.5-0.3-2.9-0.8-4.2-1.6c-1.3-0.8-2.8-1.2-4.3-1.3
		c-1.2,0-2.3,0.3-3.5,0.4s-1.6-0.4-1.8-1.5c-0.1-0.6-0.7-0.6-1.1-0.3c-0.2-0.3-0.5-0.5-0.6-0.9c-0.1-0.3-0.1-0.7,0.2-0.9
		c0.9-1,2.7-1.4,4-1.8c1.9-0.5,3.8-0.9,5.7-1.4c1.4-0.4,3.1-0.8,4.2-1.8c0.8-0.9,1.4-1.9,1.8-3c0.7-1.5,1.2-3,1.7-4.4
		c0.5-1.4,1.1-2.7,1.8-4c0.5-1.1,1.2-2.1,1.9-3c1.5-1.7,3.9-2,5.9-2.7c2.6-0.9,5.3-2.3,6.5-4.9c3.3-6.9-4.9-11.1-9.6-14
		c-4-2.5-8.8-3.1-13.5-3.1c-2.4,0-4.7,0.1-7.1,0.2s-4.7,0.1-7.1,0c-5-0.2-10,0.1-14.9,1c-0.9,0.2-1.8,0.4-2.7,0.6
		c1.7-2.5,3.5-4.8,5.4-7.1c4-4.7,8.6-8.8,13.6-12.4c2.2-0.7,4.3-1.4,6.4-2.3c2.1-0.9,4.2-1.5,6.4-2c1.4-0.4,2.8-0.4,4.2-0.2
		c1.6,0.4,3.1,1,4.6,1.8c0.8,0.4,1.4,1,1.8,1.7c0.3,0.7,0.8,1.3,1.3,1.8c1.6,1.5,3.8,1.6,5.8,1.1c2.2-0.5,4.4-1.8,6.7-1.8
		c2.5,0.1,5,0.4,7.5,0.8c2.6,0.4,5.5-0.2,8-0.7c2.7-0.6,5.5-1.1,8.2-1.4c1.8,0,3.6,0.3,5.4,0.7c1.5,0.4,3.1,0.7,4.6,1
		c3.5,0.4,6.5-1,9.4-2.7c0.6,0.4,1.1,0.8,1.7,1.2c3.4,2.5,6.6,5.3,9.5,8.3c-0.4,0.3-0.7,0.6-0.9,1l-2.1,3.5
		c-1.3-0.2-2.5-0.1-3.7,0.3c-1.8,0.5-3.6,1.2-5.3,2c-3.7,1.8-7.2,3.8-10.7,6c-2.9,1.8-6.1,3.5-8.3,6.1c-1,1.2-1.9,2.6-1.8,4.2
		c0.1,1.8,1.6,3.1,3.1,3.9c1.2,0.7,2.5,1.2,3.9,1.5c1.3,0.2,2.7,0.3,4,0.1c2.4-0.2,5.1-0.6,7.3,0.5c-2.5,3.2-6.5,5.1-10.3,6.3
		c-0.4,0.1-0.6,0.5-0.5,0.9c0,0.2,0.2,0.3,0.3,0.4c1.8,1,3.9,0.7,5.7-0.1c-0.1,0.6-0.1,1.2,0,1.8c0.3,0.9,1,1.7,1.8,2.1
		c1,0.4,2,0.8,3,1c0.9,0.2,1.8,0.5,2.5,0.9c0.2,0.1,0.4,0.3,0.4,0.6c0,0.2,0,0.3,0,0.5c0,0.1,0,0.2-0.1,0.3c-0.1,0.1,0,0-0.1,0.1
		s-0.1,0.1-0.1,0.1c-0.1,0.1-0.3,0.2-0.4,0.2c-0.4,0.2-0.8,0.3-1.2,0.4c-2,0.5-4.1,0.4-6,1.3c-0.9,0.3-1.5,1.2-1.3,2.2
		c0.3,1,0.9,1.9,1.7,2.6c-1.9,0.8-3.6,2.3-5.8,2.2c-1,0-1.9-0.3-2.9-0.4c-1.1,0-2.1,0.2-3.2,0.4c-2.3,0.4-4.6,1.1-6.8,2.1
		c-1,0.5-2,1-2.9,1.7c-0.7,0.4-1.2,1.1-1.5,1.8c-0.4,1.5,0.4,3.2,1.1,4.4c1,1.8,2.1,3.4,3.4,5c0.6,0.7,1.2,1.4,1.9,2.1
		c0.6,0.5,1.1,1,1.6,1.6c0.5,0.8,0.5,2,0.7,3c0.1,1,0.6,1.9,1.3,2.6c1.8,1.6,4.4,2.1,6.6,2.9c2,0.7,4,1.1,5.9,2
		c0.9,0.4,1.8,0.9,2.5,1.6c0.7,0.7,0.7,1.3,0.5,2.2c-0.3,1.1-0.4,2.3-0.3,3.5c0.3,1.2,1,2.2,2,2.8c0.8,0.4,1.6,0.6,2.5,0.5
		c0.8,0,1.7,0.4,2.1,1.1c0.7,0.7,1.1,1.6,1.1,2.5c0,0.8-0.2,1.5-0.5,2.3c-0.7,2.1-1.3,4.1-1,6.3c0.2,1.7,0.7,3.8,2.3,4.8
		c0.5,0.3,1,0.5,1.6,0.4c-1.9,1.5-4,2.9-6,4.2c0-0.4,0-0.8,0-1.2c0-0.4-0.3-0.7-0.7-0.7c-2.2,0-4.3,0.8-6.5,1.2
		c-1.7,0.3-3.4,0.4-4.9-0.6c-1.1-0.7-2-1.6-3.1-2.3c-1.1-0.6-2.3-1-3.5-1c0.5-1.8,0.7-3.9-0.4-5.4c-1.4-1.9-3.8-1.4-5.6-0.4
		c-0.7,0.3-1.3,0.9-1.6,1.6c-0.3,0.6-0.5,1.3-0.7,2c-0.4,1.3-0.7,2.8-1.4,4c-0.1,0.2-0.3,0.4-0.5,0.5c-0.1,0.1-0.2,0.1-0.4,0.1
		c-0.8-0.2-1.5-1.2-2.1-1.9c-0.2-0.3-0.6-0.4-1-0.3c-2.8,1.6-4.4,4.4-6.4,6.8c-0.8,1.1-1.9,2-3.2,2.6c-1.4,0.5-3,0.5-4.4-0.1
		c-1.5-0.6-2.5-2.1-3.6-3.3c-1.2-1.3-2.5-2.5-4.3-2.9c-1.9-0.4-3.5,0-5.1,0.9c-0.7,0.4-1.4,0.7-2.1,0.9c-0.9,0.1-1.9,0-2.8-0.2
		c-2-0.4-3.9-1.3-6-1c-1.1,0.2-2.1,0.6-3,1.3c-0.6,0.4-1.1,1-1.4,1.6c-2.7-1.9-5.3-4-7.7-6.3
		C150.6,1327.6,145.6,1321.5,141.5,1314.9L141.5,1314.9z M206.5,1334.3c0.8,1.1,2,2.3,3.4,1.9c1.3-0.3,1.8-1.8,2.2-2.9
		c0.5-1.3,0.7-2.7,1.3-4c0.2-0.5,0.5-0.9,1-1.1c0.9-0.5,2.1-1.1,3.1-0.8c2.2,0.7,1.3,4.3,0.7,5.8c-0.1,0.4,0.1,0.8,0.5,0.9
		c0.1,0,0.1,0,0.2,0c1.5-0.1,3,0.3,4.3,1.1c1.1,0.7,2,1.7,3.1,2.3c3.5,1.9,7.3-0.3,10.9-0.7c0,0.4,0,0.8,0.1,1.2
		c-5.8,3.6-11.8,6.6-18.2,9.1c-7.3,2.8-15.2,4.1-23,3.8c-7.4-0.4-14.6-2.2-21.3-5.3c-3.3-1.6-6.6-3.4-9.6-5.4
		c0.3-0.7,0.9-1.2,1.5-1.6c0.8-0.5,1.7-0.8,2.6-0.8c1.8,0,3.5,0.8,5.2,1.1c0.9,0.2,1.9,0.2,2.8,0.1c0.7-0.2,1.5-0.4,2.1-0.8
		c1.6-0.8,3-1.5,4.8-0.9c3.3,1,4.4,5,7.6,6.2c1.5,0.6,3.1,0.6,4.6,0.2c1.3-0.4,2.5-1.2,3.4-2.3
		C202.3,1339.1,203.9,1336.1,206.5,1334.3L206.5,1334.3z M272.7,1286.3c-0.8,7.2-2.8,14.2-6,20.7c-3.1,6.3-7.2,12-12,17.1
		c-1.2,1.3-2.5,2.6-3.9,3.8c2.3-4,3.6-9.5,1.8-13.9c-0.4-0.9-0.8-1.7-1.4-2.5c2.2-2.6,6.5-3.5,7.5-7.1c0.5-1.9,0.2-3.9-0.3-5.7
		c-0.4-1.7-1-3.5-2.1-4.9c-2.2-2.9-5.2-5.2-7.9-7.6c-2.5-2.3-5.3-4.9-5.9-8.4c-0.3-1.6-0.6-3.3-0.2-4.9c0.4-1.6,1.9-2.1,3.4-2.3
		c0.3,1.2,1.2,2.2,2.3,2.7c0.5,0.2,1,0.4,1.5,0.7c0.4,0.4,0.5,0.9,0.3,1.3c-0.1,0.4,0.1,0.8,0.5,0.9c0.1,0,0.1,0,0.2,0
		c0.9,0,1.7,0.3,2.5,0.8c1,0.6,2,1.2,3,2c1.5,1,3.5,2.7,5.5,2.5c2.1-0.2,2.7-3.2,2-4.8c-0.7-1.7-2.3-2.4-3.8-3.2
		c-0.1-0.1-0.3-0.2-0.4-0.3c0,0,0,0,0,0l0,0c0.4-0.3,0.9-0.6,1.4-0.9c1-0.5,2-0.9,3-1.3c0.4-0.1,0.6-0.5,0.5-0.9
		c0-0.1-0.1-0.2-0.2-0.3c-2-2.1-4.6-1.6-7-0.6c-1.6,0.7-4.2,2.4-5.6,0.7c-0.4-0.6-0.7-1.2-0.9-1.9c-0.2-0.6-0.5-1.5-0.3-2.1
		c0.3-0.8,2-0.7,2.7-0.7c1.6,0,3.2,0.2,4.9,0.1c0.8,0,1.5-0.1,2.3-0.4c0.7-0.2,1.3-0.7,2-0.7c1.2,0,2.3-0.3,3.3-0.9
		c0.6-0.5,1.2-1,1.7-1.5c0.7-0.7,1.4-1.3,2.2-1.8c0.5-0.3,1.3-0.8,1.9-0.6c0.2,0.7,0.4,1.5,0.6,2.2c0,0.2,0.2,0.4,0.4,0.4
		c0,0.4-0.1,0.7-0.1,1c0,0.6,0,1.2,0,1.7c0,1.1,0.1,2.2,0.3,3.3c0.3,2.1,0.5,4.2,0.7,6.3C273.2,1278.4,273.1,1282.3,272.7,1286.3
		L272.7,1286.3z"/>
</g>
<g class="st2">
	
		<linearGradient id="SVGID_1_" gradientUnits="userSpaceOnUse" x1="1302.6602" y1="1178.7537" x2="1306.1801" y2="1178.7537" gradientTransform="matrix(1 0 0 -1 420 2361.7874)">
		<stop  offset="0" style="stop-color:#FFFFFF"/>
		<stop  offset="1" style="stop-color:#FBE9F5"/>
	</linearGradient>
	<path class="st4" d="M1726.2,1183c0,1-0.8,1.8-1.8,1.7c-1,0-1.8-0.8-1.7-1.8c0-1,0.8-1.8,1.8-1.8
		C1725.4,1181.3,1726.2,1182.1,1726.2,1183C1726.2,1183,1726.2,1183,1726.2,1183z"/>
	
		<linearGradient id="SVGID_2_" gradientUnits="userSpaceOnUse" x1="1409.09" y1="1400.4536" x2="1414.12" y2="1400.4536" gradientTransform="matrix(1 0 0 -1 420 2361.7874)">
		<stop  offset="0" style="stop-color:#FFFFFF"/>
		<stop  offset="1" style="stop-color:#FBE9F5"/>
	</linearGradient>
	<path class="st5" d="M1834.1,961.3c0,1.4-1.1,2.5-2.5,2.5c-1.4,0-2.5-1.1-2.5-2.5c0-1.4,1.1-2.5,2.5-2.5S1834.1,959.9,1834.1,961.3
		L1834.1,961.3z"/>
	<path class="st0" d="M683.8,1507.3c0,2.8-2.2,5-5,5s-5-2.2-5-5s2.2-5,5-5S683.8,1504.6,683.8,1507.3z"/>
	<path class="st0" d="M1867.6,1224.2c0,2.8-2.2,5-5,5s-5-2.2-5-5c0-2.8,2.2-5,5-5S1867.6,1221.4,1867.6,1224.2z"/>
	<path class="st0" d="M946,1259.3c0,2.8-2.2,5-5,5s-5-2.2-5-5c0-2.8,2.2-5,5-5S946,1256.5,946,1259.3z"/>
	<path class="st0" d="M1135.2,1050.3c0,2.8-2.2,5-5,5c-2.8,0-5-2.2-5-5c0-2.8,2.2-5,5-5C1133,1045.3,1135.2,1047.5,1135.2,1050.3z"
		/>
	<path class="st0" d="M1667.5,1377.8c0,4.6-3.7,8.3-8.3,8.3c-4.6,0-8.3-3.7-8.3-8.3s3.7-8.3,8.3-8.3
		C1663.8,1369.5,1667.5,1373.3,1667.5,1377.8L1667.5,1377.8z"/>
	<path class="st0" d="M1605.9,1083.2c0,1.2-0.9,2.1-2.1,2.1s-2.1-0.9-2.1-2.1s0.9-2.1,2.1-2.1c0,0,0,0,0,0
		C1605,1081.1,1605.9,1082,1605.9,1083.2C1605.9,1083.2,1605.9,1083.2,1605.9,1083.2z"/>
	<path class="st0" d="M1865.9,726.1c0,4.6-3.7,8.3-8.3,8.3c-4.6,0-8.3-3.7-8.3-8.3s3.7-8.3,8.3-8.3
		C1862.2,717.8,1865.9,721.5,1865.9,726.1C1865.9,726.1,1865.9,726.1,1865.9,726.1z"/>
	<path class="st0" d="M1306.2,913.1c0,1.7-1.3,3-3,3c-1.7,0-3-1.3-3-3s1.3-3,3-3C1304.9,910.1,1306.2,911.5,1306.2,913.1z"/>
	
		<linearGradient id="SVGID_3_" gradientUnits="userSpaceOnUse" x1="1188.097" y1="10963.3135" x2="1193.137" y2="10963.3135" gradientTransform="matrix(6.123234e-17 -1 -1 -6.123234e-17 11425.1338 2390.2136)">
		<stop  offset="0" style="stop-color:#FFFFFF"/>
		<stop  offset="1" style="stop-color:#FBE9F5"/>
	</linearGradient>
	<path class="st6" d="M461.8,1197.1c1.4,0,2.5,1.1,2.5,2.5c0,1.4-1.1,2.5-2.5,2.5s-2.5-1.1-2.5-2.5
		C459.3,1198.2,460.4,1197.1,461.8,1197.1C461.8,1197.1,461.8,1197.1,461.8,1197.1z"/>
	<path class="st0" d="M720.3,1178.5c1.2,0,2.1,0.9,2.1,2.1c0,1.2-0.9,2.1-2.1,2.1s-2.1-0.9-2.1-2.1c0,0,0,0,0,0
		C718.3,1179.4,719.2,1178.5,720.3,1178.5z"/>
	<path class="st0" d="M419.6,997.6c4.6,0,8.3,3.7,8.3,8.3s-3.7,8.3-8.3,8.3s-8.3-3.7-8.3-8.3S415,997.6,419.6,997.6z"/>
	<path class="st0" d="M1305.2,1234.9c0,2.8-2.2,5-5,5c-2.8,0-5-2.2-5-5c0-2.8,2.2-5,5-5C1303,1229.9,1305.2,1232.1,1305.2,1234.9z"
		/>
	<path class="st0" d="M88.1,1555.3c0-2.8,2.2-5,5-5s5,2.2,5,5s-2.2,5-5,5S88.1,1558.1,88.1,1555.3z"/>
	
		<linearGradient id="SVGID_4_" gradientUnits="userSpaceOnUse" x1="-338.45" y1="1272.4536" x2="-334.92" y2="1272.4536" gradientTransform="matrix(1 0 0 -1 420 2361.7874)">
		<stop  offset="0" style="stop-color:#FFFFFF"/>
		<stop  offset="1" style="stop-color:#FBE9F5"/>
	</linearGradient>
	<path class="st7" d="M85.1,1089.3c0,1-0.8,1.8-1.8,1.8c0,0,0,0,0,0c-1,0-1.8-0.8-1.8-1.8c0,0,0,0,0,0c0-1,0.8-1.8,1.8-1.8
		c0,0,0,0,0,0C84.3,1087.6,85.1,1088.4,85.1,1089.3L85.1,1089.3z"/>
	<path class="st0" d="M200.8,1116.5c0,1.2-0.9,2.1-2.1,2.1c-1.2,0-2.1-0.9-2.1-2.1c0-1.2,0.9-2.1,2.1-2.1c0,0,0,0,0,0
		C199.9,1114.4,200.8,1115.3,200.8,1116.5C200.8,1116.5,200.8,1116.5,200.8,1116.5z"/>
	<path class="st0" d="M760.5,1157.6c-3.1,3.3-8.4,3.5-11.7,0.3c-3.3-3.1-3.5-8.4-0.3-11.7c3.1-3.3,8.4-3.5,11.7-0.3
		C763.5,1149,763.7,1154.2,760.5,1157.6C760.5,1157.6,760.5,1157.6,760.5,1157.6z"/>
	<path class="st0" d="M399.9,1428.5c-1.9,2-5,2.2-7.1,0.3c-2-1.9-2.2-5-0.3-7.1c1.9-2,5-2.2,7.1-0.3c0,0,0,0,0.1,0.1
		C401.7,1423.4,401.8,1426.5,399.9,1428.5z"/>
	<path class="st0" d="M1399.3,1042.9c1.3-2.4,4.3-3.3,6.8-2c2.4,1.3,3.3,4.3,2,6.8c-1.3,2.4-4.3,3.3-6.8,2c0,0,0,0,0,0
		C1398.9,1048.3,1398,1045.3,1399.3,1042.9z"/>
	<path class="st0" d="M1601.5,862.1c1.3-2.4,4.3-3.4,6.8-2.1s3.4,4.3,2.1,6.8c-1.3,2.4-4.3,3.4-6.8,2.1c0,0,0,0,0,0
		C1601.1,867.6,1600.2,864.5,1601.5,862.1z"/>
	<path class="st0" d="M1691.8,1047.9c1.3-2.4,4.3-3.3,6.8-2c2.4,1.3,3.3,4.3,2,6.8c-1.3,2.4-4.3,3.3-6.8,2c0,0,0,0,0,0
		C1691.4,1053.3,1690.5,1050.3,1691.8,1047.9z"/>
	
		<linearGradient id="SVGID_5_" gradientUnits="userSpaceOnUse" x1="235.17" y1="550.1536" x2="238.69" y2="550.1536" gradientTransform="matrix(1 0 0 -1 420 2361.7874)">
		<stop  offset="0" style="stop-color:#FFFFFF"/>
		<stop  offset="1" style="stop-color:#FBE9F5"/>
	</linearGradient>
	<path class="st8" d="M658.7,1811.6c0,1-0.8,1.8-1.8,1.8s-1.8-0.8-1.8-1.8c0-1,0.8-1.8,1.8-1.8
		C657.9,1809.9,658.7,1810.7,658.7,1811.6L658.7,1811.6z"/>
	<path class="st0" d="M704.4,1717.8c0,1.2-0.9,2.1-2.1,2.1s-2.1-0.9-2.1-2.1c0-1.2,0.9-2.1,2.1-2.1c0,0,0,0,0,0
		C703.5,1715.7,704.4,1716.7,704.4,1717.8z"/>
	<path class="st0" d="M368.9,1583.3c1.3-2.4,4.3-3.3,6.7-2c2.4,1.3,3.3,4.3,2.1,6.8c-1.3,2.4-4.3,3.3-6.8,2
		C368.5,1588.7,367.6,1585.7,368.9,1583.3z"/>
	
		<linearGradient id="SVGID_6_" gradientUnits="userSpaceOnUse" x1="939.23" y1="615.0436" x2="942.76" y2="615.0436" gradientTransform="matrix(1 0 0 -1 420 2361.7874)">
		<stop  offset="0" style="stop-color:#FFFFFF"/>
		<stop  offset="1" style="stop-color:#FBE9F5"/>
	</linearGradient>
	<path class="st9" d="M1362.8,1746.7c0,1-0.8,1.8-1.8,1.8s-1.8-0.8-1.8-1.8s0.8-1.8,1.8-1.8C1362,1745,1362.8,1745.8,1362.8,1746.7
		C1362.8,1746.7,1362.8,1746.7,1362.8,1746.7z"/>
	<path class="st0" d="M1774.5,1800.9c0,1.2-0.9,2.1-2.1,2.1c-1.2,0-2.1-0.9-2.1-2.1s0.9-2.1,2.1-2.1c0,0,0,0,0,0
		C1773.5,1798.8,1774.5,1799.7,1774.5,1800.9C1774.5,1800.9,1774.5,1800.9,1774.5,1800.9z"/>
	<path class="st0" d="M896.7,1543c1.3-2.4,4.3-3.4,6.8-2.1c2.4,1.3,3.4,4.3,2.1,6.8s-4.3,3.4-6.8,2.1c0,0,0,0,0,0
		C896.4,1548.4,895.4,1545.4,896.7,1543z"/>
	<path class="st0" d="M1373.3,1465.5c1.3-2.4,4.3-3.3,6.8-2c2.4,1.3,3.3,4.3,2,6.8c-1.3,2.4-4.3,3.3-6.8,2c0,0,0,0,0,0
		C1372.9,1471,1372,1467.9,1373.3,1465.5z"/>
	<path class="st0" d="M1723,1717.6c1.3-2.4,4.3-3.4,6.8-2.1s3.4,4.3,2.1,6.8c-1.3,2.4-4.3,3.4-6.8,2.1c0,0,0,0,0,0
		C1722.6,1723,1721.7,1720,1723,1717.6z"/>
</g>
</svg>
