<svg id="Слой_1" data-name="Слой 1" xmlns="http://www.w3.org/2000/svg" xmlns:xlink="http://www.w3.org/1999/xlink" viewBox="0 0 1920 1824.89"><defs><style>.cls-1{fill:#fff;}.cls-2{fill:#212121;}.cls-3{opacity:0.1;}.cls-4{fill:none;}.cls-5{fill:url(#Безымянный_градиент);}.cls-6{fill:url(#Безымянный_градиент_2);}.cls-7{fill:url(#Безымянный_градиент_3);}.cls-8{fill:url(#Безымянный_градиент_4);}.cls-9{fill:url(#Безымянный_градиент_5);}.cls-10{fill:url(#Безымянный_градиент_6);}</style><linearGradient id="Безымянный_градиент" x1="1302.66" y1="-168.88" x2="1306.18" y2="-168.88" gradientTransform="translate(420 1281.79)" gradientUnits="userSpaceOnUse"><stop offset="0" stop-color="#fff"/><stop offset="1" stop-color="#fbe9f5"/></linearGradient><linearGradient id="Безымянный_градиент_2" x1="1409.09" y1="-390.49" x2="1414.12" y2="-390.49" xlink:href="#Безымянный_градиент"/><linearGradient id="Безымянный_градиент_3" x1="1812.1" y1="-9713.33" x2="1817.14" y2="-9713.33" gradientTransform="translate(10175.13 2944.21) rotate(-90)" xlink:href="#Безымянный_градиент"/><linearGradient id="Безымянный_градиент_4" x1="-338.45" y1="-262.49" x2="-334.92" y2="-262.49" xlink:href="#Безымянный_градиент"/><linearGradient id="Безымянный_градиент_5" x1="235.17" y1="459.81" x2="238.69" y2="459.81" xlink:href="#Безымянный_градиент"/><linearGradient id="Безымянный_градиент_6" x1="939.23" y1="394.91" x2="942.76" y2="394.91" xlink:href="#Безымянный_градиент"/></defs><path class="cls-1" d="M1281.37,764c165.39-99.78,303.58-170.28,609.51-143.56q15,1.32,29.12,2.53V0H0V754.41c54.86-10,119.83-16.45,196.92-17C497.84,735.49,1116,863.83,1281.37,764Z"/><path class="cls-2" d="M1890.88,620.48C1585,593.76,1446.76,664.26,1281.37,764S497.84,735.49,196.92,737.43c-77.09.53-142.06,7-196.92,17V1824.89H1920V623Q1905.86,621.8,1890.88,620.48Z"/><g class="cls-3"><path class="cls-4" d="M259.1,1203.1Z"/><path class="cls-4" d="M259.1,1203.2Z"/><path class="cls-4" d="M166.6,1165.1c-3,.1-6,.1-9.1,0a62.8,62.8,0,0,0-17.8,2,85,85,0,0,0-5.5,10.3,68.6,68.6,0,0,0-3.2,9,5.15,5.15,0,0,1,2-.9.83.83,0,0,1,.8.3,4.89,4.89,0,0,1,2.5-1.7.72.72,0,0,1,.9.5c.6,1.5,1.2,2.9,1.8,4.4,1,2.3,1.9,4.6,2.9,6.8.4.8.7,1.7,1.1,2.5a3.49,3.49,0,0,0,1.2,1.5c1.9,1.5,4.3,2.3,6.2,3.8a5.14,5.14,0,0,1,1.8,2.6,5.3,5.3,0,0,1-.1,2.5,22.86,22.86,0,0,1,2.5.2c1.2.2,2.6.7,2.8,2s-.7,2.3-1.3,3.1c-1,1.2-2.1,2.4-3.1,3.5a4.38,4.38,0,0,0-1.4,2.2c-.1,1.2-.1,2.2-1.1,3a8.13,8.13,0,0,1-2.9,1.2,4.48,4.48,0,0,0-2.4,1.9c-.1.2-.2.3-.3.5v.1a.37.37,0,0,0,.3.1c.7.3,1.4.5,2.1.8a4.89,4.89,0,0,1,2.2,1.8,6,6,0,0,1,.8,2.9,13.82,13.82,0,0,0,.3,3.5,9,9,0,0,0,1.7,3c.7,1,1.5,2,2.2,2.9a16.38,16.38,0,0,0,2.1,2.5c1.5,1.5,3.3,3.1,3.7,5.4s-.6,4.6-.5,6.8a3.79,3.79,0,0,1,0,1.5,5.16,5.16,0,0,0-.2,1.1c0,.4.3.5.7.6h.1a.37.37,0,0,0,.3-.1c1.6-.4,3.1-1.7,4.4-2.7l1.6-1.3c.5-.4,1.2-1.1,1.9-1.6h0c0-.3-.1-.5-.1-.8-.1-1-.2-2-.4-3a16.47,16.47,0,0,1-.6-3.2c.1-1.5.3-3,.5-4.5a22.92,22.92,0,0,0,.2-6.9,3.81,3.81,0,0,1-.1-1.5,2,2,0,0,1,1.1-1.1,10.83,10.83,0,0,1,3-1.1,21.66,21.66,0,0,0,2.5-.4,5.62,5.62,0,0,0,2.6-2.2,26.5,26.5,0,0,1,2.1-2.6c-.4-2.8,1.5-5.3,1.4-8.1a4,4,0,0,0-.5-2.4,1.57,1.57,0,0,0-1.3-.4,18.66,18.66,0,0,1-2.5-.4,27.49,27.49,0,0,1-3.6-1.5,11.18,11.18,0,0,0-3.5-1.2,14.28,14.28,0,0,0-2.9.3,4.23,4.23,0,0,1-2.5-.2,2.41,2.41,0,0,1-1-1,.35.35,0,0,1-.2-.1c-1.2-1-2.7-2.6-1.7-4.2.9-1.4,2.9-2,4.4-2.4,1.9-.6,3.8-1,5.7-1.5a24.13,24.13,0,0,0,2.5-.8,8,8,0,0,0,1.6-.8,8.52,8.52,0,0,0,1.7-2.9c.6-1.5,1.2-3,1.7-4.5a23.54,23.54,0,0,1,3.7-7c1.5-1.7,3.6-2.3,5.7-2.8,2.6-.7,5.4-2,6.6-4.5,2.8-5.9-5.2-9.6-9.1-12.1a20.2,20.2,0,0,0-9.6-2.8A73.52,73.52,0,0,0,166.6,1165.1Z"/><path class="cls-4" d="M230.4,1144.7a11.94,11.94,0,0,0,4.6-.3,33.89,33.89,0,0,0,3.9-1.8,65.42,65.42,0,0,0-15-7.4,66.8,66.8,0,0,0-19.3-3.8,64,64,0,0,0-19.9,2.5,75.74,75.74,0,0,0-19.8,8.6,43,43,0,0,1,8.6-2.7,9.87,9.87,0,0,1,4.2.2,20.57,20.57,0,0,1,4.8,2.1,3.92,3.92,0,0,1,1.8,1.8,4.63,4.63,0,0,0,1.3,1.8c1.8,1.5,4.3.7,6.3,0,1.1-.4,2.1-.7,3.2-1a10.89,10.89,0,0,1,3.6-.1c1.2.1,2.4.2,3.7.4a23.28,23.28,0,0,0,3.8.4c4.9-.2,9.5-1.8,14.4-2.2h.4a22.36,22.36,0,0,1,5.1.7C227.5,1144.1,228.9,1144.5,230.4,1144.7Z"/><path class="cls-4" d="M253.4,1193.6a43.39,43.39,0,0,0,5.1,0,5.79,5.79,0,0,0,2.1-.7,12.61,12.61,0,0,1,2.8-.5c1.7-.4,2.8-2,4.1-3.1a6.61,6.61,0,0,1,3.1-1.6c-.7-2.7-1.6-5.3-2.5-7.9a81.28,81.28,0,0,0-15.7-25.8,1.7,1.7,0,0,0-.6.6l-2.4,4a.67.67,0,0,1-.8.3,8.32,8.32,0,0,0-4.4.4,28.65,28.65,0,0,0-5.7,2.4c-3.3,1.7-6.5,3.7-9.7,5.6-2.7,1.7-5.7,3.2-7.6,5.8-.7,1-1.4,2.3-.9,3.5.7,1.7,3.2,2.6,4.8,3.1,4.4,1.4,9.3-1.4,13.4,1.4a.91.91,0,0,1,.3,1c-2.1,3.2-5.6,5.3-9.1,6.7a7.7,7.7,0,0,0,3.6-1.5.67.67,0,0,1,1,0,.62.62,0,0,1,.1.8c-.5,1-1.1,2.4-.4,3.3a4.56,4.56,0,0,0,2.4,1.2c1.6.5,4.1.7,5,2.3a2.3,2.3,0,0,1-.1,2.4,3.7,3.7,0,0,1-2.2,1.2c-1.9.5-4,.5-5.8,1.2a2.51,2.51,0,0,0-.7.4h0v.1h0v.1a6.93,6.93,0,0,0,2.2,2.7.67.67,0,0,1,0,1c-.1.1-.2.1-.3.2a12.37,12.37,0,0,0-3.3,1.5,8,8,0,0,1-3.4,1.1,13.33,13.33,0,0,1-2.8-.3,15.3,15.3,0,0,0-6,.8,21.54,21.54,0,0,0-6.3,2.6c-.5.4-1.4.9-1.6,1.4a3.21,3.21,0,0,0,.2,1.7,20.53,20.53,0,0,0,2.5,4.6,35.42,35.42,0,0,0,3.5,4.2,7.52,7.52,0,0,1,1.5,1.6,9,9,0,0,1,.8,2.8,3.84,3.84,0,0,0,1.1,2.5,9.62,9.62,0,0,0,3.2,1.6c1.9.6,3.8,1.3,5.8,1.9a15.3,15.3,0,0,1,5.5,2.5,4.26,4.26,0,0,1,1.5,2,7.25,7.25,0,0,1-.2,2.9,4,4,0,0,0,.4,3.2,2.75,2.75,0,0,0,2.2,1.2,4.88,4.88,0,0,1,2.1.3,6.36,6.36,0,0,1,2.2,2.4,5.31,5.31,0,0,1,.3,4.6c-.6,1.9-1.3,3.7-1.1,5.7.1,1.3.4,3.6,1.9,4.2,1.1.5,2.4-.5,3.2-1.3a14,14,0,0,0,3.2-4.7c1.8-4.1,2.5-9.7-.7-13.4a.74.74,0,0,1-.1-.9c1.4-1.8,3.4-2.9,5.2-4.2a6,6,0,0,0,2.1-2.1,4.92,4.92,0,0,0,.6-2.9,16.71,16.71,0,0,0-1.6-5.8,11.26,11.26,0,0,0-3-3.8c-2.8-2.8-6-5.2-8.6-8.2a16,16,0,0,1-2.9-4.4,18.62,18.62,0,0,1-.9-4.7,5.89,5.89,0,0,1,1-4.1c1.1-1.4,2.9-1.7,4.5-1.8a.68.68,0,0,1,.7.7c.2,1.6,1.4,2,2.6,2.5a2.5,2.5,0,0,1,1.6,2.4,9.89,9.89,0,0,1,2.4.9,39.56,39.56,0,0,1,3.4,2.2,17.48,17.48,0,0,0,2.9,1.8,5.64,5.64,0,0,0,1.2.4,1.27,1.27,0,0,0,.6-.1,3,3,0,0,0,.7-2.3,2.79,2.79,0,0,0-1.2-1.8c-.6-.4-1.3-.8-2-1.2-.5-.3-1.2-.7-1.3-1.3-.2-.8.5-1.4,1.1-1.8a17.72,17.72,0,0,1,3.1-1.5c-2.1-1.1-4.7.6-6.9,1.4a5.34,5.34,0,0,1-3.3.4c-1.4-.4-2.1-1.8-2.6-3.1s-1-3.2.2-4.3C250.4,1193.5,252.1,1193.6,253.4,1193.6Z"/><path class="cls-4" d="M259.1,1203.2Z"/><path class="cls-4" d="M169.3,1234.3Z"/><path class="cls-4" d="M200.1,1271.4a8.92,8.92,0,0,1-3.4,2.3,8,8,0,0,1-4.6-.2c-3.2-1.2-4.4-5.2-7.6-6.2-1.8-.6-3.2.1-4.8.9a9,9,0,0,1-2.1.8,8.78,8.78,0,0,1-2.8-.1c-1.7-.3-3.5-1.1-5.2-1.1a4.7,4.7,0,0,0-2.6.8,3.86,3.86,0,0,0-1.5,1.6,65.23,65.23,0,0,0,9.6,5.4,55.91,55.91,0,0,0,44.3,1.5,99.81,99.81,0,0,0,18.2-9.1,4.87,4.87,0,0,1-.1-1.2c-3.6.3-7.4,2.5-10.9.7a35.53,35.53,0,0,1-3.1-2.3,6,6,0,0,0-4.3-1.1.68.68,0,0,1-.7-.7v-.2c.6-1.5,1.5-5.1-.7-5.8-1-.3-2.2.3-3.1.8a1.57,1.57,0,0,0-1,1.1c-.5,1.3-.8,2.7-1.3,4-.4,1.1-1,2.6-2.2,2.9-1.4.4-2.6-.8-3.4-1.9C203.9,1266.1,202.3,1269.1,200.1,1271.4Z"/><path class="cls-4" d="M272.3,1198a18.41,18.41,0,0,1-.3-3.3V1193a3.4,3.4,0,0,1,.1-1,.43.43,0,0,1-.4-.4c-.2-.7-.4-1.5-.6-2.2a2.31,2.31,0,0,0-1.9.6,19.17,19.17,0,0,0-2.2,1.8,8,8,0,0,1-1.7,1.5,6.65,6.65,0,0,1-3.4.9,15.87,15.87,0,0,0-2,.7,15.72,15.72,0,0,1-2.3.4c-1.6.1-3.2-.1-4.9-.1-.8,0-2.4-.1-2.7.7-.3.6.1,1.5.3,2.1a6.63,6.63,0,0,0,.9,1.9c1.3,1.7,4,0,5.6-.7,2.4-1,5-1.5,7,.6a.67.67,0,0,1,0,1c-.1.1-.2.1-.3.2-1,.4-2,.8-3,1.3a4.19,4.19,0,0,0-1.4.9h0c.1.1.3.2.4.3,1.5.8,3.1,1.5,3.8,3.2s0,4.6-2,4.8-4-1.5-5.5-2.5c-1-.7-2-1.4-3-2a4.38,4.38,0,0,0-2.5-.8.68.68,0,0,1-.7-.7v-.2a1.06,1.06,0,0,0-.3-1.3,6.89,6.89,0,0,0-1.5-.7,4.14,4.14,0,0,1-2.3-2.7,3.45,3.45,0,0,0-3.4,2.3,10.18,10.18,0,0,0,.2,4.9c.7,3.5,3.5,6.1,5.9,8.4,2.7,2.5,5.7,4.7,7.9,7.6a14.27,14.27,0,0,1,2.1,4.9,11.06,11.06,0,0,1,.3,5.7c-1,3.6-5.3,4.5-7.5,7.1a7.68,7.68,0,0,1,1.4,2.5c1.8,4.4.6,9.9-1.8,13.9,1.3-1.2,2.6-2.5,3.9-3.8a69.75,69.75,0,0,0,12-17,62.27,62.27,0,0,0,6-20.8,67.75,67.75,0,0,0,.2-11.9A33.88,33.88,0,0,0,272.3,1198Z"/><path class="cls-4" d="M144.9,1226.5Z"/><path class="cls-4" d="M165.6,1267.7a6.72,6.72,0,0,1,3-1.3c2.1-.3,4,.6,6,1a8.83,8.83,0,0,0,2.8.2,9.49,9.49,0,0,0,2.1-.9,7,7,0,0,1,5.1-.9,8.49,8.49,0,0,1,4.3,2.9c1.1,1.2,2.1,2.7,3.6,3.3a5.6,5.6,0,0,0,4.4.1,9,9,0,0,0,3.2-2.6c2-2.4,3.7-5.2,6.4-6.8a.71.71,0,0,1,1,.3,4.84,4.84,0,0,0,2.1,1.9.6.6,0,0,0,.4-.1c.2-.1.3-.3.5-.5a17.2,17.2,0,0,0,1.4-4,15.87,15.87,0,0,1,.7-2,4.1,4.1,0,0,1,1.6-1.6c1.8-1,4.3-1.5,5.6.4,1.1,1.5.9,3.6.4,5.4a7.11,7.11,0,0,1,3.5,1c1.1.7,2,1.6,3.1,2.3a6.43,6.43,0,0,0,4.9.6c2.2-.4,4.2-1.2,6.5-1.2a.68.68,0,0,1,.7.7v1.2a64.24,64.24,0,0,0,6-4.2,2.93,2.93,0,0,1-1.6-.4c-1.6-.9-2.1-3.1-2.3-4.8a12.51,12.51,0,0,1,1-6.3,5.93,5.93,0,0,0,.5-2.3,4.72,4.72,0,0,0-1.1-2.5,2.61,2.61,0,0,0-2.1-1.1,4.34,4.34,0,0,1-2.5-.5,4.75,4.75,0,0,1-2-2.8,10.18,10.18,0,0,1,.3-3.5,2,2,0,0,0-.5-2.2,8.21,8.21,0,0,0-2.5-1.6c-1.9-.8-4-1.3-5.9-2-2.2-.8-4.8-1.4-6.6-2.9a4.32,4.32,0,0,1-1.3-2.6,10.88,10.88,0,0,0-.7-3,12.09,12.09,0,0,0-1.6-1.6c-.6-.7-1.3-1.4-1.9-2.1a29.32,29.32,0,0,1-3.4-5c-.7-1.3-1.5-2.9-1.1-4.4a3.35,3.35,0,0,1,1.5-1.8,16.92,16.92,0,0,1,2.9-1.7,28.12,28.12,0,0,1,6.8-2.1,16.48,16.48,0,0,1,3.2-.4,28.86,28.86,0,0,1,2.9.4c2.2.1,3.9-1.4,5.8-2.2a5.63,5.63,0,0,1-1.7-2.6,2,2,0,0,1,1.3-2.2c1.8-.9,4-.8,6-1.3a5.64,5.64,0,0,0,1.2-.4c.2-.1.3-.1.4-.2l.1-.1s0,.1.1-.1.1-.2.1-.3v-.5a2.09,2.09,0,0,0-.4-.6,6.31,6.31,0,0,0-2.5-.9,15.1,15.1,0,0,1-3-1,3.14,3.14,0,0,1-1.8-2.1,5.44,5.44,0,0,1,0-1.8,6.06,6.06,0,0,1-5.7.1.75.75,0,0,1-.2-1c.1-.2.2-.3.4-.3,3.8-1.1,7.8-3.1,10.3-6.3-2.2-1.1-4.9-.7-7.3-.5a17.85,17.85,0,0,1-4-.1,13.16,13.16,0,0,1-3.9-1.5,5.35,5.35,0,0,1-3.1-3.9,6,6,0,0,1,1.8-4.2c2.3-2.6,5.4-4.3,8.3-6.1a111.76,111.76,0,0,1,10.6-6.1,33.91,33.91,0,0,1,5.3-2,9.31,9.31,0,0,1,3.7-.3l2.1-3.5a4.3,4.3,0,0,1,.9-1,75.32,75.32,0,0,0-9.5-8.3c-.5-.4-1.1-.8-1.7-1.2-2.9,1.7-6,3.1-9.4,2.7a23.55,23.55,0,0,1-4.6-1,24.21,24.21,0,0,0-5.4-.7,73.86,73.86,0,0,0-8.2,1.4c-2.6.5-5.4,1.1-8,.7a63.62,63.62,0,0,0-7.5-.8c-2.3-.1-4.5,1.2-6.7,1.8a6.08,6.08,0,0,1-5.8-1.1,8.32,8.32,0,0,1-1.3-1.8,4.9,4.9,0,0,0-1.8-1.7,15.2,15.2,0,0,0-4.6-1.8,9.87,9.87,0,0,0-4.2.2,47.46,47.46,0,0,0-6.4,2c-2.1.9-4.1,1.6-6.3,2.3a80.19,80.19,0,0,0-13.6,12.4,73.77,73.77,0,0,0-5.4,7.1l2.7-.6a67.53,67.53,0,0,1,14.9-1c2.4.1,4.7.1,7.1,0s4.7-.2,7.1-.2c4.7,0,9.4.6,13.5,3.1,4.7,3,12.9,7.1,9.6,14-1.2,2.6-3.9,4-6.5,4.9-2,.7-4.4,1-5.9,2.7a11.73,11.73,0,0,0-1.9,3,28.75,28.75,0,0,0-1.8,4c-.6,1.5-1.1,3-1.7,4.4a9.23,9.23,0,0,1-1.8,3,10.52,10.52,0,0,1-4.2,1.8c-1.9.5-3.8.9-5.7,1.4-1.3.4-3.1.8-4,1.8a.65.65,0,0,0-.2.9,2.36,2.36,0,0,0,.6.9.67.67,0,0,1,1.1.3c.2,1.1.7,1.6,1.8,1.5s2.3-.4,3.5-.4a10.76,10.76,0,0,1,4.3,1.3,15.21,15.21,0,0,0,4.2,1.6,18.66,18.66,0,0,1,2.5.4c2.3.7,2.3,3.9,2,5.8-.3,1.6-1.1,3-1.3,4.6a4.87,4.87,0,0,0-.1,1.2c0,.4.2.8,0,1.2a4.35,4.35,0,0,1-.6.7c-.3.3-.5.7-.8,1a14,14,0,0,1-3.1,3.3,7,7,0,0,1-3.2.9,9.32,9.32,0,0,0-3.5,1.3.1.1,0,0,0-.1.1h0v.1c0,.2.1.4.1.8.5,3.1-.1,6.4-.5,9.4a8.83,8.83,0,0,0-.2,2.8,12.86,12.86,0,0,0,.4,1.9,7.11,7.11,0,0,1,.4,2c.1.5.1,1.1.2,1.6.1.7.3,1.2-.2,1.8a21.1,21.1,0,0,1-2.3,1.9,25.1,25.1,0,0,1-5.4,3.8,3,3,0,0,1-2.6.2c-1.2-.5-1.3-1.5-1-2.7a4.84,4.84,0,0,0,0-1.7,14.77,14.77,0,0,1,.1-2.1,16,16,0,0,0,.4-4.4,6.82,6.82,0,0,0-2.2-3.6,28,28,0,0,1-2.8-3.1c-.9-1.2-1.8-2.4-2.7-3.7a8.1,8.1,0,0,1-2-3.9c-.3-1.4-.1-2.9-.3-4.3a3.26,3.26,0,0,0-2.2-2.6,8.72,8.72,0,0,1-2.5-1,1.48,1.48,0,0,1-.4-2.1h0a5.66,5.66,0,0,1,2.9-2.6c1-.4,3.2-.6,3.4-1.9a16,16,0,0,1,.3-2.3,3.81,3.81,0,0,1,.9-1.3c.6-.8,1.3-1.5,2-2.3s1.3-1.4,1.8-2.1a3.46,3.46,0,0,0,.8-1.6c0-.2,0-.3-.1-.4a2.51,2.51,0,0,0-.7-.4,14,14,0,0,0-4.1-.4.68.68,0,0,1-.7-.7.37.37,0,0,1,.1-.3,3,3,0,0,0,.1-3.3,8.86,8.86,0,0,0-2.8-2.3c-1-.6-2.1-1.2-3.1-1.8a7.4,7.4,0,0,1-2.3-2,38.18,38.18,0,0,1-2.1-4.6c-1.4-3.1-2.7-6.3-4-9.5-1.4.6-2.1,2.5-2.9,3.7-.5.7-1.7.1-1.2-.7a3.26,3.26,0,0,0,.4-1.4,6.36,6.36,0,0,0-2,2,57.26,57.26,0,0,0-1.5,10.1,65.6,65.6,0,0,0,2.7,23.7,93.11,93.11,0,0,0,9.9,21.8,86.62,86.62,0,0,0,14.9,18.2,78.23,78.23,0,0,0,7.7,6.3C164.5,1268.6,165,1268.1,165.6,1267.7Z"/><path class="cls-1" d="M275.4,1203.7c-.2-2.1-.4-4.2-.8-6.3a9,9,0,0,0-.3-1.6l-.6-1.5c-.2-.5-.4-1-.6-1.4a4.67,4.67,0,0,0-.5-1,.48.48,0,0,0,.2-.6c-.2-.8-.4-1.6-.6-2.3v-.3a85.75,85.75,0,0,0-13.8-29.3,68.69,68.69,0,0,0-5.5-6.6l-.1-.1c-.8-.8-1.5-1.6-2.3-2.4a75,75,0,0,0-17-12.6,68.21,68.21,0,0,0-19.3-6.8,63.9,63.9,0,0,0-20-.7,76.53,76.53,0,0,0-21.6,6.2,85.91,85.91,0,0,0-19.9,12.6,78.27,78.27,0,0,0-15.4,17.6,72.51,72.51,0,0,0-9.4,21.5,69.34,69.34,0,0,0-1.5,24,83.35,83.35,0,0,0,7.1,23.9,92.5,92.5,0,0,0,13,20.7,86.41,86.41,0,0,0,17.6,16A66.57,66.57,0,0,0,185,1282a59,59,0,0,0,23.3.9c7.8-1.3,15.2-4.3,22.3-7.9a97.7,97.7,0,0,0,18.5-12,78.63,78.63,0,0,0,14.7-15.8,65.58,65.58,0,0,0,9.4-19.8A67.59,67.59,0,0,0,275.4,1203.7Zm-26.2-4.9a4.5,4.5,0,0,0,2.6,3.1,4.72,4.72,0,0,0,3.3-.4c2.1-.8,4.7-2.5,6.9-1.4a14.84,14.84,0,0,0-3.1,1.5c-.6.4-1.3,1-1.1,1.8a2.74,2.74,0,0,0,1.3,1.3,13.24,13.24,0,0,1,2,1.2,2.79,2.79,0,0,1,1.2,1.8,3,3,0,0,1-.7,2.3.66.66,0,0,1-.6.1,5.64,5.64,0,0,1-1.2-.4,17.48,17.48,0,0,1-2.9-1.8,39.56,39.56,0,0,0-3.4-2.2,8.54,8.54,0,0,0-2.4-.9,2.5,2.5,0,0,0-1.6-2.4c-1.3-.6-2.4-1-2.6-2.5a.68.68,0,0,0-.7-.7,5.43,5.43,0,0,0-4.5,1.8,6,6,0,0,0-1,4.1,12.67,12.67,0,0,0,.9,4.7,16,16,0,0,0,2.9,4.4c2.6,3,5.8,5.4,8.6,8.2a13.62,13.62,0,0,1,3,3.8,17.7,17.7,0,0,1,1.5,5.9,4.92,4.92,0,0,1-.6,2.9,10.45,10.45,0,0,1-2.1,2.1c-1.8,1.3-3.8,2.4-5.2,4.2a.76.76,0,0,0,.1.9c3.2,3.7,2.5,9.2.7,13.4a12.69,12.69,0,0,1-3.2,4.7c-.8.7-2.1,1.7-3.2,1.3-1.4-.6-1.7-2.9-1.9-4.2-.2-2,.5-3.8,1.1-5.7a5.31,5.31,0,0,0-.3-4.6,5.65,5.65,0,0,0-2.2-2.4,3.86,3.86,0,0,0-2.1-.3,2.51,2.51,0,0,1-2.2-1.2,4,4,0,0,1-.4-3.2,7,7,0,0,0,.2-2.9,4.26,4.26,0,0,0-1.5-2,16.12,16.12,0,0,0-5.5-2.5c-1.9-.6-3.8-1.3-5.8-1.9a9.62,9.62,0,0,1-3.2-1.6,3.84,3.84,0,0,1-1.1-2.5,9,9,0,0,0-.8-2.8,7.52,7.52,0,0,0-1.5-1.6,35.42,35.42,0,0,1-3.5-4.2,15.79,15.79,0,0,1-2.5-4.6,3.21,3.21,0,0,1-.2-1.7,3.17,3.17,0,0,1,1.6-1.4,20.48,20.48,0,0,1,6.3-2.6,15.55,15.55,0,0,1,6-.8,12.65,12.65,0,0,0,2.8.3,8,8,0,0,0,3.4-1.1,9.88,9.88,0,0,1,3.3-1.5.72.72,0,0,0,.5-.9c0-.1-.1-.2-.2-.3a5.77,5.77,0,0,1-2.2-2.7v-.1h0v-.1h0a1.61,1.61,0,0,1,.7-.4c1.9-.7,3.9-.7,5.8-1.2a4,4,0,0,0,2.2-1.2,2.3,2.3,0,0,0,.1-2.4c-.9-1.7-3.4-1.9-5-2.3a4.56,4.56,0,0,1-2.4-1.2c-.7-.9-.1-2.3.4-3.3a.71.71,0,0,0-.3-1,.61.61,0,0,0-.8.1,6.8,6.8,0,0,1-3.6,1.5c3.6-1.4,7-3.5,9.1-6.7a.71.71,0,0,0-.3-1c-4.1-2.8-9,0-13.4-1.4-1.6-.5-4.1-1.4-4.8-3.1-.5-1.2.2-2.5.9-3.5,2-2.6,4.9-4.1,7.6-5.8,3.2-2,6.4-3.9,9.7-5.6a28.65,28.65,0,0,1,5.7-2.4,8.32,8.32,0,0,1,4.4-.4.83.83,0,0,0,.8-.3l2.4-4a1.7,1.7,0,0,1,.6-.6,79.52,79.52,0,0,1,15.7,25.8,72.44,72.44,0,0,1,2.5,7.9,6.17,6.17,0,0,0-3.1,1.6c-1.3,1.1-2.4,2.7-4.1,3.1a13.73,13.73,0,0,0-2.8.5,6.49,6.49,0,0,1-2.1.7,43.39,43.39,0,0,1-5.1,0c-1.3,0-3-.1-4,.8C248.2,1195.5,248.8,1197.4,249.2,1198.8Zm9.9,4.4Zm0-.1Zm0,.1ZM221,1143.1h-.4c-4.8.4-9.5,2.1-14.4,2.2a24.5,24.5,0,0,1-3.8-.4c-1.2-.2-2.4-.3-3.7-.4a14.47,14.47,0,0,0-3.6.1,29.92,29.92,0,0,0-3.2,1c-1.9.7-4.5,1.5-6.3,0a8.32,8.32,0,0,1-1.3-1.8,4.45,4.45,0,0,0-1.8-1.8,20.57,20.57,0,0,0-4.8-2.1,11.89,11.89,0,0,0-4.2-.2,37.35,37.35,0,0,0-8.6,2.7,75.74,75.74,0,0,1,19.8-8.6,66.29,66.29,0,0,1,19.9-2.5,63.62,63.62,0,0,1,19.3,3.8,74.72,74.72,0,0,1,15,7.4,23.22,23.22,0,0,1-3.9,1.8,9,9,0,0,1-4.6.3,34.83,34.83,0,0,1-4.4-1C224.4,1143.4,222.7,1143.2,221,1143.1Zm-35.6,24.7c3.9,2.5,11.9,6.2,9.1,12.1-1.2,2.5-4,3.8-6.6,4.5-2.1.6-4.2,1.2-5.7,2.8a23.54,23.54,0,0,0-3.7,7c-.6,1.5-1.1,3-1.7,4.5a7.67,7.67,0,0,1-1.7,2.9,8,8,0,0,1-1.6.8,24.13,24.13,0,0,1-2.5.8c-1.9.5-3.8.9-5.7,1.5-1.5.4-3.5,1-4.4,2.4-1,1.6.4,3.2,1.7,4.2a.31.31,0,0,0,.2.1,2.41,2.41,0,0,0,1,1,4.3,4.3,0,0,0,2.5.2,13.58,13.58,0,0,1,2.9-.3,7.33,7.33,0,0,1,3.5,1.2,19.43,19.43,0,0,0,3.6,1.5,21.66,21.66,0,0,0,2.5.4,2.84,2.84,0,0,1,1.3.4c.6.6.5,1.7.5,2.4.1,2.8-1.9,5.3-1.4,8.1-.8.8-1.4,1.8-2.1,2.6a7.84,7.84,0,0,1-2.6,2.2,21.66,21.66,0,0,1-2.5.4,18.15,18.15,0,0,0-3,1.1,2,2,0,0,0-1.1,1.1,2.57,2.57,0,0,0,.1,1.5,22.74,22.74,0,0,1-.2,6.9,23,23,0,0,0-.5,4.5,18,18,0,0,0,.6,3.2,15.44,15.44,0,0,1,.4,3c0,.3.1.5.1.8h0a14.62,14.62,0,0,0-1.9,1.6c-.6.5-1.1.9-1.6,1.3-1.3,1-2.8,2.3-4.4,2.7-.1,0-.2.1-.3.1h-.1c-.4-.1-.7-.2-.7-.6s.2-.8.2-1.1v-1.5c-.1-2.3.8-4.6.5-6.8s-2.1-3.9-3.7-5.4c-.7-.8-1.4-1.6-2.1-2.5s-1.5-2-2.2-2.9a11.09,11.09,0,0,1-1.7-3,20.68,20.68,0,0,1-.3-3.5,4.89,4.89,0,0,0-.8-2.9,5.48,5.48,0,0,0-2.2-1.8c-.7-.3-1.4-.5-2.1-.8-.1,0-.2-.1-.3-.1v-.1c.1-.2.2-.3.3-.5a5,5,0,0,1,2.4-1.9,8.13,8.13,0,0,0,2.9-1.2c1.1-.8,1-1.8,1.1-3a4,4,0,0,1,1.4-2.2c1-1.2,2.1-2.3,3.1-3.5.7-.9,1.5-2,1.3-3.1-.2-1.3-1.7-1.8-2.8-2a19.48,19.48,0,0,0-2.5-.2,4.27,4.27,0,0,0,.1-2.5,5.84,5.84,0,0,0-1.8-2.6c-1.9-1.6-4.2-2.4-6.2-3.8a4.43,4.43,0,0,1-1.2-1.5,18.89,18.89,0,0,1-1.1-2.5c-1-2.3-2-4.5-2.9-6.8-.6-1.5-1.2-2.9-1.8-4.4a.72.72,0,0,0-.9-.5,3.94,3.94,0,0,0-2.5,1.7,1.14,1.14,0,0,0-.8-.3,5.15,5.15,0,0,0-2,.9,56.62,56.62,0,0,1,3.2-9,67.9,67.9,0,0,1,5.5-10.3,62.8,62.8,0,0,1,17.8-2c3,.1,6,.1,9.1,0a70.62,70.62,0,0,1,9.2-.1A20.33,20.33,0,0,1,185.4,1167.8Zm-16.1,66.5Zm-24.4-7.8Zm-3.4,18.4a95.39,95.39,0,0,1-9.9-21.8,63.48,63.48,0,0,1-2.7-23.7,57.26,57.26,0,0,1,1.5-10.1,6.36,6.36,0,0,1,2-2,3.71,3.71,0,0,1-.4,1.4.69.69,0,1,0,1.2.7c.8-1.1,1.6-3,2.9-3.7,1.3,3.2,2.6,6.3,4,9.5a38.18,38.18,0,0,0,2.1,4.6,7.4,7.4,0,0,0,2.3,2c1,.6,2.1,1.2,3.1,1.8a7,7,0,0,1,2.8,2.3,3,3,0,0,1-.1,3.3.71.71,0,0,0,.3,1,.37.37,0,0,0,.3.1,11.46,11.46,0,0,1,4.1.4,1.61,1.61,0,0,1,.7.4c.1.1.2.3.1.4a6,6,0,0,1-.8,1.6l-1.8,2.1c-.6.7-1.4,1.5-2,2.3a3.81,3.81,0,0,0-.9,1.3,9.08,9.08,0,0,0-.3,2.3c-.3,1.2-2.5,1.5-3.4,1.9a6.13,6.13,0,0,0-2.9,2.6,1.55,1.55,0,0,0,.3,2.1h0a18.61,18.61,0,0,0,2.5,1,3.44,3.44,0,0,1,2.2,2.6c.2,1.4,0,2.9.3,4.3a12,12,0,0,0,2,3.9c.9,1.2,1.8,2.4,2.7,3.7a27,27,0,0,0,2.8,3.1,6.82,6.82,0,0,1,2.2,3.6,16.78,16.78,0,0,1-.4,4.4,14.77,14.77,0,0,0-.1,2.1,4.84,4.84,0,0,1,0,1.7c-.3,1.2-.2,2.1,1,2.7a3,3,0,0,0,2.6-.2,22.86,22.86,0,0,0,5.4-3.8,21.1,21.1,0,0,0,2.3-1.9,1.68,1.68,0,0,0,.2-1.8c-.1-.5-.1-1.1-.2-1.6a11.8,11.8,0,0,0-.4-2,10.62,10.62,0,0,1-.4-1.9,8.83,8.83,0,0,1,.2-2.8c.4-3.1,1-6.3.5-9.4a2.2,2.2,0,0,1-.1-.8v-.1h0a.1.1,0,0,1,.1-.1,8.73,8.73,0,0,1,3.5-1.3,7.34,7.34,0,0,0,3.2-.9,12.19,12.19,0,0,0,3.1-3.3c.3-.3.5-.7.8-1a3.74,3.74,0,0,0,.6-.7c.2-.4,0-.8,0-1.2a4.87,4.87,0,0,1,.1-1.2c.3-1.6,1.1-3,1.3-4.6.3-1.9.3-5.1-2-5.8a21.66,21.66,0,0,0-2.5-.4,12.61,12.61,0,0,1-4.2-1.6,9.38,9.38,0,0,0-4.3-1.3c-1.2,0-2.3.3-3.5.4s-1.6-.4-1.8-1.5c-.1-.6-.7-.6-1.1-.3-.2-.3-.5-.5-.6-.9a.76.76,0,0,1,.2-.9c.9-1,2.7-1.4,4-1.8,1.9-.5,3.8-.9,5.7-1.4a10.52,10.52,0,0,0,4.2-1.8,9.23,9.23,0,0,0,1.8-3c.7-1.5,1.2-3,1.7-4.4a28.75,28.75,0,0,1,1.8-4,15.28,15.28,0,0,1,1.9-3c1.5-1.7,3.9-2,5.9-2.7,2.6-.9,5.3-2.3,6.5-4.9,3.3-6.9-4.9-11.1-9.6-14-4-2.5-8.8-3.1-13.5-3.1-2.4,0-4.7.1-7.1.2s-4.7.1-7.1,0a67.53,67.53,0,0,0-14.9,1l-2.7.6c1.7-2.5,3.5-4.8,5.4-7.1a76.23,76.23,0,0,1,13.6-12.4c2.2-.7,4.3-1.4,6.4-2.3a36.49,36.49,0,0,1,6.4-2,10,10,0,0,1,4.2-.2,20,20,0,0,1,4.6,1.8,4.24,4.24,0,0,1,1.8,1.7,5.94,5.94,0,0,0,1.3,1.8,6.08,6.08,0,0,0,5.8,1.1c2.2-.5,4.4-1.8,6.7-1.8a63.62,63.62,0,0,1,7.5.8c2.6.4,5.5-.2,8-.7a78.06,78.06,0,0,1,8.2-1.4,25,25,0,0,1,5.4.7c1.5.4,3.1.7,4.6,1,3.5.4,6.5-1,9.4-2.7.6.4,1.1.8,1.7,1.2a75.32,75.32,0,0,1,9.5,8.3,2.84,2.84,0,0,0-.9,1l-2.1,3.5a7.69,7.69,0,0,0-3.7.3,33.91,33.91,0,0,0-5.3,2,112.38,112.38,0,0,0-10.7,6c-2.9,1.8-6.1,3.5-8.3,6.1a6.17,6.17,0,0,0-1.8,4.2c.1,1.8,1.6,3.1,3.1,3.9a13.16,13.16,0,0,0,3.9,1.5,13.42,13.42,0,0,0,4,.1c2.4-.2,5.1-.6,7.3.5-2.5,3.2-6.5,5.1-10.3,6.3a.72.72,0,0,0-.5.9c0,.2.2.3.3.4a6.36,6.36,0,0,0,5.7-.1,5.44,5.44,0,0,0,0,1.8,3.75,3.75,0,0,0,1.8,2.1,17.6,17.6,0,0,0,3,1,9.23,9.23,0,0,1,2.5.9.68.68,0,0,1,.4.6v.5a.37.37,0,0,1-.1.3l-.1.1-.1.1a.76.76,0,0,1-.4.2,5.64,5.64,0,0,1-1.2.4c-2,.5-4.1.4-6,1.3a1.91,1.91,0,0,0-1.3,2.2,5.63,5.63,0,0,0,1.7,2.6c-1.9.8-3.6,2.3-5.8,2.2a28.86,28.86,0,0,1-2.9-.4,17.5,17.5,0,0,0-3.2.4,28.12,28.12,0,0,0-6.8,2.1,16.92,16.92,0,0,0-2.9,1.7,3.76,3.76,0,0,0-1.5,1.8c-.4,1.5.4,3.2,1.1,4.4a33.87,33.87,0,0,0,3.4,5c.6.7,1.2,1.4,1.9,2.1a12.09,12.09,0,0,1,1.6,1.6,9.42,9.42,0,0,1,.7,3,4.32,4.32,0,0,0,1.3,2.6c1.8,1.6,4.4,2.1,6.6,2.9a58.44,58.44,0,0,1,5.9,2,8.21,8.21,0,0,1,2.5,1.6,2,2,0,0,1,.5,2.2,10.18,10.18,0,0,0-.3,3.5,4.47,4.47,0,0,0,2,2.8,4.34,4.34,0,0,0,2.5.5,2.48,2.48,0,0,1,2.1,1.1,3.58,3.58,0,0,1,1.1,2.5,6.35,6.35,0,0,1-.5,2.3,13.71,13.71,0,0,0-1,6.3c.2,1.7.7,3.8,2.3,4.8a2.28,2.28,0,0,0,1.6.4c-1.9,1.5-4,2.9-6,4.2v-1.2a.68.68,0,0,0-.7-.7c-2.2,0-4.3.8-6.5,1.2a6.43,6.43,0,0,1-4.9-.6c-1.1-.7-2-1.6-3.1-2.3a7.42,7.42,0,0,0-3.5-1c.5-1.8.7-3.9-.4-5.4-1.4-1.9-3.8-1.4-5.6-.4a3.12,3.12,0,0,0-1.6,1.6,11.76,11.76,0,0,0-.7,2,19,19,0,0,1-1.4,4,1.21,1.21,0,0,1-.5.5c-.1.1-.2.1-.4.1-.8-.2-1.5-1.2-2.1-1.9a.91.91,0,0,0-1-.3c-2.8,1.6-4.4,4.4-6.4,6.8a8.19,8.19,0,0,1-3.2,2.6,6.08,6.08,0,0,1-4.4-.1c-1.5-.6-2.5-2.1-3.6-3.3a8.49,8.49,0,0,0-4.3-2.9,7,7,0,0,0-5.1.9,9.49,9.49,0,0,1-2.1.9,8.83,8.83,0,0,1-2.8-.2c-2-.4-3.9-1.3-6-1a6.72,6.72,0,0,0-3,1.3,4.28,4.28,0,0,0-1.4,1.6,66.14,66.14,0,0,1-7.7-6.3,134,134,0,0,1-14.5-18.7Zm65,19.4c.8,1.1,2,2.3,3.4,1.9s1.8-1.8,2.2-2.9c.5-1.3.7-2.7,1.3-4a1.82,1.82,0,0,1,1-1.1c.9-.5,2.1-1.1,3.1-.8,2.2.7,1.3,4.3.7,5.8a.72.72,0,0,0,.5.9h.2a7.3,7.3,0,0,1,4.3,1.1c1.1.7,2,1.7,3.1,2.3,3.5,1.9,7.3-.3,10.9-.7a4.87,4.87,0,0,0,.1,1.2,110.45,110.45,0,0,1-18.2,9.1,55.91,55.91,0,0,1-44.3-1.5,81.67,81.67,0,0,1-9.6-5.4,3.86,3.86,0,0,1,1.5-1.6,5,5,0,0,1,2.6-.8c1.8,0,3.5.8,5.2,1.1a8.78,8.78,0,0,0,2.8.1,7.61,7.61,0,0,0,2.1-.8c1.6-.8,3-1.5,4.8-.9,3.3,1,4.4,5,7.6,6.2a7.26,7.26,0,0,0,4.6.2,7.14,7.14,0,0,0,3.4-2.3c2.5-2.3,4.1-5.3,6.7-7.1Zm66.2-48a62.4,62.4,0,0,1-6,20.7,70.3,70.3,0,0,1-12,17.1,46.83,46.83,0,0,1-3.9,3.8c2.3-4,3.6-9.5,1.8-13.9a12.29,12.29,0,0,0-1.4-2.5c2.2-2.6,6.5-3.5,7.5-7.1a11,11,0,0,0-.3-5.7,12.58,12.58,0,0,0-2.1-4.9c-2.2-2.9-5.2-5.2-7.9-7.6-2.5-2.3-5.3-4.9-5.9-8.4a11.59,11.59,0,0,1-.2-4.9c.4-1.6,1.9-2.1,3.4-2.3a4.14,4.14,0,0,0,2.3,2.7,10.09,10.09,0,0,1,1.5.7,1.12,1.12,0,0,1,.3,1.3.72.72,0,0,0,.5.9h.2a4.63,4.63,0,0,1,2.5.8,26.06,26.06,0,0,1,3,2c1.5,1,3.5,2.7,5.5,2.5s2.7-3.2,2-4.8-2.3-2.4-3.8-3.2c-.1-.1-.3-.2-.4-.3h0c.4-.3.9-.6,1.4-.9,1-.5,2-.9,3-1.3a.72.72,0,0,0,.5-.9c0-.1-.1-.2-.2-.3-2-2.1-4.6-1.6-7-.6-1.6.7-4.2,2.4-5.6.7a6.63,6.63,0,0,1-.9-1.9,3.86,3.86,0,0,1-.3-2.1c.3-.8,2-.7,2.7-.7,1.6,0,3.2.2,4.9.1a6.2,6.2,0,0,0,2.3-.4c.7-.2,1.3-.7,2-.7a6.29,6.29,0,0,0,3.3-.9c.6-.5,1.2-1,1.7-1.5a12.39,12.39,0,0,1,2.2-1.8c.5-.3,1.3-.8,1.9-.6.2.7.4,1.5.6,2.2a.43.43,0,0,0,.4.4c0,.4-.1.7-.1,1v1.7a18.41,18.41,0,0,0,.3,3.3c.3,2.1.5,4.2.7,6.3a95.61,95.61,0,0,1-.4,12Z"/></g><g class="cls-3"><path class="cls-5" d="M1726.2,1113a1.75,1.75,0,1,1-3.5-.1,1.79,1.79,0,0,1,1.8-1.8,2.12,2.12,0,0,1,1.7,1.9Z"/><path class="cls-6" d="M1834.1,891.3a2.5,2.5,0,1,1-2.5-2.5,2.48,2.48,0,0,1,2.5,2.5Z"/><path class="cls-1" d="M683.8,1437.3a5,5,0,1,1-5-5A5,5,0,0,1,683.8,1437.3Z"/><path class="cls-1" d="M1867.6,1154.2a5,5,0,1,1-5-5A5,5,0,0,1,1867.6,1154.2Z"/><path class="cls-1" d="M946,1189.3a5,5,0,1,1-5-5A5,5,0,0,1,946,1189.3Z"/><path class="cls-1" d="M1135.2,980.3a5,5,0,1,1-5-5A5,5,0,0,1,1135.2,980.3Z"/><path class="cls-1" d="M1667.5,1307.8a8.3,8.3,0,1,1-8.3-8.3,8.28,8.28,0,0,1,8.3,8.3Z"/><path class="cls-1" d="M1605.9,1013.2a2.1,2.1,0,1,1-2.1-2.1h0a2.05,2.05,0,0,1,2.1,2.1Z"/><path class="cls-1" d="M1306.2,843.1a3,3,0,1,1-3-3A3,3,0,0,1,1306.2,843.1Z"/><path class="cls-7" d="M461.8,1127.1a2.5,2.5,0,1,1-2.5,2.5,2.48,2.48,0,0,1,2.5-2.5Z"/><path class="cls-1" d="M720.3,1108.5a2.1,2.1,0,1,1-2.1,2.1h0A2.18,2.18,0,0,1,720.3,1108.5Z"/><path class="cls-1" d="M368.3,1036.1a8.3,8.3,0,1,1-8.3,8.3A8.28,8.28,0,0,1,368.3,1036.1Z"/><path class="cls-1" d="M1305.2,1164.9a5,5,0,1,1-5-5A5,5,0,0,1,1305.2,1164.9Z"/><path class="cls-1" d="M88.1,1485.3a5,5,0,1,1,5,5A5,5,0,0,1,88.1,1485.3Z"/><path class="cls-8" d="M85.1,1019.3a1.79,1.79,0,0,1-1.8,1.8h0a1.79,1.79,0,0,1-1.8-1.8h0a1.79,1.79,0,0,1,1.8-1.8h0a1.93,1.93,0,0,1,1.8,1.8Z"/><path class="cls-1" d="M200.8,1046.5a2.1,2.1,0,1,1-2.1-2.1h0a2.05,2.05,0,0,1,2.1,2.1Z"/><path class="cls-1" d="M760.5,1087.6a8.28,8.28,0,1,1-.3-11.7,8.24,8.24,0,0,1,.3,11.7Z"/><path class="cls-1" d="M399.9,1358.5a5,5,0,1,1-.3-7.1l.1.1A4.92,4.92,0,0,1,399.9,1358.5Z"/><path class="cls-1" d="M1399.3,972.9a5,5,0,1,1,2,6.8h0A5.09,5.09,0,0,1,1399.3,972.9Z"/><path class="cls-1" d="M1601.5,792.1a5.07,5.07,0,0,1,6.8-2.1,5,5,0,0,1,2.1,6.8,5.07,5.07,0,0,1-6.8,2.1h0A5,5,0,0,1,1601.5,792.1Z"/><path class="cls-1" d="M1691.8,977.9a5,5,0,1,1,2,6.8h0A5.09,5.09,0,0,1,1691.8,977.9Z"/><path class="cls-9" d="M658.7,1741.6a1.8,1.8,0,1,1-1.8-1.8,1.93,1.93,0,0,1,1.8,1.8Z"/><path class="cls-1" d="M704.4,1647.8a2.1,2.1,0,1,1-2.1-2.1h0A2.11,2.11,0,0,1,704.4,1647.8Z"/><path class="cls-1" d="M368.9,1513.3a5,5,0,0,1,6.7-2,5.16,5.16,0,0,1,2.1,6.8,5,5,0,0,1-6.8,2A5.09,5.09,0,0,1,368.9,1513.3Z"/><path class="cls-10" d="M1362.8,1676.7a1.8,1.8,0,1,1-1.8-1.8,1.93,1.93,0,0,1,1.8,1.8Z"/><path class="cls-1" d="M1774.5,1730.9a2.1,2.1,0,1,1-2.1-2.1h0a2.11,2.11,0,0,1,2.1,2.1Z"/><path class="cls-1" d="M896.7,1473a5,5,0,0,1,8.9,4.7,5,5,0,0,1-6.8,2.1h0A5.13,5.13,0,0,1,896.7,1473Z"/><path class="cls-1" d="M1373.3,1395.5a5,5,0,1,1,2,6.8h0A5.06,5.06,0,0,1,1373.3,1395.5Z"/><path class="cls-1" d="M1723,1647.6a5.07,5.07,0,0,1,6.8-2.1,5,5,0,0,1,2.1,6.8,5.07,5.07,0,0,1-6.8,2.1h0A5,5,0,0,1,1723,1647.6Z"/></g></svg>