<svg id="Слой_1" data-name="Слой 1" xmlns="http://www.w3.org/2000/svg" xmlns:xlink="http://www.w3.org/1999/xlink" viewBox="0 0 1780.36 1269.78"><defs><style>.cls-1,.cls-7{opacity:0.1;}.cls-2{fill:url(#Degradado_sin_nombre_19);}.cls-3,.cls-7{fill:#fff;}.cls-4{fill:url(#Degradado_sin_nombre_19-2);}.cls-5{fill:url(#Degradado_sin_nombre_19-3);}.cls-6{fill:url(#Degradado_sin_nombre_19-4);}.cls-8{fill:#212121;}</style><linearGradient id="Degradado_sin_nombre_19" x1="1573.74" y1="-109.93" x2="1578.77" y2="-109.93" gradientUnits="userSpaceOnUse"><stop offset="0" stop-color="#fff"/><stop offset="1" stop-color="#fbe9f5"/></linearGradient><linearGradient id="Degradado_sin_nombre_19-2" x1="989.29" y1="-8817.12" x2="994.33" y2="-8817.12" gradientTransform="translate(9154.24 1039.32) rotate(-90)" xlink:href="#Degradado_sin_nombre_19"/><linearGradient id="Degradado_sin_nombre_19-3" x1="1075.29" y1="-8671.12" x2="1080.33" y2="-8671.12" gradientTransform="translate(9154.24 1039.32) rotate(-90)" xlink:href="#Degradado_sin_nombre_19"/><linearGradient id="Degradado_sin_nombre_19-4" x1="-173.8" y1="18.07" x2="-170.27" y2="18.07" xlink:href="#Degradado_sin_nombre_19"/></defs><g class="cls-1"><path class="cls-2" d="M1578.77-109.93a2.51,2.51,0,0,1-2.51,2.52,2.52,2.52,0,0,1-2.52-2.52,2.52,2.52,0,0,1,2.52-2.52A2.51,2.51,0,0,1,1578.77-109.93Z" transform="translate(201.59 190.08)"/><path class="cls-3" d="M1085-.79a5,5,0,0,1-5,5,5,5,0,0,1-5-5,5,5,0,0,1,5-5A5,5,0,0,1,1085-.79Z" transform="translate(201.59 190.08)"/><path class="cls-3" d="M714.69-94a5,5,0,0,1-5,5,5,5,0,0,1-5-5,5,5,0,0,1,5-5A5,5,0,0,1,714.69-94Z" transform="translate(201.59 190.08)"/><path class="cls-3" d="M1328.69,165a5,5,0,1,1-5-5A5,5,0,0,1,1328.69,165Z" transform="translate(201.59 190.08)"/><path class="cls-3" d="M666.77,430.69a5,5,0,1,1-5-5A5,5,0,0,1,666.77,430.69Z" transform="translate(201.59 190.08)"/><path class="cls-3" d="M387.77,253.69a5,5,0,1,1-5-5A5,5,0,0,1,387.77,253.69Z" transform="translate(201.59 190.08)"/><path class="cls-3" d="M-183.18,1071.38a8.31,8.31,0,0,1-8.31,8.31,8.31,8.31,0,0,1-8.31-8.31,8.31,8.31,0,0,1,8.31-8.31A8.31,8.31,0,0,1-183.18,1071.38Z" transform="translate(201.59 190.08)"/><path class="cls-3" d="M1050.85-158.15a3,3,0,0,1-3,3,3,3,0,0,1-3-3,3,3,0,0,1,3-3A3,3,0,0,1,1050.85-158.15Z" transform="translate(201.59 190.08)"/><path class="cls-4" d="M337.12,45a2.52,2.52,0,1,1-2.51,2.51A2.51,2.51,0,0,1,337.12,45Z" transform="translate(201.59 190.08)"/><path class="cls-5" d="M483.12-41a2.51,2.51,0,0,1,2.52,2.51A2.52,2.52,0,0,1,483.12-36a2.51,2.51,0,0,1-2.51-2.52A2.51,2.51,0,0,1,483.12-41Z" transform="translate(201.59 190.08)"/><path class="cls-3" d="M705,94.21a2.1,2.1,0,1,1-2.09,2.09A2.1,2.1,0,0,1,705,94.21Z" transform="translate(201.59 190.08)"/><path class="cls-3" d="M260,472.21a2.1,2.1,0,1,1-2.09,2.09A2.1,2.1,0,0,1,260,472.21Z" transform="translate(201.59 190.08)"/><path class="cls-3" d="M259.68-133.08a3,3,0,0,1,3,3,3,3,0,0,1-3,3,3,3,0,0,1-3-3A3,3,0,0,1,259.68-133.08Z" transform="translate(201.59 190.08)"/><path class="cls-3" d="M-111.32-190.08a3,3,0,0,1,3,3,3,3,0,0,1-3,3,3,3,0,0,1-3-3A3,3,0,0,1-111.32-190.08Z" transform="translate(201.59 190.08)"/><path class="cls-3" d="M-201.59,552.9a5,5,0,0,1,5-5,5,5,0,0,1,5,5,5,5,0,0,1-5,5A5,5,0,0,1-201.59,552.9Z" transform="translate(201.59 190.08)"/><path class="cls-3" d="M18.41,899.9a5,5,0,1,1,5,5A5,5,0,0,1,18.41,899.9Z" transform="translate(201.59 190.08)"/><path class="cls-3" d="M1039.41,471.9a5,5,0,1,1,5,5A5,5,0,0,1,1039.41,471.9Z" transform="translate(201.59 190.08)"/><path class="cls-3" d="M962.41,242.9a5,5,0,1,1,5,5A5,5,0,0,1,962.41,242.9Z" transform="translate(201.59 190.08)"/><path class="cls-3" d="M12.41,618.9a5,5,0,1,1,5,5A5,5,0,0,1,12.41,618.9Z" transform="translate(201.59 190.08)"/><path class="cls-6" d="M-170.27,18.07A1.76,1.76,0,0,1-172,19.83a1.76,1.76,0,0,1-1.77-1.76A1.76,1.76,0,0,1-172,16.31,1.76,1.76,0,0,1-170.27,18.07Z" transform="translate(201.59 190.08)"/><path class="cls-3" d="M30.25,305.33A2.1,2.1,0,1,0,33,306.49,2.09,2.09,0,0,0,30.25,305.33Z" transform="translate(201.59 190.08)"/><path class="cls-3" d="M-125.75,303.33a2.09,2.09,0,0,0-1.16,2.72,2.09,2.09,0,0,0,2.72,1.17,2.1,2.1,0,0,0,1.17-2.73A2.1,2.1,0,0,0-125.75,303.33Z" transform="translate(201.59 190.08)"/><path class="cls-3" d="M1145.69,702a5,5,0,1,1-6.54,2.64A5,5,0,0,1,1145.69,702Z" transform="translate(201.59 190.08)"/><path class="cls-3" d="M1547.69,278a5,5,0,1,1-6.54,2.64A5,5,0,0,1,1547.69,278Z" transform="translate(201.59 190.08)"/><path class="cls-3" d="M523.69,654a5,5,0,1,1-6.54,2.64A5,5,0,0,1,523.69,654Z" transform="translate(201.59 190.08)"/></g><path class="cls-7" d="M-22-50.27a.58.58,0,0,1-.19,0l-6.07-2.43-.06,0c-6-3.25-7.64-12.66-5.34-19.06,1.1-3.46,3.5-6.11,5.82-8.67.86-.94,1.74-1.92,2.52-2.9l0,0a52.68,52.68,0,0,0,5.6-8.2c.75-1.27,1.53-2.58,2.37-3.88a.51.51,0,0,1,.44-.24.54.54,0,0,1,.43.26c4.6,8.06,7.35,17.14,7.35,24.29a27.47,27.47,0,0,1-3.25,12.45C-14-55.6-17-51.6-21.85-50.28Zm-5.86-3.4,5.89,2.35c4.36-1.26,7.14-5,8.71-7.9a26.43,26.43,0,0,0,3.13-12c0-6.76-2.53-15.32-6.8-23-.66,1-1.28,2.1-1.89,3.13a54.29,54.29,0,0,1-5.7,8.35c-.81,1-1.7,2-2.56,2.93-2.25,2.49-4.58,5.06-5.6,8.3v0a18.36,18.36,0,0,0-.44,10C-32.25-57.82-30.38-55.06-27.84-53.67Z" transform="translate(201.59 190.08)"/><path class="cls-7" d="M-3-46.87a.47.47,0,0,1-.17,0L-8.8-48.84A.48.48,0,0,1-9-49a13.12,13.12,0,0,1-3.38-9.87c.84-8.32,9.94-15.64,17.25-21.52,1.91-1.54,3.72-3,5.12-4.27a.51.51,0,0,1,.55-.1.53.53,0,0,1,.3.47c0,5.45-.21,13.54-2.05,21C6.61-54.61,2.7-49.08-2.86-46.9Zm-5.28-2.89,5.26,1.84c8.5-3.47,12.71-15,12.86-35.22C8.53-82,7.05-80.85,5.49-79.6c-7.16,5.77-16.07,12.94-16.87,20.83A11.93,11.93,0,0,0-8.32-49.76Z" transform="translate(201.59 190.08)"/><path class="cls-7" d="M5.21-39.1a.5.5,0,0,1-.33-.12l-1.95-1.7L2.85-41c-2-2.91-1.34-6.73-.39-9.41a23.34,23.34,0,0,1,5.06-8.24c3.67-3.67,8.34-5.34,12.85-7a42.1,42.1,0,0,0,9.81-4.51.5.5,0,0,1,.63,0,.5.5,0,0,1,.1.63,19.78,19.78,0,0,0-1.73,6.21A28.19,28.19,0,0,1,28-58.38,35.69,35.69,0,0,1,22.87-48.3C18-41.76,13.41-39.35,5.23-39.1ZM3.66-41.65,5.4-40.13C13.09-40.4,17.46-42.71,22-48.9a34.65,34.65,0,0,0,5-9.8v0a27.23,27.23,0,0,0,1.09-4.7,31.88,31.88,0,0,1,1.13-4.94,51,51,0,0,1-8.58,3.7c-4.41,1.58-9,3.22-12.47,6.72a22.15,22.15,0,0,0-4.83,7.86C2.56-47.65,1.9-44.21,3.66-41.65Z" transform="translate(201.59 190.08)"/><path class="cls-7" d="M-43.06-48.31c-6.08,0-9.16-9-10-14.53-.88-6.18-.5-12.72-.12-19,.14-2.41.29-4.9.35-7.27a.53.53,0,0,1,.22-.4.51.51,0,0,1,.46-.07c5.47,1.91,13.63,8.85,17.26,13.78,3.82,5.34,3.71,11.48,3.24,17.82a.51.51,0,0,1-.17.35l-10.44,9.23a.49.49,0,0,1-.3.12A3.93,3.93,0,0,1-43.06-48.31Zm.44-.52Zm-9.23-39.58c-.07,2.16-.2,4.4-.33,6.58-.37,6.28-.76,12.77.11,18.84.76,4.79,3.6,13.66,9,13.66h.22l10.16-9c.44-6.08.51-11.94-3.06-16.94C-39.13-79.86-46.57-86.28-51.85-88.41Z" transform="translate(201.59 190.08)"/><path class="cls-7" d="M-57.5-36.44h-.32c-4.69-.3-10.18-7.48-11.49-10.48C-72.1-53.3-74.42-61.84-76.39-73a.51.51,0,0,1,.17-.48.53.53,0,0,1,.5-.09l2.61.88c11,3.64,23.38,7.78,26.13,20.86a.49.49,0,0,1,0,.34l-6.32,12.39v0A4.77,4.77,0,0,1-57.5-36.44ZM-75.23-72.36c1.92,10.7,4.17,18.89,6.85,25,1.2,2.74,6.41,9.6,10.63,9.87a3.7,3.7,0,0,0,3.51-2.14L-48-51.82c-2.71-12.37-14.77-16.39-25.41-19.93Zm21.44,33Z" transform="translate(201.59 190.08)"/><path class="cls-7" d="M14.33-25.6a9.48,9.48,0,0,1-6.1-1.83,5.82,5.82,0,0,1-2.06-3.1.86.86,0,0,1,0-.16c.83-6.32,4.22-10.95,9.55-13,4.2-1.52,8.53-1,12.71-.58,3.94.43,8,.88,11.84-.4h.34a.51.51,0,0,1,.52.51.52.52,0,0,1-.49.51c-1.8,1.75-3.48,3.63-5.1,5.45C30.59-32.71,25.93-27.47,18.18-26A21.1,21.1,0,0,1,14.33-25.6Zm-7.14-5C7.37-30,9-25.28,18-27c7.4-1.41,12-6.52,16.78-11.94,1.27-1.42,2.57-2.88,3.95-4.3-3.46.71-7,.32-10.41-.06-4.07-.45-8.28-.91-12.24.53C11.14-40.84,8-36.54,7.19-30.65Zm-.52,0Z" transform="translate(201.59 190.08)"/><path class="cls-7" d="M16.78-11.4c-3.48,0-7.12-.73-9.92-3a.49.49,0,0,1-.19-.39v-5A6.49,6.49,0,0,1,7.75-26a14.05,14.05,0,0,1,10.87-5.11c7.34.5,21.25,2.11,28.62,3.29a.56.56,0,0,1,.38.29.52.52,0,0,1,0,.47c-3.61,6.43-15,13.22-25.28,15.14A30.7,30.7,0,0,1,16.78-11.4ZM7.7-15.08c4.07,3.22,10.08,2.94,14.43,2.14,9.73-1.81,20.35-8,24.2-14-7.51-1.17-20.7-2.68-27.77-3.16a13.12,13.12,0,0,0-10,4.7,5.42,5.42,0,0,0-.9,5.3.47.47,0,0,1,0,.17Z" transform="translate(201.59 190.08)"/><path class="cls-7" d="M-79.53-1.32A56.55,56.55,0,0,1-100.41-5.8a.54.54,0,0,1-.31-.39.49.49,0,0,1,.18-.47c1.18-1,2.39-1.94,3.55-2.84a51.52,51.52,0,0,0,7.43-6.59v0C-88.67-17-87.82-18-87-19c2.25-2.63,4.58-5.35,7.87-6.87,6.07-3.09,15.6-2.66,19.59,2.9l0,.05,3.17,5.71a.45.45,0,0,1,.06.32c-.69,4.94-4.29,8.44-7.18,10.5A27.35,27.35,0,0,1-75.38-1.57,32.59,32.59,0,0,1-79.53-1.32Zm-19.7-5.1c8.2,3.26,17,4.69,23.72,3.84A26.56,26.56,0,0,0-64-7.19c2.69-1.92,6-5.15,6.74-9.64l-3.08-5.54c-1.7-2.35-4.67-3.86-8.39-4.25a18.32,18.32,0,0,0-9.89,1.7h0c-3.09,1.43-5.35,4.07-7.53,6.62-.84,1-1.7,2-2.59,2.9a54,54,0,0,1-7.56,6.7C-97.3-8-98.27-7.21-99.23-6.42Z" transform="translate(201.59 190.08)"/><path class="cls-7" d="M-85.95,19.84a.51.51,0,0,1-.44-.25.52.52,0,0,1,0-.55c1.1-1.55,2.31-3.53,3.6-5.62,4.91-8,11-17.94,19.17-19.82A13.12,13.12,0,0,1-53.37-4.29a.49.49,0,0,1,.18.2l2.63,5.3a.47.47,0,0,1,0,.35C-52,7.34-57,11.92-65.36,15.17c-7.12,2.75-15.12,4-20.52,4.67Zm25-25.53a10.87,10.87,0,0,0-2.46.29C-71.09-3.62-77.09,6.13-81.9,14c-1,1.7-2,3.32-3,4.72,20-2.7,31-8.33,33.32-17.19l-2.48-5A12.88,12.88,0,0,0-60.91-5.69Z" transform="translate(201.59 190.08)"/><path class="cls-7" d="M-69,38a.49.49,0,0,1-.32-.12.51.51,0,0,1-.13-.63A42.32,42.32,0,0,0-66.17,27c1-4.68,2.11-9.52,5.29-13.62a23.25,23.25,0,0,1,7.53-6.07C-50.81,6-47.11,4.82-44,6.48l.1.07,1.93,1.71a.51.51,0,0,1,.17.34c.78,8.15-1,13-6.9,18.65A35.25,35.25,0,0,1-58,33.65a27.17,27.17,0,0,1-4.68,1.74,20.27,20.27,0,0,0-6,2.5A.45.45,0,0,1-69,38ZM-47.43,6.68a12.64,12.64,0,0,0-5.46,1.51A22.16,22.16,0,0,0-60.08,14c-3,3.93-4.08,8.65-5.1,13.22a49.88,49.88,0,0,1-2.59,9A31.85,31.85,0,0,1-63,34.42a26.11,26.11,0,0,0,4.51-1.68h0a34.49,34.49,0,0,0,9.11-6.23c5.54-5.31,7.29-9.94,6.59-17.61l-1.73-1.53A6.37,6.37,0,0,0-47.43,6.68Z" transform="translate(201.59 190.08)"/><path class="cls-7" d="M-66.4-24.16c-6.35,0-11.4-2.93-15.36-5.23-.8-.46-1.56-.9-2.27-1.28s-1.75-.95-2.71-1.45c-4.74-2.49-10.12-5.32-12.37-9.86a.5.5,0,0,1,0-.46.49.49,0,0,1,.38-.27c2.34-.37,4.8-.83,7.17-1.27,6.23-1.17,12.67-2.38,18.9-2.28,5.69.17,15.41,2.18,15.72,8.59a.4.4,0,0,1,0,.11l-2,11.78a.5.5,0,0,1-.34.4A22,22,0,0,1-66.4-24.16ZM-97.86-41.82c2.29,3.9,7.22,6.5,11.6,8.8,1,.5,1.87,1,2.72,1.45s1.48.83,2.29,1.3c5.12,3,12.12,7,21.34,4L-58-37.68c-.34-5.63-9.77-7.41-14.73-7.56-6.11-.1-12.5,1.1-18.69,2.26C-93.52-42.58-95.72-42.16-97.86-41.82Z" transform="translate(201.59 190.08)"/><path class="cls-7" d="M-42.39,44.85a.51.51,0,0,1-.5-.45l0-.18h0v0h0c.78-4-.17-8-1.1-11.8-1-4.09-2-8.33-1-12.67,1.4-5.57,5.56-9.51,11.73-11.13h.16a5.75,5.75,0,0,1,3.33,1.66c2.06,2,3,5.23,2.68,9.68-.49,7.88-5.1,13.17-10,18.77-1.6,1.83-3.25,3.73-4.77,5.74v0a.51.51,0,0,1-.44.5Zm9.26-35.37C-38.87,11-42.74,14.68-44,19.83-45,23.93-44,28-43,32c.81,3.35,1.64,6.8,1.37,10.32,1.23-1.54,2.51-3,3.77-4.45,4.76-5.47,9.26-10.63,9.73-18.16C-27.58,10.55-32.42,9.57-33.13,9.48Z" transform="translate(201.59 190.08)"/><path class="cls-7" d="M-22.4,48a.51.51,0,0,1-.17,0,.48.48,0,0,1-.32-.34A62.56,62.56,0,0,0-27,38c-1.9-3.87-3.69-7.52-4.45-11.35A14.07,14.07,0,0,1-27.73,15.2a6.46,6.46,0,0,1,6-1.84l5-.63a.51.51,0,0,1,.41.13c3.54,3.32,5.24,8.16,4.9,14-.46,8.1-4.84,16.75-10.63,21A.49.49,0,0,1-22.4,48Zm-.72-33.76A5.61,5.61,0,0,0-27,15.94a13.13,13.13,0,0,0-3.4,10.52c.72,3.68,2.49,7.27,4.36,11.08a69.1,69.1,0,0,1,3.94,9.09c5.28-4.25,9.21-12.28,9.64-19.82.22-3.81-.38-9.13-4.41-13l-4.81.61h-.18A5.16,5.16,0,0,0-23.12,14.24Z" transform="translate(201.59 190.08)"/><path class="cls-7" d="M15,43.5a.48.48,0,0,1-.26-.07c-1.59-1-3.72-2.07-6.18-3.35C-3,34.13-20.32,25.13-16.24,13a.53.53,0,0,1,.16-.23l10.4-8.66A.48.48,0,0,1-5.22,4C2.82,6.15,6.47,12.74,9,18.9c1.14,2.94,1.42,6.34,1.69,9.64.41,5.16.85,10.49,4.64,14.08a.51.51,0,0,1-.35.88ZM-15.31,13.41C-18.93,24.7-2.14,33.41,9,39.18c1.37.71,2.64,1.36,3.77,2C10.37,37.54,10,33,9.65,28.62,9.39,25.4,9.12,22.07,8,19.27,5.52,13.12,2.17,7.14-5.23,5Z" transform="translate(201.59 190.08)"/><path class="cls-7" d="M30.47,30.87h0c-5-.12-8.54-2.11-12.31-4.22A37.5,37.5,0,0,0,9.32,22.7C6.19,21.86-1.64,14.55-3,8.39A5.81,5.81,0,0,1-1.16,2.31L6.31-4.93a.52.52,0,0,1,.39-.14c4.89.28,9,3.16,12.67,8.8,3.11,4.84,5.44,11.07,7.49,16.57a97.83,97.83,0,0,0,4.06,9.83.5.5,0,0,1,0,.5A.51.51,0,0,1,30.47,30.87ZM6.86-4-.46,3.06l0,0A4.78,4.78,0,0,0-2,8.17C-.73,13.9,6.72,21,9.58,21.71a39,39,0,0,1,9,4c3.44,1.92,6.7,3.74,11,4.06-1.26-2.59-2.45-5.79-3.71-9.15-2-5.45-4.35-11.63-7.4-16.37C15.12-1,11.31-3.7,6.86-4ZM-.82,2.69Z" transform="translate(201.59 190.08)"/><path class="cls-7" d="M43.21,10.83a.51.51,0,0,1-.32-.12c-4-3.31-9.38-3.07-14.55-2.84-3.3.15-6.71.31-9.77-.46C12.13,5.7,5.13,2.91,2-4.79a.52.52,0,0,1,0-.47L9.27-16.67a.6.6,0,0,1,.21-.18c11.58-5.58,22.69,10.5,30,21.14,1.58,2.28,2.94,4.25,4.1,5.71a.52.52,0,0,1-.41.83ZM32.4,6.73a19.52,19.52,0,0,1,8.72,1.63c-.75-1-1.56-2.22-2.44-3.49C31.55-5.44,20.8-21,10.06-16L3-4.93C6,2.14,12.4,4.71,18.82,6.42c2.91.73,6.24.58,9.47.43C29.65,6.79,31,6.73,32.4,6.73Z" transform="translate(201.59 190.08)"/><path class="cls-8" d="M17.44-21.59A43.6,43.6,0,0,1-26.15,22a43.6,43.6,0,0,1-43.6-43.6,43.59,43.59,0,0,1,43.6-43.59A43.59,43.59,0,0,1,17.44-21.59Z" transform="translate(201.59 190.08)"/><path class="cls-7" d="M-26.15,22.52A43.83,43.83,0,0,1-57.34,9.6,43.83,43.83,0,0,1-70.26-21.59,43.83,43.83,0,0,1-57.34-52.78,43.83,43.83,0,0,1-26.15-65.7,43.8,43.8,0,0,1,5-52.78,43.83,43.83,0,0,1,18-21.59,43.83,43.83,0,0,1,5,9.6,43.8,43.8,0,0,1-26.15,22.52Zm0-87.19A43.13,43.13,0,0,0-69.24-21.59,43.13,43.13,0,0,0-26.15,21.49,43.13,43.13,0,0,0,16.93-21.59,43.13,43.13,0,0,0-26.15-64.67Z" transform="translate(201.59 190.08)"/><g class="cls-1"><path class="cls-3" d="M1482.42,597.29a100.11,100.11,0,0,0-26.84-49.3,85.14,85.14,0,0,0-43.9-23.44c-17.14-3.2-34.49-.3-50.28,6.9a99.84,99.84,0,0,0-42.52,36.66,83,83,0,0,0-12.8,54.91,99.18,99.18,0,0,0,8.82,29,113,113,0,0,0,15.83,24.91c12,14.36,28.18,25.87,46.58,30.18a71,71,0,0,0,28.34.83c9.38-1.62,18.28-5.31,26.72-9.62,15.64-8,29.9-19.18,39.93-33.72A80.67,80.67,0,0,0,1485.85,612c-.22-2.63-.56-5.25-1-7.85a10,10,0,0,0-1.4-3.73c-.29-.5-.59-1-.89-1.48a5.81,5.81,0,0,1-.89-1.4c-.11-.45-.8-.26-.7.2a6,6,0,0,1-.21,1.5c-.09.64-.18,1.28-.28,1.92a11.66,11.66,0,0,0-.28,2,17.45,17.45,0,0,0,.33,2.15q.56,3.69.79,7.41a84,84,0,0,1-.25,14.36,72.92,72.92,0,0,1-7.09,24.61c-7.38,15-19.38,27.06-33.36,36-14.86,9.53-31.93,16.87-49.91,16.11-17.67-.74-34.29-9-47.21-20.92a107.64,107.64,0,0,1-29.41-47,77.29,77.29,0,0,1-3.46-28.18,81.82,81.82,0,0,1,6.3-26.39,90.56,90.56,0,0,1,34.5-40.53c14.38-9.16,31.53-14.88,48.7-14.29a81.63,81.63,0,0,1,44.43,15.62C1459,552.49,1469.73,567.43,1476,584a107.34,107.34,0,0,1,4.23,13.92C1480.58,599.3,1482.74,598.7,1482.42,597.29Z" transform="translate(201.59 190.08)"/><path class="cls-3" d="M1480.75,596.88c-8.89,1.52-16,6.94-22.86,12.36-7.18,5.63-14.61,11-23.84,12.46a44.68,44.68,0,0,1-17.75-1.1c-7.64-1.87-15-4.75-22.44-7.38-14.86-5.28-30.38-10.74-46.39-9.85a55.19,55.19,0,0,0-22.88,6.31c-5.42,2.89-11.41,6.74-14.64,12.13a10.92,10.92,0,0,0-1.46,3.77c-.2,1.24,1.68,1.78,1.9.52.54-3,2.64-5.32,4.77-7.29a45.86,45.86,0,0,1,8.18-5.86,53.94,53.94,0,0,1,21.78-7c15.84-1.53,31.31,3.65,46,8.86,7.36,2.6,14.71,5.31,22.25,7.37a52.22,52.22,0,0,0,18.31,2c9.43-.85,17.37-5.37,24.74-11,6.73-5.16,13.34-10.9,21.73-13.08,1.08-.27,2.17-.49,3.28-.66,1.67-.25,1-2.84-.71-2.56Z" transform="translate(201.59 190.08)"/><path class="cls-3" d="M1323.68,631c.93,1.35,2.55,1.76,4.12,2a26.91,26.91,0,0,0,6.59-.08,73.76,73.76,0,0,0,12.75-2.52,36.22,36.22,0,0,0,7.58-3.39c3-1.66,6.18-3.57,8.43-6.17,1.53-1.76,3-4.37,1.45-6.58-2.07-3-6.79-3.53-10.07-3.82a49.23,49.23,0,0,0-25.78,5.23c-3.22,1.63-6.82,3.91-8.34,7.34a5.57,5.57,0,0,0-.16,4.72,7.34,7.34,0,0,0,3.76,3.22c.17.07.41-.1.28-.28-1.38-1.91-2.28-4.42-1.46-6.46.94-2.35,3.51-4.15,5.67-5.43a48.2,48.2,0,0,1,22.72-6.22c3.5-.1,7.44.12,10.63,1.72a2.88,2.88,0,0,1,1.9,2.18,3.9,3.9,0,0,1-1.27,2.63,29.73,29.73,0,0,1-7.45,5.68,42.13,42.13,0,0,1-7.15,3.47,65.3,65.3,0,0,1-11.22,2.54c-3.9.6-8.56,1.21-12.29-.44C1324,630.12,1323.37,630.53,1323.68,631Z" transform="translate(201.59 190.08)"/><path class="cls-3" d="M1423.26,614.67c1.86,4.07,7.77,2.9,11.12,1.74,4-1.38,8.64-3.92,10.59-7.9s-1.52-7-5.18-7.61a20.51,20.51,0,0,0-13.69,2.63c-2,1.19-4,2.88-4.81,5.17a5.09,5.09,0,0,0-.06,3.16,7.1,7.1,0,0,0,2,2.84c.14.14.32,0,.25-.19-1.41-3.22.41-6.46,3.11-8.25a20.05,20.05,0,0,1,11.1-3.11c2.32,0,6.63.87,6,4.09a7.74,7.74,0,0,1-2.84,3.91,21.71,21.71,0,0,1-5.41,3.31,17.78,17.78,0,0,1-6.68,1.63,7.82,7.82,0,0,1-5.25-1.61A.16.16,0,0,0,1423.26,614.67Z" transform="translate(201.59 190.08)"/><path class="cls-3" d="M1308.69,618.43a26.59,26.59,0,0,1,8.07-9.78,45.29,45.29,0,0,1,12.64-6.24,90.78,90.78,0,0,1,29-4.12,71.85,71.85,0,0,1,13.1,1.15c7.55,1.47,14.75,4.33,22.32,5.7a37.69,37.69,0,0,0,10.33.65,43.8,43.8,0,0,0,9.91-2.25c6.53-2.23,12.72-5.49,19.49-7,15.66-3.46,31.76,3.88,47.29-1.09a1,1,0,0,0-.55-2c-14.19,3.86-28.74-1.69-43.09,0-7,.8-13.3,3.64-19.72,6.25-6.68,2.72-13.42,4.7-20.7,3.77-7.68-1-15-3.87-22.49-5.59a71.24,71.24,0,0,0-14.41-1.68,95.34,95.34,0,0,0-29.34,3.65c-8.55,2.57-17.56,7-22.14,15a15.5,15.5,0,0,0-1.23,2.9.83.83,0,0,0,1.51.63Z" transform="translate(201.59 190.08)"/><path class="cls-3" d="M1307.31,610.5a15.76,15.76,0,0,0,2.43-2.47c.8-1,1.58-2,2.45-3a39.57,39.57,0,0,1,5.52-5,55.47,55.47,0,0,1,13.16-7.17,80.09,80.09,0,0,1,30-5.13c12.46.21,24.66,3.19,37.06,4.06a78.11,78.11,0,0,0,19-.85c6.87-1.22,13.32-3.86,20.35-4.24,7.5-.4,14.9,1.17,22.1,3.12a92.5,92.5,0,0,0,9.3,2.38,22.72,22.72,0,0,0,10.35-.86,1.34,1.34,0,0,0-.72-2.59,25.15,25.15,0,0,1-9.19.5,72.12,72.12,0,0,1-8.55-2.12c-6.51-1.72-13.24-3.17-20-3.23a50.27,50.27,0,0,0-9.48.85c-3.52.65-6.87,1.82-10.32,2.7a69.25,69.25,0,0,1-20,2c-12.77-.52-25.28-3.65-38.06-4.17a83.1,83.1,0,0,0-30.29,4.35,57.15,57.15,0,0,0-15.46,7.88,42.53,42.53,0,0,0-6.24,5.6,36.47,36.47,0,0,0-2.62,3.22,9,9,0,0,0-1.56,3.69.45.45,0,0,0,.74.43Z" transform="translate(201.59 190.08)"/><path class="cls-3" d="M1477,582.16c-1.22-.31-2.31-.85-3.5-1.22-1.36-.42-2.76-.76-4.13-1.13-2.88-.77-5.73-1.63-8.58-2.5-2.68-.81-5.36-1.63-8.07-2.34-3.13-.83-6.35-1.39-9.53-2.06-13-2.77-26.15-5.63-39.46-6.45-24-1.49-48.74,2.21-70.87,11.65A60.56,60.56,0,0,0,1325,582a69.14,69.14,0,0,0-6.84,4.83,49.42,49.42,0,0,0-6.08,5.58,13.5,13.5,0,0,0-3.29,5.28,1.21,1.21,0,0,0,2.33.64,13.76,13.76,0,0,1,3-4.3,49.21,49.21,0,0,1,5.37-4.83,60.49,60.49,0,0,1,12.24-7.55,140,140,0,0,1,33.91-10.34,162,162,0,0,1,35.11-2.32c13,.56,25.71,3.16,38.38,5.8,6.64,1.39,13.22,2.76,19.72,4.71,3.06.91,6.11,1.85,9.2,2.68,1.51.41,3,.75,4.59,1a30.19,30.19,0,0,0,4.15.14.59.59,0,0,0,.16-1.15Z" transform="translate(201.59 190.08)"/><path class="cls-3" d="M1407,573.08c-2.46-1.27-5.6-1.34-8.32-1.46a51.05,51.05,0,0,0-9.08.39,28,28,0,0,0-7.49,1.86c-1.55.67-3.31,1.69-3.91,3.38s.41,3.4,1.49,4.72a14.85,14.85,0,0,0,8.63,4.9c7.07,1.47,15.31.59,21.61-3.06,2.09-1.21,4.92-3.24,4.68-6a4.53,4.53,0,0,0-2.1-3.16,11.28,11.28,0,0,0-2.44-1.26,6.33,6.33,0,0,0-1.62-.55,4.05,4.05,0,0,0-1.74.53c-.07,0-.15.12-.08.2.47.62.79,1.24,1.54,1.52a15.26,15.26,0,0,1,2.35,1c.71.4,1.68,1,1.83,1.87.26,1.56-2.19,3.09-3.34,3.78-5.47,3.31-12.46,4.13-18.73,3.42a16.77,16.77,0,0,1-8.75-3.54c-1.11-.87-2.59-2.28-2.07-3.86.46-1.39,2.13-2.18,3.37-2.68a26.94,26.94,0,0,1,6.63-1.58,54.86,54.86,0,0,1,9-.34c2.79.11,5.54.77,8.32.83A.5.5,0,0,0,1407,573.08Z" transform="translate(201.59 190.08)"/><path class="cls-3" d="M1310.85,589.28c4-10.08,11.81-18.94,20.88-24.77a53.44,53.44,0,0,1,15-6.72,49.07,49.07,0,0,1,17.24-1.34c11.92,1,23.4,5.09,35.4,5.48,10.5.33,20.6-3.23,30.81-5.16a77.56,77.56,0,0,1,17-1.64,32.12,32.12,0,0,1,7.91,1.17,44.89,44.89,0,0,1,6.93,2.94,1,1,0,0,0,1.2-1.55c-3.15-3.6-8.45-4.76-13-5.29a59.55,59.55,0,0,0-15.49.57c-5.27.77-10.47,1.95-15.65,3.16s-10.26,2.59-15.54,2.85c-12.47.62-24.47-3.53-36.72-5.05a54.28,54.28,0,0,0-18.16.52,51.68,51.68,0,0,0-15.53,6.32c-10.63,6.37-19.91,16.06-23.13,28.27a.44.44,0,0,0,.85.24Z" transform="translate(201.59 190.08)"/><path class="cls-3" d="M1311.35,589.11c2-2.32,3.72-4.77,5.8-7a55.67,55.67,0,0,1,6.17-5.72,51.74,51.74,0,0,1,13.83-7.76c9.82-3.7,20.48-4.61,30.9-4.77,11-.17,22,.6,32.94.67a154.06,154.06,0,0,0,15.64-.6c5.22-.51,10.38-1.42,15.6-1.92,11.88-1.14,26.73-1.67,36.12,7.07,1.15,1.07,2.88-.64,1.73-1.73-8.47-8.12-21.25-8.84-32.34-8.16-5.54.34-11,1.1-16.53,1.87a129.9,129.9,0,0,1-16,1.17c-11.19.18-22.36-.6-33.55-.6-10.82,0-21.72.78-32.08,4.14A54.4,54.4,0,0,0,1313,584.33a28.26,28.26,0,0,0-2.66,4c-.32.6.5,1.32,1,.76Z" transform="translate(201.59 190.08)"/><path class="cls-3" d="M1454.37,564.12a32.93,32.93,0,0,0-10.94-.06,4.27,4.27,0,0,0-2.8,1.4,2,2,0,0,0,.68,2.46,17.43,17.43,0,0,0,5.13,2.85,20.21,20.21,0,0,0,3.24.9,45.07,45.07,0,0,0,4.89.86,8.64,8.64,0,0,0,3.92-.18,4,4,0,0,0,2.13-5.3,6,6,0,0,0-2.5-2.29,6.28,6.28,0,0,0-1.78-.67,3.11,3.11,0,0,0-1,0,10.42,10.42,0,0,1-1.12,0,.61.61,0,0,0-.16,1.19,3.79,3.79,0,0,1,.71.26c.21.12.38.31.58.44a14.53,14.53,0,0,0,1.4.62,4.85,4.85,0,0,1,1.79,1.28,1.39,1.39,0,0,1,.33.73,1.68,1.68,0,0,1-.16.69,3.82,3.82,0,0,1-.77.93c-.26.25.12-.08-.06.06l-.08,0c-.2.11.23-.07,0,0a3.27,3.27,0,0,1-1.21.2,16.82,16.82,0,0,1-1.88,0,35.6,35.6,0,0,1-4.12-.48,21.16,21.16,0,0,1-7.57-2.52,4.13,4.13,0,0,1-1.23-1,.71.71,0,0,1-.13-.24c-.05-.17,0,0,0-.09v0c0,.08.09-.13,0-.08l.12-.12a2,2,0,0,1,.4-.25,5.29,5.29,0,0,1,1.29-.43,20.52,20.52,0,0,1,4.63-.42,42,42,0,0,1,5.92.4C1454.8,565.39,1455.13,564.23,1454.37,564.12Z" transform="translate(201.59 190.08)"/><path class="cls-3" d="M1310.57,637.92c3.37,3.13,8.16,4.28,12.65,4.47a49.17,49.17,0,0,0,15.18-2.21c10.11-2.81,19.53-7.47,29.48-10.73,13.48-4.41,27.53-1.54,41.12.62a101.84,101.84,0,0,0,21,1.64,71.18,71.18,0,0,0,18.46-3.35,87.63,87.63,0,0,0,34.81-21.89c.89-.89-.43-2.17-1.36-1.36-9.33,8.08-19.16,15.59-30.8,20a68.8,68.8,0,0,1-17.71,4.22,85.77,85.77,0,0,1-20.31-.72c-13.75-1.93-27.52-5.24-41.38-2.19a86.79,86.79,0,0,0-13.51,4.7c-5,2-9.9,4-15,5.75-5.56,1.91-11.36,3.56-17.26,3.87a24.63,24.63,0,0,1-14.8-3.6.49.49,0,0,0-.59.76Z" transform="translate(201.59 190.08)"/><path class="cls-3" d="M1314.17,647.45c21.93,8.27,43.32-7.11,64.69-9.88,13-1.69,26.21-1.14,39.27-.82,12.26.3,25.2.57,36.87-3.74a67,67,0,0,0,15.3-8.22,86.22,86.22,0,0,0,13.58-11.33c.86-.92-.28-2.63-1.41-1.83-4.2,3-7.94,6.56-12.08,9.61a70.75,70.75,0,0,1-13.26,7.89c-11,4.88-23.33,5.07-35.16,5.22-13,.15-25.93-.68-38.86.54a87.48,87.48,0,0,0-17.12,3.37c-5.19,1.57-10.27,3.47-15.42,5.19a88.08,88.08,0,0,1-17.35,4.31,51,51,0,0,1-18.73-1.47.6.6,0,0,0-.32,1.16Z" transform="translate(201.59 190.08)"/><path class="cls-3" d="M1357.93,651.27c-.06,3.57,3.36,5.26,6.37,6.08a39.77,39.77,0,0,0,12.73.93c7-.42,14.13-1.52,20.56-4.51,3-1.38,7.63-4.09,6.52-8.08-.83-3-3.78-4.28-6.49-5a41.47,41.47,0,0,0-10.88-1.15A80.29,80.29,0,0,0,1374,640.6a36.89,36.89,0,0,0-10.84,3.07c-1.3.66-2.93,1.52-3.67,2.82a5.17,5.17,0,0,0-.45,1.86c.09-.45-.21.26-.27.41a5,5,0,0,0-.26.83,5.27,5.27,0,0,0-.07,1.68c.06.53.86.55.84,0a4.7,4.7,0,0,1,.78-2.7l-.47.27a6.17,6.17,0,0,0,2.76-1.58,16.14,16.14,0,0,1,3.56-2,41.92,41.92,0,0,1,9.65-2.75,57.81,57.81,0,0,1,20.49.11c2.14.42,4.57,1,5.74,2.86,2,3.16-3,5.56-5.18,6.57-5.39,2.45-11.36,3.23-17.2,3.57a52.88,52.88,0,0,1-12.51-.4c-2.62-.48-6.08-1.49-7.17-4.2A.91.91,0,0,0,1357.93,651.27Z" transform="translate(201.59 190.08)"/><path class="cls-3" d="M1318.2,653.8c5.41,3.39,12.13,1.57,18.07,1.15a26.53,26.53,0,0,1,9.33,1,92.51,92.51,0,0,1,9.14,3.21c6,2.4,11.94,5,18.33,6.23a42.57,42.57,0,0,0,18.58-.89,56.71,56.71,0,0,0,16.53-7.76c2.72-1.8,5.23-3.82,8.08-5.45a54.58,54.58,0,0,1,8-3.75,69,69,0,0,1,8.6-2.54c2.78-.65,5.6-1,8.38-1.69a90.93,90.93,0,0,0,15-5,82.08,82.08,0,0,0,16.45-9.3c4.63-3.44,9.36-7.65,11.66-13.07.27-.63-.49-1.42-1-.81a83.1,83.1,0,0,1-11.24,10.71,78.27,78.27,0,0,1-14,8.41,91.07,91.07,0,0,1-14.83,5.59c-5.3,1.48-10.76,2.13-16,3.78a59.56,59.56,0,0,0-15.78,7.6c-2.6,1.77-5,3.72-7.72,5.35a53.81,53.81,0,0,1-8.24,4.14,42.28,42.28,0,0,1-17.85,3c-6.41-.44-12.5-2.68-18.45-5-3.24-1.25-6.47-2.52-9.78-3.57a32.91,32.91,0,0,0-10.27-2,101.13,101.13,0,0,0-10.11,1.12,25.94,25.94,0,0,1-10.7-.7c-.11,0-.17.12-.07.18Z" transform="translate(201.59 190.08)"/><path class="cls-3" d="M1453.25,546.54a50.24,50.24,0,0,0-11.25-5.09,96.3,96.3,0,0,0-12.33-3c-9-1.59-17.72,1.13-26.24,3.63a37,37,0,0,1-10.76,2,59.44,59.44,0,0,1-10.22-1.05c-7.06-1.21-14-3-21.17-3.61-6.81-.53-15.27.13-20.1,5.64-.71.8.22,2.26,1.22,1.58a24.23,24.23,0,0,1,8.15-4,30.91,30.91,0,0,1,9.4-.6c6.94.46,13.75,2.18,20.58,3.38,6.43,1.13,13.19,2,19.57.21,8.38-2.38,16.76-5.77,25.63-5.29a62.52,62.52,0,0,1,14.15,2.95c4.34,1.3,8.58,3,12.8,4.63.8.31,1.26-.94.57-1.36Z" transform="translate(201.59 190.08)"/><path class="cls-3" d="M1329.31,559.67c1.77-1.12,3.09-2.78,4.67-4.16a27.46,27.46,0,0,1,5-3.47,31.06,31.06,0,0,1,10.93-3.38c7.81-1,15.76.25,23.39,1.93,3.82.84,7.59,1.93,11.42,2.74a51.08,51.08,0,0,0,15.11.77c9.86-.85,19.41-3.77,29.27-4.64a73,73,0,0,1,15.49.59,69.68,69.68,0,0,1,6.89,1.14c1.12.25,2.19.61,3.3.89a23.37,23.37,0,0,0,2.89.41c.51.07.65-.61.38-.92a8.72,8.72,0,0,0-4.86-2.6,63.07,63.07,0,0,0-6.55-1.26,80.42,80.42,0,0,0-13.33-1.06c-10.29.25-20.19,3.29-30.34,4.63a54.4,54.4,0,0,1-15.45.11c-4.14-.65-8.2-1.9-12.3-2.82-7.83-1.76-16-3.15-24-2.3a34.77,34.77,0,0,0-12.53,3.62,29.13,29.13,0,0,0-5.55,3.79c-1.77,1.52-3.64,3.31-4.34,5.58a.36.36,0,0,0,.53.41Z" transform="translate(201.59 190.08)"/><path class="cls-3" d="M1320.7,659.86a131.35,131.35,0,0,0,15.06,11.6,136.19,136.19,0,0,0,16,9.55c11.28,5.6,23.69,9.23,36.39,8.23,12-.94,23.7-4.5,34.63-9.39a121.92,121.92,0,0,0,30.94-19.76c4.85-4.3,8.83-9.45,13.85-13.57s10.61-7.29,15.77-11.14c1.58-1.18.23-3.73-1.58-2.71a118,118,0,0,0-13.73,9.22,70.75,70.75,0,0,0-6.87,5.83c-2,2-3.73,4.15-5.68,6.15a107.1,107.1,0,0,1-28.83,20.69,110,110,0,0,1-33.76,10.88,67.64,67.64,0,0,1-35.77-4.77,111.89,111.89,0,0,1-18.11-10c-5.9-3.87-11.46-8.27-17.48-12-.67-.41-1.44.56-.85,1.1Z" transform="translate(201.59 190.08)"/><path class="cls-3" d="M1321.64,658c3.06.31,6.11,0,9.18.46a42.06,42.06,0,0,1,8,2.14c5.3,2,10.22,4.76,15.21,7.37s10,5.21,15.49,6.6a42.78,42.78,0,0,0,18.16.44c12.64-2.32,23.9-9.14,35-15.26,9.86-5.44,20.19-9.9,30.17-15.12,11.16-5.84,22.75-12.17,31.58-21.33a.85.85,0,0,0-1.2-1.19,78.42,78.42,0,0,1-12.69,9.49c-5.09,3.23-10.37,6.2-15.7,9-9.64,5.11-19.72,9.37-29.24,14.72-11,6.21-21.92,13.29-34.27,16.67a43.55,43.55,0,0,1-18.82,1.2,58.47,58.47,0,0,1-16.15-5.72c-5.46-2.77-10.77-5.86-16.5-8.05a39.31,39.31,0,0,0-8.8-2.29c-3.1-.41-6.48-.65-9.4.57a.14.14,0,0,0,0,.28Z" transform="translate(201.59 190.08)"/><path class="cls-3" d="M1322.48,660.42c12.82.89,23.44,8.46,34.26,14.59a59.91,59.91,0,0,0,16.92,6.94c7,1.47,14.31.89,21.23-.52,14.13-2.88,27.16-10.1,39.06-18,8-5.33,16-10.77,23.91-16.18s16.07-10.81,23.89-16.49c.58-.42,1.09-1,1.69-1.4.44-.27,0-1-.4-.69-.61.37-1.35.57-2,.91s-1.52.85-2.27,1.28c-1.84,1.06-3.61,2.24-5.39,3.37-4.4,2.8-8.81,5.59-13.15,8.48q-12.62,8.4-25.18,16.89c-10.93,7.42-22.31,14.24-35,18.21-7.19,2.25-14.87,3.75-22.44,3.09-6.2-.53-12.09-2.76-17.63-5.49-10.8-5.31-20.93-13.08-33.14-14.78a35.9,35.9,0,0,0-4.38-.35c-.11,0-.1.15,0,.16Z" transform="translate(201.59 190.08)"/><path class="cls-3" d="M1338.32,682.38a33,33,0,0,0,3.28,2.15c1.29.66,2.58,1.32,3.88,2,2.32,1.16,4.65,2.29,7,3.36a145.1,145.1,0,0,0,14.49,5.69c10,3.23,20.45,4.82,30.92,3.67a104.61,104.61,0,0,0,29.76-8,71.42,71.42,0,0,0,13.42-7.5,79.87,79.87,0,0,0,11.63-10.57c4-4.27,7.76-8.74,12-12.72a74.46,74.46,0,0,1,14.85-11.23c.45-.24.13-.91-.34-.8-5.26,1.17-9.46,4.51-13.42,8a131.36,131.36,0,0,0-11,11A133.49,133.49,0,0,1,1444,678.45a62.89,62.89,0,0,1-12.55,8.45,104.67,104.67,0,0,1-29.06,9.48,70.83,70.83,0,0,1-31.25-1.58,125.58,125.58,0,0,1-16.62-5.86c-2.65-1.13-5.29-2.31-7.92-3.49-1.32-.59-2.65-1.19-4-1.8a38.2,38.2,0,0,0-4.21-1.49c-.13,0-.2.15-.09.22Z" transform="translate(201.59 190.08)"/><path class="cls-3" d="M1331.14,673.65c3.7,3.68,8.76,6,13.56,7.88a142.37,142.37,0,0,0,17.17,5.26c13.55,3.37,27.67,7.69,41.73,4.91a90.29,90.29,0,0,0,20.25-6.7,77.59,77.59,0,0,0,13.3-7.49c7.34-5.36,14.16-11.44,21-17.35,4-3.46,8.06-6.92,12.17-10.29,1.63-1.33,3.23-2.7,4.81-4.08a23.14,23.14,0,0,1,3.52-2.8.42.42,0,0,0-.43-.73,77.55,77.55,0,0,0-7.45,4.88c-3.51,2.63-6.8,5.6-10.13,8.47-7.1,6.1-14.11,12.34-21.47,18.14a87.56,87.56,0,0,1-28.89,14.89,58,58,0,0,1-22.09,2.57c-7.3-.63-14.38-2.49-21.5-4.12a166.6,166.6,0,0,1-18.61-5.31c-5.87-2.1-11.68-4.64-16.62-8.5-.25-.2-.61.12-.37.37Z" transform="translate(201.59 190.08)"/><path class="cls-3" d="M1356.53,536.5c2.87-.06,5.87-1.25,8.65-1.92,2.94-.71,6-1.15,9-1.59a187.65,187.65,0,0,1,19-1.62c9.41-.44,18.78.51,28.1,1.69,4.62.59,9.2,1.42,13.84,1.79.44,0,.5-.63.1-.75a71.89,71.89,0,0,0-11.94-2.18c-4.69-.61-9.4-1.14-14.11-1.55a133.8,133.8,0,0,0-32.6,1.37c-3.46.55-6.88,1.26-10.3,2-1.64.35-3.29.64-4.93,1a18.64,18.64,0,0,0-4.83,1.41.21.21,0,0,0,.1.38Z" transform="translate(201.59 190.08)"/><path class="cls-3" d="M1351.93,539.1c2.62.56,5.36-.28,7.94-.76a70.41,70.41,0,0,1,8.81-1.08c6.31-.38,12.67-.43,19-.46s12.89.06,19.34.18c5.66.11,11.3.19,17,.74,3.13.31,6.27.69,9.38,1.19,2.89.46,5.82,1.4,8.73,1.6a.65.65,0,0,0,.32-1.2c-2.33-1-5.09-1.33-7.6-1.74-2.67-.43-5.35-.78-8-1-5.49-.51-11-.62-16.51-.69-12.84-.15-25.65-.13-38.48.4a86.2,86.2,0,0,0-9.76.81c-1.68.26-3.36.66-5,.82s-3.25.14-4.86.24c-.54,0-.72.86-.14,1Z" transform="translate(201.59 190.08)"/><path class="cls-3" d="M1367.78,530.43c1-.09,2,0,3-.14,1.28-.18,2.56-.35,3.84-.57,2.39-.4,4.79-.81,7.2-1.14a81.62,81.62,0,0,1,13.53-.73c7.5.2,15.05.3,22.5,1.37a59,59,0,0,1,6,1.16c1.79.45,3.52,1.1,5.3,1.57a.31.31,0,0,0,.23-.56c-2.81-1.84-6.54-2.46-9.8-3a103.26,103.26,0,0,0-11.36-1.24c-8-.48-16.23-1-24.2,0-2.63.3-5.24.71-7.84,1.14-1.44.24-2.87.47-4.3.75-.63.13-1.27.23-1.9.37s-1.51.5-2.3.67c-.21.05-.17.42.06.4Z" transform="translate(201.59 190.08)"/></g><g class="cls-1"><path class="cls-3" d="M-43.19,762.32a77.11,77.11,0,0,0-20.7-38,65.7,65.7,0,0,0-33.7-18c-13.14-2.47-26.46-.28-38.58,5.21a76.7,76.7,0,0,0-32.72,28,64,64,0,0,0-10.05,42.16A75.42,75.42,0,0,0-172.31,804a86.82,86.82,0,0,0,12.1,19.26c9.2,11.12,21.6,20,35.77,23.47a54.69,54.69,0,0,0,21.66.78c7.26-1.19,14.13-4,20.67-7.31,12.07-6.11,23.1-14.7,30.87-25.88a62,62,0,0,0,10.6-40.5c-.15-1.93-.39-3.84-.69-5.75a8.93,8.93,0,0,0-.89-2.95l-.73-1.34a6.54,6.54,0,0,1-.75-1.29c-.07-.32-.55-.18-.48.13a9,9,0,0,1-.25,2.52,11.53,11.53,0,0,0,0,3.16c.3,2,.51,3.92.64,5.89a66,66,0,0,1-.17,11,56.92,56.92,0,0,1-5.43,19.07c-5.7,11.66-15,21-25.9,28-11.49,7.37-24.75,13-38.64,12.45s-26.62-7.06-36.63-16.31A83.31,83.31,0,0,1-173.18,792a61.32,61.32,0,0,1,2.23-42,70.17,70.17,0,0,1,26.85-31.47c11.12-7,24.35-11.44,37.6-11a63,63,0,0,1,34.29,12.1A70.82,70.82,0,0,1-47.93,752a83.13,83.13,0,0,1,3.25,10.71C-44.46,763.69-43,763.28-43.19,762.32Z" transform="translate(201.59 190.08)"/><path class="cls-3" d="M-170.22,804.49a39.88,39.88,0,0,1,14.38-7.68,34.26,34.26,0,0,1,13.49-.64c9,1.26,17.48,5,26.21,7.45s18.45,3.87,27.23,1.1c8.39-2.65,14.52-9.81,20.11-16.24,3.88-4.47,7.59-9.09,11.65-13.4A69.24,69.24,0,0,1-51,769.15c1.83-1.52,3.89-3.45,6.37-3.52a.91.91,0,0,0,0-1.82c-2.24,0-3.76,1-5.55,2.24a50.23,50.23,0,0,0-5.72,4.67,137.14,137.14,0,0,0-10.82,11.66c-3.27,3.86-6.58,7.66-10.1,11.3A35.2,35.2,0,0,1-87,801.53a30.58,30.58,0,0,1-12.65,2.33A58.3,58.3,0,0,1-114.18,802c-9-2.21-17.56-5.9-26.71-7.34a37.29,37.29,0,0,0-14.88.42,38.27,38.27,0,0,0-15.48,8.4c-.73.62.31,1.6,1,1Z" transform="translate(201.59 190.08)"/><path class="cls-3" d="M-172.58,799c3.79-3.83,8-7.24,13.27-8.61a35,35,0,0,1,14.49-.14c10.27,1.7,20.07,5.57,30.45,6.73a33.3,33.3,0,0,0,13.43-1.07,37.88,37.88,0,0,0,11.09-5.7c7-5.1,12.61-11.88,18.77-17.93a59.39,59.39,0,0,1,10.93-8.89,30.58,30.58,0,0,1,6.09-2.82c1.24-.4,2.49-.68,3.76-1a11.64,11.64,0,0,1,5-.42c1,.21,1.38-1.25.41-1.48-2.64-.64-5.47.09-8,.73a30.86,30.86,0,0,0-5.74,2.11A46.6,46.6,0,0,0-69,767.59c-6.68,5.84-12.28,12.81-19,18.56s-14.59,10-23.75,9.52c-5.35-.25-10.41-1.63-15.56-3s-10.39-2.92-15.69-3.92-11-1.49-16.45-.1a22.38,22.38,0,0,0-13.67,9.9.36.36,0,0,0,.56.43Z" transform="translate(201.59 190.08)"/><path class="cls-3" d="M-173.81,793.86a20.11,20.11,0,0,1,10.26-8.09,32.59,32.59,0,0,1,12.7-1.1c9,.67,17.7,3.4,26.67,4.41a36.79,36.79,0,0,0,12.64-.58,39.36,39.36,0,0,0,11.85-5.12C-92,778.55-85.56,772-78.52,766.26A62.75,62.75,0,0,1-65.83,758a37.56,37.56,0,0,1,7.27-2.55c3.78-.89,7.81,0,11.53-1A.72.72,0,0,0-47,753c-3.19-.84-7-.38-10.22,0A29,29,0,0,0-64.34,755a53.37,53.37,0,0,0-12,6.83c-7.46,5.48-13.9,12.22-21.43,17.6a43.7,43.7,0,0,1-11.72,6.22,33.2,33.2,0,0,1-13,1.42c-9.15-.73-18-3.58-27.13-4.44-4.77-.45-9.75-.35-14.32,1.27A20.87,20.87,0,0,0-175,793.16c-.45.77.7,1.42,1.19.7Z" transform="translate(201.59 190.08)"/><path class="cls-3" d="M-176.8,786.92a89.15,89.15,0,0,1,8.67-9.55A60,60,0,0,1-157.81,770a89.59,89.59,0,0,1,24.06-9.11c4.14-1,8.32-1.59,12.51-2.28A64.69,64.69,0,0,0-108.52,755c8.2-3.14,15.93-7.36,24-10.79,9.44-4,20-7,30.32-5,.86.16,1.23-1.17.36-1.33-9-1.7-18.41.15-26.86,3.33s-16.39,7.54-24.7,11.06a77.36,77.36,0,0,1-13.16,4.41c-4.27,1-8.64,1.39-12.93,2.29A93.31,93.31,0,0,0-156,767.47a62.59,62.59,0,0,0-11.8,8.08,41.42,41.42,0,0,0-9.44,11c-.16.29.25.64.48.37Z" transform="translate(201.59 190.08)"/><path class="cls-3" d="M-51.83,742.89c-4.31-.67-9,0-13.19,1a66.4,66.4,0,0,0-12,4c-8,3.49-15.44,8.19-23,12.53a92,92,0,0,1-12.2,6.21,83.08,83.08,0,0,1-12.67,3.67c-8.69,1.88-17.55,2.86-26.19,5A65.27,65.27,0,0,0-164.65,780c-4.38,2.17-8.87,5.1-11.88,9-.44.58.56,1.37,1,.79,2.78-3.57,6.89-6.22,10.89-8.25a60.76,60.76,0,0,1,12-4.43c8.39-2.22,17-3.24,25.54-4.92a98.07,98.07,0,0,0,12.61-3.26,72.12,72.12,0,0,0,11.65-5.34c7.53-4.15,14.76-8.83,22.48-12.63a74.17,74.17,0,0,1,13.24-5.13A57.58,57.58,0,0,1-60,744.37c2.69-.37,5.38-.42,8.06-.72.39,0,.57-.69.1-.76Z" transform="translate(201.59 190.08)"/><path class="cls-3" d="M-56.67,733.34c-2-2-4.84-3-7.4-4.08a54.47,54.47,0,0,0-8.53-2.69,40.54,40.54,0,0,0-17.09-.38c-11.24,2.34-20.33,10.09-31.19,13.44-7.6,2.35-15.62,3.15-23.4,4.65-7.46,1.44-15.19,3.26-21.65,7.43a26.78,26.78,0,0,0-8.51,8.63,28.38,28.38,0,0,0-2.69,6.1,23.64,23.64,0,0,0-1.26,6.65.85.85,0,0,0,1.7,0,21.3,21.3,0,0,1,1.16-5.9,26.38,26.38,0,0,1,2.23-5.25,24.24,24.24,0,0,1,7.05-7.76c6-4.28,13.4-6.17,20.54-7.59,7.54-1.51,15.2-2.47,22.65-4.41,10.36-2.7,18.88-9.44,28.9-12.95a36.22,36.22,0,0,1,19-1.28,53.15,53.15,0,0,1,9.24,2.7c2.92,1.15,5.62,3,8.62,3.87a.71.71,0,0,0,.68-1.18Z" transform="translate(201.59 190.08)"/><path class="cls-3" d="M-176.65,780.42a18.49,18.49,0,0,1,2.93-9.84,21,21,0,0,1,7.55-6.39c6.65-3.61,14.42-5.17,21.82-6.38,7.68-1.25,15.51-1.67,22.94-4.14,10.24-3.4,19.39-9.25,29.19-13.67a59.6,59.6,0,0,1,17.3-5.19,35.22,35.22,0,0,1,19.43,3.41c.79.37,1.76-.64,1-1.3-4.5-3.92-11.14-4.84-16.9-4.84s-11.37,1.56-16.61,3.54c-10.56,4-20,10.34-30.51,14.48a63,63,0,0,1-14.64,3.81c-3.35.46-6.7.87-10,1.39-7.8,1.2-15.74,2.82-22.8,6.5a24.43,24.43,0,0,0-9,7.43,15.12,15.12,0,0,0-2.45,11.29c.08.43.72.3.73-.1Z" transform="translate(201.59 190.08)"/><path class="cls-3" d="M-175.19,760.6a36.47,36.47,0,0,1,3.67-8.82,38.93,38.93,0,0,1,6.25-7.59,68.58,68.58,0,0,1,17.32-11.77,115.5,115.5,0,0,1,46.29-12,133,133,0,0,1,17.06.35c3,.26,6,.6,9,1,2.64.38,5.41,1.24,8.08.85.29,0,.3-.48.08-.61-2.21-1.3-5-1.44-7.49-1.81s-5.17-.7-7.76-1a137.72,137.72,0,0,0-15.86-.64A113.7,113.7,0,0,0-128,722.88c-13.21,3.84-26.76,9.58-37,18.93-5.2,4.73-10.21,11.47-10.7,18.72,0,.3.43.35.52.07Z" transform="translate(201.59 190.08)"/><path class="cls-3" d="M-167.21,740.32a25.6,25.6,0,0,0,2.78-2.73c1-1.06,2.1-2.06,3.2-3.05,2.18-2,4.36-3.92,6.71-5.71a90.43,90.43,0,0,1,15.43-9.49,85.19,85.19,0,0,1,35.67-8.92,68.62,68.62,0,0,1,10.53.64q2.51.36,5,.9c1.79.4,3.55,1,5.36,1.27.79.12,1.47-1,.6-1.43-2.79-1.4-6.21-1.92-9.27-2.44a70.42,70.42,0,0,0-9.5-.94,78.48,78.48,0,0,0-19,1.81,88.07,88.07,0,0,0-34.07,15.84,86,86,0,0,0-7.67,6.47c-1.19,1.14-2.29,2.38-3.4,3.6a18.51,18.51,0,0,0-2.85,3.65c-.16.31.19.79.52.53Z" transform="translate(201.59 190.08)"/><path class="cls-3" d="M-169.7,808.12c4.37,3.13,8.19,6.9,12.4,10.22A49.83,49.83,0,0,0-143.11,826c10.4,3.75,22.14,4.91,32.93,2.17,9.94-2.53,18.68-8.14,28.26-11.61a115.12,115.12,0,0,1,14.43-3.68c4.32-1,8.73-2.18,12.42-4.73,4.71-3.26,7.54-8.28,9.44-13.58a73.46,73.46,0,0,0,3.77-17.29c.07-.64-1-.75-1.11-.15-1.3,4.93-2.18,9.94-3.85,14.77s-3.92,9.62-7.67,13c-3.32,3-7.59,4.45-11.85,5.49-4.57,1.12-9.23,1.87-13.72,3.31-9.44,3-17.86,8.47-27.25,11.6-10.18,3.4-21.56,3.25-31.85.4a49,49,0,0,1-16.63-8c-4.5-3.43-8.42-7.68-13.38-10.49a.52.52,0,0,0-.53.9Z" transform="translate(201.59 190.08)"/><path class="cls-3" d="M-170.22,806.78a44.4,44.4,0,0,0,7.49,3.58c2.7,1.11,5.42,2.18,8.16,3.17a163.64,163.64,0,0,0,16.61,5c10.33,2.51,21.23,3.24,31.46,0,9.2-2.87,17.56-7.88,26.77-10.71,7.69-2.37,15.77-3.68,21.44-9.95A38.88,38.88,0,0,0-54,791.86c1.49-2.44,3.1-4.81,4.64-7.21,3.14-4.87,6.19-10.11,7.33-15.86.18-.93-1.2-1.33-1.44-.4-1.26,4.94-4,9.32-6.69,13.57-1.38,2.18-2.81,4.33-4.21,6.5-1.24,1.92-2.34,3.95-3.68,5.82a22.35,22.35,0,0,1-8.44,7.14,67.38,67.38,0,0,1-11.41,3.91c-9,2.53-17.12,7.12-25.84,10.38a49.26,49.26,0,0,1-14,3.24,68.67,68.67,0,0,1-16.31-1.27A124.74,124.74,0,0,1-152.5,813c-2.92-1-5.8-2-8.66-3.18a80.69,80.69,0,0,0-8.92-3.36.18.18,0,0,0-.14.33Z" transform="translate(201.59 190.08)"/><path class="cls-3" d="M-155.58,827.6c3.54.54,6.34,3.5,9.48,5a63.92,63.92,0,0,0,10.9,4,95.35,95.35,0,0,0,24.43,3.73,68.48,68.48,0,0,0,12.13-.92A61.91,61.91,0,0,0-88,836.55,94.39,94.39,0,0,0-69,827.27a74.19,74.19,0,0,0,9.37-7.07,38.45,38.45,0,0,0,7.55-8.41.56.56,0,0,0-.76-.76,16.94,16.94,0,0,0-3.32,3.18c-1.13,1.18-2.28,2.34-3.48,3.45a75.16,75.16,0,0,1-8.3,6.58A90.89,90.89,0,0,1-86.45,834a82.9,82.9,0,0,1-9.6,3.16,58.44,58.44,0,0,1-12.58,1.55A92.69,92.69,0,0,1-132.89,836a66,66,0,0,1-12.91-4.35c-3.22-1.53-6-4.37-9.68-4.85-.44-.06-.55.72-.1.79Z" transform="translate(201.59 190.08)"/></g></svg>