<svg id="Слой_1" data-name="Слой 1" xmlns="http://www.w3.org/2000/svg" viewBox="0 0 202.17 202.17"><defs><style>.cls-1{fill:#35e0d1;}</style></defs><path class="cls-1" d="M598.92,497.83A101.09,101.09,0,1,0,700,598.92,101.21,101.21,0,0,0,598.92,497.83Zm0,192.66a91.57,91.57,0,1,1,91.57-91.57A91.68,91.68,0,0,1,598.92,690.49Z" transform="translate(-497.83 -497.83)"/><path class="cls-1" d="M659.69,604l-11.51-23a3.59,3.59,0,0,0-3.2-2H617.85v-7.93a3.58,3.58,0,0,0-3.58-3.58H594.6a28.53,28.53,0,0,0-56.84,3.58v69.09a3.58,3.58,0,0,0,3.58,3.58h16a15.1,15.1,0,0,0,29.33,0h24.41a15.1,15.1,0,0,0,29.33,0h16a3.58,3.58,0,0,0,3.58-3.58V605.63A3.59,3.59,0,0,0,659.69,604Zm-16.93-17.84,7.93,15.86H617.85V586.19Zm-76.47-36.46a21.36,21.36,0,1,1-21.36,21.36A21.39,21.39,0,0,1,566.29,549.73ZM544.93,590a28.52,28.52,0,0,0,49.67-15.31h16.09v61.92h-24a15.1,15.1,0,0,0-29.33,0H544.93Zm27.12,58.13a7.93,7.93,0,1,1,7.93-7.93A7.94,7.94,0,0,1,572.05,648.11Zm53.73,0a7.93,7.93,0,1,1,7.93-7.93A7.94,7.94,0,0,1,625.78,648.11Zm14.67-11.52a15.09,15.09,0,0,0-22.6-9.25V609.22h35.06v27.37Z" transform="translate(-497.83 -497.83)"/><path class="cls-1" d="M566.29,574.67h8.32a3.58,3.58,0,0,0,0-7.16h-4.73v-4.74a3.59,3.59,0,0,0-7.17,0v8.32A3.58,3.58,0,0,0,566.29,574.67Z" transform="translate(-497.83 -497.83)"/></svg>