<svg id="Слой_1" data-name="Слой 1" xmlns="http://www.w3.org/2000/svg" viewBox="0 0 190.05 190.05"><defs><style>.cls-1{fill:#fff;}</style></defs><path class="cls-1" d="M-750.85,1193.85a95,95,0,0,0-134.36,0,95,95,0,0,0,0,134.35,95,95,0,0,0,134.36,0,94.94,94.94,0,0,0,0-134.35Zm-4,120.81A95.67,95.67,0,0,0-769,1304.15a153.41,153.41,0,0,0,5.73-37.07h27.93a82.09,82.09,0,0,1-19.47,47.58Zm-145.89-47.58h27.94a153.41,153.41,0,0,0,5.73,37.07,94.64,94.64,0,0,0-14.19,10.51,82.17,82.17,0,0,1-19.48-47.58Zm19.48-59.69A94.64,94.64,0,0,0-867,1217.9a153.41,153.41,0,0,0-5.73,37.07h-27.94a82.2,82.2,0,0,1,19.48-47.58Zm57.15,11.76A82.37,82.37,0,0,1-852.3,1212c5.13-13.22,14.59-29.07,28.22-33Zm0,12.13V1255h-36.58a143.05,143.05,0,0,1,4.59-31.39,94.12,94.12,0,0,0,32,7.7Zm0,35.8v23.69a94.59,94.59,0,0,0-32,7.7,143,143,0,0,1-4.59-31.39Zm0,35.82v40.15c-13.62-3.93-23.09-19.78-28.22-33a82.37,82.37,0,0,1,28.22-7.15Zm12.11,0a82.43,82.43,0,0,1,28.22,7.15c-5.14,13.22-14.6,29.07-28.22,33Zm0-12.13v-23.69h36.58a143,143,0,0,1-4.59,31.39,94.59,94.59,0,0,0-32-7.7Zm0-35.8v-23.69a94.12,94.12,0,0,0,32-7.7,143.05,143.05,0,0,1,4.59,31.39Zm0-35.82V1179c13.62,3.93,23.08,19.78,28.22,33a82.43,82.43,0,0,1-28.22,7.15Zm27.19-34.11a82.67,82.67,0,0,1,21.46,13.71,82.11,82.11,0,0,1-9.74,7.39,91.2,91.2,0,0,0-11.72-21.1Zm-78.22,21.1a82.93,82.93,0,0,1-9.74-7.39A82.84,82.84,0,0,1-851.28,1185a91.77,91.77,0,0,0-11.72,21.1Zm0,109.77a91,91,0,0,0,11.73,21.1,82.72,82.72,0,0,1-21.47-13.71,84,84,0,0,1,9.74-7.39Zm89.94,0a83.2,83.2,0,0,1,9.74,7.39A82.67,82.67,0,0,1-784.78,1337a91,91,0,0,0,11.72-21.1Zm9.78-60.94A153.41,153.41,0,0,0-769,1217.9a95.67,95.67,0,0,0,14.19-10.51A82.12,82.12,0,0,1-735.35,1255Zm0,0" transform="translate(913.05 -1166)"/></svg>