<svg id="Слой_1" data-name="Слой 1" xmlns="http://www.w3.org/2000/svg" xmlns:xlink="http://www.w3.org/1999/xlink" viewBox="0 0 634.71 396.82"><defs><style>.cls-1{fill:url(#Безымянный_градиент_7);}.cls-2{fill:url(#Безымянный_градиент_10);}.cls-3{fill:#1a2e35;}.cls-4{fill:#aa5cff;}.cls-12,.cls-5{opacity:0.4;}.cls-6{fill:#212121;}.cls-7{fill:#edbfa6;}.cls-15,.cls-8{fill:#fff;}.cls-9{fill:#e2a083;}.cls-10{fill:#ff3f68;}.cls-11{fill:#97ade2;}.cls-13,.cls-14{opacity:0.2;}.cls-15{opacity:0.5;}</style><linearGradient id="Безымянный_градиент_7" x1="62.09" y1="169.59" x2="160.33" y2="169.59" gradientUnits="userSpaceOnUse"><stop offset="0.01" stop-color="#35e0d1"/><stop offset="0.49" stop-color="#97ade2"/><stop offset="1" stop-color="#ee80f1"/></linearGradient><linearGradient id="Безымянный_градиент_10" x1="253.59" y1="510.54" x2="417.78" y2="510.54" gradientUnits="userSpaceOnUse"><stop offset="0.1" stop-color="#4057ff"/><stop offset="0.5" stop-color="#aa5cff"/><stop offset="1" stop-color="#ff3f68"/></linearGradient></defs><circle class="cls-1" cx="111.21" cy="169.59" r="49.12"/><path class="cls-2" d="M286.53,523.14c.22.86-42,41.41-31.15,50.05s56.72-13.53,95.79-45.08,74.75-69.87,65-80S357.56,468,357.56,468l5.84,3.72s29.52-18.94,38.85-11.59S385,496.18,347.41,523.6s-73.86,46.67-79.49,39.16,20.95-32.57,20.95-32.57Z" transform="translate(-222.98 -341.61)"/><path class="cls-3" d="M547.87,568.57c0,.1-1.34.63-3.45,1.71a44.75,44.75,0,0,0-7.75,5,45.48,45.48,0,0,0-6.54,6.53c-1.49,1.84-2.3,3.07-2.39,3a3.94,3.94,0,0,1,.48-.93,25.38,25.38,0,0,1,1.58-2.35,37.74,37.74,0,0,1,14.44-11.66,25.6,25.6,0,0,1,2.63-1A3.47,3.47,0,0,1,547.87,568.57Z" transform="translate(-222.98 -341.61)"/><path class="cls-3" d="M537.55,584.08s.16-.39.76-.82a4.05,4.05,0,0,1,3-.65,4.33,4.33,0,0,1,3.3,3,4.62,4.62,0,0,1-2,5.06,4.15,4.15,0,0,1-2.9.64,4.75,4.75,0,0,1-2.49-1.18,4.14,4.14,0,0,1-1.29-4.28,4.46,4.46,0,0,1,1.72-2.53,2,2,0,0,1,1-.45c0,.05-.35.19-.88.64a4.48,4.48,0,0,0-1.45,2.44,3.76,3.76,0,0,0,1.24,3.77,4,4,0,0,0,4.7.45,4.13,4.13,0,0,0,1.78-4.41,3.8,3.8,0,0,0-5.63-2.35C537.84,583.8,537.58,584.12,537.55,584.08Z" transform="translate(-222.98 -341.61)"/><rect class="cls-4" x="510.54" y="467.98" width="80.22" height="142.02" rx="23.72" transform="translate(-404.44 -42.89) rotate(-26.22)"/><rect class="cls-5" x="510.54" y="467.72" width="80.22" height="142.02" rx="23.72" transform="translate(-404.33 -42.92) rotate(-26.22)"/><path class="cls-6" d="M547.87,568.57c0,.1-1.34.63-3.45,1.71a44.75,44.75,0,0,0-7.75,5,45.48,45.48,0,0,0-6.54,6.53c-1.49,1.84-2.3,3.07-2.39,3a3.94,3.94,0,0,1,.48-.93,25.38,25.38,0,0,1,1.58-2.35,37.74,37.74,0,0,1,14.44-11.66,25.6,25.6,0,0,1,2.63-1A3.47,3.47,0,0,1,547.87,568.57Z" transform="translate(-222.98 -341.61)"/><path class="cls-6" d="M537.55,584.08s.16-.39.76-.82a4.05,4.05,0,0,1,3-.65,4.33,4.33,0,0,1,3.3,3,4.62,4.62,0,0,1-2,5.06,4.15,4.15,0,0,1-2.9.64,4.75,4.75,0,0,1-2.49-1.18,4.14,4.14,0,0,1-1.29-4.28,4.46,4.46,0,0,1,1.72-2.53,2,2,0,0,1,1-.45c0,.05-.35.19-.88.64a4.48,4.48,0,0,0-1.45,2.44,3.76,3.76,0,0,0,1.24,3.77,4,4,0,0,0,4.7.45,4.13,4.13,0,0,0,1.78-4.41,3.8,3.8,0,0,0-5.63-2.35C537.84,583.8,537.58,584.12,537.55,584.08Z" transform="translate(-222.98 -341.61)"/><path class="cls-7" d="M550,474.23c-2.22-4.41-4.18-8.36-4.18-8.36s8.3-5.09,4.69-14-13.67-28.65-13.67-28.65L517.21,423,506,444.65,527,485.89a12.9,12.9,0,0,0,17.06,5.8h0A12.9,12.9,0,0,0,550,474.23Z" transform="translate(-222.98 -341.61)"/><path class="cls-6" d="M542.45,437.28c-.1.2-1.2-.25-2.49.09s-2,1.25-2.21,1.12,0-.38.3-.8a3.2,3.2,0,0,1,1.72-1.1,3.25,3.25,0,0,1,2,.14C542.28,436.94,542.5,437.19,542.45,437.28Z" transform="translate(-222.98 -341.61)"/><path class="cls-6" d="M542,438.89a1.24,1.24,0,1,1-1.72-.74A1.34,1.34,0,0,1,542,438.89Z" transform="translate(-222.98 -341.61)"/><path class="cls-6" d="M529.15,445a1.32,1.32,0,0,1-.5,1.8,1.43,1.43,0,1,1,.5-1.8Z" transform="translate(-222.98 -341.61)"/><path class="cls-6" d="M529,442.54c0,.22-1.2.28-2.22,1.12s-1.31,2-1.53,2-.19-.34-.07-.86a3.26,3.26,0,0,1,3-2.45C528.66,442.3,529,442.44,529,442.54Z" transform="translate(-222.98 -341.61)"/><path class="cls-6" d="M538.31,451.29a8.83,8.83,0,0,1,1.83-1.17c.3-.16.58-.35.53-.61s-.31-.56-.63-.88l-2-2.08c-1.41-1.49-2.67-2.86-3.55-3.87a9.13,9.13,0,0,1-1.36-1.71,9.31,9.31,0,0,1,1.63,1.45c1,.94,2.25,2.27,3.66,3.76l2,2.11a2.22,2.22,0,0,1,.72,1.2.81.81,0,0,1-.31.67,2.16,2.16,0,0,1-.49.29A8.65,8.65,0,0,1,538.31,451.29Z" transform="translate(-222.98 -341.61)"/><path class="cls-8" d="M535.64,455a13.09,13.09,0,0,0,6.72-.77,3.67,3.67,0,0,1-3.42,3C535.87,457.43,535.64,455,535.64,455Z" transform="translate(-222.98 -341.61)"/><path class="cls-9" d="M545.83,465.79a23.9,23.9,0,0,1-13.33,1.61s5.84,5.07,14.36.56Z" transform="translate(-222.98 -341.61)"/><path class="cls-10" d="M496.67,458l.17-.08c-.58-1.69-1.35-3.9-1.57-5-3.89-20.32,10.38-31.27,13.52-32.77,3.37-1.61,8.38-6.27,21.23-1.45a42.23,42.23,0,0,1,13.14,9.28c1.78,2.39,2.35,4.16,2.25,4.2s-1-1.54-2.84-3.73a23.55,23.55,0,0,0-3.68-3.46,18.22,18.22,0,0,1,3.86,10.39l-2.07-.65-14.24,2.78c-.63-3.9-4.13-7.44-5.91-9l-.12,0c3.67,14.18-10,22.35-10,22.35l11.11,24.42C503,479.63,496.67,458,496.67,458Z" transform="translate(-222.98 -341.61)"/><path class="cls-7" d="M514.48,462.55a4,4,0,0,1-4.82,1.54,5.86,5.86,0,0,1-3.38-4.1,4.44,4.44,0,0,1,.24-3.25,4.62,4.62,0,0,1,4-1.62Z" transform="translate(-222.98 -341.61)"/><path class="cls-11" d="M564.9,433.1l-.14-.67q-.12-.69-.36-1.95c-.08-.44-.16-.92-.26-1.44s-.3-1.09-.46-1.71a31.49,31.49,0,0,0-1.37-4.18,40,40,0,0,0-5.9-10.47,41.8,41.8,0,0,0-30.17-16.15,38.93,38.93,0,0,0-5.29,0c-.89.08-1.8.09-2.7.21l-2.71.47c-.46.08-.92.13-1.37.25l-1.35.37c-.9.26-1.82.48-2.72.78a43.17,43.17,0,0,0-5.31,2.26,43.93,43.93,0,0,0-5.11,3c-.81.58-1.58,1.23-2.38,1.84a20.72,20.72,0,0,0-2.29,2,37.78,37.78,0,0,0-7.69,9.78l-.8,1.38-.67,1.45-.67,1.46a11.44,11.44,0,0,0-.6,1.5c-.35,1-.71,2-1.06,3.07s-.51,2.12-.76,3.19a41.15,41.15,0,0,0,3.05,26l1.48,2.93,1.74,2.74a10.12,10.12,0,0,0,.93,1.32l1,1.27,1,1.26,1.1,1.15a45.51,45.51,0,0,0,4.6,4.31,47.36,47.36,0,0,0,5.14,3.43,22.33,22.33,0,0,0,2.69,1.42c.93.41,1.83.86,2.75,1.23a43.84,43.84,0,0,0,5.66,1.74,43.38,43.38,0,0,0,5.69,1c.95.08,1.89.08,2.83.12l1.4.05c.46,0,.93-.05,1.39-.07l2.74-.18c.91-.09,1.8-.28,2.68-.42a39,39,0,0,0,5.15-1.21,41.81,41.81,0,0,0,25.61-22.7,39.87,39.87,0,0,0,3.31-11.55A30.61,30.61,0,0,0,565,439c0-.64.07-1.23.06-1.77l-.08-1.46c0-.86-.08-1.51-.1-2s0-.68,0-.68,0,.22.08.67.09,1.13.16,2c0,.44.07.93.11,1.47s0,1.13,0,1.77a29.07,29.07,0,0,1-.31,4.41,39.6,39.6,0,0,1-3.23,11.65,42,42,0,0,1-25.77,23,38.43,38.43,0,0,1-5.21,1.25c-.89.14-1.79.33-2.71.43l-2.78.19c-.47,0-.93.08-1.41.07l-1.41,0c-.95-.05-1.91,0-2.87-.12a45.63,45.63,0,0,1-11.5-2.72c-.94-.37-1.86-.83-2.79-1.25a22.17,22.17,0,0,1-2.73-1.43,47.74,47.74,0,0,1-5.22-3.47,46.85,46.85,0,0,1-4.67-4.37l-1.12-1.17-1-1.28-1-1.28a10.7,10.7,0,0,1-.94-1.34l-1.77-2.78-1.5-3a41.71,41.71,0,0,1-3.1-26.4l.78-3.23c.36-1,.72-2.08,1.07-3.11a10.09,10.09,0,0,1,.62-1.52l.68-1.48.68-1.48.81-1.39a48.71,48.71,0,0,1,3.53-5.33,45.45,45.45,0,0,1,4.28-4.58,21.21,21.21,0,0,1,2.32-2c.81-.62,1.59-1.28,2.42-1.86a43.72,43.72,0,0,1,5.18-3,45.55,45.55,0,0,1,5.38-2.27c.92-.31,1.85-.52,2.76-.79l1.37-.37c.46-.11.93-.17,1.39-.25l2.75-.46c.91-.12,1.83-.14,2.73-.21a38.34,38.34,0,0,1,5.36,0,42,42,0,0,1,30.4,16.44,39.5,39.5,0,0,1,5.84,10.59,29,29,0,0,1,1.33,4.22c.16.62.33,1.18.44,1.71s.16,1,.23,1.45l.3,2C564.89,432.87,564.9,433.1,564.9,433.1Z" transform="translate(-222.98 -341.61)"/><path class="cls-10" d="M498.62,430.88a5.78,5.78,0,0,0,1.28-9.2c-2.37-2.33-6.49-2.11-9.16-.12s-4,5.32-4.5,8.61a11.16,11.16,0,0,0,.45,5.68,5.79,5.79,0,0,0,4.14,3.64,6.22,6.22,0,0,0,5.61-2.46,18.46,18.46,0,0,0,2.8-5.74" transform="translate(-222.98 -341.61)"/><path class="cls-11" d="M547.06,414.88c-.08.09-1.59-1.39-4.37-3.34a42.13,42.13,0,0,0-5.1-3,42,42,0,0,0-13.85-4.2,41.48,41.48,0,0,0-5.93-.31c-3.38.07-5.46.47-5.48.35a6.76,6.76,0,0,1,1.45-.33,14.33,14.33,0,0,1,1.72-.25c.68-.07,1.44-.18,2.3-.19a37.14,37.14,0,0,1,6,.18,43.34,43.34,0,0,1,7.22,1.48,42.37,42.37,0,0,1,6.81,2.78,37.92,37.92,0,0,1,5.1,3.19c.7.49,1.28,1,1.81,1.44A16.39,16.39,0,0,1,546,413.8,7.39,7.39,0,0,1,547.06,414.88Z" transform="translate(-222.98 -341.61)"/><path class="cls-11" d="M550.76,421.11c-.16,0-.5-.91-1.15-1.93s-1.33-1.76-1.22-1.9,1,.45,1.73,1.58S550.92,421.09,550.76,421.11Z" transform="translate(-222.98 -341.61)"/><path class="cls-4" d="M506.74,495.64s50.73,93,59.11,103.37l68.45-30.48-41.5-71.2a45.82,45.82,0,0,0-36.32-22.84l-.48,0C539.74,473.47,504.28,491.1,506.74,495.64Z" transform="translate(-222.98 -341.61)"/><path class="cls-6" d="M613.56,532.94a1.91,1.91,0,0,1-.23.13l-.71.33-2.74,1.23-10.31,4.52L583.91,546l-9.45,4.09-2.5,1.08a3.35,3.35,0,0,1-2.91-.17,7,7,0,0,1-2.18-2,13.24,13.24,0,0,1-1.5-2.55l0,0c-3-4.89-6-10.21-9-15.8-2.34-4.4-4.5-8.76-6.5-13-1-2.13-2-4.22-2.85-6.3a20.58,20.58,0,0,1-1.82-6.43,9.18,9.18,0,0,1,1.62-6.14,18.5,18.5,0,0,1,4.33-4.16,53.74,53.74,0,0,1,24-9.77c1.81-.25,3.22-.36,4.18-.41l1.1,0h.37l-.37.06-1.09.09c-.95.09-2.36.24-4.16.52a54.75,54.75,0,0,0-14.66,4.52,53.68,53.68,0,0,0-9.11,5.42,18.11,18.11,0,0,0-4.19,4.06,8.61,8.61,0,0,0-1.51,5.8,20.44,20.44,0,0,0,1.79,6.25c.9,2.06,1.87,4.15,2.87,6.27,2,4.24,4.16,8.59,6.49,13,3,5.58,6,10.89,9,15.78h0l0,0a9.22,9.22,0,0,0,3.4,4.24,2.78,2.78,0,0,0,2.45.15l2.51-1.07,9.46-4,15.7-6.69,10.37-4.36,2.78-1.15.73-.28A1,1,0,0,1,613.56,532.94Z" transform="translate(-222.98 -341.61)"/><g class="cls-12"><path d="M562.86,507.27a3.19,3.19,0,1,1-3.19-3.19A3.19,3.19,0,0,1,562.86,507.27Z" transform="translate(-222.98 -341.61)"/></g><g class="cls-12"><path d="M569.24,521a3.19,3.19,0,1,1-3.19-3.19A3.18,3.18,0,0,1,569.24,521Z" transform="translate(-222.98 -341.61)"/></g><g class="cls-12"><circle cx="350.74" cy="192.68" r="3.19"/></g><path class="cls-6" d="M583.22,496.39a11.17,11.17,0,0,1-2.28,1.35c-1.45.76-3.48,1.76-5.75,2.79s-4.36,1.9-5.89,2.49a10.69,10.69,0,0,1-2.52.82,12,12,0,0,1,2.35-1.21l5.81-2.65,5.82-2.62A12,12,0,0,1,583.22,496.39Z" transform="translate(-222.98 -341.61)"/><path class="cls-6" d="M591.55,509.86a15.17,15.17,0,0,1-2.63,1.24l-6.43,2.73-6.41,2.79a15.59,15.59,0,0,1-2.71,1.06,13.71,13.71,0,0,1,2.53-1.44c1.6-.82,3.84-1.88,6.35-3s4.83-2,6.51-2.58A13,13,0,0,1,591.55,509.86Z" transform="translate(-222.98 -341.61)"/><path class="cls-6" d="M596.66,524.86a56.86,56.86,0,0,1-7.36,3.57,55.89,55.89,0,0,1-7.6,3c-.07-.15,3.22-1.75,7.36-3.57A55.89,55.89,0,0,1,596.66,524.86Z" transform="translate(-222.98 -341.61)"/><path class="cls-4" d="M522,484.78a4.68,4.68,0,0,1,1.83-5c2.81-2.32,25-7.83,25-7.83s6.09-.89,7.65,2.58Z" transform="translate(-222.98 -341.61)"/><polygon class="cls-13" points="342.87 223.49 395.17 199.19 392.37 194.39 342.87 223.49"/><path class="cls-6" d="M555.94,475.52a4,4,0,0,1-1.05.84,17.42,17.42,0,0,1-3.3,1.62c-1.46.56-3.23,1.07-5.18,1.64s-4.12,1.19-6.4,1.79a88.33,88.33,0,0,1-11.85,2.35c-1.54.18-2.79.26-3.65.29a5.65,5.65,0,0,1-1.35,0,5.53,5.53,0,0,1,1.33-.21c.86-.1,2.09-.25,3.61-.48a119.1,119.1,0,0,0,11.76-2.51l6.39-1.74c2-.55,3.74-1,5.19-1.51A26.85,26.85,0,0,0,555.94,475.52Z" transform="translate(-222.98 -341.61)"/><path class="cls-6" d="M529.92,483c-.09.14-1.21-.86-1.35-2.58s.77-2.9.88-2.78a14.78,14.78,0,0,0-.28,2.73A13.88,13.88,0,0,0,529.92,483Z" transform="translate(-222.98 -341.61)"/><path class="cls-6" d="M537.94,482a5.2,5.2,0,0,1-2-6.1c.18,0-.06,1.51.5,3.2A23.76,23.76,0,0,0,537.94,482Z" transform="translate(-222.98 -341.61)"/><path class="cls-6" d="M546.38,478.83c-.17,0-.5-1.33-1.37-2.79s-1.88-2.42-1.76-2.55,1.36.67,2.28,2.25S546.54,478.82,546.38,478.83Z" transform="translate(-222.98 -341.61)"/><path class="cls-4" d="M621.33,572.53s106.86,21,109.11,32.76-2.33,116.15-2.33,116.15l-30.87.62-3.35-90.9-128-33.48Z" transform="translate(-222.98 -341.61)"/><path class="cls-13" d="M621.33,572.53s106.86,21,109.11,32.76-2.33,116.15-2.33,116.15l-30.87.62-3.35-90.9-128-33.48Z" transform="translate(-222.98 -341.61)"/><path class="cls-4" d="M729.09,697l.13,21.34s18.33-3.71,16.83,3.68c-.62,3.06-47.77,17-48.49,16.34l-.83-30.16Z" transform="translate(-222.98 -341.61)"/><path class="cls-5" d="M729.09,697l.13,21.34s18.33-3.71,16.83,3.68c-.62,3.06-47.77,17-48.49,16.34l-.83-30.16Z" transform="translate(-222.98 -341.61)"/><path class="cls-6" d="M729,702.82a5.77,5.77,0,0,1-1.18.67c-.78.4-1.92,1-3.33,1.61-2.84,1.31-6.8,3-11.25,4.76s-8.53,3.13-11.51,4.07c-1.49.47-2.7.83-3.55,1.06a5.7,5.7,0,0,1-1.32.31,5.35,5.35,0,0,1,1.25-.53l3.48-1.24c2.94-1,7-2.51,11.43-4.23s8.42-3.38,11.3-4.59l3.4-1.43A6.1,6.1,0,0,1,729,702.82Z" transform="translate(-222.98 -341.61)"/><path class="cls-6" d="M709.72,715s0-.19.28-.39a1.53,1.53,0,0,1,1.31-.18,1.75,1.75,0,0,1,.81.51,1.83,1.83,0,0,1,.4,1.05,2.27,2.27,0,0,1-3.59,1.95,1.6,1.6,0,0,1-.61-.93,1.8,1.8,0,0,1,0-1,1.54,1.54,0,0,1,.89-1c.31-.1.48,0,.48,0s-.16.08-.38.22a1.46,1.46,0,0,0-.58.88,1.22,1.22,0,0,0,.48,1.33,1.82,1.82,0,0,0,1.8.06A1.77,1.77,0,0,0,712,716a1.21,1.21,0,0,0-.79-1.18,1.48,1.48,0,0,0-1.06,0C709.87,714.91,709.76,715,709.72,715Z" transform="translate(-222.98 -341.61)"/><path class="cls-7" d="M699.34,468.49l0-.07a163.1,163.1,0,0,0,15.83-7.53c7-4.17,6.58-4.8,6-5.53-1.67-1.95-12.5,6.87-11.27,3.63s14.49-9.25,12.66-11.22c-2.39-2.56-13.55,6.88-14.56,7.61s-2.09-.69-1.15-1.3c1.35-.88,15.34-10.44,13-13-1.29-1.41-3.61,1.14-3.61,1.14s-12.42,9.91-13.48,8.67,6-7.32,8.57-9.19,2.64-3.8.9-4.23c-1.19-.29-9.1,5.27-11.57,7.18s-9.14,7.28-8,2,0-9.85-1.15-10.86-3,.24-2.62,1.89a20,20,0,0,1-.1,5.48,13.18,13.18,0,0,1-1.25,4.22c-.77,1.54-1.48,2.82-2.12,3.89a7.62,7.62,0,0,0-.94,5.67c.88,2.86,11.2,12.91,11.2,12.91Z" transform="translate(-222.98 -341.61)"/><path class="cls-4" d="M564.64,476.47c2.39,1.79,69.36,4.08,69.36,4.08l43.69-24.61,17.48,16.71s-51,34.31-56.69,35.51-47.08,0-47.08,0Z" transform="translate(-222.98 -341.61)"/><path class="cls-4" d="M678.46,456.93l15.09,16a2.89,2.89,0,0,0,3.71.41l.1-.07a2.89,2.89,0,0,0,.48-4.4L682.65,453a2.9,2.9,0,0,0-3.52-.52h0A2.89,2.89,0,0,0,678.46,456.93Z" transform="translate(-222.98 -341.61)"/><path class="cls-5" d="M678.46,456.93l15.09,16a2.89,2.89,0,0,0,3.71.41l.1-.07a2.89,2.89,0,0,0,.48-4.4L682.65,453a2.9,2.9,0,0,0-3.52-.52h0A2.89,2.89,0,0,0,678.46,456.93Z" transform="translate(-222.98 -341.61)"/><path class="cls-6" d="M638.64,508.13a4.56,4.56,0,0,1-1-.65,17.16,17.16,0,0,1-2.37-2.2,19.44,19.44,0,0,1-3.66-20.12,17.37,17.37,0,0,1,1.44-2.91,4,4,0,0,1,.71-.95c.1.06-.87,1.46-1.76,4a20.12,20.12,0,0,0,3.59,19.7C637.32,507.07,638.72,508,638.64,508.13Z" transform="translate(-222.98 -341.61)"/><path class="cls-6" d="M689.46,467.64a2.87,2.87,0,0,1-.52.44l-1.54,1.17c-1.35,1-3.32,2.43-5.77,4.17-4.91,3.48-11.75,8.17-19.44,13.17s-14.78,9.34-20,12.41c-2.58,1.53-4.69,2.75-6.15,3.58l-1.69.93a2.36,2.36,0,0,1-.62.29,3.57,3.57,0,0,1,.55-.39l1.64-1,6-3.74c5.11-3.16,12.15-7.56,19.84-12.55s14.56-9.63,19.52-13l5.88-4,1.61-1.07A3.37,3.37,0,0,1,689.46,467.64Z" transform="translate(-222.98 -341.61)"/><path class="cls-6" d="M633.79,503.06c0,.16-8.84-.05-19.74-.48s-19.73-.91-19.73-1.08,8.85.05,19.75.48S633.8,502.89,633.79,503.06Z" transform="translate(-222.98 -341.61)"/><g class="cls-14"><path d="M603.43,508.46c-2.31-7.1-6.79-14.8-11.23-20.79s-15.58-10.7-23-10.42c10.64,4.81,24.7,19.22,29.8,31.2Z" transform="translate(-222.98 -341.61)"/></g><path class="cls-4" d="M508.45,492.66c-.42-2.1-41.92,31.53-59.36,45.77a20.62,20.62,0,0,0-7.59,16h0a20.66,20.66,0,0,0,20.65,20.65H512.7V549.43H479.76L522,521.58Z" transform="translate(-222.98 -341.61)"/><path class="cls-7" d="M519.18,572.22v-.08a161.61,161.61,0,0,0,17.44,1.7c8.11,0,8.12-.72,8-1.66-.43-2.53-14.25-.55-11.53-2.7s17.19-.46,16.63-3.09c-.73-3.43-15.16-1.09-16.4-1s-1.43-1.68-.31-1.71c1.61-.06,18.53-1,17.84-4.42-.38-1.87-3.67-.88-3.67-.88s-15.76,2.09-16,.49,8.94-3.17,12.08-3.47,4.23-1.89,3-3.16c-.87-.86-10.52-.17-13.62.2S521,554,524.67,550s5.07-8.43,4.6-9.9-2.67-1.33-3.21.27a19.91,19.91,0,0,1-2.91,4.65,13.32,13.32,0,0,1-3.25,3c-1.46.92-2.72,1.65-3.82,2.24a7.59,7.59,0,0,0-3.73,4.38c-.71,2.9,2.94,16.83,2.94,16.83Z" transform="translate(-222.98 -341.61)"/><path class="cls-6" d="M443.16,545.74a6.85,6.85,0,0,1,1.15-1.19,22.06,22.06,0,0,1,3.65-2.64,23.81,23.81,0,0,1,14.39-3.13,24.15,24.15,0,0,1,13.41,6.09,22.75,22.75,0,0,1,3,3.33,7.42,7.42,0,0,1,.89,1.39,43,43,0,0,0-4.21-4.41,24.72,24.72,0,0,0-13.2-5.8,24.28,24.28,0,0,0-14.11,2.9A39,39,0,0,0,443.16,545.74Z" transform="translate(-222.98 -341.61)"/><path class="cls-6" d="M516.11,514.19c.1.14-9.23,7-20.83,15.28s-21.08,14.92-21.18,14.78,9.23-7,20.83-15.27S516,514.06,516.11,514.19Z" transform="translate(-222.98 -341.61)"/><path class="cls-6" d="M508.64,563a2.31,2.31,0,0,1-.65.12l-1.87.2c-1.63.17-4,.38-6.91.6-5.84.46-13.91.94-22.84,1.2s-17,.25-22.88.14c-2.93,0-5.3-.12-6.93-.19l-1.89-.1a3,3,0,0,1-.65-.07,2.64,2.64,0,0,1,.66,0l1.88,0h6.93c5.85,0,13.93-.06,22.86-.32s17-.68,22.83-1l6.92-.41L508,563A2.78,2.78,0,0,1,508.64,563Z" transform="translate(-222.98 -341.61)"/><g class="cls-14"><path d="M484.26,546.58c-.16-4.09-3.4-7.64-7.27-9s-9-.12-12.82,1.39c6.07,1.76,12.27,5.17,15.66,10.5Z" transform="translate(-222.98 -341.61)"/></g><path class="cls-4" d="M508.88,550.28l.57,22a2.89,2.89,0,0,0,2.49,2.79l.12,0a2.89,2.89,0,0,0,3.29-3l-.69-22a2.9,2.9,0,0,0-2.27-2.74h0A2.9,2.9,0,0,0,508.88,550.28Z" transform="translate(-222.98 -341.61)"/><path class="cls-5" d="M508.88,550.28l.57,22a2.89,2.89,0,0,0,2.49,2.79l.12,0a2.89,2.89,0,0,0,3.29-3l-.69-22a2.9,2.9,0,0,0-2.27-2.74h0A2.9,2.9,0,0,0,508.88,550.28Z" transform="translate(-222.98 -341.61)"/><path class="cls-6" d="M518.65,524.56a24,24,0,0,0,5.49-5.34,22.57,22.57,0,0,0,3.5-7.49,25.62,25.62,0,0,0,.73-4.85,24,24,0,0,0-.4-5.23c-.67-3.52-2.36-6.77-5-8.45a13.25,13.25,0,0,0-7.9-1.84,34.27,34.27,0,0,0-5.58.83,14.69,14.69,0,0,1-2,.4,1.76,1.76,0,0,1,.51-.19c.33-.11.83-.26,1.48-.44a29.34,29.34,0,0,1,5.6-1,13.5,13.5,0,0,1,8.23,1.81,10.66,10.66,0,0,1,3.44,3.7,16.8,16.8,0,0,1,1.83,5.09,22.86,22.86,0,0,1-.39,10.34,22.59,22.59,0,0,1-3.68,7.61,18.61,18.61,0,0,1-4.06,4,14.3,14.3,0,0,1-1.3.84A2,2,0,0,1,518.65,524.56Z" transform="translate(-222.98 -341.61)"/><path class="cls-4" d="M709.92,564.61,669.83,609l-22.38-15.78,36.9-44L587,600.58a20.29,20.29,0,0,1-26.51-7.27h0a20.28,20.28,0,0,1,8.44-29L674.12,514a35.56,35.56,0,0,1,43.76,10.67h0C727.83,537.82,722.59,551.71,709.92,564.61Z" transform="translate(-222.98 -341.61)"/><path class="cls-6" d="M694.13,537a.74.74,0,0,1-.11-.2l-.3-.61a12.41,12.41,0,0,0-1.32-2.24,8.1,8.1,0,0,0-3.15-2.65,7.59,7.59,0,0,0-5.42-.25h0L629.24,559.6,582.12,584l-14.31,7.34-3.91,2-1,.5a1.5,1.5,0,0,1-.36.15,1.93,1.93,0,0,1,.33-.2l1-.56,3.85-2.07,14.22-7.51,47-24.58,54.73-28.34h0a7.8,7.8,0,0,1,5.65.33,8.17,8.17,0,0,1,3.19,2.78,11.84,11.84,0,0,1,1.26,2.31l.25.63C694.11,536.91,694.14,537,694.13,537Z" transform="translate(-222.98 -341.61)"/><path class="cls-6" d="M699,531c.13.11-3.31,4.57-7.68,10s-8,9.69-8.16,9.59,3.32-4.56,7.69-10S698.84,530.92,699,531Z" transform="translate(-222.98 -341.61)"/><path class="cls-4" d="M690.11,586.56,668.78,611.1s12.17,14.37,10.15,16.07-35.81-28.44-35.81-28.44l22.16-28.26Z" transform="translate(-222.98 -341.61)"/><path class="cls-5" d="M690.11,586.56,668.78,611.1s12.17,14.37,10.15,16.07-35.81-28.44-35.81-28.44l22.16-28.26Z" transform="translate(-222.98 -341.61)"/><path class="cls-6" d="M684.73,593.18c-.08.14-6.07-3-13.39-7s-13.17-7.43-13.09-7.58,6.07,3,13.38,7.05S684.81,593,684.73,593.18Z" transform="translate(-222.98 -341.61)"/><path class="cls-6" d="M656.6,593.75s-.11.21-.27.57a2.77,2.77,0,0,0-.15,1.62,2.69,2.69,0,0,0,1.3,1.87,2.49,2.49,0,0,0,3.3-3,2.66,2.66,0,0,0-1.76-1.45,2.7,2.7,0,0,0-1.62,0c-.38.12-.56.27-.6.22s.12-.23.5-.44a2.77,2.77,0,0,1,1.82-.22,3,3,0,0,1,2.17,1.64,3,3,0,0,1-4.07,3.76,3,3,0,0,1-1.46-2.3,2.74,2.74,0,0,1,.36-1.79C656.36,593.84,656.59,593.73,656.6,593.75Z" transform="translate(-222.98 -341.61)"/><polyline class="cls-13" points="432.95 222.66 460.61 208.04 474.94 190.71 432.95 222.66"/><circle class="cls-15" cx="96.83" cy="281.64" r="4.05"/><circle class="cls-8" cx="234.15" cy="275.39" r="2.95"/><circle class="cls-8" cx="152.42" cy="62.59" r="3.68"/><circle class="cls-15" cx="233.05" cy="77.68" r="1.84"/><circle class="cls-8" cx="350.12" cy="6.26" r="6.26"/><circle class="cls-15" cx="405.35" cy="99.77" r="2.58"/><circle class="cls-8" cx="600.47" cy="106.4" r="4.79"/><circle class="cls-8" cx="550.04" cy="181.87" r="5.89"/><circle class="cls-8" cx="508.8" cy="140.64" r="2.95"/><circle class="cls-8" cx="630.66" cy="209.48" r="4.05"/><circle class="cls-15" cx="552.61" cy="272.07" r="1.84"/><circle class="cls-8" cx="214.27" cy="161.99" r="3.68"/><circle class="cls-15" cx="503.65" cy="50.81" r="3.68"/><circle class="cls-8" cx="371.11" cy="320.3" r="2.21"/><circle class="cls-8" cx="280.91" cy="353.07" r="2.58"/><circle class="cls-8" cx="2.21" cy="138.43" r="2.21"/></svg>